G75*
%MOIN*%
%OFA0B0*%
%FSLAX25Y25*%
%IPPOS*%
%LPD*%
%AMOC8*
5,1,8,0,0,1.08239X$1,22.5*
%
%ADD10C,0.00000*%
%ADD11C,0.00800*%
D10*
X0136833Y0238933D02*
X0136835Y0239094D01*
X0136841Y0239254D01*
X0136851Y0239415D01*
X0136865Y0239575D01*
X0136883Y0239735D01*
X0136904Y0239894D01*
X0136930Y0240053D01*
X0136960Y0240211D01*
X0136993Y0240368D01*
X0137031Y0240525D01*
X0137072Y0240680D01*
X0137117Y0240834D01*
X0137166Y0240987D01*
X0137219Y0241139D01*
X0137275Y0241290D01*
X0137336Y0241439D01*
X0137399Y0241587D01*
X0137467Y0241733D01*
X0137538Y0241877D01*
X0137612Y0242019D01*
X0137690Y0242160D01*
X0137772Y0242298D01*
X0137857Y0242435D01*
X0137945Y0242569D01*
X0138037Y0242701D01*
X0138132Y0242831D01*
X0138230Y0242959D01*
X0138331Y0243084D01*
X0138435Y0243206D01*
X0138542Y0243326D01*
X0138652Y0243443D01*
X0138765Y0243558D01*
X0138881Y0243669D01*
X0139000Y0243778D01*
X0139121Y0243883D01*
X0139245Y0243986D01*
X0139371Y0244086D01*
X0139499Y0244182D01*
X0139630Y0244275D01*
X0139764Y0244365D01*
X0139899Y0244452D01*
X0140037Y0244535D01*
X0140176Y0244615D01*
X0140318Y0244691D01*
X0140461Y0244764D01*
X0140606Y0244833D01*
X0140753Y0244899D01*
X0140901Y0244961D01*
X0141051Y0245019D01*
X0141202Y0245074D01*
X0141355Y0245125D01*
X0141509Y0245172D01*
X0141664Y0245215D01*
X0141820Y0245254D01*
X0141976Y0245290D01*
X0142134Y0245321D01*
X0142292Y0245349D01*
X0142451Y0245373D01*
X0142611Y0245393D01*
X0142771Y0245409D01*
X0142931Y0245421D01*
X0143092Y0245429D01*
X0143253Y0245433D01*
X0143413Y0245433D01*
X0143574Y0245429D01*
X0143735Y0245421D01*
X0143895Y0245409D01*
X0144055Y0245393D01*
X0144215Y0245373D01*
X0144374Y0245349D01*
X0144532Y0245321D01*
X0144690Y0245290D01*
X0144846Y0245254D01*
X0145002Y0245215D01*
X0145157Y0245172D01*
X0145311Y0245125D01*
X0145464Y0245074D01*
X0145615Y0245019D01*
X0145765Y0244961D01*
X0145913Y0244899D01*
X0146060Y0244833D01*
X0146205Y0244764D01*
X0146348Y0244691D01*
X0146490Y0244615D01*
X0146629Y0244535D01*
X0146767Y0244452D01*
X0146902Y0244365D01*
X0147036Y0244275D01*
X0147167Y0244182D01*
X0147295Y0244086D01*
X0147421Y0243986D01*
X0147545Y0243883D01*
X0147666Y0243778D01*
X0147785Y0243669D01*
X0147901Y0243558D01*
X0148014Y0243443D01*
X0148124Y0243326D01*
X0148231Y0243206D01*
X0148335Y0243084D01*
X0148436Y0242959D01*
X0148534Y0242831D01*
X0148629Y0242701D01*
X0148721Y0242569D01*
X0148809Y0242435D01*
X0148894Y0242298D01*
X0148976Y0242160D01*
X0149054Y0242019D01*
X0149128Y0241877D01*
X0149199Y0241733D01*
X0149267Y0241587D01*
X0149330Y0241439D01*
X0149391Y0241290D01*
X0149447Y0241139D01*
X0149500Y0240987D01*
X0149549Y0240834D01*
X0149594Y0240680D01*
X0149635Y0240525D01*
X0149673Y0240368D01*
X0149706Y0240211D01*
X0149736Y0240053D01*
X0149762Y0239894D01*
X0149783Y0239735D01*
X0149801Y0239575D01*
X0149815Y0239415D01*
X0149825Y0239254D01*
X0149831Y0239094D01*
X0149833Y0238933D01*
X0149831Y0238772D01*
X0149825Y0238612D01*
X0149815Y0238451D01*
X0149801Y0238291D01*
X0149783Y0238131D01*
X0149762Y0237972D01*
X0149736Y0237813D01*
X0149706Y0237655D01*
X0149673Y0237498D01*
X0149635Y0237341D01*
X0149594Y0237186D01*
X0149549Y0237032D01*
X0149500Y0236879D01*
X0149447Y0236727D01*
X0149391Y0236576D01*
X0149330Y0236427D01*
X0149267Y0236279D01*
X0149199Y0236133D01*
X0149128Y0235989D01*
X0149054Y0235847D01*
X0148976Y0235706D01*
X0148894Y0235568D01*
X0148809Y0235431D01*
X0148721Y0235297D01*
X0148629Y0235165D01*
X0148534Y0235035D01*
X0148436Y0234907D01*
X0148335Y0234782D01*
X0148231Y0234660D01*
X0148124Y0234540D01*
X0148014Y0234423D01*
X0147901Y0234308D01*
X0147785Y0234197D01*
X0147666Y0234088D01*
X0147545Y0233983D01*
X0147421Y0233880D01*
X0147295Y0233780D01*
X0147167Y0233684D01*
X0147036Y0233591D01*
X0146902Y0233501D01*
X0146767Y0233414D01*
X0146629Y0233331D01*
X0146490Y0233251D01*
X0146348Y0233175D01*
X0146205Y0233102D01*
X0146060Y0233033D01*
X0145913Y0232967D01*
X0145765Y0232905D01*
X0145615Y0232847D01*
X0145464Y0232792D01*
X0145311Y0232741D01*
X0145157Y0232694D01*
X0145002Y0232651D01*
X0144846Y0232612D01*
X0144690Y0232576D01*
X0144532Y0232545D01*
X0144374Y0232517D01*
X0144215Y0232493D01*
X0144055Y0232473D01*
X0143895Y0232457D01*
X0143735Y0232445D01*
X0143574Y0232437D01*
X0143413Y0232433D01*
X0143253Y0232433D01*
X0143092Y0232437D01*
X0142931Y0232445D01*
X0142771Y0232457D01*
X0142611Y0232473D01*
X0142451Y0232493D01*
X0142292Y0232517D01*
X0142134Y0232545D01*
X0141976Y0232576D01*
X0141820Y0232612D01*
X0141664Y0232651D01*
X0141509Y0232694D01*
X0141355Y0232741D01*
X0141202Y0232792D01*
X0141051Y0232847D01*
X0140901Y0232905D01*
X0140753Y0232967D01*
X0140606Y0233033D01*
X0140461Y0233102D01*
X0140318Y0233175D01*
X0140176Y0233251D01*
X0140037Y0233331D01*
X0139899Y0233414D01*
X0139764Y0233501D01*
X0139630Y0233591D01*
X0139499Y0233684D01*
X0139371Y0233780D01*
X0139245Y0233880D01*
X0139121Y0233983D01*
X0139000Y0234088D01*
X0138881Y0234197D01*
X0138765Y0234308D01*
X0138652Y0234423D01*
X0138542Y0234540D01*
X0138435Y0234660D01*
X0138331Y0234782D01*
X0138230Y0234907D01*
X0138132Y0235035D01*
X0138037Y0235165D01*
X0137945Y0235297D01*
X0137857Y0235431D01*
X0137772Y0235568D01*
X0137690Y0235706D01*
X0137612Y0235847D01*
X0137538Y0235989D01*
X0137467Y0236133D01*
X0137399Y0236279D01*
X0137336Y0236427D01*
X0137275Y0236576D01*
X0137219Y0236727D01*
X0137166Y0236879D01*
X0137117Y0237032D01*
X0137072Y0237186D01*
X0137031Y0237341D01*
X0136993Y0237498D01*
X0136960Y0237655D01*
X0136930Y0237813D01*
X0136904Y0237972D01*
X0136883Y0238131D01*
X0136865Y0238291D01*
X0136851Y0238451D01*
X0136841Y0238612D01*
X0136835Y0238772D01*
X0136833Y0238933D01*
X0136833Y0318933D02*
X0136835Y0319094D01*
X0136841Y0319254D01*
X0136851Y0319415D01*
X0136865Y0319575D01*
X0136883Y0319735D01*
X0136904Y0319894D01*
X0136930Y0320053D01*
X0136960Y0320211D01*
X0136993Y0320368D01*
X0137031Y0320525D01*
X0137072Y0320680D01*
X0137117Y0320834D01*
X0137166Y0320987D01*
X0137219Y0321139D01*
X0137275Y0321290D01*
X0137336Y0321439D01*
X0137399Y0321587D01*
X0137467Y0321733D01*
X0137538Y0321877D01*
X0137612Y0322019D01*
X0137690Y0322160D01*
X0137772Y0322298D01*
X0137857Y0322435D01*
X0137945Y0322569D01*
X0138037Y0322701D01*
X0138132Y0322831D01*
X0138230Y0322959D01*
X0138331Y0323084D01*
X0138435Y0323206D01*
X0138542Y0323326D01*
X0138652Y0323443D01*
X0138765Y0323558D01*
X0138881Y0323669D01*
X0139000Y0323778D01*
X0139121Y0323883D01*
X0139245Y0323986D01*
X0139371Y0324086D01*
X0139499Y0324182D01*
X0139630Y0324275D01*
X0139764Y0324365D01*
X0139899Y0324452D01*
X0140037Y0324535D01*
X0140176Y0324615D01*
X0140318Y0324691D01*
X0140461Y0324764D01*
X0140606Y0324833D01*
X0140753Y0324899D01*
X0140901Y0324961D01*
X0141051Y0325019D01*
X0141202Y0325074D01*
X0141355Y0325125D01*
X0141509Y0325172D01*
X0141664Y0325215D01*
X0141820Y0325254D01*
X0141976Y0325290D01*
X0142134Y0325321D01*
X0142292Y0325349D01*
X0142451Y0325373D01*
X0142611Y0325393D01*
X0142771Y0325409D01*
X0142931Y0325421D01*
X0143092Y0325429D01*
X0143253Y0325433D01*
X0143413Y0325433D01*
X0143574Y0325429D01*
X0143735Y0325421D01*
X0143895Y0325409D01*
X0144055Y0325393D01*
X0144215Y0325373D01*
X0144374Y0325349D01*
X0144532Y0325321D01*
X0144690Y0325290D01*
X0144846Y0325254D01*
X0145002Y0325215D01*
X0145157Y0325172D01*
X0145311Y0325125D01*
X0145464Y0325074D01*
X0145615Y0325019D01*
X0145765Y0324961D01*
X0145913Y0324899D01*
X0146060Y0324833D01*
X0146205Y0324764D01*
X0146348Y0324691D01*
X0146490Y0324615D01*
X0146629Y0324535D01*
X0146767Y0324452D01*
X0146902Y0324365D01*
X0147036Y0324275D01*
X0147167Y0324182D01*
X0147295Y0324086D01*
X0147421Y0323986D01*
X0147545Y0323883D01*
X0147666Y0323778D01*
X0147785Y0323669D01*
X0147901Y0323558D01*
X0148014Y0323443D01*
X0148124Y0323326D01*
X0148231Y0323206D01*
X0148335Y0323084D01*
X0148436Y0322959D01*
X0148534Y0322831D01*
X0148629Y0322701D01*
X0148721Y0322569D01*
X0148809Y0322435D01*
X0148894Y0322298D01*
X0148976Y0322160D01*
X0149054Y0322019D01*
X0149128Y0321877D01*
X0149199Y0321733D01*
X0149267Y0321587D01*
X0149330Y0321439D01*
X0149391Y0321290D01*
X0149447Y0321139D01*
X0149500Y0320987D01*
X0149549Y0320834D01*
X0149594Y0320680D01*
X0149635Y0320525D01*
X0149673Y0320368D01*
X0149706Y0320211D01*
X0149736Y0320053D01*
X0149762Y0319894D01*
X0149783Y0319735D01*
X0149801Y0319575D01*
X0149815Y0319415D01*
X0149825Y0319254D01*
X0149831Y0319094D01*
X0149833Y0318933D01*
X0149831Y0318772D01*
X0149825Y0318612D01*
X0149815Y0318451D01*
X0149801Y0318291D01*
X0149783Y0318131D01*
X0149762Y0317972D01*
X0149736Y0317813D01*
X0149706Y0317655D01*
X0149673Y0317498D01*
X0149635Y0317341D01*
X0149594Y0317186D01*
X0149549Y0317032D01*
X0149500Y0316879D01*
X0149447Y0316727D01*
X0149391Y0316576D01*
X0149330Y0316427D01*
X0149267Y0316279D01*
X0149199Y0316133D01*
X0149128Y0315989D01*
X0149054Y0315847D01*
X0148976Y0315706D01*
X0148894Y0315568D01*
X0148809Y0315431D01*
X0148721Y0315297D01*
X0148629Y0315165D01*
X0148534Y0315035D01*
X0148436Y0314907D01*
X0148335Y0314782D01*
X0148231Y0314660D01*
X0148124Y0314540D01*
X0148014Y0314423D01*
X0147901Y0314308D01*
X0147785Y0314197D01*
X0147666Y0314088D01*
X0147545Y0313983D01*
X0147421Y0313880D01*
X0147295Y0313780D01*
X0147167Y0313684D01*
X0147036Y0313591D01*
X0146902Y0313501D01*
X0146767Y0313414D01*
X0146629Y0313331D01*
X0146490Y0313251D01*
X0146348Y0313175D01*
X0146205Y0313102D01*
X0146060Y0313033D01*
X0145913Y0312967D01*
X0145765Y0312905D01*
X0145615Y0312847D01*
X0145464Y0312792D01*
X0145311Y0312741D01*
X0145157Y0312694D01*
X0145002Y0312651D01*
X0144846Y0312612D01*
X0144690Y0312576D01*
X0144532Y0312545D01*
X0144374Y0312517D01*
X0144215Y0312493D01*
X0144055Y0312473D01*
X0143895Y0312457D01*
X0143735Y0312445D01*
X0143574Y0312437D01*
X0143413Y0312433D01*
X0143253Y0312433D01*
X0143092Y0312437D01*
X0142931Y0312445D01*
X0142771Y0312457D01*
X0142611Y0312473D01*
X0142451Y0312493D01*
X0142292Y0312517D01*
X0142134Y0312545D01*
X0141976Y0312576D01*
X0141820Y0312612D01*
X0141664Y0312651D01*
X0141509Y0312694D01*
X0141355Y0312741D01*
X0141202Y0312792D01*
X0141051Y0312847D01*
X0140901Y0312905D01*
X0140753Y0312967D01*
X0140606Y0313033D01*
X0140461Y0313102D01*
X0140318Y0313175D01*
X0140176Y0313251D01*
X0140037Y0313331D01*
X0139899Y0313414D01*
X0139764Y0313501D01*
X0139630Y0313591D01*
X0139499Y0313684D01*
X0139371Y0313780D01*
X0139245Y0313880D01*
X0139121Y0313983D01*
X0139000Y0314088D01*
X0138881Y0314197D01*
X0138765Y0314308D01*
X0138652Y0314423D01*
X0138542Y0314540D01*
X0138435Y0314660D01*
X0138331Y0314782D01*
X0138230Y0314907D01*
X0138132Y0315035D01*
X0138037Y0315165D01*
X0137945Y0315297D01*
X0137857Y0315431D01*
X0137772Y0315568D01*
X0137690Y0315706D01*
X0137612Y0315847D01*
X0137538Y0315989D01*
X0137467Y0316133D01*
X0137399Y0316279D01*
X0137336Y0316427D01*
X0137275Y0316576D01*
X0137219Y0316727D01*
X0137166Y0316879D01*
X0137117Y0317032D01*
X0137072Y0317186D01*
X0137031Y0317341D01*
X0136993Y0317498D01*
X0136960Y0317655D01*
X0136930Y0317813D01*
X0136904Y0317972D01*
X0136883Y0318131D01*
X0136865Y0318291D01*
X0136851Y0318451D01*
X0136841Y0318612D01*
X0136835Y0318772D01*
X0136833Y0318933D01*
X0216833Y0318933D02*
X0216835Y0319094D01*
X0216841Y0319254D01*
X0216851Y0319415D01*
X0216865Y0319575D01*
X0216883Y0319735D01*
X0216904Y0319894D01*
X0216930Y0320053D01*
X0216960Y0320211D01*
X0216993Y0320368D01*
X0217031Y0320525D01*
X0217072Y0320680D01*
X0217117Y0320834D01*
X0217166Y0320987D01*
X0217219Y0321139D01*
X0217275Y0321290D01*
X0217336Y0321439D01*
X0217399Y0321587D01*
X0217467Y0321733D01*
X0217538Y0321877D01*
X0217612Y0322019D01*
X0217690Y0322160D01*
X0217772Y0322298D01*
X0217857Y0322435D01*
X0217945Y0322569D01*
X0218037Y0322701D01*
X0218132Y0322831D01*
X0218230Y0322959D01*
X0218331Y0323084D01*
X0218435Y0323206D01*
X0218542Y0323326D01*
X0218652Y0323443D01*
X0218765Y0323558D01*
X0218881Y0323669D01*
X0219000Y0323778D01*
X0219121Y0323883D01*
X0219245Y0323986D01*
X0219371Y0324086D01*
X0219499Y0324182D01*
X0219630Y0324275D01*
X0219764Y0324365D01*
X0219899Y0324452D01*
X0220037Y0324535D01*
X0220176Y0324615D01*
X0220318Y0324691D01*
X0220461Y0324764D01*
X0220606Y0324833D01*
X0220753Y0324899D01*
X0220901Y0324961D01*
X0221051Y0325019D01*
X0221202Y0325074D01*
X0221355Y0325125D01*
X0221509Y0325172D01*
X0221664Y0325215D01*
X0221820Y0325254D01*
X0221976Y0325290D01*
X0222134Y0325321D01*
X0222292Y0325349D01*
X0222451Y0325373D01*
X0222611Y0325393D01*
X0222771Y0325409D01*
X0222931Y0325421D01*
X0223092Y0325429D01*
X0223253Y0325433D01*
X0223413Y0325433D01*
X0223574Y0325429D01*
X0223735Y0325421D01*
X0223895Y0325409D01*
X0224055Y0325393D01*
X0224215Y0325373D01*
X0224374Y0325349D01*
X0224532Y0325321D01*
X0224690Y0325290D01*
X0224846Y0325254D01*
X0225002Y0325215D01*
X0225157Y0325172D01*
X0225311Y0325125D01*
X0225464Y0325074D01*
X0225615Y0325019D01*
X0225765Y0324961D01*
X0225913Y0324899D01*
X0226060Y0324833D01*
X0226205Y0324764D01*
X0226348Y0324691D01*
X0226490Y0324615D01*
X0226629Y0324535D01*
X0226767Y0324452D01*
X0226902Y0324365D01*
X0227036Y0324275D01*
X0227167Y0324182D01*
X0227295Y0324086D01*
X0227421Y0323986D01*
X0227545Y0323883D01*
X0227666Y0323778D01*
X0227785Y0323669D01*
X0227901Y0323558D01*
X0228014Y0323443D01*
X0228124Y0323326D01*
X0228231Y0323206D01*
X0228335Y0323084D01*
X0228436Y0322959D01*
X0228534Y0322831D01*
X0228629Y0322701D01*
X0228721Y0322569D01*
X0228809Y0322435D01*
X0228894Y0322298D01*
X0228976Y0322160D01*
X0229054Y0322019D01*
X0229128Y0321877D01*
X0229199Y0321733D01*
X0229267Y0321587D01*
X0229330Y0321439D01*
X0229391Y0321290D01*
X0229447Y0321139D01*
X0229500Y0320987D01*
X0229549Y0320834D01*
X0229594Y0320680D01*
X0229635Y0320525D01*
X0229673Y0320368D01*
X0229706Y0320211D01*
X0229736Y0320053D01*
X0229762Y0319894D01*
X0229783Y0319735D01*
X0229801Y0319575D01*
X0229815Y0319415D01*
X0229825Y0319254D01*
X0229831Y0319094D01*
X0229833Y0318933D01*
X0229831Y0318772D01*
X0229825Y0318612D01*
X0229815Y0318451D01*
X0229801Y0318291D01*
X0229783Y0318131D01*
X0229762Y0317972D01*
X0229736Y0317813D01*
X0229706Y0317655D01*
X0229673Y0317498D01*
X0229635Y0317341D01*
X0229594Y0317186D01*
X0229549Y0317032D01*
X0229500Y0316879D01*
X0229447Y0316727D01*
X0229391Y0316576D01*
X0229330Y0316427D01*
X0229267Y0316279D01*
X0229199Y0316133D01*
X0229128Y0315989D01*
X0229054Y0315847D01*
X0228976Y0315706D01*
X0228894Y0315568D01*
X0228809Y0315431D01*
X0228721Y0315297D01*
X0228629Y0315165D01*
X0228534Y0315035D01*
X0228436Y0314907D01*
X0228335Y0314782D01*
X0228231Y0314660D01*
X0228124Y0314540D01*
X0228014Y0314423D01*
X0227901Y0314308D01*
X0227785Y0314197D01*
X0227666Y0314088D01*
X0227545Y0313983D01*
X0227421Y0313880D01*
X0227295Y0313780D01*
X0227167Y0313684D01*
X0227036Y0313591D01*
X0226902Y0313501D01*
X0226767Y0313414D01*
X0226629Y0313331D01*
X0226490Y0313251D01*
X0226348Y0313175D01*
X0226205Y0313102D01*
X0226060Y0313033D01*
X0225913Y0312967D01*
X0225765Y0312905D01*
X0225615Y0312847D01*
X0225464Y0312792D01*
X0225311Y0312741D01*
X0225157Y0312694D01*
X0225002Y0312651D01*
X0224846Y0312612D01*
X0224690Y0312576D01*
X0224532Y0312545D01*
X0224374Y0312517D01*
X0224215Y0312493D01*
X0224055Y0312473D01*
X0223895Y0312457D01*
X0223735Y0312445D01*
X0223574Y0312437D01*
X0223413Y0312433D01*
X0223253Y0312433D01*
X0223092Y0312437D01*
X0222931Y0312445D01*
X0222771Y0312457D01*
X0222611Y0312473D01*
X0222451Y0312493D01*
X0222292Y0312517D01*
X0222134Y0312545D01*
X0221976Y0312576D01*
X0221820Y0312612D01*
X0221664Y0312651D01*
X0221509Y0312694D01*
X0221355Y0312741D01*
X0221202Y0312792D01*
X0221051Y0312847D01*
X0220901Y0312905D01*
X0220753Y0312967D01*
X0220606Y0313033D01*
X0220461Y0313102D01*
X0220318Y0313175D01*
X0220176Y0313251D01*
X0220037Y0313331D01*
X0219899Y0313414D01*
X0219764Y0313501D01*
X0219630Y0313591D01*
X0219499Y0313684D01*
X0219371Y0313780D01*
X0219245Y0313880D01*
X0219121Y0313983D01*
X0219000Y0314088D01*
X0218881Y0314197D01*
X0218765Y0314308D01*
X0218652Y0314423D01*
X0218542Y0314540D01*
X0218435Y0314660D01*
X0218331Y0314782D01*
X0218230Y0314907D01*
X0218132Y0315035D01*
X0218037Y0315165D01*
X0217945Y0315297D01*
X0217857Y0315431D01*
X0217772Y0315568D01*
X0217690Y0315706D01*
X0217612Y0315847D01*
X0217538Y0315989D01*
X0217467Y0316133D01*
X0217399Y0316279D01*
X0217336Y0316427D01*
X0217275Y0316576D01*
X0217219Y0316727D01*
X0217166Y0316879D01*
X0217117Y0317032D01*
X0217072Y0317186D01*
X0217031Y0317341D01*
X0216993Y0317498D01*
X0216960Y0317655D01*
X0216930Y0317813D01*
X0216904Y0317972D01*
X0216883Y0318131D01*
X0216865Y0318291D01*
X0216851Y0318451D01*
X0216841Y0318612D01*
X0216835Y0318772D01*
X0216833Y0318933D01*
X0233333Y0328933D02*
X0233333Y0134012D01*
X0233333Y0128933D01*
X0216833Y0238933D02*
X0216835Y0239094D01*
X0216841Y0239254D01*
X0216851Y0239415D01*
X0216865Y0239575D01*
X0216883Y0239735D01*
X0216904Y0239894D01*
X0216930Y0240053D01*
X0216960Y0240211D01*
X0216993Y0240368D01*
X0217031Y0240525D01*
X0217072Y0240680D01*
X0217117Y0240834D01*
X0217166Y0240987D01*
X0217219Y0241139D01*
X0217275Y0241290D01*
X0217336Y0241439D01*
X0217399Y0241587D01*
X0217467Y0241733D01*
X0217538Y0241877D01*
X0217612Y0242019D01*
X0217690Y0242160D01*
X0217772Y0242298D01*
X0217857Y0242435D01*
X0217945Y0242569D01*
X0218037Y0242701D01*
X0218132Y0242831D01*
X0218230Y0242959D01*
X0218331Y0243084D01*
X0218435Y0243206D01*
X0218542Y0243326D01*
X0218652Y0243443D01*
X0218765Y0243558D01*
X0218881Y0243669D01*
X0219000Y0243778D01*
X0219121Y0243883D01*
X0219245Y0243986D01*
X0219371Y0244086D01*
X0219499Y0244182D01*
X0219630Y0244275D01*
X0219764Y0244365D01*
X0219899Y0244452D01*
X0220037Y0244535D01*
X0220176Y0244615D01*
X0220318Y0244691D01*
X0220461Y0244764D01*
X0220606Y0244833D01*
X0220753Y0244899D01*
X0220901Y0244961D01*
X0221051Y0245019D01*
X0221202Y0245074D01*
X0221355Y0245125D01*
X0221509Y0245172D01*
X0221664Y0245215D01*
X0221820Y0245254D01*
X0221976Y0245290D01*
X0222134Y0245321D01*
X0222292Y0245349D01*
X0222451Y0245373D01*
X0222611Y0245393D01*
X0222771Y0245409D01*
X0222931Y0245421D01*
X0223092Y0245429D01*
X0223253Y0245433D01*
X0223413Y0245433D01*
X0223574Y0245429D01*
X0223735Y0245421D01*
X0223895Y0245409D01*
X0224055Y0245393D01*
X0224215Y0245373D01*
X0224374Y0245349D01*
X0224532Y0245321D01*
X0224690Y0245290D01*
X0224846Y0245254D01*
X0225002Y0245215D01*
X0225157Y0245172D01*
X0225311Y0245125D01*
X0225464Y0245074D01*
X0225615Y0245019D01*
X0225765Y0244961D01*
X0225913Y0244899D01*
X0226060Y0244833D01*
X0226205Y0244764D01*
X0226348Y0244691D01*
X0226490Y0244615D01*
X0226629Y0244535D01*
X0226767Y0244452D01*
X0226902Y0244365D01*
X0227036Y0244275D01*
X0227167Y0244182D01*
X0227295Y0244086D01*
X0227421Y0243986D01*
X0227545Y0243883D01*
X0227666Y0243778D01*
X0227785Y0243669D01*
X0227901Y0243558D01*
X0228014Y0243443D01*
X0228124Y0243326D01*
X0228231Y0243206D01*
X0228335Y0243084D01*
X0228436Y0242959D01*
X0228534Y0242831D01*
X0228629Y0242701D01*
X0228721Y0242569D01*
X0228809Y0242435D01*
X0228894Y0242298D01*
X0228976Y0242160D01*
X0229054Y0242019D01*
X0229128Y0241877D01*
X0229199Y0241733D01*
X0229267Y0241587D01*
X0229330Y0241439D01*
X0229391Y0241290D01*
X0229447Y0241139D01*
X0229500Y0240987D01*
X0229549Y0240834D01*
X0229594Y0240680D01*
X0229635Y0240525D01*
X0229673Y0240368D01*
X0229706Y0240211D01*
X0229736Y0240053D01*
X0229762Y0239894D01*
X0229783Y0239735D01*
X0229801Y0239575D01*
X0229815Y0239415D01*
X0229825Y0239254D01*
X0229831Y0239094D01*
X0229833Y0238933D01*
X0229831Y0238772D01*
X0229825Y0238612D01*
X0229815Y0238451D01*
X0229801Y0238291D01*
X0229783Y0238131D01*
X0229762Y0237972D01*
X0229736Y0237813D01*
X0229706Y0237655D01*
X0229673Y0237498D01*
X0229635Y0237341D01*
X0229594Y0237186D01*
X0229549Y0237032D01*
X0229500Y0236879D01*
X0229447Y0236727D01*
X0229391Y0236576D01*
X0229330Y0236427D01*
X0229267Y0236279D01*
X0229199Y0236133D01*
X0229128Y0235989D01*
X0229054Y0235847D01*
X0228976Y0235706D01*
X0228894Y0235568D01*
X0228809Y0235431D01*
X0228721Y0235297D01*
X0228629Y0235165D01*
X0228534Y0235035D01*
X0228436Y0234907D01*
X0228335Y0234782D01*
X0228231Y0234660D01*
X0228124Y0234540D01*
X0228014Y0234423D01*
X0227901Y0234308D01*
X0227785Y0234197D01*
X0227666Y0234088D01*
X0227545Y0233983D01*
X0227421Y0233880D01*
X0227295Y0233780D01*
X0227167Y0233684D01*
X0227036Y0233591D01*
X0226902Y0233501D01*
X0226767Y0233414D01*
X0226629Y0233331D01*
X0226490Y0233251D01*
X0226348Y0233175D01*
X0226205Y0233102D01*
X0226060Y0233033D01*
X0225913Y0232967D01*
X0225765Y0232905D01*
X0225615Y0232847D01*
X0225464Y0232792D01*
X0225311Y0232741D01*
X0225157Y0232694D01*
X0225002Y0232651D01*
X0224846Y0232612D01*
X0224690Y0232576D01*
X0224532Y0232545D01*
X0224374Y0232517D01*
X0224215Y0232493D01*
X0224055Y0232473D01*
X0223895Y0232457D01*
X0223735Y0232445D01*
X0223574Y0232437D01*
X0223413Y0232433D01*
X0223253Y0232433D01*
X0223092Y0232437D01*
X0222931Y0232445D01*
X0222771Y0232457D01*
X0222611Y0232473D01*
X0222451Y0232493D01*
X0222292Y0232517D01*
X0222134Y0232545D01*
X0221976Y0232576D01*
X0221820Y0232612D01*
X0221664Y0232651D01*
X0221509Y0232694D01*
X0221355Y0232741D01*
X0221202Y0232792D01*
X0221051Y0232847D01*
X0220901Y0232905D01*
X0220753Y0232967D01*
X0220606Y0233033D01*
X0220461Y0233102D01*
X0220318Y0233175D01*
X0220176Y0233251D01*
X0220037Y0233331D01*
X0219899Y0233414D01*
X0219764Y0233501D01*
X0219630Y0233591D01*
X0219499Y0233684D01*
X0219371Y0233780D01*
X0219245Y0233880D01*
X0219121Y0233983D01*
X0219000Y0234088D01*
X0218881Y0234197D01*
X0218765Y0234308D01*
X0218652Y0234423D01*
X0218542Y0234540D01*
X0218435Y0234660D01*
X0218331Y0234782D01*
X0218230Y0234907D01*
X0218132Y0235035D01*
X0218037Y0235165D01*
X0217945Y0235297D01*
X0217857Y0235431D01*
X0217772Y0235568D01*
X0217690Y0235706D01*
X0217612Y0235847D01*
X0217538Y0235989D01*
X0217467Y0236133D01*
X0217399Y0236279D01*
X0217336Y0236427D01*
X0217275Y0236576D01*
X0217219Y0236727D01*
X0217166Y0236879D01*
X0217117Y0237032D01*
X0217072Y0237186D01*
X0217031Y0237341D01*
X0216993Y0237498D01*
X0216960Y0237655D01*
X0216930Y0237813D01*
X0216904Y0237972D01*
X0216883Y0238131D01*
X0216865Y0238291D01*
X0216851Y0238451D01*
X0216841Y0238612D01*
X0216835Y0238772D01*
X0216833Y0238933D01*
D11*
X0233333Y0128933D02*
X0133333Y0128933D01*
X0133333Y0328933D01*
X0233333Y0328933D01*
X0233333Y0128933D01*
M02*
