G75*
%MOIN*%
%OFA0B0*%
%FSLAX25Y25*%
%IPPOS*%
%LPD*%
%AMOC8*
5,1,8,0,0,1.08239X$1,22.5*
%
%ADD10R,0.05131X0.04737*%
%ADD11C,0.01990*%
%ADD12C,0.13800*%
%ADD13R,0.08674X0.05524*%
%ADD14R,0.06115X0.03162*%
%ADD15C,0.08200*%
%ADD16C,0.04808*%
%ADD17C,0.03300*%
%ADD18C,0.09800*%
%ADD19C,0.07800*%
%ADD20R,0.06800X0.03800*%
D10*
X0154987Y0293933D03*
X0161680Y0293933D03*
X0161680Y0303933D03*
X0154987Y0303933D03*
X0179987Y0303933D03*
X0186680Y0303933D03*
X0204987Y0303933D03*
X0211680Y0303933D03*
X0211680Y0293933D03*
X0204987Y0293933D03*
D11*
X0188159Y0295306D02*
X0188159Y0292560D01*
X0185413Y0292560D01*
X0185413Y0295306D01*
X0188159Y0295306D01*
X0188159Y0294450D02*
X0185413Y0294450D01*
X0181254Y0295306D02*
X0181254Y0292560D01*
X0178508Y0292560D01*
X0178508Y0295306D01*
X0181254Y0295306D01*
X0181254Y0294450D02*
X0178508Y0294450D01*
D12*
X0143333Y0318933D03*
X0143333Y0238933D03*
X0223333Y0238933D03*
X0223333Y0318933D03*
D13*
X0227802Y0279957D03*
X0227802Y0257909D03*
X0138865Y0257909D03*
X0138865Y0279957D03*
D14*
X0153333Y0274839D03*
X0153333Y0270902D03*
X0153333Y0266965D03*
X0153333Y0263028D03*
X0213333Y0263028D03*
X0213333Y0266965D03*
X0213333Y0270902D03*
X0213333Y0274839D03*
D15*
X0198333Y0323933D03*
X0188333Y0323933D03*
X0178333Y0323933D03*
X0168333Y0323933D03*
D16*
X0173333Y0253933D03*
X0173333Y0243933D03*
X0183333Y0243933D03*
X0183333Y0253933D03*
X0193333Y0253933D03*
X0193333Y0243933D03*
D17*
X0138333Y0133933D03*
X0213333Y0133933D03*
X0228333Y0323933D03*
X0138333Y0323933D03*
D18*
X0153333Y0205183D03*
X0153333Y0152683D03*
X0213333Y0152683D03*
X0213333Y0205183D03*
D19*
X0195833Y0208933D03*
X0195833Y0228933D03*
X0170833Y0228933D03*
X0170833Y0208933D03*
X0143333Y0188933D03*
X0143333Y0178933D03*
X0143333Y0168933D03*
X0173333Y0138933D03*
X0183333Y0138933D03*
X0193333Y0138933D03*
D20*
X0198007Y0261433D03*
X0198007Y0266433D03*
X0198007Y0271433D03*
X0198007Y0276433D03*
X0168833Y0276433D03*
X0168833Y0271433D03*
X0168833Y0266433D03*
X0168833Y0261433D03*
M02*
