G75*
%MOIN*%
%OFA0B0*%
%FSLAX25Y25*%
%IPPOS*%
%LPD*%
%AMOC8*
5,1,8,0,0,1.08239X$1,22.5*
%
%ADD10R,0.04331X0.03937*%
%ADD11C,0.01181*%
%ADD12R,0.07874X0.04724*%
%ADD13R,0.05315X0.02362*%
%ADD14R,0.06000X0.03000*%
D10*
X0154987Y0293933D03*
X0161680Y0293933D03*
X0161680Y0303933D03*
X0154987Y0303933D03*
X0179987Y0303933D03*
X0186680Y0303933D03*
X0204987Y0303933D03*
X0211680Y0303933D03*
X0211680Y0293933D03*
X0204987Y0293933D03*
D11*
X0188164Y0295311D02*
X0188164Y0292555D01*
X0185408Y0292555D01*
X0185408Y0295311D01*
X0188164Y0295311D01*
X0188164Y0293677D02*
X0185408Y0293677D01*
X0185408Y0294799D02*
X0188164Y0294799D01*
X0181259Y0295311D02*
X0181259Y0292555D01*
X0178503Y0292555D01*
X0178503Y0295311D01*
X0181259Y0295311D01*
X0181259Y0293677D02*
X0178503Y0293677D01*
X0178503Y0294799D02*
X0181259Y0294799D01*
D12*
X0138865Y0257909D03*
X0138865Y0279957D03*
X0227802Y0279957D03*
X0227802Y0257909D03*
D13*
X0213333Y0263028D03*
X0213333Y0266965D03*
X0213333Y0270902D03*
X0213333Y0274839D03*
X0153333Y0274839D03*
X0153333Y0270902D03*
X0153333Y0266965D03*
X0153333Y0263028D03*
D14*
X0168833Y0261433D03*
X0168833Y0266433D03*
X0168833Y0271433D03*
X0168833Y0276433D03*
X0198007Y0276433D03*
X0198007Y0271433D03*
X0198007Y0266433D03*
X0198007Y0261433D03*
M02*
