%
M48
M72
T01C0.0138
T02C0.0200
T03C0.0350
T04C0.0354
T05C0.0400
T06C0.0550
T07C0.1300
%
T01
X15333Y25893
X14633Y26693
X17083Y30543
X17502Y31324
X19333Y31393
T02
X19333Y25393
X18333Y25393
X17333Y25393
X17333Y24393
X18333Y24393
X19333Y24393
T03
X14333Y18893
X14333Y17893
X14333Y16893
X17333Y13893
X18333Y13893
X19333Y13893
T04
X19583Y20893
X19583Y22893
X17083Y22893
X17083Y20893
T05
X16833Y32393
X17833Y32393
X18833Y32393
X19833Y32393
T06
X15333Y15268
X15333Y20518
X21333Y20518
X21333Y15268
T07
X22333Y23893
X14333Y23893
X14333Y31893
X22333Y31893
M30
