G75*
%MOIN*%
%OFA0B0*%
%FSLAX25Y25*%
%IPPOS*%
%LPD*%
%AMOC8*
5,1,8,0,0,1.08239X$1,22.5*
%
%ADD10C,0.00500*%
%ADD11C,0.01000*%
%ADD12C,0.01575*%
%ADD13C,0.00800*%
%ADD14C,0.00299*%
%ADD15C,0.00039*%
%ADD16R,0.00118X0.10748*%
%ADD17R,0.00118X0.11457*%
%ADD18R,0.00079X0.11929*%
%ADD19R,0.00157X0.12402*%
%ADD20R,0.00118X0.12638*%
%ADD21R,0.00118X0.12874*%
%ADD22R,0.00079X0.13110*%
%ADD23R,0.00118X0.04961*%
%ADD24R,0.00118X0.03071*%
%ADD25R,0.00118X0.05079*%
%ADD26R,0.00157X0.02244*%
%ADD27R,0.00157X0.00945*%
%ADD28R,0.00157X0.01181*%
%ADD29R,0.00157X0.00472*%
%ADD30R,0.00157X0.02835*%
%ADD31R,0.00118X0.02244*%
%ADD32R,0.00118X0.00591*%
%ADD33R,0.00118X0.00945*%
%ADD34R,0.00118X0.00354*%
%ADD35R,0.00118X0.02598*%
%ADD36R,0.00118X0.02362*%
%ADD37R,0.00118X0.00472*%
%ADD38R,0.00118X0.00827*%
%ADD39R,0.00118X0.02480*%
%ADD40R,0.00157X0.02480*%
%ADD41R,0.00157X0.00236*%
%ADD42R,0.00157X0.00709*%
%ADD43R,0.00157X0.00354*%
%ADD44R,0.00118X0.00709*%
%ADD45R,0.00118X0.00236*%
%ADD46R,0.00157X0.02598*%
%ADD47R,0.00157X0.00591*%
%ADD48R,0.00157X0.00118*%
%ADD49R,0.00118X0.02717*%
%ADD50R,0.00118X0.02835*%
%ADD51R,0.00157X0.00827*%
%ADD52R,0.00118X0.01299*%
%ADD53R,0.00118X0.01654*%
%ADD54R,0.00118X0.01063*%
%ADD55R,0.00157X0.01063*%
%ADD56R,0.00118X0.01181*%
%ADD57R,0.00118X0.02126*%
%ADD58R,0.00157X0.02126*%
%ADD59R,0.00118X0.01417*%
%ADD60R,0.00118X0.13110*%
%ADD61R,0.00118X0.12402*%
%ADD62R,0.00118X0.11929*%
%ADD63R,0.00157X0.18740*%
%ADD64R,0.00157X0.19370*%
%ADD65R,0.00157X0.20000*%
%ADD66R,0.00157X0.20630*%
%ADD67R,0.00157X0.20945*%
%ADD68R,0.00157X0.21260*%
%ADD69R,0.00157X0.21575*%
%ADD70R,0.00157X0.21890*%
%ADD71R,0.00157X0.22205*%
%ADD72R,0.00157X0.22520*%
%ADD73R,0.00157X0.09921*%
%ADD74R,0.00157X0.01732*%
%ADD75R,0.00157X0.04882*%
%ADD76R,0.00157X0.04724*%
%ADD77R,0.00157X0.01417*%
%ADD78R,0.00157X0.04567*%
%ADD79R,0.00157X0.04409*%
%ADD80R,0.00157X0.01260*%
%ADD81R,0.00157X0.04252*%
%ADD82R,0.00157X0.05039*%
%ADD83R,0.00157X0.01102*%
%ADD84R,0.00157X0.03937*%
%ADD85R,0.00157X0.05197*%
%ADD86R,0.00157X0.03622*%
%ADD87R,0.00157X0.05669*%
%ADD88R,0.00157X0.00787*%
%ADD89R,0.00157X0.05512*%
%ADD90R,0.00157X0.03465*%
%ADD91R,0.00157X0.05984*%
%ADD92R,0.00157X0.00630*%
%ADD93R,0.00157X0.03307*%
%ADD94R,0.00157X0.06299*%
%ADD95R,0.00157X0.06142*%
%ADD96R,0.00157X0.03150*%
%ADD97R,0.00157X0.06457*%
%ADD98R,0.00157X0.00157*%
%ADD99R,0.00157X0.02047*%
%ADD100R,0.00157X0.01890*%
%ADD101R,0.00157X0.00315*%
%ADD102R,0.00157X0.03780*%
%ADD103R,0.00157X0.02362*%
%ADD104R,0.18425X0.00157*%
%ADD105R,0.19055X0.00157*%
%ADD106R,0.19685X0.00157*%
%ADD107R,0.20315X0.00157*%
%ADD108R,0.20630X0.00157*%
%ADD109R,0.20945X0.00157*%
%ADD110R,0.21260X0.00157*%
%ADD111R,0.21575X0.00157*%
%ADD112R,0.21890X0.00157*%
%ADD113R,0.22205X0.00157*%
%ADD114R,0.09921X0.00157*%
%ADD115R,0.01102X0.00157*%
%ADD116R,0.04882X0.00157*%
%ADD117R,0.04567X0.00157*%
%ADD118R,0.04724X0.00157*%
%ADD119R,0.04409X0.00157*%
%ADD120R,0.04252X0.00157*%
%ADD121R,0.03937X0.00157*%
%ADD122R,0.05039X0.00157*%
%ADD123R,0.03622X0.00157*%
%ADD124R,0.05354X0.00157*%
%ADD125R,0.03465X0.00157*%
%ADD126R,0.05669X0.00157*%
%ADD127R,0.03307X0.00157*%
%ADD128R,0.05827X0.00157*%
%ADD129R,0.03150X0.00157*%
%ADD130R,0.05984X0.00157*%
%ADD131R,0.01417X0.00157*%
%ADD132R,0.01260X0.00157*%
%ADD133R,0.00315X0.00157*%
%ADD134R,0.03780X0.00157*%
%ADD135R,0.00945X0.00157*%
%ADD136R,0.00787X0.00157*%
%ADD137R,0.00630X0.00157*%
%ADD138R,0.00472X0.00157*%
%ADD139R,0.01575X0.00157*%
%ADD140R,0.00079X0.00866*%
%ADD141R,0.00079X0.00787*%
%ADD142R,0.00079X0.00827*%
%ADD143R,0.00079X0.00984*%
%ADD144R,0.00079X0.01181*%
%ADD145R,0.00079X0.00748*%
%ADD146R,0.00079X0.01339*%
%ADD147R,0.00039X0.01260*%
%ADD148R,0.00039X0.00787*%
%ADD149R,0.00039X0.00827*%
%ADD150R,0.00039X0.00866*%
%ADD151R,0.00039X0.00748*%
%ADD152R,0.00039X0.01417*%
%ADD153R,0.00039X0.01378*%
%ADD154R,0.00039X0.01575*%
%ADD155R,0.00039X0.01457*%
%ADD156R,0.00039X0.00945*%
%ADD157R,0.00039X0.01654*%
%ADD158R,0.00039X0.02362*%
%ADD159R,0.00039X0.01732*%
%ADD160R,0.00039X0.02402*%
%ADD161R,0.00039X0.00984*%
%ADD162R,0.00039X0.00709*%
%ADD163R,0.00039X0.01850*%
%ADD164R,0.00039X0.02441*%
%ADD165R,0.00039X0.01024*%
%ADD166R,0.00039X0.01890*%
%ADD167R,0.00039X0.02480*%
%ADD168R,0.00039X0.01969*%
%ADD169R,0.00039X0.02520*%
%ADD170R,0.00039X0.02008*%
%ADD171R,0.00039X0.01063*%
%ADD172R,0.00039X0.02047*%
%ADD173R,0.00039X0.02559*%
%ADD174R,0.00039X0.01102*%
%ADD175R,0.00039X0.02126*%
%ADD176R,0.00039X0.02598*%
%ADD177R,0.00039X0.01142*%
%ADD178R,0.00039X0.02087*%
%ADD179R,0.00039X0.01220*%
%ADD180R,0.00039X0.01181*%
%ADD181R,0.00039X0.00551*%
%ADD182R,0.00039X0.00394*%
%ADD183R,0.00039X0.00906*%
%ADD184R,0.00039X0.00315*%
%ADD185R,0.00039X0.00197*%
%ADD186R,0.00039X0.00079*%
%ADD187R,0.00039X0.01299*%
%ADD188R,0.00079X0.01299*%
%ADD189R,0.00079X0.00709*%
%ADD190R,0.00079X0.00630*%
%ADD191R,0.00079X0.00669*%
%ADD192R,0.00079X0.01693*%
%ADD193R,0.00039X0.00630*%
%ADD194R,0.00039X0.01693*%
%ADD195R,0.00039X0.00669*%
%ADD196R,0.00039X0.00591*%
%ADD197R,0.00039X0.01339*%
%ADD198R,0.00039X0.00157*%
%ADD199R,0.00039X0.00276*%
%ADD200R,0.00079X0.02559*%
%ADD201R,0.00079X0.01142*%
%ADD202R,0.00079X0.01102*%
%ADD203R,0.00079X0.02126*%
%ADD204R,0.00079X0.02520*%
%ADD205R,0.00079X0.01063*%
%ADD206R,0.00079X0.01969*%
%ADD207R,0.00079X0.02480*%
%ADD208R,0.00079X0.01024*%
%ADD209R,0.00079X0.01890*%
%ADD210R,0.00079X0.02402*%
%ADD211R,0.00079X0.01732*%
%ADD212R,0.00039X0.02323*%
%ADD213R,0.00039X0.01535*%
%ADD214R,0.00039X0.00512*%
%ADD215R,0.00079X0.00512*%
%ADD216R,0.00079X0.01850*%
%ADD217R,0.00079X0.02638*%
%ADD218R,0.00039X0.02953*%
%ADD219R,0.00039X0.03189*%
%ADD220R,0.00039X0.03504*%
%ADD221R,0.00039X0.03661*%
%ADD222R,0.00039X0.03898*%
%ADD223R,0.00039X0.04055*%
%ADD224R,0.00039X0.04213*%
%ADD225R,0.00039X0.04449*%
%ADD226R,0.00039X0.04606*%
%ADD227R,0.00039X0.04843*%
%ADD228R,0.00039X0.04921*%
%ADD229R,0.00039X0.05118*%
%ADD230R,0.00039X0.05236*%
%ADD231R,0.00039X0.05315*%
%ADD232R,0.00039X0.05512*%
%ADD233R,0.00039X0.05630*%
%ADD234R,0.00039X0.05787*%
%ADD235R,0.00039X0.05945*%
%ADD236R,0.00039X0.06024*%
%ADD237R,0.00039X0.06181*%
%ADD238R,0.00039X0.06260*%
%ADD239R,0.00039X0.06339*%
%ADD240R,0.00039X0.06417*%
%ADD241R,0.00039X0.06575*%
%ADD242R,0.00039X0.06732*%
%ADD243R,0.00039X0.06811*%
%ADD244R,0.00039X0.06890*%
%ADD245R,0.00039X0.06969*%
%ADD246R,0.00039X0.07047*%
%ADD247R,0.00039X0.07126*%
%ADD248R,0.00039X0.07205*%
%ADD249R,0.00039X0.07362*%
%ADD250R,0.00039X0.07441*%
%ADD251R,0.00039X0.07520*%
%ADD252R,0.00039X0.07598*%
%ADD253R,0.00039X0.07677*%
%ADD254R,0.00039X0.07756*%
%ADD255R,0.00039X0.07795*%
%ADD256R,0.00039X0.07913*%
%ADD257R,0.00039X0.07992*%
%ADD258R,0.00039X0.08071*%
%ADD259R,0.00039X0.08150*%
%ADD260R,0.00039X0.08189*%
%ADD261R,0.00039X0.08268*%
%ADD262R,0.00039X0.08307*%
%ADD263R,0.00039X0.08386*%
%ADD264R,0.00039X0.08465*%
%ADD265R,0.00039X0.08543*%
%ADD266R,0.00039X0.08622*%
%ADD267R,0.00039X0.08701*%
%ADD268R,0.00039X0.08780*%
%ADD269R,0.00039X0.08819*%
%ADD270R,0.00039X0.08858*%
%ADD271R,0.00039X0.08937*%
%ADD272R,0.00039X0.09016*%
%ADD273R,0.00039X0.09055*%
%ADD274R,0.00039X0.09094*%
%ADD275R,0.00039X0.09173*%
%ADD276R,0.00039X0.09252*%
%ADD277R,0.00039X0.09331*%
%ADD278R,0.00039X0.09409*%
%ADD279R,0.00039X0.09488*%
%ADD280R,0.00039X0.09528*%
%ADD281R,0.00039X0.09567*%
%ADD282R,0.00039X0.09646*%
%ADD283R,0.00039X0.09724*%
%ADD284R,0.00039X0.09803*%
%ADD285R,0.00039X0.09882*%
%ADD286R,0.00039X0.09961*%
%ADD287R,0.00039X0.10000*%
%ADD288R,0.00039X0.10039*%
%ADD289R,0.00039X0.10079*%
%ADD290R,0.00039X0.10118*%
%ADD291R,0.00039X0.10157*%
%ADD292R,0.00039X0.10197*%
%ADD293R,0.00039X0.10236*%
%ADD294R,0.00039X0.10276*%
%ADD295R,0.00039X0.10354*%
%ADD296R,0.00039X0.10394*%
%ADD297R,0.00039X0.10433*%
%ADD298R,0.00039X0.10512*%
%ADD299R,0.00039X0.01496*%
%ADD300R,0.00039X0.03268*%
%ADD301R,0.00039X0.03465*%
%ADD302R,0.00039X0.03425*%
%ADD303R,0.00039X0.03228*%
%ADD304R,0.00039X0.03346*%
%ADD305R,0.00039X0.03150*%
%ADD306R,0.00039X0.03110*%
%ADD307R,0.00039X0.03031*%
%ADD308R,0.00039X0.02874*%
%ADD309R,0.00039X0.02835*%
%ADD310R,0.00039X0.03071*%
%ADD311R,0.00039X0.02756*%
%ADD312R,0.00039X0.02638*%
%ADD313R,0.00039X0.02992*%
%ADD314R,0.00039X0.01614*%
%ADD315R,0.00039X0.02244*%
%ADD316R,0.00039X0.02795*%
%ADD317R,0.00039X0.02717*%
%ADD318R,0.00039X0.02677*%
%ADD319R,0.00039X0.01772*%
%ADD320R,0.00039X0.01811*%
%ADD321R,0.00039X0.00472*%
%ADD322R,0.00039X0.02283*%
%ADD323R,0.00039X0.02205*%
%ADD324R,0.00039X0.02165*%
%ADD325R,0.00039X0.01929*%
%ADD326R,0.00039X0.03937*%
%ADD327R,0.00039X0.03858*%
%ADD328R,0.00039X0.03740*%
%ADD329R,0.00039X0.03701*%
%ADD330R,0.00039X0.03622*%
%ADD331R,0.00039X0.03386*%
%ADD332R,0.00157X0.09764*%
%ADD333R,0.00157X0.10236*%
%ADD334R,0.00157X0.10551*%
%ADD335R,0.00157X0.10866*%
%ADD336R,0.00157X0.11024*%
%ADD337R,0.00157X0.11181*%
%ADD338R,0.00157X0.11339*%
%ADD339R,0.00157X0.11496*%
%ADD340R,0.00157X0.11654*%
%ADD341R,0.00157X0.11811*%
%ADD342R,0.00157X0.07559*%
%ADD343R,0.00157X0.01575*%
%ADD344R,0.00157X0.10394*%
%ADD345R,0.00157X0.11969*%
%ADD346R,0.00157X0.12126*%
%ADD347R,0.00157X0.12283*%
%ADD348R,0.00157X0.12441*%
%ADD349R,0.00157X0.08189*%
%ADD350R,0.00157X0.02677*%
%ADD351R,0.00157X0.02520*%
%ADD352R,0.00157X0.02205*%
%ADD353R,0.00157X0.13386*%
%ADD354R,0.00157X0.02992*%
D10*
X0177083Y0292058D02*
X0177083Y0295808D01*
D11*
X0151955Y0280744D02*
X0151955Y0277791D01*
X0151955Y0280744D02*
X0145459Y0280744D01*
X0135223Y0274839D02*
X0135223Y0263028D01*
X0145459Y0257122D02*
X0151955Y0257122D01*
X0151955Y0260075D01*
X0214711Y0260075D02*
X0214711Y0257122D01*
X0221207Y0257122D01*
X0231444Y0263028D02*
X0231444Y0274839D01*
X0221207Y0280744D02*
X0214711Y0280744D01*
X0214711Y0277791D01*
D12*
X0211595Y0259091D02*
X0211597Y0259138D01*
X0211603Y0259184D01*
X0211612Y0259230D01*
X0211626Y0259274D01*
X0211643Y0259318D01*
X0211664Y0259359D01*
X0211688Y0259399D01*
X0211715Y0259437D01*
X0211746Y0259472D01*
X0211779Y0259505D01*
X0211815Y0259535D01*
X0211854Y0259561D01*
X0211894Y0259585D01*
X0211936Y0259604D01*
X0211980Y0259621D01*
X0212025Y0259633D01*
X0212071Y0259642D01*
X0212117Y0259647D01*
X0212164Y0259648D01*
X0212210Y0259645D01*
X0212256Y0259638D01*
X0212302Y0259627D01*
X0212346Y0259613D01*
X0212389Y0259595D01*
X0212430Y0259573D01*
X0212470Y0259548D01*
X0212507Y0259520D01*
X0212542Y0259489D01*
X0212574Y0259455D01*
X0212603Y0259418D01*
X0212628Y0259380D01*
X0212651Y0259339D01*
X0212670Y0259296D01*
X0212685Y0259252D01*
X0212697Y0259207D01*
X0212705Y0259161D01*
X0212709Y0259114D01*
X0212709Y0259068D01*
X0212705Y0259021D01*
X0212697Y0258975D01*
X0212685Y0258930D01*
X0212670Y0258886D01*
X0212651Y0258843D01*
X0212628Y0258802D01*
X0212603Y0258764D01*
X0212574Y0258727D01*
X0212542Y0258693D01*
X0212507Y0258662D01*
X0212470Y0258634D01*
X0212431Y0258609D01*
X0212389Y0258587D01*
X0212346Y0258569D01*
X0212302Y0258555D01*
X0212256Y0258544D01*
X0212210Y0258537D01*
X0212164Y0258534D01*
X0212117Y0258535D01*
X0212071Y0258540D01*
X0212025Y0258549D01*
X0211980Y0258561D01*
X0211936Y0258578D01*
X0211894Y0258597D01*
X0211854Y0258621D01*
X0211815Y0258647D01*
X0211779Y0258677D01*
X0211746Y0258710D01*
X0211715Y0258745D01*
X0211688Y0258783D01*
X0211664Y0258823D01*
X0211643Y0258864D01*
X0211626Y0258908D01*
X0211612Y0258952D01*
X0211603Y0258998D01*
X0211597Y0259044D01*
X0211595Y0259091D01*
X0153957Y0278776D02*
X0153959Y0278823D01*
X0153965Y0278869D01*
X0153974Y0278915D01*
X0153988Y0278959D01*
X0154005Y0279003D01*
X0154026Y0279044D01*
X0154050Y0279084D01*
X0154077Y0279122D01*
X0154108Y0279157D01*
X0154141Y0279190D01*
X0154177Y0279220D01*
X0154216Y0279246D01*
X0154256Y0279270D01*
X0154298Y0279289D01*
X0154342Y0279306D01*
X0154387Y0279318D01*
X0154433Y0279327D01*
X0154479Y0279332D01*
X0154526Y0279333D01*
X0154572Y0279330D01*
X0154618Y0279323D01*
X0154664Y0279312D01*
X0154708Y0279298D01*
X0154751Y0279280D01*
X0154792Y0279258D01*
X0154832Y0279233D01*
X0154869Y0279205D01*
X0154904Y0279174D01*
X0154936Y0279140D01*
X0154965Y0279103D01*
X0154990Y0279065D01*
X0155013Y0279024D01*
X0155032Y0278981D01*
X0155047Y0278937D01*
X0155059Y0278892D01*
X0155067Y0278846D01*
X0155071Y0278799D01*
X0155071Y0278753D01*
X0155067Y0278706D01*
X0155059Y0278660D01*
X0155047Y0278615D01*
X0155032Y0278571D01*
X0155013Y0278528D01*
X0154990Y0278487D01*
X0154965Y0278449D01*
X0154936Y0278412D01*
X0154904Y0278378D01*
X0154869Y0278347D01*
X0154832Y0278319D01*
X0154793Y0278294D01*
X0154751Y0278272D01*
X0154708Y0278254D01*
X0154664Y0278240D01*
X0154618Y0278229D01*
X0154572Y0278222D01*
X0154526Y0278219D01*
X0154479Y0278220D01*
X0154433Y0278225D01*
X0154387Y0278234D01*
X0154342Y0278246D01*
X0154298Y0278263D01*
X0154256Y0278282D01*
X0154216Y0278306D01*
X0154177Y0278332D01*
X0154141Y0278362D01*
X0154108Y0278395D01*
X0154077Y0278430D01*
X0154050Y0278468D01*
X0154026Y0278508D01*
X0154005Y0278549D01*
X0153988Y0278593D01*
X0153974Y0278637D01*
X0153965Y0278683D01*
X0153959Y0278729D01*
X0153957Y0278776D01*
D13*
X0153333Y0159933D02*
X0153333Y0143933D01*
X0164333Y0143933D01*
X0164333Y0133933D01*
X0202333Y0133933D01*
X0202333Y0143933D01*
X0213333Y0143933D01*
X0213333Y0162933D01*
X0220833Y0162933D01*
X0220833Y0194933D01*
X0213333Y0194933D01*
X0213333Y0206433D01*
X0205333Y0206433D01*
X0205333Y0233933D01*
X0161333Y0233933D01*
X0161333Y0206433D01*
X0153333Y0206433D01*
X0153333Y0197933D01*
X0139333Y0197933D01*
X0139333Y0159933D01*
X0153333Y0159933D01*
X0180833Y0178933D02*
X0180835Y0179032D01*
X0180841Y0179132D01*
X0180851Y0179231D01*
X0180865Y0179329D01*
X0180882Y0179427D01*
X0180904Y0179524D01*
X0180929Y0179620D01*
X0180958Y0179715D01*
X0180991Y0179809D01*
X0181028Y0179901D01*
X0181068Y0179992D01*
X0181112Y0180081D01*
X0181160Y0180169D01*
X0181211Y0180254D01*
X0181265Y0180337D01*
X0181322Y0180419D01*
X0181383Y0180497D01*
X0181447Y0180574D01*
X0181513Y0180647D01*
X0181583Y0180718D01*
X0181655Y0180786D01*
X0181730Y0180852D01*
X0181808Y0180914D01*
X0181888Y0180973D01*
X0181970Y0181029D01*
X0182054Y0181081D01*
X0182141Y0181130D01*
X0182229Y0181176D01*
X0182319Y0181218D01*
X0182411Y0181257D01*
X0182504Y0181292D01*
X0182598Y0181323D01*
X0182694Y0181350D01*
X0182791Y0181373D01*
X0182888Y0181393D01*
X0182986Y0181409D01*
X0183085Y0181421D01*
X0183184Y0181429D01*
X0183283Y0181433D01*
X0183383Y0181433D01*
X0183482Y0181429D01*
X0183581Y0181421D01*
X0183680Y0181409D01*
X0183778Y0181393D01*
X0183875Y0181373D01*
X0183972Y0181350D01*
X0184068Y0181323D01*
X0184162Y0181292D01*
X0184255Y0181257D01*
X0184347Y0181218D01*
X0184437Y0181176D01*
X0184525Y0181130D01*
X0184612Y0181081D01*
X0184696Y0181029D01*
X0184778Y0180973D01*
X0184858Y0180914D01*
X0184936Y0180852D01*
X0185011Y0180786D01*
X0185083Y0180718D01*
X0185153Y0180647D01*
X0185219Y0180574D01*
X0185283Y0180497D01*
X0185344Y0180419D01*
X0185401Y0180337D01*
X0185455Y0180254D01*
X0185506Y0180169D01*
X0185554Y0180081D01*
X0185598Y0179992D01*
X0185638Y0179901D01*
X0185675Y0179809D01*
X0185708Y0179715D01*
X0185737Y0179620D01*
X0185762Y0179524D01*
X0185784Y0179427D01*
X0185801Y0179329D01*
X0185815Y0179231D01*
X0185825Y0179132D01*
X0185831Y0179032D01*
X0185833Y0178933D01*
X0185831Y0178834D01*
X0185825Y0178734D01*
X0185815Y0178635D01*
X0185801Y0178537D01*
X0185784Y0178439D01*
X0185762Y0178342D01*
X0185737Y0178246D01*
X0185708Y0178151D01*
X0185675Y0178057D01*
X0185638Y0177965D01*
X0185598Y0177874D01*
X0185554Y0177785D01*
X0185506Y0177697D01*
X0185455Y0177612D01*
X0185401Y0177529D01*
X0185344Y0177447D01*
X0185283Y0177369D01*
X0185219Y0177292D01*
X0185153Y0177219D01*
X0185083Y0177148D01*
X0185011Y0177080D01*
X0184936Y0177014D01*
X0184858Y0176952D01*
X0184778Y0176893D01*
X0184696Y0176837D01*
X0184612Y0176785D01*
X0184525Y0176736D01*
X0184437Y0176690D01*
X0184347Y0176648D01*
X0184255Y0176609D01*
X0184162Y0176574D01*
X0184068Y0176543D01*
X0183972Y0176516D01*
X0183875Y0176493D01*
X0183778Y0176473D01*
X0183680Y0176457D01*
X0183581Y0176445D01*
X0183482Y0176437D01*
X0183383Y0176433D01*
X0183283Y0176433D01*
X0183184Y0176437D01*
X0183085Y0176445D01*
X0182986Y0176457D01*
X0182888Y0176473D01*
X0182791Y0176493D01*
X0182694Y0176516D01*
X0182598Y0176543D01*
X0182504Y0176574D01*
X0182411Y0176609D01*
X0182319Y0176648D01*
X0182229Y0176690D01*
X0182141Y0176736D01*
X0182054Y0176785D01*
X0181970Y0176837D01*
X0181888Y0176893D01*
X0181808Y0176952D01*
X0181730Y0177014D01*
X0181655Y0177080D01*
X0181583Y0177148D01*
X0181513Y0177219D01*
X0181447Y0177292D01*
X0181383Y0177369D01*
X0181322Y0177447D01*
X0181265Y0177529D01*
X0181211Y0177612D01*
X0181160Y0177697D01*
X0181112Y0177785D01*
X0181068Y0177874D01*
X0181028Y0177965D01*
X0180991Y0178057D01*
X0180958Y0178151D01*
X0180929Y0178246D01*
X0180904Y0178342D01*
X0180882Y0178439D01*
X0180865Y0178537D01*
X0180851Y0178635D01*
X0180841Y0178734D01*
X0180835Y0178834D01*
X0180833Y0178933D01*
X0192033Y0257033D02*
X0194733Y0257033D01*
X0195333Y0258933D02*
X0171333Y0258933D01*
X0177652Y0273933D02*
X0177654Y0274002D01*
X0177660Y0274070D01*
X0177670Y0274138D01*
X0177684Y0274205D01*
X0177702Y0274272D01*
X0177723Y0274337D01*
X0177749Y0274401D01*
X0177778Y0274463D01*
X0177810Y0274523D01*
X0177846Y0274582D01*
X0177886Y0274638D01*
X0177928Y0274692D01*
X0177974Y0274743D01*
X0178023Y0274792D01*
X0178074Y0274838D01*
X0178128Y0274880D01*
X0178184Y0274920D01*
X0178242Y0274956D01*
X0178303Y0274988D01*
X0178365Y0275017D01*
X0178429Y0275043D01*
X0178494Y0275064D01*
X0178561Y0275082D01*
X0178628Y0275096D01*
X0178696Y0275106D01*
X0178764Y0275112D01*
X0178833Y0275114D01*
X0178902Y0275112D01*
X0178970Y0275106D01*
X0179038Y0275096D01*
X0179105Y0275082D01*
X0179172Y0275064D01*
X0179237Y0275043D01*
X0179301Y0275017D01*
X0179363Y0274988D01*
X0179423Y0274956D01*
X0179482Y0274920D01*
X0179538Y0274880D01*
X0179592Y0274838D01*
X0179643Y0274792D01*
X0179692Y0274743D01*
X0179738Y0274692D01*
X0179780Y0274638D01*
X0179820Y0274582D01*
X0179856Y0274523D01*
X0179888Y0274463D01*
X0179917Y0274401D01*
X0179943Y0274337D01*
X0179964Y0274272D01*
X0179982Y0274205D01*
X0179996Y0274138D01*
X0180006Y0274070D01*
X0180012Y0274002D01*
X0180014Y0273933D01*
X0180012Y0273864D01*
X0180006Y0273796D01*
X0179996Y0273728D01*
X0179982Y0273661D01*
X0179964Y0273594D01*
X0179943Y0273529D01*
X0179917Y0273465D01*
X0179888Y0273403D01*
X0179856Y0273342D01*
X0179820Y0273284D01*
X0179780Y0273228D01*
X0179738Y0273174D01*
X0179692Y0273123D01*
X0179643Y0273074D01*
X0179592Y0273028D01*
X0179538Y0272986D01*
X0179482Y0272946D01*
X0179424Y0272910D01*
X0179363Y0272878D01*
X0179301Y0272849D01*
X0179237Y0272823D01*
X0179172Y0272802D01*
X0179105Y0272784D01*
X0179038Y0272770D01*
X0178970Y0272760D01*
X0178902Y0272754D01*
X0178833Y0272752D01*
X0178764Y0272754D01*
X0178696Y0272760D01*
X0178628Y0272770D01*
X0178561Y0272784D01*
X0178494Y0272802D01*
X0178429Y0272823D01*
X0178365Y0272849D01*
X0178303Y0272878D01*
X0178242Y0272910D01*
X0178184Y0272946D01*
X0178128Y0272986D01*
X0178074Y0273028D01*
X0178023Y0273074D01*
X0177974Y0273123D01*
X0177928Y0273174D01*
X0177886Y0273228D01*
X0177846Y0273284D01*
X0177810Y0273342D01*
X0177778Y0273403D01*
X0177749Y0273465D01*
X0177723Y0273529D01*
X0177702Y0273594D01*
X0177684Y0273661D01*
X0177670Y0273728D01*
X0177660Y0273796D01*
X0177654Y0273864D01*
X0177652Y0273933D01*
X0171333Y0278933D02*
X0195333Y0278933D01*
X0167652Y0281433D02*
X0167654Y0281502D01*
X0167660Y0281570D01*
X0167670Y0281638D01*
X0167684Y0281705D01*
X0167702Y0281772D01*
X0167723Y0281837D01*
X0167749Y0281901D01*
X0167778Y0281963D01*
X0167810Y0282023D01*
X0167846Y0282082D01*
X0167886Y0282138D01*
X0167928Y0282192D01*
X0167974Y0282243D01*
X0168023Y0282292D01*
X0168074Y0282338D01*
X0168128Y0282380D01*
X0168184Y0282420D01*
X0168242Y0282456D01*
X0168303Y0282488D01*
X0168365Y0282517D01*
X0168429Y0282543D01*
X0168494Y0282564D01*
X0168561Y0282582D01*
X0168628Y0282596D01*
X0168696Y0282606D01*
X0168764Y0282612D01*
X0168833Y0282614D01*
X0168902Y0282612D01*
X0168970Y0282606D01*
X0169038Y0282596D01*
X0169105Y0282582D01*
X0169172Y0282564D01*
X0169237Y0282543D01*
X0169301Y0282517D01*
X0169363Y0282488D01*
X0169423Y0282456D01*
X0169482Y0282420D01*
X0169538Y0282380D01*
X0169592Y0282338D01*
X0169643Y0282292D01*
X0169692Y0282243D01*
X0169738Y0282192D01*
X0169780Y0282138D01*
X0169820Y0282082D01*
X0169856Y0282023D01*
X0169888Y0281963D01*
X0169917Y0281901D01*
X0169943Y0281837D01*
X0169964Y0281772D01*
X0169982Y0281705D01*
X0169996Y0281638D01*
X0170006Y0281570D01*
X0170012Y0281502D01*
X0170014Y0281433D01*
X0170012Y0281364D01*
X0170006Y0281296D01*
X0169996Y0281228D01*
X0169982Y0281161D01*
X0169964Y0281094D01*
X0169943Y0281029D01*
X0169917Y0280965D01*
X0169888Y0280903D01*
X0169856Y0280842D01*
X0169820Y0280784D01*
X0169780Y0280728D01*
X0169738Y0280674D01*
X0169692Y0280623D01*
X0169643Y0280574D01*
X0169592Y0280528D01*
X0169538Y0280486D01*
X0169482Y0280446D01*
X0169424Y0280410D01*
X0169363Y0280378D01*
X0169301Y0280349D01*
X0169237Y0280323D01*
X0169172Y0280302D01*
X0169105Y0280284D01*
X0169038Y0280270D01*
X0168970Y0280260D01*
X0168902Y0280254D01*
X0168833Y0280252D01*
X0168764Y0280254D01*
X0168696Y0280260D01*
X0168628Y0280270D01*
X0168561Y0280284D01*
X0168494Y0280302D01*
X0168429Y0280323D01*
X0168365Y0280349D01*
X0168303Y0280378D01*
X0168242Y0280410D01*
X0168184Y0280446D01*
X0168128Y0280486D01*
X0168074Y0280528D01*
X0168023Y0280574D01*
X0167974Y0280623D01*
X0167928Y0280674D01*
X0167886Y0280728D01*
X0167846Y0280784D01*
X0167810Y0280842D01*
X0167778Y0280903D01*
X0167749Y0280965D01*
X0167723Y0281029D01*
X0167702Y0281094D01*
X0167684Y0281161D01*
X0167670Y0281228D01*
X0167660Y0281296D01*
X0167654Y0281364D01*
X0167652Y0281433D01*
D14*
X0227753Y0163802D02*
X0227517Y0162384D01*
X0227359Y0162384D01*
X0227320Y0162345D01*
X0227241Y0162345D01*
X0227202Y0162306D01*
X0227123Y0162266D01*
X0227044Y0162266D01*
X0227005Y0162227D01*
X0226926Y0162227D01*
X0226887Y0162187D01*
X0226808Y0162148D01*
X0226769Y0162109D01*
X0226690Y0162109D01*
X0226651Y0162069D01*
X0226572Y0162030D01*
X0226533Y0161991D01*
X0225391Y0162817D01*
X0224525Y0161912D01*
X0225312Y0160770D01*
X0225273Y0160731D01*
X0225233Y0160652D01*
X0225233Y0160613D01*
X0225194Y0160534D01*
X0225155Y0160494D01*
X0225115Y0160416D01*
X0225115Y0160376D01*
X0225076Y0160298D01*
X0225037Y0160258D01*
X0225037Y0160180D01*
X0224997Y0160101D01*
X0224997Y0160061D01*
X0224958Y0159983D01*
X0224958Y0159943D01*
X0224918Y0159865D01*
X0224918Y0159786D01*
X0223541Y0159550D01*
X0223541Y0158290D01*
X0224918Y0158054D01*
X0224918Y0158014D01*
X0224958Y0157935D01*
X0224958Y0157857D01*
X0224997Y0157817D01*
X0224997Y0157739D01*
X0225037Y0157660D01*
X0225037Y0157620D01*
X0225076Y0157542D01*
X0225115Y0157502D01*
X0225115Y0157424D01*
X0225155Y0157384D01*
X0225194Y0157306D01*
X0225233Y0157266D01*
X0225233Y0157187D01*
X0225273Y0157148D01*
X0225312Y0157069D01*
X0224525Y0155928D01*
X0225391Y0155061D01*
X0226533Y0155849D01*
X0226572Y0155809D01*
X0226651Y0155809D01*
X0226690Y0155770D01*
X0226769Y0155731D01*
X0226808Y0155691D01*
X0226887Y0155691D01*
X0226926Y0155652D01*
X0227005Y0155613D01*
X0227044Y0155613D01*
X0227202Y0155534D01*
X0227241Y0155534D01*
X0227320Y0155494D01*
X0227359Y0155494D01*
X0227438Y0155455D01*
X0227517Y0155455D01*
X0227753Y0154077D01*
X0229013Y0154077D01*
X0229249Y0155455D01*
X0229289Y0155455D01*
X0229367Y0155494D01*
X0229446Y0155494D01*
X0229485Y0155534D01*
X0229564Y0155534D01*
X0229604Y0155573D01*
X0229682Y0155613D01*
X0229761Y0155613D01*
X0229800Y0155652D01*
X0229879Y0155652D01*
X0229918Y0155691D01*
X0229997Y0155731D01*
X0230037Y0155770D01*
X0230115Y0155809D01*
X0230155Y0155809D01*
X0230233Y0155849D01*
X0231336Y0155061D01*
X0232241Y0155928D01*
X0231454Y0157069D01*
X0231454Y0157109D01*
X0231493Y0157148D01*
X0231493Y0157187D01*
X0231533Y0157227D01*
X0231533Y0157266D01*
X0231572Y0157306D01*
X0231572Y0157345D01*
X0231611Y0157384D01*
X0231611Y0157424D01*
X0231651Y0157463D01*
X0231651Y0157502D01*
X0231690Y0157542D01*
X0231690Y0157620D01*
X0231730Y0157660D01*
X0229604Y0158447D01*
X0229564Y0158329D01*
X0229485Y0158172D01*
X0229407Y0158093D01*
X0229367Y0158014D01*
X0229289Y0157935D01*
X0229210Y0157896D01*
X0229131Y0157817D01*
X0228974Y0157739D01*
X0228855Y0157699D01*
X0228698Y0157620D01*
X0228580Y0157620D01*
X0228462Y0157581D01*
X0228226Y0157581D01*
X0227753Y0157739D01*
X0227517Y0157896D01*
X0227438Y0157975D01*
X0227359Y0158093D01*
X0227281Y0158172D01*
X0227202Y0158290D01*
X0227163Y0158408D01*
X0227084Y0158526D01*
X0227084Y0158644D01*
X0227044Y0158802D01*
X0227044Y0159077D01*
X0227084Y0159195D01*
X0227084Y0159313D01*
X0227163Y0159431D01*
X0227202Y0159550D01*
X0227359Y0159786D01*
X0227517Y0159943D01*
X0227753Y0160101D01*
X0227871Y0160140D01*
X0227989Y0160219D01*
X0228107Y0160219D01*
X0228226Y0160258D01*
X0228580Y0160258D01*
X0228698Y0160219D01*
X0228777Y0160219D01*
X0228855Y0160180D01*
X0228974Y0160140D01*
X0229052Y0160101D01*
X0229131Y0160022D01*
X0229210Y0159983D01*
X0229367Y0159825D01*
X0229407Y0159746D01*
X0229485Y0159668D01*
X0229604Y0159431D01*
X0231730Y0160219D01*
X0231690Y0160219D01*
X0231690Y0160298D01*
X0231651Y0160337D01*
X0231651Y0160376D01*
X0231611Y0160416D01*
X0231611Y0160455D01*
X0231572Y0160494D01*
X0231572Y0160573D01*
X0231533Y0160613D01*
X0231533Y0160652D01*
X0231454Y0160731D01*
X0231454Y0160770D01*
X0232241Y0161912D01*
X0231336Y0162817D01*
X0230233Y0161991D01*
X0230155Y0162030D01*
X0230115Y0162069D01*
X0230037Y0162109D01*
X0229997Y0162109D01*
X0229918Y0162148D01*
X0229879Y0162187D01*
X0229800Y0162227D01*
X0229761Y0162227D01*
X0229604Y0162306D01*
X0229564Y0162306D01*
X0229485Y0162345D01*
X0229446Y0162345D01*
X0229367Y0162384D01*
X0229289Y0162384D01*
X0229249Y0162424D01*
X0229013Y0163802D01*
X0227753Y0163802D01*
X0227747Y0163767D02*
X0229019Y0163767D01*
X0229070Y0163469D02*
X0227698Y0163469D01*
X0227648Y0163171D02*
X0229121Y0163171D01*
X0229172Y0162874D02*
X0227598Y0162874D01*
X0227549Y0162576D02*
X0229223Y0162576D01*
X0229658Y0162278D02*
X0227147Y0162278D01*
X0226136Y0162278D02*
X0224875Y0162278D01*
X0224590Y0161980D02*
X0232173Y0161980D01*
X0232083Y0161683D02*
X0224683Y0161683D01*
X0224888Y0161385D02*
X0231878Y0161385D01*
X0231673Y0161087D02*
X0225093Y0161087D01*
X0225299Y0160790D02*
X0231467Y0160790D01*
X0231575Y0160492D02*
X0225153Y0160492D01*
X0225037Y0160194D02*
X0227952Y0160194D01*
X0227470Y0159896D02*
X0224934Y0159896D01*
X0223827Y0159599D02*
X0227235Y0159599D01*
X0227084Y0159301D02*
X0223541Y0159301D01*
X0223541Y0159003D02*
X0227044Y0159003D01*
X0227069Y0158705D02*
X0223541Y0158705D01*
X0223541Y0158408D02*
X0227163Y0158408D01*
X0227342Y0158110D02*
X0224589Y0158110D01*
X0224997Y0157812D02*
X0227643Y0157812D01*
X0229121Y0157812D02*
X0231318Y0157812D01*
X0231663Y0157515D02*
X0225103Y0157515D01*
X0225233Y0157217D02*
X0231523Y0157217D01*
X0231557Y0156919D02*
X0225209Y0156919D01*
X0225003Y0156621D02*
X0231763Y0156621D01*
X0231968Y0156324D02*
X0224798Y0156324D01*
X0224593Y0156026D02*
X0232173Y0156026D01*
X0232033Y0155728D02*
X0230402Y0155728D01*
X0229992Y0155728D02*
X0226771Y0155728D01*
X0226358Y0155728D02*
X0224724Y0155728D01*
X0225022Y0155430D02*
X0225926Y0155430D01*
X0225494Y0155133D02*
X0225320Y0155133D01*
X0227521Y0155430D02*
X0229245Y0155430D01*
X0229194Y0155133D02*
X0227572Y0155133D01*
X0227623Y0154835D02*
X0229143Y0154835D01*
X0229092Y0154537D02*
X0227674Y0154537D01*
X0227725Y0154240D02*
X0229041Y0154240D01*
X0230819Y0155430D02*
X0231722Y0155430D01*
X0231410Y0155133D02*
X0231236Y0155133D01*
X0230514Y0158110D02*
X0229424Y0158110D01*
X0229590Y0158408D02*
X0229710Y0158408D01*
X0229520Y0159599D02*
X0230055Y0159599D01*
X0229296Y0159896D02*
X0230859Y0159896D01*
X0231663Y0160194D02*
X0228826Y0160194D01*
X0230617Y0162278D02*
X0231875Y0162278D01*
X0231577Y0162576D02*
X0231014Y0162576D01*
X0225724Y0162576D02*
X0225160Y0162576D01*
D15*
X0224597Y0165433D02*
X0224597Y0186401D01*
X0224597Y0192433D01*
X0228697Y0192433D01*
X0232070Y0192433D01*
X0232070Y0186158D01*
X0231376Y0186158D01*
X0231376Y0186401D01*
X0228697Y0186401D01*
X0228697Y0188677D01*
X0230145Y0187684D01*
X0230145Y0188588D01*
X0228903Y0189406D01*
X0230145Y0190219D01*
X0230145Y0191156D01*
X0228697Y0190168D01*
X0228697Y0192433D01*
X0228697Y0190168D01*
X0228293Y0189892D01*
X0226524Y0191102D01*
X0226524Y0190197D01*
X0227699Y0189431D01*
X0226524Y0188669D01*
X0226524Y0187738D01*
X0228304Y0188947D01*
X0228697Y0188677D01*
X0228697Y0186401D01*
X0225290Y0186401D01*
X0225290Y0166127D01*
X0231376Y0166127D01*
X0231376Y0186158D01*
X0232070Y0186158D01*
X0232070Y0165433D01*
X0224597Y0165433D01*
X0224597Y0165451D02*
X0232070Y0165451D01*
X0232070Y0165489D02*
X0224597Y0165489D01*
X0224597Y0165527D02*
X0232070Y0165527D01*
X0232070Y0165564D02*
X0224597Y0165564D01*
X0224597Y0165602D02*
X0232070Y0165602D01*
X0232070Y0165640D02*
X0224597Y0165640D01*
X0224597Y0165678D02*
X0232070Y0165678D01*
X0232070Y0165716D02*
X0224597Y0165716D01*
X0224597Y0165754D02*
X0232070Y0165754D01*
X0232070Y0165792D02*
X0224597Y0165792D01*
X0224597Y0165830D02*
X0232070Y0165830D01*
X0232070Y0165867D02*
X0224597Y0165867D01*
X0224597Y0165905D02*
X0232070Y0165905D01*
X0232070Y0165943D02*
X0224597Y0165943D01*
X0224597Y0165981D02*
X0232070Y0165981D01*
X0232070Y0166019D02*
X0224597Y0166019D01*
X0224597Y0166057D02*
X0232070Y0166057D01*
X0232070Y0166095D02*
X0224597Y0166095D01*
X0224597Y0166133D02*
X0225290Y0166133D01*
X0225290Y0166170D02*
X0224597Y0166170D01*
X0224597Y0166208D02*
X0225290Y0166208D01*
X0225290Y0166246D02*
X0224597Y0166246D01*
X0224597Y0166284D02*
X0225290Y0166284D01*
X0225290Y0166322D02*
X0224597Y0166322D01*
X0224597Y0166360D02*
X0225290Y0166360D01*
X0225290Y0166398D02*
X0224597Y0166398D01*
X0224597Y0166436D02*
X0225290Y0166436D01*
X0225290Y0166474D02*
X0224597Y0166474D01*
X0224597Y0166511D02*
X0225290Y0166511D01*
X0225290Y0166549D02*
X0224597Y0166549D01*
X0224597Y0166587D02*
X0225290Y0166587D01*
X0225290Y0166625D02*
X0224597Y0166625D01*
X0224597Y0166663D02*
X0225290Y0166663D01*
X0225290Y0166701D02*
X0224597Y0166701D01*
X0224597Y0166739D02*
X0225290Y0166739D01*
X0225290Y0166777D02*
X0224597Y0166777D01*
X0224597Y0166814D02*
X0225290Y0166814D01*
X0225290Y0166852D02*
X0224597Y0166852D01*
X0224597Y0166890D02*
X0225290Y0166890D01*
X0225290Y0166928D02*
X0224597Y0166928D01*
X0224597Y0166966D02*
X0225290Y0166966D01*
X0225290Y0167004D02*
X0224597Y0167004D01*
X0224597Y0167042D02*
X0225290Y0167042D01*
X0225290Y0167080D02*
X0224597Y0167080D01*
X0224597Y0167118D02*
X0225290Y0167118D01*
X0225290Y0167155D02*
X0224597Y0167155D01*
X0224597Y0167193D02*
X0225290Y0167193D01*
X0225290Y0167231D02*
X0224597Y0167231D01*
X0224597Y0167269D02*
X0225290Y0167269D01*
X0225290Y0167307D02*
X0224597Y0167307D01*
X0224597Y0167345D02*
X0225290Y0167345D01*
X0225290Y0167383D02*
X0224597Y0167383D01*
X0224597Y0167421D02*
X0225290Y0167421D01*
X0225290Y0167458D02*
X0224597Y0167458D01*
X0224597Y0167496D02*
X0225290Y0167496D01*
X0225290Y0167534D02*
X0224597Y0167534D01*
X0224597Y0167572D02*
X0225290Y0167572D01*
X0225290Y0167610D02*
X0224597Y0167610D01*
X0224597Y0167648D02*
X0225290Y0167648D01*
X0225290Y0167686D02*
X0224597Y0167686D01*
X0224597Y0167724D02*
X0225290Y0167724D01*
X0225290Y0167762D02*
X0224597Y0167762D01*
X0224597Y0167799D02*
X0225290Y0167799D01*
X0225290Y0167837D02*
X0224597Y0167837D01*
X0224597Y0167875D02*
X0225290Y0167875D01*
X0225290Y0167913D02*
X0224597Y0167913D01*
X0224597Y0167951D02*
X0225290Y0167951D01*
X0225290Y0167989D02*
X0224597Y0167989D01*
X0224597Y0168027D02*
X0225290Y0168027D01*
X0225290Y0168065D02*
X0224597Y0168065D01*
X0224597Y0168102D02*
X0225290Y0168102D01*
X0225290Y0168140D02*
X0224597Y0168140D01*
X0224597Y0168178D02*
X0225290Y0168178D01*
X0225290Y0168216D02*
X0224597Y0168216D01*
X0224597Y0168254D02*
X0225290Y0168254D01*
X0225290Y0168292D02*
X0224597Y0168292D01*
X0224597Y0168330D02*
X0225290Y0168330D01*
X0225290Y0168368D02*
X0224597Y0168368D01*
X0224597Y0168405D02*
X0225290Y0168405D01*
X0225290Y0168443D02*
X0224597Y0168443D01*
X0224597Y0168481D02*
X0225290Y0168481D01*
X0225290Y0168519D02*
X0224597Y0168519D01*
X0224597Y0168557D02*
X0225290Y0168557D01*
X0225290Y0168595D02*
X0224597Y0168595D01*
X0224597Y0168633D02*
X0225290Y0168633D01*
X0225290Y0168671D02*
X0224597Y0168671D01*
X0224597Y0168709D02*
X0225290Y0168709D01*
X0225290Y0168746D02*
X0224597Y0168746D01*
X0224597Y0168784D02*
X0225290Y0168784D01*
X0225290Y0168822D02*
X0224597Y0168822D01*
X0224597Y0168860D02*
X0225290Y0168860D01*
X0225290Y0168898D02*
X0224597Y0168898D01*
X0224597Y0168936D02*
X0225290Y0168936D01*
X0225290Y0168974D02*
X0224597Y0168974D01*
X0224597Y0169012D02*
X0225290Y0169012D01*
X0225290Y0169049D02*
X0224597Y0169049D01*
X0224597Y0169087D02*
X0225290Y0169087D01*
X0225290Y0169125D02*
X0224597Y0169125D01*
X0224597Y0169163D02*
X0225290Y0169163D01*
X0225290Y0169201D02*
X0224597Y0169201D01*
X0224597Y0169239D02*
X0225290Y0169239D01*
X0225290Y0169277D02*
X0224597Y0169277D01*
X0224597Y0169315D02*
X0225290Y0169315D01*
X0225290Y0169353D02*
X0224597Y0169353D01*
X0224597Y0169390D02*
X0225290Y0169390D01*
X0225290Y0169428D02*
X0224597Y0169428D01*
X0224597Y0169466D02*
X0225290Y0169466D01*
X0225290Y0169504D02*
X0224597Y0169504D01*
X0224597Y0169542D02*
X0225290Y0169542D01*
X0225290Y0169580D02*
X0224597Y0169580D01*
X0224597Y0169618D02*
X0225290Y0169618D01*
X0225290Y0169656D02*
X0224597Y0169656D01*
X0224597Y0169693D02*
X0225290Y0169693D01*
X0225290Y0169731D02*
X0224597Y0169731D01*
X0224597Y0169769D02*
X0225290Y0169769D01*
X0225290Y0169807D02*
X0224597Y0169807D01*
X0224597Y0169845D02*
X0225290Y0169845D01*
X0225290Y0169883D02*
X0224597Y0169883D01*
X0224597Y0169921D02*
X0225290Y0169921D01*
X0225290Y0169959D02*
X0224597Y0169959D01*
X0224597Y0169997D02*
X0225290Y0169997D01*
X0225290Y0170034D02*
X0224597Y0170034D01*
X0224597Y0170072D02*
X0225290Y0170072D01*
X0225290Y0170110D02*
X0224597Y0170110D01*
X0224597Y0170148D02*
X0225290Y0170148D01*
X0225290Y0170186D02*
X0224597Y0170186D01*
X0224597Y0170224D02*
X0225290Y0170224D01*
X0225290Y0170262D02*
X0224597Y0170262D01*
X0224597Y0170300D02*
X0225290Y0170300D01*
X0225290Y0170337D02*
X0224597Y0170337D01*
X0224597Y0170375D02*
X0225290Y0170375D01*
X0225290Y0170413D02*
X0224597Y0170413D01*
X0224597Y0170451D02*
X0225290Y0170451D01*
X0225290Y0170489D02*
X0224597Y0170489D01*
X0224597Y0170527D02*
X0225290Y0170527D01*
X0225290Y0170565D02*
X0224597Y0170565D01*
X0224597Y0170603D02*
X0225290Y0170603D01*
X0225290Y0170640D02*
X0224597Y0170640D01*
X0224597Y0170678D02*
X0225290Y0170678D01*
X0225290Y0170716D02*
X0224597Y0170716D01*
X0224597Y0170754D02*
X0225290Y0170754D01*
X0225290Y0170792D02*
X0224597Y0170792D01*
X0224597Y0170830D02*
X0225290Y0170830D01*
X0225290Y0170868D02*
X0224597Y0170868D01*
X0224597Y0170906D02*
X0225290Y0170906D01*
X0225290Y0170944D02*
X0224597Y0170944D01*
X0224597Y0170981D02*
X0225290Y0170981D01*
X0225290Y0171019D02*
X0224597Y0171019D01*
X0224597Y0171057D02*
X0225290Y0171057D01*
X0225290Y0171095D02*
X0224597Y0171095D01*
X0224597Y0171133D02*
X0225290Y0171133D01*
X0225290Y0171171D02*
X0224597Y0171171D01*
X0224597Y0171209D02*
X0225290Y0171209D01*
X0225290Y0171247D02*
X0224597Y0171247D01*
X0224597Y0171284D02*
X0225290Y0171284D01*
X0225290Y0171322D02*
X0224597Y0171322D01*
X0224597Y0171360D02*
X0225290Y0171360D01*
X0225290Y0171398D02*
X0224597Y0171398D01*
X0224597Y0171436D02*
X0225290Y0171436D01*
X0225290Y0171474D02*
X0224597Y0171474D01*
X0224597Y0171512D02*
X0225290Y0171512D01*
X0225290Y0171550D02*
X0224597Y0171550D01*
X0224597Y0171588D02*
X0225290Y0171588D01*
X0225290Y0171625D02*
X0224597Y0171625D01*
X0224597Y0171663D02*
X0225290Y0171663D01*
X0225290Y0171701D02*
X0224597Y0171701D01*
X0224597Y0171739D02*
X0225290Y0171739D01*
X0225290Y0171777D02*
X0224597Y0171777D01*
X0224597Y0171815D02*
X0225290Y0171815D01*
X0225290Y0171853D02*
X0224597Y0171853D01*
X0224597Y0171891D02*
X0225290Y0171891D01*
X0225290Y0171928D02*
X0224597Y0171928D01*
X0224597Y0171966D02*
X0225290Y0171966D01*
X0225290Y0172004D02*
X0224597Y0172004D01*
X0224597Y0172042D02*
X0225290Y0172042D01*
X0225290Y0172080D02*
X0224597Y0172080D01*
X0224597Y0172118D02*
X0225290Y0172118D01*
X0225290Y0172156D02*
X0224597Y0172156D01*
X0224597Y0172194D02*
X0225290Y0172194D01*
X0225290Y0172232D02*
X0224597Y0172232D01*
X0224597Y0172269D02*
X0225290Y0172269D01*
X0225290Y0172307D02*
X0224597Y0172307D01*
X0224597Y0172345D02*
X0225290Y0172345D01*
X0225290Y0172383D02*
X0224597Y0172383D01*
X0224597Y0172421D02*
X0225290Y0172421D01*
X0225290Y0172459D02*
X0224597Y0172459D01*
X0224597Y0172497D02*
X0225290Y0172497D01*
X0225290Y0172535D02*
X0224597Y0172535D01*
X0224597Y0172572D02*
X0225290Y0172572D01*
X0225290Y0172610D02*
X0224597Y0172610D01*
X0224597Y0172648D02*
X0225290Y0172648D01*
X0225290Y0172686D02*
X0224597Y0172686D01*
X0224597Y0172724D02*
X0225290Y0172724D01*
X0225290Y0172762D02*
X0224597Y0172762D01*
X0224597Y0172800D02*
X0225290Y0172800D01*
X0225290Y0172838D02*
X0224597Y0172838D01*
X0224597Y0172875D02*
X0225290Y0172875D01*
X0225290Y0172913D02*
X0224597Y0172913D01*
X0224597Y0172951D02*
X0225290Y0172951D01*
X0225290Y0172989D02*
X0224597Y0172989D01*
X0224597Y0173027D02*
X0225290Y0173027D01*
X0225290Y0173065D02*
X0224597Y0173065D01*
X0224597Y0173103D02*
X0225290Y0173103D01*
X0225290Y0173141D02*
X0224597Y0173141D01*
X0224597Y0173179D02*
X0225290Y0173179D01*
X0225290Y0173216D02*
X0224597Y0173216D01*
X0224597Y0173254D02*
X0225290Y0173254D01*
X0225290Y0173292D02*
X0224597Y0173292D01*
X0224597Y0173330D02*
X0225290Y0173330D01*
X0225290Y0173368D02*
X0224597Y0173368D01*
X0224597Y0173406D02*
X0225290Y0173406D01*
X0225290Y0173444D02*
X0224597Y0173444D01*
X0224597Y0173482D02*
X0225290Y0173482D01*
X0225290Y0173519D02*
X0224597Y0173519D01*
X0224597Y0173557D02*
X0225290Y0173557D01*
X0225290Y0173595D02*
X0224597Y0173595D01*
X0224597Y0173633D02*
X0225290Y0173633D01*
X0225290Y0173671D02*
X0224597Y0173671D01*
X0224597Y0173709D02*
X0225290Y0173709D01*
X0225290Y0173747D02*
X0224597Y0173747D01*
X0224597Y0173785D02*
X0225290Y0173785D01*
X0225290Y0173823D02*
X0224597Y0173823D01*
X0224597Y0173860D02*
X0225290Y0173860D01*
X0225290Y0173898D02*
X0224597Y0173898D01*
X0224597Y0173936D02*
X0225290Y0173936D01*
X0225290Y0173974D02*
X0224597Y0173974D01*
X0224597Y0174012D02*
X0225290Y0174012D01*
X0225290Y0174050D02*
X0224597Y0174050D01*
X0224597Y0174088D02*
X0225290Y0174088D01*
X0225290Y0174126D02*
X0224597Y0174126D01*
X0224597Y0174163D02*
X0225290Y0174163D01*
X0225290Y0174201D02*
X0224597Y0174201D01*
X0224597Y0174239D02*
X0225290Y0174239D01*
X0225290Y0174277D02*
X0224597Y0174277D01*
X0224597Y0174315D02*
X0225290Y0174315D01*
X0225290Y0174353D02*
X0224597Y0174353D01*
X0224597Y0174391D02*
X0225290Y0174391D01*
X0225290Y0174429D02*
X0224597Y0174429D01*
X0224597Y0174467D02*
X0225290Y0174467D01*
X0225290Y0174504D02*
X0224597Y0174504D01*
X0224597Y0174542D02*
X0225290Y0174542D01*
X0225290Y0174580D02*
X0224597Y0174580D01*
X0224597Y0174618D02*
X0225290Y0174618D01*
X0225290Y0174656D02*
X0224597Y0174656D01*
X0224597Y0174694D02*
X0225290Y0174694D01*
X0225290Y0174732D02*
X0224597Y0174732D01*
X0224597Y0174770D02*
X0225290Y0174770D01*
X0225290Y0174807D02*
X0224597Y0174807D01*
X0224597Y0174845D02*
X0225290Y0174845D01*
X0225290Y0174883D02*
X0224597Y0174883D01*
X0224597Y0174921D02*
X0225290Y0174921D01*
X0225290Y0174959D02*
X0224597Y0174959D01*
X0224597Y0174997D02*
X0225290Y0174997D01*
X0225290Y0175035D02*
X0224597Y0175035D01*
X0224597Y0175073D02*
X0225290Y0175073D01*
X0225290Y0175110D02*
X0224597Y0175110D01*
X0224597Y0175148D02*
X0225290Y0175148D01*
X0225290Y0175186D02*
X0224597Y0175186D01*
X0224597Y0175224D02*
X0225290Y0175224D01*
X0225290Y0175262D02*
X0224597Y0175262D01*
X0224597Y0175300D02*
X0225290Y0175300D01*
X0225290Y0175338D02*
X0224597Y0175338D01*
X0224597Y0175376D02*
X0225290Y0175376D01*
X0225290Y0175414D02*
X0224597Y0175414D01*
X0224597Y0175451D02*
X0225290Y0175451D01*
X0225290Y0175489D02*
X0224597Y0175489D01*
X0224597Y0175527D02*
X0225290Y0175527D01*
X0225290Y0175565D02*
X0224597Y0175565D01*
X0224597Y0175603D02*
X0225290Y0175603D01*
X0225290Y0175641D02*
X0224597Y0175641D01*
X0224597Y0175679D02*
X0225290Y0175679D01*
X0225290Y0175717D02*
X0224597Y0175717D01*
X0224597Y0175754D02*
X0225290Y0175754D01*
X0225290Y0175792D02*
X0224597Y0175792D01*
X0224597Y0175830D02*
X0225290Y0175830D01*
X0225290Y0175868D02*
X0224597Y0175868D01*
X0224597Y0175906D02*
X0225290Y0175906D01*
X0225290Y0175944D02*
X0224597Y0175944D01*
X0224597Y0175982D02*
X0225290Y0175982D01*
X0225290Y0176020D02*
X0224597Y0176020D01*
X0224597Y0176058D02*
X0225290Y0176058D01*
X0225290Y0176095D02*
X0224597Y0176095D01*
X0224597Y0176133D02*
X0225290Y0176133D01*
X0225290Y0176171D02*
X0224597Y0176171D01*
X0224597Y0176209D02*
X0225290Y0176209D01*
X0225290Y0176247D02*
X0224597Y0176247D01*
X0224597Y0176285D02*
X0225290Y0176285D01*
X0225290Y0176323D02*
X0224597Y0176323D01*
X0224597Y0176361D02*
X0225290Y0176361D01*
X0225290Y0176398D02*
X0224597Y0176398D01*
X0224597Y0176436D02*
X0225290Y0176436D01*
X0225290Y0176474D02*
X0224597Y0176474D01*
X0224597Y0176512D02*
X0225290Y0176512D01*
X0225290Y0176550D02*
X0224597Y0176550D01*
X0224597Y0176588D02*
X0225290Y0176588D01*
X0225290Y0176626D02*
X0224597Y0176626D01*
X0224597Y0176664D02*
X0225290Y0176664D01*
X0225290Y0176702D02*
X0224597Y0176702D01*
X0224597Y0176739D02*
X0225290Y0176739D01*
X0225290Y0176777D02*
X0224597Y0176777D01*
X0224597Y0176815D02*
X0225290Y0176815D01*
X0225290Y0176853D02*
X0224597Y0176853D01*
X0224597Y0176891D02*
X0225290Y0176891D01*
X0225290Y0176929D02*
X0224597Y0176929D01*
X0224597Y0176967D02*
X0225290Y0176967D01*
X0225290Y0177005D02*
X0224597Y0177005D01*
X0224597Y0177042D02*
X0225290Y0177042D01*
X0225290Y0177080D02*
X0224597Y0177080D01*
X0224597Y0177118D02*
X0225290Y0177118D01*
X0225290Y0177156D02*
X0224597Y0177156D01*
X0224597Y0177194D02*
X0225290Y0177194D01*
X0225290Y0177232D02*
X0224597Y0177232D01*
X0224597Y0177270D02*
X0225290Y0177270D01*
X0225290Y0177308D02*
X0224597Y0177308D01*
X0224597Y0177345D02*
X0225290Y0177345D01*
X0225290Y0177383D02*
X0224597Y0177383D01*
X0224597Y0177421D02*
X0225290Y0177421D01*
X0225290Y0177459D02*
X0224597Y0177459D01*
X0224597Y0177497D02*
X0225290Y0177497D01*
X0225290Y0177535D02*
X0224597Y0177535D01*
X0224597Y0177573D02*
X0225290Y0177573D01*
X0225290Y0177611D02*
X0224597Y0177611D01*
X0224597Y0177649D02*
X0225290Y0177649D01*
X0225290Y0177686D02*
X0224597Y0177686D01*
X0224597Y0177724D02*
X0225290Y0177724D01*
X0225290Y0177762D02*
X0224597Y0177762D01*
X0224597Y0177800D02*
X0225290Y0177800D01*
X0225290Y0177838D02*
X0224597Y0177838D01*
X0224597Y0177876D02*
X0225290Y0177876D01*
X0225290Y0177914D02*
X0224597Y0177914D01*
X0224597Y0177952D02*
X0225290Y0177952D01*
X0225290Y0177989D02*
X0224597Y0177989D01*
X0224597Y0178027D02*
X0225290Y0178027D01*
X0225290Y0178065D02*
X0224597Y0178065D01*
X0224597Y0178103D02*
X0225290Y0178103D01*
X0225290Y0178141D02*
X0224597Y0178141D01*
X0224597Y0178179D02*
X0225290Y0178179D01*
X0225290Y0178217D02*
X0224597Y0178217D01*
X0224597Y0178255D02*
X0225290Y0178255D01*
X0225290Y0178293D02*
X0224597Y0178293D01*
X0224597Y0178330D02*
X0225290Y0178330D01*
X0225290Y0178368D02*
X0224597Y0178368D01*
X0224597Y0178406D02*
X0225290Y0178406D01*
X0225290Y0178444D02*
X0224597Y0178444D01*
X0224597Y0178482D02*
X0225290Y0178482D01*
X0225290Y0178520D02*
X0224597Y0178520D01*
X0224597Y0178558D02*
X0225290Y0178558D01*
X0225290Y0178596D02*
X0224597Y0178596D01*
X0224597Y0178633D02*
X0225290Y0178633D01*
X0225290Y0178671D02*
X0224597Y0178671D01*
X0224597Y0178709D02*
X0225290Y0178709D01*
X0225290Y0178747D02*
X0224597Y0178747D01*
X0224597Y0178785D02*
X0225290Y0178785D01*
X0225290Y0178823D02*
X0224597Y0178823D01*
X0224597Y0178861D02*
X0225290Y0178861D01*
X0225290Y0178899D02*
X0224597Y0178899D01*
X0224597Y0178937D02*
X0225290Y0178937D01*
X0225290Y0178974D02*
X0224597Y0178974D01*
X0224597Y0179012D02*
X0225290Y0179012D01*
X0225290Y0179050D02*
X0224597Y0179050D01*
X0224597Y0179088D02*
X0225290Y0179088D01*
X0225290Y0179126D02*
X0224597Y0179126D01*
X0224597Y0179164D02*
X0225290Y0179164D01*
X0225290Y0179202D02*
X0224597Y0179202D01*
X0224597Y0179240D02*
X0225290Y0179240D01*
X0225290Y0179277D02*
X0224597Y0179277D01*
X0224597Y0179315D02*
X0225290Y0179315D01*
X0225290Y0179353D02*
X0224597Y0179353D01*
X0224597Y0179391D02*
X0225290Y0179391D01*
X0225290Y0179429D02*
X0224597Y0179429D01*
X0224597Y0179467D02*
X0225290Y0179467D01*
X0225290Y0179505D02*
X0224597Y0179505D01*
X0224597Y0179543D02*
X0225290Y0179543D01*
X0225290Y0179580D02*
X0224597Y0179580D01*
X0224597Y0179618D02*
X0225290Y0179618D01*
X0225290Y0179656D02*
X0224597Y0179656D01*
X0224597Y0179694D02*
X0225290Y0179694D01*
X0225290Y0179732D02*
X0224597Y0179732D01*
X0224597Y0179770D02*
X0225290Y0179770D01*
X0225290Y0179808D02*
X0224597Y0179808D01*
X0224597Y0179846D02*
X0225290Y0179846D01*
X0225290Y0179884D02*
X0224597Y0179884D01*
X0224597Y0179921D02*
X0225290Y0179921D01*
X0225290Y0179959D02*
X0224597Y0179959D01*
X0224597Y0179997D02*
X0225290Y0179997D01*
X0225290Y0180035D02*
X0224597Y0180035D01*
X0224597Y0180073D02*
X0225290Y0180073D01*
X0225290Y0180111D02*
X0224597Y0180111D01*
X0224597Y0180149D02*
X0225290Y0180149D01*
X0225290Y0180187D02*
X0224597Y0180187D01*
X0224597Y0180224D02*
X0225290Y0180224D01*
X0225290Y0180262D02*
X0224597Y0180262D01*
X0224597Y0180300D02*
X0225290Y0180300D01*
X0225290Y0180338D02*
X0224597Y0180338D01*
X0224597Y0180376D02*
X0225290Y0180376D01*
X0225290Y0180414D02*
X0224597Y0180414D01*
X0224597Y0180452D02*
X0225290Y0180452D01*
X0225290Y0180490D02*
X0224597Y0180490D01*
X0224597Y0180528D02*
X0225290Y0180528D01*
X0225290Y0180565D02*
X0224597Y0180565D01*
X0224597Y0180603D02*
X0225290Y0180603D01*
X0225290Y0180641D02*
X0224597Y0180641D01*
X0224597Y0180679D02*
X0225290Y0180679D01*
X0225290Y0180717D02*
X0224597Y0180717D01*
X0224597Y0180755D02*
X0225290Y0180755D01*
X0225290Y0180793D02*
X0224597Y0180793D01*
X0224597Y0180831D02*
X0225290Y0180831D01*
X0225290Y0180868D02*
X0224597Y0180868D01*
X0224597Y0180906D02*
X0225290Y0180906D01*
X0225290Y0180944D02*
X0224597Y0180944D01*
X0224597Y0180982D02*
X0225290Y0180982D01*
X0225290Y0181020D02*
X0224597Y0181020D01*
X0224597Y0181058D02*
X0225290Y0181058D01*
X0225290Y0181096D02*
X0224597Y0181096D01*
X0224597Y0181134D02*
X0225290Y0181134D01*
X0225290Y0181172D02*
X0224597Y0181172D01*
X0224597Y0181209D02*
X0225290Y0181209D01*
X0225290Y0181247D02*
X0224597Y0181247D01*
X0224597Y0181285D02*
X0225290Y0181285D01*
X0225290Y0181323D02*
X0224597Y0181323D01*
X0224597Y0181361D02*
X0225290Y0181361D01*
X0225290Y0181399D02*
X0224597Y0181399D01*
X0224597Y0181437D02*
X0225290Y0181437D01*
X0225290Y0181475D02*
X0224597Y0181475D01*
X0224597Y0181512D02*
X0225290Y0181512D01*
X0225290Y0181550D02*
X0224597Y0181550D01*
X0224597Y0181588D02*
X0225290Y0181588D01*
X0225290Y0181626D02*
X0224597Y0181626D01*
X0224597Y0181664D02*
X0225290Y0181664D01*
X0225290Y0181702D02*
X0224597Y0181702D01*
X0224597Y0181740D02*
X0225290Y0181740D01*
X0225290Y0181778D02*
X0224597Y0181778D01*
X0224597Y0181816D02*
X0225290Y0181816D01*
X0225290Y0181853D02*
X0224597Y0181853D01*
X0224597Y0181891D02*
X0225290Y0181891D01*
X0225290Y0181929D02*
X0224597Y0181929D01*
X0224597Y0181967D02*
X0225290Y0181967D01*
X0225290Y0182005D02*
X0224597Y0182005D01*
X0224597Y0182043D02*
X0225290Y0182043D01*
X0225290Y0182081D02*
X0224597Y0182081D01*
X0224597Y0182119D02*
X0225290Y0182119D01*
X0225290Y0182156D02*
X0224597Y0182156D01*
X0224597Y0182194D02*
X0225290Y0182194D01*
X0225290Y0182232D02*
X0224597Y0182232D01*
X0224597Y0182270D02*
X0225290Y0182270D01*
X0225290Y0182308D02*
X0224597Y0182308D01*
X0224597Y0182346D02*
X0225290Y0182346D01*
X0225290Y0182384D02*
X0224597Y0182384D01*
X0224597Y0182422D02*
X0225290Y0182422D01*
X0225290Y0182459D02*
X0224597Y0182459D01*
X0224597Y0182497D02*
X0225290Y0182497D01*
X0225290Y0182535D02*
X0224597Y0182535D01*
X0224597Y0182573D02*
X0225290Y0182573D01*
X0225290Y0182611D02*
X0224597Y0182611D01*
X0224597Y0182649D02*
X0225290Y0182649D01*
X0225290Y0182687D02*
X0224597Y0182687D01*
X0224597Y0182725D02*
X0225290Y0182725D01*
X0225290Y0182763D02*
X0224597Y0182763D01*
X0224597Y0182800D02*
X0225290Y0182800D01*
X0225290Y0182838D02*
X0224597Y0182838D01*
X0224597Y0182876D02*
X0225290Y0182876D01*
X0225290Y0182914D02*
X0224597Y0182914D01*
X0224597Y0182952D02*
X0225290Y0182952D01*
X0225290Y0182990D02*
X0224597Y0182990D01*
X0224597Y0183028D02*
X0225290Y0183028D01*
X0225290Y0183066D02*
X0224597Y0183066D01*
X0224597Y0183103D02*
X0225290Y0183103D01*
X0225290Y0183141D02*
X0224597Y0183141D01*
X0224597Y0183179D02*
X0225290Y0183179D01*
X0225290Y0183217D02*
X0224597Y0183217D01*
X0224597Y0183255D02*
X0225290Y0183255D01*
X0225290Y0183293D02*
X0224597Y0183293D01*
X0224597Y0183331D02*
X0225290Y0183331D01*
X0225290Y0183369D02*
X0224597Y0183369D01*
X0224597Y0183407D02*
X0225290Y0183407D01*
X0225290Y0183444D02*
X0224597Y0183444D01*
X0224597Y0183482D02*
X0225290Y0183482D01*
X0225290Y0183520D02*
X0224597Y0183520D01*
X0224597Y0183558D02*
X0225290Y0183558D01*
X0225290Y0183596D02*
X0224597Y0183596D01*
X0224597Y0183634D02*
X0225290Y0183634D01*
X0225290Y0183672D02*
X0224597Y0183672D01*
X0224597Y0183710D02*
X0225290Y0183710D01*
X0225290Y0183747D02*
X0224597Y0183747D01*
X0224597Y0183785D02*
X0225290Y0183785D01*
X0225290Y0183823D02*
X0224597Y0183823D01*
X0224597Y0183861D02*
X0225290Y0183861D01*
X0225290Y0183899D02*
X0224597Y0183899D01*
X0224597Y0183937D02*
X0225290Y0183937D01*
X0225290Y0183975D02*
X0224597Y0183975D01*
X0224597Y0184013D02*
X0225290Y0184013D01*
X0225290Y0184051D02*
X0224597Y0184051D01*
X0224597Y0184088D02*
X0225290Y0184088D01*
X0225290Y0184126D02*
X0224597Y0184126D01*
X0224597Y0184164D02*
X0225290Y0184164D01*
X0225290Y0184202D02*
X0224597Y0184202D01*
X0224597Y0184240D02*
X0225290Y0184240D01*
X0225290Y0184278D02*
X0224597Y0184278D01*
X0224597Y0184316D02*
X0225290Y0184316D01*
X0225290Y0184354D02*
X0224597Y0184354D01*
X0224597Y0184391D02*
X0225290Y0184391D01*
X0225290Y0184429D02*
X0224597Y0184429D01*
X0224597Y0184467D02*
X0225290Y0184467D01*
X0225290Y0184505D02*
X0224597Y0184505D01*
X0224597Y0184543D02*
X0225290Y0184543D01*
X0225290Y0184581D02*
X0224597Y0184581D01*
X0224597Y0184619D02*
X0225290Y0184619D01*
X0225290Y0184657D02*
X0224597Y0184657D01*
X0224597Y0184694D02*
X0225290Y0184694D01*
X0225290Y0184732D02*
X0224597Y0184732D01*
X0224597Y0184770D02*
X0225290Y0184770D01*
X0225290Y0184808D02*
X0224597Y0184808D01*
X0224597Y0184846D02*
X0225290Y0184846D01*
X0225290Y0184884D02*
X0224597Y0184884D01*
X0224597Y0184922D02*
X0225290Y0184922D01*
X0225290Y0184960D02*
X0224597Y0184960D01*
X0224597Y0184998D02*
X0225290Y0184998D01*
X0225290Y0185035D02*
X0224597Y0185035D01*
X0224597Y0185073D02*
X0225290Y0185073D01*
X0225290Y0185111D02*
X0224597Y0185111D01*
X0224597Y0185149D02*
X0225290Y0185149D01*
X0225290Y0185187D02*
X0224597Y0185187D01*
X0224597Y0185225D02*
X0225290Y0185225D01*
X0225290Y0185263D02*
X0224597Y0185263D01*
X0224597Y0185301D02*
X0225290Y0185301D01*
X0225290Y0185338D02*
X0224597Y0185338D01*
X0224597Y0185376D02*
X0225290Y0185376D01*
X0225290Y0185414D02*
X0224597Y0185414D01*
X0224597Y0185452D02*
X0225290Y0185452D01*
X0225290Y0185490D02*
X0224597Y0185490D01*
X0224597Y0185528D02*
X0225290Y0185528D01*
X0225290Y0185566D02*
X0224597Y0185566D01*
X0224597Y0185604D02*
X0225290Y0185604D01*
X0225290Y0185642D02*
X0224597Y0185642D01*
X0224597Y0185679D02*
X0225290Y0185679D01*
X0225290Y0185717D02*
X0224597Y0185717D01*
X0224597Y0185755D02*
X0225290Y0185755D01*
X0225290Y0185793D02*
X0224597Y0185793D01*
X0224597Y0185831D02*
X0225290Y0185831D01*
X0225290Y0185869D02*
X0224597Y0185869D01*
X0224597Y0185907D02*
X0225290Y0185907D01*
X0225290Y0185945D02*
X0224597Y0185945D01*
X0224597Y0185982D02*
X0225290Y0185982D01*
X0225290Y0186020D02*
X0224597Y0186020D01*
X0224597Y0186058D02*
X0225290Y0186058D01*
X0225290Y0186096D02*
X0224597Y0186096D01*
X0224597Y0186134D02*
X0225290Y0186134D01*
X0225290Y0186172D02*
X0224597Y0186172D01*
X0224597Y0186210D02*
X0225290Y0186210D01*
X0225290Y0186248D02*
X0224597Y0186248D01*
X0224597Y0186286D02*
X0225290Y0186286D01*
X0225290Y0186323D02*
X0224597Y0186323D01*
X0224597Y0186361D02*
X0225290Y0186361D01*
X0225290Y0186399D02*
X0224597Y0186399D01*
X0224597Y0186437D02*
X0228697Y0186437D01*
X0232070Y0186437D01*
X0232070Y0186399D02*
X0231376Y0186399D01*
X0231376Y0186361D02*
X0232070Y0186361D01*
X0232070Y0186323D02*
X0231376Y0186323D01*
X0231376Y0186286D02*
X0232070Y0186286D01*
X0232070Y0186248D02*
X0231376Y0186248D01*
X0231376Y0186210D02*
X0232070Y0186210D01*
X0232070Y0186172D02*
X0231376Y0186172D01*
X0231376Y0186134D02*
X0232070Y0186134D01*
X0232070Y0186096D02*
X0231376Y0186096D01*
X0231376Y0186058D02*
X0232070Y0186058D01*
X0232070Y0186020D02*
X0231376Y0186020D01*
X0231376Y0185982D02*
X0232070Y0185982D01*
X0232070Y0185945D02*
X0231376Y0185945D01*
X0231376Y0185907D02*
X0232070Y0185907D01*
X0232070Y0185869D02*
X0231376Y0185869D01*
X0231376Y0185831D02*
X0232070Y0185831D01*
X0232070Y0185793D02*
X0231376Y0185793D01*
X0231376Y0185755D02*
X0232070Y0185755D01*
X0232070Y0185717D02*
X0231376Y0185717D01*
X0231376Y0185679D02*
X0232070Y0185679D01*
X0232070Y0185642D02*
X0231376Y0185642D01*
X0231376Y0185604D02*
X0232070Y0185604D01*
X0232070Y0185566D02*
X0231376Y0185566D01*
X0231376Y0185528D02*
X0232070Y0185528D01*
X0232070Y0185490D02*
X0231376Y0185490D01*
X0231376Y0185452D02*
X0232070Y0185452D01*
X0232070Y0185414D02*
X0231376Y0185414D01*
X0231376Y0185376D02*
X0232070Y0185376D01*
X0232070Y0185338D02*
X0231376Y0185338D01*
X0231376Y0185301D02*
X0232070Y0185301D01*
X0232070Y0185263D02*
X0231376Y0185263D01*
X0231376Y0185225D02*
X0232070Y0185225D01*
X0232070Y0185187D02*
X0231376Y0185187D01*
X0231376Y0185149D02*
X0232070Y0185149D01*
X0232070Y0185111D02*
X0231376Y0185111D01*
X0231376Y0185073D02*
X0232070Y0185073D01*
X0232070Y0185035D02*
X0231376Y0185035D01*
X0231376Y0184998D02*
X0232070Y0184998D01*
X0232070Y0184960D02*
X0231376Y0184960D01*
X0231376Y0184922D02*
X0232070Y0184922D01*
X0232070Y0184884D02*
X0231376Y0184884D01*
X0231376Y0184846D02*
X0232070Y0184846D01*
X0232070Y0184808D02*
X0231376Y0184808D01*
X0231376Y0184770D02*
X0232070Y0184770D01*
X0232070Y0184732D02*
X0231376Y0184732D01*
X0231376Y0184694D02*
X0232070Y0184694D01*
X0232070Y0184657D02*
X0231376Y0184657D01*
X0231376Y0184619D02*
X0232070Y0184619D01*
X0232070Y0184581D02*
X0231376Y0184581D01*
X0231376Y0184543D02*
X0232070Y0184543D01*
X0232070Y0184505D02*
X0231376Y0184505D01*
X0231376Y0184467D02*
X0232070Y0184467D01*
X0232070Y0184429D02*
X0231376Y0184429D01*
X0231376Y0184391D02*
X0232070Y0184391D01*
X0232070Y0184354D02*
X0231376Y0184354D01*
X0231376Y0184316D02*
X0232070Y0184316D01*
X0232070Y0184278D02*
X0231376Y0184278D01*
X0231376Y0184240D02*
X0232070Y0184240D01*
X0232070Y0184202D02*
X0231376Y0184202D01*
X0231376Y0184164D02*
X0232070Y0184164D01*
X0232070Y0184126D02*
X0231376Y0184126D01*
X0231376Y0184088D02*
X0232070Y0184088D01*
X0232070Y0184051D02*
X0231376Y0184051D01*
X0231376Y0184013D02*
X0232070Y0184013D01*
X0232070Y0183975D02*
X0231376Y0183975D01*
X0231376Y0183937D02*
X0232070Y0183937D01*
X0232070Y0183899D02*
X0231376Y0183899D01*
X0231376Y0183861D02*
X0232070Y0183861D01*
X0232070Y0183823D02*
X0231376Y0183823D01*
X0231376Y0183785D02*
X0232070Y0183785D01*
X0232070Y0183747D02*
X0231376Y0183747D01*
X0231376Y0183710D02*
X0232070Y0183710D01*
X0232070Y0183672D02*
X0231376Y0183672D01*
X0231376Y0183634D02*
X0232070Y0183634D01*
X0232070Y0183596D02*
X0231376Y0183596D01*
X0231376Y0183558D02*
X0232070Y0183558D01*
X0232070Y0183520D02*
X0231376Y0183520D01*
X0231376Y0183482D02*
X0232070Y0183482D01*
X0232070Y0183444D02*
X0231376Y0183444D01*
X0231376Y0183407D02*
X0232070Y0183407D01*
X0232070Y0183369D02*
X0231376Y0183369D01*
X0231376Y0183331D02*
X0232070Y0183331D01*
X0232070Y0183293D02*
X0231376Y0183293D01*
X0231376Y0183255D02*
X0232070Y0183255D01*
X0232070Y0183217D02*
X0231376Y0183217D01*
X0231376Y0183179D02*
X0232070Y0183179D01*
X0232070Y0183141D02*
X0231376Y0183141D01*
X0231376Y0183103D02*
X0232070Y0183103D01*
X0232070Y0183066D02*
X0231376Y0183066D01*
X0231376Y0183028D02*
X0232070Y0183028D01*
X0232070Y0182990D02*
X0231376Y0182990D01*
X0231376Y0182952D02*
X0232070Y0182952D01*
X0232070Y0182914D02*
X0231376Y0182914D01*
X0231376Y0182876D02*
X0232070Y0182876D01*
X0232070Y0182838D02*
X0231376Y0182838D01*
X0231376Y0182800D02*
X0232070Y0182800D01*
X0232070Y0182763D02*
X0231376Y0182763D01*
X0231376Y0182725D02*
X0232070Y0182725D01*
X0232070Y0182687D02*
X0231376Y0182687D01*
X0231376Y0182649D02*
X0232070Y0182649D01*
X0232070Y0182611D02*
X0231376Y0182611D01*
X0231376Y0182573D02*
X0232070Y0182573D01*
X0232070Y0182535D02*
X0231376Y0182535D01*
X0231376Y0182497D02*
X0232070Y0182497D01*
X0232070Y0182459D02*
X0231376Y0182459D01*
X0231376Y0182422D02*
X0232070Y0182422D01*
X0232070Y0182384D02*
X0231376Y0182384D01*
X0231376Y0182346D02*
X0232070Y0182346D01*
X0232070Y0182308D02*
X0231376Y0182308D01*
X0231376Y0182270D02*
X0232070Y0182270D01*
X0232070Y0182232D02*
X0231376Y0182232D01*
X0231376Y0182194D02*
X0232070Y0182194D01*
X0232070Y0182156D02*
X0231376Y0182156D01*
X0231376Y0182119D02*
X0232070Y0182119D01*
X0232070Y0182081D02*
X0231376Y0182081D01*
X0231376Y0182043D02*
X0232070Y0182043D01*
X0232070Y0182005D02*
X0231376Y0182005D01*
X0231376Y0181967D02*
X0232070Y0181967D01*
X0232070Y0181929D02*
X0231376Y0181929D01*
X0231376Y0181891D02*
X0232070Y0181891D01*
X0232070Y0181853D02*
X0231376Y0181853D01*
X0231376Y0181816D02*
X0232070Y0181816D01*
X0232070Y0181778D02*
X0231376Y0181778D01*
X0231376Y0181740D02*
X0232070Y0181740D01*
X0232070Y0181702D02*
X0231376Y0181702D01*
X0231376Y0181664D02*
X0232070Y0181664D01*
X0232070Y0181626D02*
X0231376Y0181626D01*
X0231376Y0181588D02*
X0232070Y0181588D01*
X0232070Y0181550D02*
X0231376Y0181550D01*
X0231376Y0181512D02*
X0232070Y0181512D01*
X0232070Y0181475D02*
X0231376Y0181475D01*
X0231376Y0181437D02*
X0232070Y0181437D01*
X0232070Y0181399D02*
X0231376Y0181399D01*
X0231376Y0181361D02*
X0232070Y0181361D01*
X0232070Y0181323D02*
X0231376Y0181323D01*
X0231376Y0181285D02*
X0232070Y0181285D01*
X0232070Y0181247D02*
X0231376Y0181247D01*
X0231376Y0181209D02*
X0232070Y0181209D01*
X0232070Y0181172D02*
X0231376Y0181172D01*
X0231376Y0181134D02*
X0232070Y0181134D01*
X0232070Y0181096D02*
X0231376Y0181096D01*
X0231376Y0181058D02*
X0232070Y0181058D01*
X0232070Y0181020D02*
X0231376Y0181020D01*
X0231376Y0180982D02*
X0232070Y0180982D01*
X0232070Y0180944D02*
X0231376Y0180944D01*
X0231376Y0180906D02*
X0232070Y0180906D01*
X0232070Y0180868D02*
X0231376Y0180868D01*
X0231376Y0180831D02*
X0232070Y0180831D01*
X0232070Y0180793D02*
X0231376Y0180793D01*
X0231376Y0180755D02*
X0232070Y0180755D01*
X0232070Y0180717D02*
X0231376Y0180717D01*
X0231376Y0180679D02*
X0232070Y0180679D01*
X0232070Y0180641D02*
X0231376Y0180641D01*
X0231376Y0180603D02*
X0232070Y0180603D01*
X0232070Y0180565D02*
X0231376Y0180565D01*
X0231376Y0180528D02*
X0232070Y0180528D01*
X0232070Y0180490D02*
X0231376Y0180490D01*
X0231376Y0180452D02*
X0232070Y0180452D01*
X0232070Y0180414D02*
X0231376Y0180414D01*
X0231376Y0180376D02*
X0232070Y0180376D01*
X0232070Y0180338D02*
X0231376Y0180338D01*
X0231376Y0180300D02*
X0232070Y0180300D01*
X0232070Y0180262D02*
X0231376Y0180262D01*
X0231376Y0180224D02*
X0232070Y0180224D01*
X0232070Y0180187D02*
X0231376Y0180187D01*
X0231376Y0180149D02*
X0232070Y0180149D01*
X0232070Y0180111D02*
X0231376Y0180111D01*
X0231376Y0180073D02*
X0232070Y0180073D01*
X0232070Y0180035D02*
X0231376Y0180035D01*
X0231376Y0179997D02*
X0232070Y0179997D01*
X0232070Y0179959D02*
X0231376Y0179959D01*
X0231376Y0179921D02*
X0232070Y0179921D01*
X0232070Y0179884D02*
X0231376Y0179884D01*
X0231376Y0179846D02*
X0232070Y0179846D01*
X0232070Y0179808D02*
X0231376Y0179808D01*
X0231376Y0179770D02*
X0232070Y0179770D01*
X0232070Y0179732D02*
X0231376Y0179732D01*
X0231376Y0179694D02*
X0232070Y0179694D01*
X0232070Y0179656D02*
X0231376Y0179656D01*
X0231376Y0179618D02*
X0232070Y0179618D01*
X0232070Y0179580D02*
X0231376Y0179580D01*
X0231376Y0179543D02*
X0232070Y0179543D01*
X0232070Y0179505D02*
X0231376Y0179505D01*
X0231376Y0179467D02*
X0232070Y0179467D01*
X0232070Y0179429D02*
X0231376Y0179429D01*
X0231376Y0179391D02*
X0232070Y0179391D01*
X0232070Y0179353D02*
X0231376Y0179353D01*
X0231376Y0179315D02*
X0232070Y0179315D01*
X0232070Y0179277D02*
X0231376Y0179277D01*
X0231376Y0179240D02*
X0232070Y0179240D01*
X0232070Y0179202D02*
X0231376Y0179202D01*
X0231376Y0179164D02*
X0232070Y0179164D01*
X0232070Y0179126D02*
X0231376Y0179126D01*
X0231376Y0179088D02*
X0232070Y0179088D01*
X0232070Y0179050D02*
X0231376Y0179050D01*
X0231376Y0179012D02*
X0232070Y0179012D01*
X0232070Y0178974D02*
X0231376Y0178974D01*
X0231376Y0178937D02*
X0232070Y0178937D01*
X0232070Y0178899D02*
X0231376Y0178899D01*
X0231376Y0178861D02*
X0232070Y0178861D01*
X0232070Y0178823D02*
X0231376Y0178823D01*
X0231376Y0178785D02*
X0232070Y0178785D01*
X0232070Y0178747D02*
X0231376Y0178747D01*
X0231376Y0178709D02*
X0232070Y0178709D01*
X0232070Y0178671D02*
X0231376Y0178671D01*
X0231376Y0178633D02*
X0232070Y0178633D01*
X0232070Y0178596D02*
X0231376Y0178596D01*
X0231376Y0178558D02*
X0232070Y0178558D01*
X0232070Y0178520D02*
X0231376Y0178520D01*
X0231376Y0178482D02*
X0232070Y0178482D01*
X0232070Y0178444D02*
X0231376Y0178444D01*
X0231376Y0178406D02*
X0232070Y0178406D01*
X0232070Y0178368D02*
X0231376Y0178368D01*
X0231376Y0178330D02*
X0232070Y0178330D01*
X0232070Y0178293D02*
X0231376Y0178293D01*
X0231376Y0178255D02*
X0232070Y0178255D01*
X0232070Y0178217D02*
X0231376Y0178217D01*
X0231376Y0178179D02*
X0232070Y0178179D01*
X0232070Y0178141D02*
X0231376Y0178141D01*
X0231376Y0178103D02*
X0232070Y0178103D01*
X0232070Y0178065D02*
X0231376Y0178065D01*
X0231376Y0178027D02*
X0232070Y0178027D01*
X0232070Y0177989D02*
X0231376Y0177989D01*
X0231376Y0177952D02*
X0232070Y0177952D01*
X0232070Y0177914D02*
X0231376Y0177914D01*
X0231376Y0177876D02*
X0232070Y0177876D01*
X0232070Y0177838D02*
X0231376Y0177838D01*
X0231376Y0177800D02*
X0232070Y0177800D01*
X0232070Y0177762D02*
X0231376Y0177762D01*
X0231376Y0177724D02*
X0232070Y0177724D01*
X0232070Y0177686D02*
X0231376Y0177686D01*
X0231376Y0177649D02*
X0232070Y0177649D01*
X0232070Y0177611D02*
X0231376Y0177611D01*
X0231376Y0177573D02*
X0232070Y0177573D01*
X0232070Y0177535D02*
X0231376Y0177535D01*
X0231376Y0177497D02*
X0232070Y0177497D01*
X0232070Y0177459D02*
X0231376Y0177459D01*
X0231376Y0177421D02*
X0232070Y0177421D01*
X0232070Y0177383D02*
X0231376Y0177383D01*
X0231376Y0177345D02*
X0232070Y0177345D01*
X0232070Y0177308D02*
X0231376Y0177308D01*
X0231376Y0177270D02*
X0232070Y0177270D01*
X0232070Y0177232D02*
X0231376Y0177232D01*
X0231376Y0177194D02*
X0232070Y0177194D01*
X0232070Y0177156D02*
X0231376Y0177156D01*
X0231376Y0177118D02*
X0232070Y0177118D01*
X0232070Y0177080D02*
X0231376Y0177080D01*
X0231376Y0177042D02*
X0232070Y0177042D01*
X0232070Y0177005D02*
X0231376Y0177005D01*
X0231376Y0176967D02*
X0232070Y0176967D01*
X0232070Y0176929D02*
X0231376Y0176929D01*
X0231376Y0176891D02*
X0232070Y0176891D01*
X0232070Y0176853D02*
X0231376Y0176853D01*
X0231376Y0176815D02*
X0232070Y0176815D01*
X0232070Y0176777D02*
X0231376Y0176777D01*
X0231376Y0176739D02*
X0232070Y0176739D01*
X0232070Y0176702D02*
X0231376Y0176702D01*
X0231376Y0176664D02*
X0232070Y0176664D01*
X0232070Y0176626D02*
X0231376Y0176626D01*
X0231376Y0176588D02*
X0232070Y0176588D01*
X0232070Y0176550D02*
X0231376Y0176550D01*
X0231376Y0176512D02*
X0232070Y0176512D01*
X0232070Y0176474D02*
X0231376Y0176474D01*
X0231376Y0176436D02*
X0232070Y0176436D01*
X0232070Y0176398D02*
X0231376Y0176398D01*
X0231376Y0176361D02*
X0232070Y0176361D01*
X0232070Y0176323D02*
X0231376Y0176323D01*
X0231376Y0176285D02*
X0232070Y0176285D01*
X0232070Y0176247D02*
X0231376Y0176247D01*
X0231376Y0176209D02*
X0232070Y0176209D01*
X0232070Y0176171D02*
X0231376Y0176171D01*
X0231376Y0176133D02*
X0232070Y0176133D01*
X0232070Y0176095D02*
X0231376Y0176095D01*
X0231376Y0176058D02*
X0232070Y0176058D01*
X0232070Y0176020D02*
X0231376Y0176020D01*
X0231376Y0175982D02*
X0232070Y0175982D01*
X0232070Y0175944D02*
X0231376Y0175944D01*
X0231376Y0175906D02*
X0232070Y0175906D01*
X0232070Y0175868D02*
X0231376Y0175868D01*
X0231376Y0175830D02*
X0232070Y0175830D01*
X0232070Y0175792D02*
X0231376Y0175792D01*
X0231376Y0175754D02*
X0232070Y0175754D01*
X0232070Y0175717D02*
X0231376Y0175717D01*
X0231376Y0175679D02*
X0232070Y0175679D01*
X0232070Y0175641D02*
X0231376Y0175641D01*
X0231376Y0175603D02*
X0232070Y0175603D01*
X0232070Y0175565D02*
X0231376Y0175565D01*
X0231376Y0175527D02*
X0232070Y0175527D01*
X0232070Y0175489D02*
X0231376Y0175489D01*
X0231376Y0175451D02*
X0232070Y0175451D01*
X0232070Y0175414D02*
X0231376Y0175414D01*
X0231376Y0175376D02*
X0232070Y0175376D01*
X0232070Y0175338D02*
X0231376Y0175338D01*
X0231376Y0175300D02*
X0232070Y0175300D01*
X0232070Y0175262D02*
X0231376Y0175262D01*
X0231376Y0175224D02*
X0232070Y0175224D01*
X0232070Y0175186D02*
X0231376Y0175186D01*
X0231376Y0175148D02*
X0232070Y0175148D01*
X0232070Y0175110D02*
X0231376Y0175110D01*
X0231376Y0175073D02*
X0232070Y0175073D01*
X0232070Y0175035D02*
X0231376Y0175035D01*
X0231376Y0174997D02*
X0232070Y0174997D01*
X0232070Y0174959D02*
X0231376Y0174959D01*
X0231376Y0174921D02*
X0232070Y0174921D01*
X0232070Y0174883D02*
X0231376Y0174883D01*
X0231376Y0174845D02*
X0232070Y0174845D01*
X0232070Y0174807D02*
X0231376Y0174807D01*
X0231376Y0174770D02*
X0232070Y0174770D01*
X0232070Y0174732D02*
X0231376Y0174732D01*
X0231376Y0174694D02*
X0232070Y0174694D01*
X0232070Y0174656D02*
X0231376Y0174656D01*
X0231376Y0174618D02*
X0232070Y0174618D01*
X0232070Y0174580D02*
X0231376Y0174580D01*
X0231376Y0174542D02*
X0232070Y0174542D01*
X0232070Y0174504D02*
X0231376Y0174504D01*
X0231376Y0174467D02*
X0232070Y0174467D01*
X0232070Y0174429D02*
X0231376Y0174429D01*
X0231376Y0174391D02*
X0232070Y0174391D01*
X0232070Y0174353D02*
X0231376Y0174353D01*
X0231376Y0174315D02*
X0232070Y0174315D01*
X0232070Y0174277D02*
X0231376Y0174277D01*
X0231376Y0174239D02*
X0232070Y0174239D01*
X0232070Y0174201D02*
X0231376Y0174201D01*
X0231376Y0174163D02*
X0232070Y0174163D01*
X0232070Y0174126D02*
X0231376Y0174126D01*
X0231376Y0174088D02*
X0232070Y0174088D01*
X0232070Y0174050D02*
X0231376Y0174050D01*
X0231376Y0174012D02*
X0232070Y0174012D01*
X0232070Y0173974D02*
X0231376Y0173974D01*
X0231376Y0173936D02*
X0232070Y0173936D01*
X0232070Y0173898D02*
X0231376Y0173898D01*
X0231376Y0173860D02*
X0232070Y0173860D01*
X0232070Y0173823D02*
X0231376Y0173823D01*
X0231376Y0173785D02*
X0232070Y0173785D01*
X0232070Y0173747D02*
X0231376Y0173747D01*
X0231376Y0173709D02*
X0232070Y0173709D01*
X0232070Y0173671D02*
X0231376Y0173671D01*
X0231376Y0173633D02*
X0232070Y0173633D01*
X0232070Y0173595D02*
X0231376Y0173595D01*
X0231376Y0173557D02*
X0232070Y0173557D01*
X0232070Y0173519D02*
X0231376Y0173519D01*
X0231376Y0173482D02*
X0232070Y0173482D01*
X0232070Y0173444D02*
X0231376Y0173444D01*
X0231376Y0173406D02*
X0232070Y0173406D01*
X0232070Y0173368D02*
X0231376Y0173368D01*
X0231376Y0173330D02*
X0232070Y0173330D01*
X0232070Y0173292D02*
X0231376Y0173292D01*
X0231376Y0173254D02*
X0232070Y0173254D01*
X0232070Y0173216D02*
X0231376Y0173216D01*
X0231376Y0173179D02*
X0232070Y0173179D01*
X0232070Y0173141D02*
X0231376Y0173141D01*
X0231376Y0173103D02*
X0232070Y0173103D01*
X0232070Y0173065D02*
X0231376Y0173065D01*
X0231376Y0173027D02*
X0232070Y0173027D01*
X0232070Y0172989D02*
X0231376Y0172989D01*
X0231376Y0172951D02*
X0232070Y0172951D01*
X0232070Y0172913D02*
X0231376Y0172913D01*
X0231376Y0172875D02*
X0232070Y0172875D01*
X0232070Y0172838D02*
X0231376Y0172838D01*
X0231376Y0172800D02*
X0232070Y0172800D01*
X0232070Y0172762D02*
X0231376Y0172762D01*
X0231376Y0172724D02*
X0232070Y0172724D01*
X0232070Y0172686D02*
X0231376Y0172686D01*
X0231376Y0172648D02*
X0232070Y0172648D01*
X0232070Y0172610D02*
X0231376Y0172610D01*
X0231376Y0172572D02*
X0232070Y0172572D01*
X0232070Y0172535D02*
X0231376Y0172535D01*
X0231376Y0172497D02*
X0232070Y0172497D01*
X0232070Y0172459D02*
X0231376Y0172459D01*
X0231376Y0172421D02*
X0232070Y0172421D01*
X0232070Y0172383D02*
X0231376Y0172383D01*
X0231376Y0172345D02*
X0232070Y0172345D01*
X0232070Y0172307D02*
X0231376Y0172307D01*
X0231376Y0172269D02*
X0232070Y0172269D01*
X0232070Y0172232D02*
X0231376Y0172232D01*
X0231376Y0172194D02*
X0232070Y0172194D01*
X0232070Y0172156D02*
X0231376Y0172156D01*
X0231376Y0172118D02*
X0232070Y0172118D01*
X0232070Y0172080D02*
X0231376Y0172080D01*
X0231376Y0172042D02*
X0232070Y0172042D01*
X0232070Y0172004D02*
X0231376Y0172004D01*
X0231376Y0171966D02*
X0232070Y0171966D01*
X0232070Y0171928D02*
X0231376Y0171928D01*
X0231376Y0171891D02*
X0232070Y0171891D01*
X0232070Y0171853D02*
X0231376Y0171853D01*
X0231376Y0171815D02*
X0232070Y0171815D01*
X0232070Y0171777D02*
X0231376Y0171777D01*
X0231376Y0171739D02*
X0232070Y0171739D01*
X0232070Y0171701D02*
X0231376Y0171701D01*
X0231376Y0171663D02*
X0232070Y0171663D01*
X0232070Y0171625D02*
X0231376Y0171625D01*
X0231376Y0171588D02*
X0232070Y0171588D01*
X0232070Y0171550D02*
X0231376Y0171550D01*
X0231376Y0171512D02*
X0232070Y0171512D01*
X0232070Y0171474D02*
X0231376Y0171474D01*
X0231376Y0171436D02*
X0232070Y0171436D01*
X0232070Y0171398D02*
X0231376Y0171398D01*
X0231376Y0171360D02*
X0232070Y0171360D01*
X0232070Y0171322D02*
X0231376Y0171322D01*
X0231376Y0171284D02*
X0232070Y0171284D01*
X0232070Y0171247D02*
X0231376Y0171247D01*
X0231376Y0171209D02*
X0232070Y0171209D01*
X0232070Y0171171D02*
X0231376Y0171171D01*
X0231376Y0171133D02*
X0232070Y0171133D01*
X0232070Y0171095D02*
X0231376Y0171095D01*
X0231376Y0171057D02*
X0232070Y0171057D01*
X0232070Y0171019D02*
X0231376Y0171019D01*
X0231376Y0170981D02*
X0232070Y0170981D01*
X0232070Y0170944D02*
X0231376Y0170944D01*
X0231376Y0170906D02*
X0232070Y0170906D01*
X0232070Y0170868D02*
X0231376Y0170868D01*
X0231376Y0170830D02*
X0232070Y0170830D01*
X0232070Y0170792D02*
X0231376Y0170792D01*
X0231376Y0170754D02*
X0232070Y0170754D01*
X0232070Y0170716D02*
X0231376Y0170716D01*
X0231376Y0170678D02*
X0232070Y0170678D01*
X0232070Y0170640D02*
X0231376Y0170640D01*
X0231376Y0170603D02*
X0232070Y0170603D01*
X0232070Y0170565D02*
X0231376Y0170565D01*
X0231376Y0170527D02*
X0232070Y0170527D01*
X0232070Y0170489D02*
X0231376Y0170489D01*
X0231376Y0170451D02*
X0232070Y0170451D01*
X0232070Y0170413D02*
X0231376Y0170413D01*
X0231376Y0170375D02*
X0232070Y0170375D01*
X0232070Y0170337D02*
X0231376Y0170337D01*
X0231376Y0170300D02*
X0232070Y0170300D01*
X0232070Y0170262D02*
X0231376Y0170262D01*
X0231376Y0170224D02*
X0232070Y0170224D01*
X0232070Y0170186D02*
X0231376Y0170186D01*
X0231376Y0170148D02*
X0232070Y0170148D01*
X0232070Y0170110D02*
X0231376Y0170110D01*
X0231376Y0170072D02*
X0232070Y0170072D01*
X0232070Y0170034D02*
X0231376Y0170034D01*
X0231376Y0169997D02*
X0232070Y0169997D01*
X0232070Y0169959D02*
X0231376Y0169959D01*
X0231376Y0169921D02*
X0232070Y0169921D01*
X0232070Y0169883D02*
X0231376Y0169883D01*
X0231376Y0169845D02*
X0232070Y0169845D01*
X0232070Y0169807D02*
X0231376Y0169807D01*
X0231376Y0169769D02*
X0232070Y0169769D01*
X0232070Y0169731D02*
X0231376Y0169731D01*
X0231376Y0169693D02*
X0232070Y0169693D01*
X0232070Y0169656D02*
X0231376Y0169656D01*
X0231376Y0169618D02*
X0232070Y0169618D01*
X0232070Y0169580D02*
X0231376Y0169580D01*
X0231376Y0169542D02*
X0232070Y0169542D01*
X0232070Y0169504D02*
X0231376Y0169504D01*
X0231376Y0169466D02*
X0232070Y0169466D01*
X0232070Y0169428D02*
X0231376Y0169428D01*
X0231376Y0169390D02*
X0232070Y0169390D01*
X0232070Y0169353D02*
X0231376Y0169353D01*
X0231376Y0169315D02*
X0232070Y0169315D01*
X0232070Y0169277D02*
X0231376Y0169277D01*
X0231376Y0169239D02*
X0232070Y0169239D01*
X0232070Y0169201D02*
X0231376Y0169201D01*
X0231376Y0169163D02*
X0232070Y0169163D01*
X0232070Y0169125D02*
X0231376Y0169125D01*
X0231376Y0169087D02*
X0232070Y0169087D01*
X0232070Y0169049D02*
X0231376Y0169049D01*
X0231376Y0169012D02*
X0232070Y0169012D01*
X0232070Y0168974D02*
X0231376Y0168974D01*
X0231376Y0168936D02*
X0232070Y0168936D01*
X0232070Y0168898D02*
X0231376Y0168898D01*
X0231376Y0168860D02*
X0232070Y0168860D01*
X0232070Y0168822D02*
X0231376Y0168822D01*
X0231376Y0168784D02*
X0232070Y0168784D01*
X0232070Y0168746D02*
X0231376Y0168746D01*
X0231376Y0168709D02*
X0232070Y0168709D01*
X0232070Y0168671D02*
X0231376Y0168671D01*
X0231376Y0168633D02*
X0232070Y0168633D01*
X0232070Y0168595D02*
X0231376Y0168595D01*
X0231376Y0168557D02*
X0232070Y0168557D01*
X0232070Y0168519D02*
X0231376Y0168519D01*
X0231376Y0168481D02*
X0232070Y0168481D01*
X0232070Y0168443D02*
X0231376Y0168443D01*
X0231376Y0168405D02*
X0232070Y0168405D01*
X0232070Y0168368D02*
X0231376Y0168368D01*
X0231376Y0168330D02*
X0232070Y0168330D01*
X0232070Y0168292D02*
X0231376Y0168292D01*
X0231376Y0168254D02*
X0232070Y0168254D01*
X0232070Y0168216D02*
X0231376Y0168216D01*
X0231376Y0168178D02*
X0232070Y0168178D01*
X0232070Y0168140D02*
X0231376Y0168140D01*
X0231376Y0168102D02*
X0232070Y0168102D01*
X0232070Y0168065D02*
X0231376Y0168065D01*
X0231376Y0168027D02*
X0232070Y0168027D01*
X0232070Y0167989D02*
X0231376Y0167989D01*
X0231376Y0167951D02*
X0232070Y0167951D01*
X0232070Y0167913D02*
X0231376Y0167913D01*
X0231376Y0167875D02*
X0232070Y0167875D01*
X0232070Y0167837D02*
X0231376Y0167837D01*
X0231376Y0167799D02*
X0232070Y0167799D01*
X0232070Y0167762D02*
X0231376Y0167762D01*
X0231376Y0167724D02*
X0232070Y0167724D01*
X0232070Y0167686D02*
X0231376Y0167686D01*
X0231376Y0167648D02*
X0232070Y0167648D01*
X0232070Y0167610D02*
X0231376Y0167610D01*
X0231376Y0167572D02*
X0232070Y0167572D01*
X0232070Y0167534D02*
X0231376Y0167534D01*
X0231376Y0167496D02*
X0232070Y0167496D01*
X0232070Y0167458D02*
X0231376Y0167458D01*
X0231376Y0167421D02*
X0232070Y0167421D01*
X0232070Y0167383D02*
X0231376Y0167383D01*
X0231376Y0167345D02*
X0232070Y0167345D01*
X0232070Y0167307D02*
X0231376Y0167307D01*
X0231376Y0167269D02*
X0232070Y0167269D01*
X0232070Y0167231D02*
X0231376Y0167231D01*
X0231376Y0167193D02*
X0232070Y0167193D01*
X0232070Y0167155D02*
X0231376Y0167155D01*
X0231376Y0167118D02*
X0232070Y0167118D01*
X0232070Y0167080D02*
X0231376Y0167080D01*
X0231376Y0167042D02*
X0232070Y0167042D01*
X0232070Y0167004D02*
X0231376Y0167004D01*
X0231376Y0166966D02*
X0232070Y0166966D01*
X0232070Y0166928D02*
X0231376Y0166928D01*
X0231376Y0166890D02*
X0232070Y0166890D01*
X0232070Y0166852D02*
X0231376Y0166852D01*
X0231376Y0166814D02*
X0232070Y0166814D01*
X0232070Y0166777D02*
X0231376Y0166777D01*
X0231376Y0166739D02*
X0232070Y0166739D01*
X0232070Y0166701D02*
X0231376Y0166701D01*
X0231376Y0166663D02*
X0232070Y0166663D01*
X0232070Y0166625D02*
X0231376Y0166625D01*
X0231376Y0166587D02*
X0232070Y0166587D01*
X0232070Y0166549D02*
X0231376Y0166549D01*
X0231376Y0166511D02*
X0232070Y0166511D01*
X0232070Y0166474D02*
X0231376Y0166474D01*
X0231376Y0166436D02*
X0232070Y0166436D01*
X0232070Y0166398D02*
X0231376Y0166398D01*
X0231376Y0166360D02*
X0232070Y0166360D01*
X0232070Y0166322D02*
X0231376Y0166322D01*
X0231376Y0166284D02*
X0232070Y0166284D01*
X0232070Y0166246D02*
X0231376Y0166246D01*
X0231376Y0166208D02*
X0232070Y0166208D01*
X0232070Y0166170D02*
X0231376Y0166170D01*
X0231376Y0166133D02*
X0232070Y0166133D01*
X0229881Y0167596D02*
X0230061Y0167976D01*
X0230168Y0168379D01*
X0230204Y0168789D01*
X0230186Y0169071D01*
X0230129Y0169326D01*
X0230037Y0169552D01*
X0229913Y0169745D01*
X0229754Y0169901D01*
X0229562Y0170018D01*
X0229337Y0170091D01*
X0229084Y0170115D01*
X0229062Y0170115D01*
X0228841Y0170096D01*
X0228655Y0170039D01*
X0228495Y0169945D01*
X0228358Y0169815D01*
X0228142Y0169453D01*
X0227980Y0168962D01*
X0227872Y0168576D01*
X0227774Y0168336D01*
X0227658Y0168214D01*
X0227504Y0168182D01*
X0227494Y0168182D01*
X0227446Y0168193D01*
X0227446Y0167405D01*
X0227567Y0167393D01*
X0227577Y0167393D01*
X0227824Y0167415D01*
X0228028Y0167480D01*
X0228195Y0167583D01*
X0228331Y0167720D01*
X0228536Y0168098D01*
X0228687Y0168597D01*
X0228795Y0168967D01*
X0228898Y0169191D01*
X0229008Y0169299D01*
X0229146Y0169329D01*
X0229157Y0169329D01*
X0229301Y0169295D01*
X0229408Y0169191D01*
X0229476Y0169027D01*
X0229500Y0168805D01*
X0229470Y0168507D01*
X0229381Y0168233D01*
X0229241Y0167975D01*
X0229060Y0167723D01*
X0229624Y0167253D01*
X0229881Y0167596D01*
X0229887Y0167610D02*
X0229195Y0167610D01*
X0229149Y0167648D02*
X0229905Y0167648D01*
X0229923Y0167686D02*
X0229104Y0167686D01*
X0229060Y0167724D02*
X0229941Y0167724D01*
X0229959Y0167762D02*
X0229088Y0167762D01*
X0229115Y0167799D02*
X0229977Y0167799D01*
X0229995Y0167837D02*
X0229142Y0167837D01*
X0229170Y0167875D02*
X0230013Y0167875D01*
X0230031Y0167913D02*
X0229197Y0167913D01*
X0229224Y0167951D02*
X0230049Y0167951D01*
X0230065Y0167989D02*
X0229249Y0167989D01*
X0229270Y0168027D02*
X0230075Y0168027D01*
X0230085Y0168065D02*
X0229290Y0168065D01*
X0229310Y0168102D02*
X0230095Y0168102D01*
X0230105Y0168140D02*
X0229331Y0168140D01*
X0229351Y0168178D02*
X0230115Y0168178D01*
X0230125Y0168216D02*
X0229372Y0168216D01*
X0229388Y0168254D02*
X0230135Y0168254D01*
X0230145Y0168292D02*
X0229400Y0168292D01*
X0229412Y0168330D02*
X0230155Y0168330D01*
X0230165Y0168368D02*
X0229425Y0168368D01*
X0229437Y0168405D02*
X0230171Y0168405D01*
X0230174Y0168443D02*
X0229449Y0168443D01*
X0229461Y0168481D02*
X0230177Y0168481D01*
X0230181Y0168519D02*
X0229471Y0168519D01*
X0229475Y0168557D02*
X0230184Y0168557D01*
X0230187Y0168595D02*
X0229479Y0168595D01*
X0229482Y0168633D02*
X0230191Y0168633D01*
X0230194Y0168671D02*
X0229486Y0168671D01*
X0229490Y0168709D02*
X0230197Y0168709D01*
X0230201Y0168746D02*
X0229494Y0168746D01*
X0229498Y0168784D02*
X0230204Y0168784D01*
X0230202Y0168822D02*
X0229498Y0168822D01*
X0229494Y0168860D02*
X0230200Y0168860D01*
X0230197Y0168898D02*
X0229490Y0168898D01*
X0229486Y0168936D02*
X0230195Y0168936D01*
X0230192Y0168974D02*
X0229482Y0168974D01*
X0229478Y0169012D02*
X0230190Y0169012D01*
X0230187Y0169049D02*
X0229467Y0169049D01*
X0229451Y0169087D02*
X0230182Y0169087D01*
X0230174Y0169125D02*
X0229435Y0169125D01*
X0229420Y0169163D02*
X0230165Y0169163D01*
X0230157Y0169201D02*
X0229398Y0169201D01*
X0229359Y0169239D02*
X0230148Y0169239D01*
X0230140Y0169277D02*
X0229319Y0169277D01*
X0229217Y0169315D02*
X0230131Y0169315D01*
X0230118Y0169353D02*
X0228108Y0169353D01*
X0228121Y0169390D02*
X0230103Y0169390D01*
X0230087Y0169428D02*
X0228133Y0169428D01*
X0228149Y0169466D02*
X0230072Y0169466D01*
X0230056Y0169504D02*
X0228172Y0169504D01*
X0228195Y0169542D02*
X0230041Y0169542D01*
X0230019Y0169580D02*
X0228217Y0169580D01*
X0228240Y0169618D02*
X0229995Y0169618D01*
X0229970Y0169656D02*
X0228262Y0169656D01*
X0228285Y0169693D02*
X0229946Y0169693D01*
X0229922Y0169731D02*
X0228308Y0169731D01*
X0228330Y0169769D02*
X0229888Y0169769D01*
X0229849Y0169807D02*
X0228353Y0169807D01*
X0228389Y0169845D02*
X0229811Y0169845D01*
X0229772Y0169883D02*
X0228429Y0169883D01*
X0228469Y0169921D02*
X0229721Y0169921D01*
X0229659Y0169959D02*
X0228518Y0169959D01*
X0228582Y0169997D02*
X0229597Y0169997D01*
X0229510Y0170034D02*
X0228646Y0170034D01*
X0228763Y0170072D02*
X0229394Y0170072D01*
X0229133Y0170110D02*
X0229006Y0170110D01*
X0229079Y0169315D02*
X0228096Y0169315D01*
X0228083Y0169277D02*
X0228985Y0169277D01*
X0228946Y0169239D02*
X0228071Y0169239D01*
X0228058Y0169201D02*
X0228907Y0169201D01*
X0228885Y0169163D02*
X0228046Y0169163D01*
X0228033Y0169125D02*
X0228867Y0169125D01*
X0228850Y0169087D02*
X0228021Y0169087D01*
X0228008Y0169049D02*
X0228833Y0169049D01*
X0228815Y0169012D02*
X0227996Y0169012D01*
X0227984Y0168974D02*
X0228798Y0168974D01*
X0228786Y0168936D02*
X0227972Y0168936D01*
X0227962Y0168898D02*
X0228775Y0168898D01*
X0228764Y0168860D02*
X0227951Y0168860D01*
X0227941Y0168822D02*
X0228753Y0168822D01*
X0228742Y0168784D02*
X0227930Y0168784D01*
X0227919Y0168746D02*
X0228731Y0168746D01*
X0228719Y0168709D02*
X0227909Y0168709D01*
X0227898Y0168671D02*
X0228708Y0168671D01*
X0228697Y0168633D02*
X0227888Y0168633D01*
X0227877Y0168595D02*
X0228686Y0168595D01*
X0228675Y0168557D02*
X0227864Y0168557D01*
X0227849Y0168519D02*
X0228663Y0168519D01*
X0228652Y0168481D02*
X0227833Y0168481D01*
X0227818Y0168443D02*
X0228640Y0168443D01*
X0228629Y0168405D02*
X0227803Y0168405D01*
X0227787Y0168368D02*
X0228617Y0168368D01*
X0228606Y0168330D02*
X0227769Y0168330D01*
X0227733Y0168292D02*
X0228595Y0168292D01*
X0228583Y0168254D02*
X0227696Y0168254D01*
X0227660Y0168216D02*
X0228572Y0168216D01*
X0228560Y0168178D02*
X0227446Y0168178D01*
X0226546Y0168178D01*
X0226554Y0168144D02*
X0226649Y0167928D01*
X0226775Y0167744D01*
X0226934Y0167596D01*
X0227118Y0167485D01*
X0227329Y0167416D01*
X0227446Y0167405D01*
X0227446Y0168193D01*
X0227370Y0168210D01*
X0227270Y0168298D01*
X0227201Y0168444D01*
X0227178Y0168646D01*
X0227202Y0168878D01*
X0227272Y0169110D01*
X0227446Y0169425D01*
X0227534Y0169586D01*
X0227446Y0169647D01*
X0227446Y0169425D01*
X0227446Y0169647D01*
X0226935Y0169999D01*
X0226738Y0169705D01*
X0226595Y0169386D01*
X0226506Y0169036D01*
X0226476Y0168654D01*
X0226496Y0168387D01*
X0226554Y0168144D01*
X0226556Y0168140D02*
X0227446Y0168140D01*
X0228549Y0168140D01*
X0228537Y0168102D02*
X0227446Y0168102D01*
X0226572Y0168102D01*
X0226589Y0168065D02*
X0227446Y0168065D01*
X0228518Y0168065D01*
X0228497Y0168027D02*
X0227446Y0168027D01*
X0226605Y0168027D01*
X0226622Y0167989D02*
X0227446Y0167989D01*
X0228477Y0167989D01*
X0228456Y0167951D02*
X0227446Y0167951D01*
X0226638Y0167951D01*
X0226659Y0167913D02*
X0227446Y0167913D01*
X0228435Y0167913D01*
X0228415Y0167875D02*
X0227446Y0167875D01*
X0226685Y0167875D01*
X0226711Y0167837D02*
X0227446Y0167837D01*
X0228394Y0167837D01*
X0228374Y0167799D02*
X0227446Y0167799D01*
X0226737Y0167799D01*
X0226764Y0167762D02*
X0227446Y0167762D01*
X0228353Y0167762D01*
X0228333Y0167724D02*
X0227446Y0167724D01*
X0226798Y0167724D01*
X0226838Y0167686D02*
X0227446Y0167686D01*
X0228297Y0167686D01*
X0228259Y0167648D02*
X0227446Y0167648D01*
X0226879Y0167648D01*
X0226919Y0167610D02*
X0227446Y0167610D01*
X0228222Y0167610D01*
X0228178Y0167572D02*
X0227446Y0167572D01*
X0226974Y0167572D01*
X0227037Y0167534D02*
X0227446Y0167534D01*
X0228116Y0167534D01*
X0228055Y0167496D02*
X0227446Y0167496D01*
X0227100Y0167496D01*
X0227199Y0167458D02*
X0227446Y0167458D01*
X0227961Y0167458D01*
X0227841Y0167421D02*
X0227446Y0167421D01*
X0227315Y0167421D01*
X0227364Y0168216D02*
X0226537Y0168216D01*
X0226528Y0168254D02*
X0227320Y0168254D01*
X0227276Y0168292D02*
X0226518Y0168292D01*
X0226509Y0168330D02*
X0227255Y0168330D01*
X0227237Y0168368D02*
X0226500Y0168368D01*
X0226494Y0168405D02*
X0227219Y0168405D01*
X0227202Y0168443D02*
X0226491Y0168443D01*
X0226489Y0168481D02*
X0227197Y0168481D01*
X0227193Y0168519D02*
X0226486Y0168519D01*
X0226483Y0168557D02*
X0227188Y0168557D01*
X0227184Y0168595D02*
X0226480Y0168595D01*
X0226477Y0168633D02*
X0227179Y0168633D01*
X0227180Y0168671D02*
X0226477Y0168671D01*
X0226480Y0168709D02*
X0227184Y0168709D01*
X0227188Y0168746D02*
X0226483Y0168746D01*
X0226486Y0168784D02*
X0227192Y0168784D01*
X0227196Y0168822D02*
X0226489Y0168822D01*
X0226492Y0168860D02*
X0227200Y0168860D01*
X0227208Y0168898D02*
X0226495Y0168898D01*
X0226498Y0168936D02*
X0227219Y0168936D01*
X0227231Y0168974D02*
X0226501Y0168974D01*
X0226504Y0169012D02*
X0227242Y0169012D01*
X0227254Y0169049D02*
X0226509Y0169049D01*
X0226519Y0169087D02*
X0227265Y0169087D01*
X0227280Y0169125D02*
X0226528Y0169125D01*
X0226538Y0169163D02*
X0227301Y0169163D01*
X0227322Y0169201D02*
X0226548Y0169201D01*
X0226557Y0169239D02*
X0227343Y0169239D01*
X0227364Y0169277D02*
X0226567Y0169277D01*
X0226576Y0169315D02*
X0227385Y0169315D01*
X0227406Y0169353D02*
X0226586Y0169353D01*
X0226597Y0169390D02*
X0227426Y0169390D01*
X0227446Y0169428D02*
X0227447Y0169428D01*
X0227446Y0169428D02*
X0226614Y0169428D01*
X0226631Y0169466D02*
X0227446Y0169466D01*
X0227468Y0169466D01*
X0227446Y0169504D02*
X0227489Y0169504D01*
X0227510Y0169542D02*
X0227446Y0169542D01*
X0226665Y0169542D01*
X0226682Y0169580D02*
X0227446Y0169580D01*
X0227531Y0169580D01*
X0227488Y0169618D02*
X0227446Y0169618D01*
X0226699Y0169618D01*
X0226716Y0169656D02*
X0227433Y0169656D01*
X0227378Y0169693D02*
X0226733Y0169693D01*
X0226756Y0169731D02*
X0227323Y0169731D01*
X0227268Y0169769D02*
X0226781Y0169769D01*
X0226806Y0169807D02*
X0227213Y0169807D01*
X0227158Y0169845D02*
X0226832Y0169845D01*
X0226857Y0169883D02*
X0227103Y0169883D01*
X0227048Y0169921D02*
X0226882Y0169921D01*
X0226908Y0169959D02*
X0226993Y0169959D01*
X0226938Y0169997D02*
X0226933Y0169997D01*
X0226648Y0169504D02*
X0227446Y0169504D01*
X0227446Y0170806D02*
X0227446Y0171605D01*
X0227243Y0171605D01*
X0227243Y0172221D01*
X0227277Y0172489D01*
X0227383Y0172693D01*
X0227446Y0172741D01*
X0227446Y0173632D01*
X0227264Y0173579D01*
X0227050Y0173463D01*
X0226867Y0173304D01*
X0226721Y0173106D01*
X0226611Y0172869D01*
X0226543Y0172596D01*
X0226519Y0172286D01*
X0226519Y0170806D01*
X0227446Y0170806D01*
X0230140Y0170806D01*
X0230140Y0171603D01*
X0229054Y0171603D01*
X0229054Y0172207D01*
X0229034Y0172503D01*
X0228973Y0172780D01*
X0228872Y0173029D01*
X0228733Y0173244D01*
X0228552Y0173422D01*
X0228333Y0173557D01*
X0228076Y0173642D01*
X0227780Y0173671D01*
X0227785Y0173673D01*
X0227774Y0173673D01*
X0227507Y0173649D01*
X0227446Y0173632D01*
X0227446Y0172741D01*
X0227555Y0172823D01*
X0227791Y0172866D01*
X0227801Y0172866D01*
X0228015Y0172825D01*
X0228193Y0172701D01*
X0228311Y0172503D01*
X0228350Y0172237D01*
X0228350Y0171605D01*
X0227446Y0171605D01*
X0227446Y0170806D01*
X0227446Y0170830D02*
X0226519Y0170830D01*
X0226519Y0170868D02*
X0227446Y0170868D01*
X0230140Y0170868D01*
X0230140Y0170906D02*
X0227446Y0170906D01*
X0226519Y0170906D01*
X0226519Y0170944D02*
X0227446Y0170944D01*
X0230140Y0170944D01*
X0230140Y0170981D02*
X0227446Y0170981D01*
X0226519Y0170981D01*
X0226519Y0171019D02*
X0227446Y0171019D01*
X0230140Y0171019D01*
X0230140Y0171057D02*
X0227446Y0171057D01*
X0226519Y0171057D01*
X0226519Y0171095D02*
X0227446Y0171095D01*
X0230140Y0171095D01*
X0230140Y0171133D02*
X0227446Y0171133D01*
X0226519Y0171133D01*
X0226519Y0171171D02*
X0227446Y0171171D01*
X0230140Y0171171D01*
X0230140Y0171209D02*
X0227446Y0171209D01*
X0226519Y0171209D01*
X0226519Y0171247D02*
X0227446Y0171247D01*
X0230140Y0171247D01*
X0230140Y0171284D02*
X0227446Y0171284D01*
X0226519Y0171284D01*
X0226519Y0171322D02*
X0227446Y0171322D01*
X0230140Y0171322D01*
X0230140Y0171360D02*
X0227446Y0171360D01*
X0226519Y0171360D01*
X0226519Y0171398D02*
X0227446Y0171398D01*
X0230140Y0171398D01*
X0230140Y0171436D02*
X0227446Y0171436D01*
X0226519Y0171436D01*
X0226519Y0171474D02*
X0227446Y0171474D01*
X0230140Y0171474D01*
X0230140Y0171512D02*
X0227446Y0171512D01*
X0226519Y0171512D01*
X0226519Y0171550D02*
X0227446Y0171550D01*
X0230140Y0171550D01*
X0230140Y0171588D02*
X0227446Y0171588D01*
X0226519Y0171588D01*
X0226519Y0171625D02*
X0227243Y0171625D01*
X0227243Y0171663D02*
X0226519Y0171663D01*
X0226519Y0171701D02*
X0227243Y0171701D01*
X0227243Y0171739D02*
X0226519Y0171739D01*
X0226519Y0171777D02*
X0227243Y0171777D01*
X0227243Y0171815D02*
X0226519Y0171815D01*
X0226519Y0171853D02*
X0227243Y0171853D01*
X0227243Y0171891D02*
X0226519Y0171891D01*
X0226519Y0171928D02*
X0227243Y0171928D01*
X0227243Y0171966D02*
X0226519Y0171966D01*
X0226519Y0172004D02*
X0227243Y0172004D01*
X0227243Y0172042D02*
X0226519Y0172042D01*
X0226519Y0172080D02*
X0227243Y0172080D01*
X0227243Y0172118D02*
X0226519Y0172118D01*
X0226519Y0172156D02*
X0227243Y0172156D01*
X0227243Y0172194D02*
X0226519Y0172194D01*
X0226519Y0172232D02*
X0227244Y0172232D01*
X0227249Y0172269D02*
X0226519Y0172269D01*
X0226521Y0172307D02*
X0227254Y0172307D01*
X0227259Y0172345D02*
X0226523Y0172345D01*
X0226526Y0172383D02*
X0227264Y0172383D01*
X0227268Y0172421D02*
X0226529Y0172421D01*
X0226532Y0172459D02*
X0227273Y0172459D01*
X0227281Y0172497D02*
X0226535Y0172497D01*
X0226538Y0172535D02*
X0227301Y0172535D01*
X0227320Y0172572D02*
X0226541Y0172572D01*
X0226546Y0172610D02*
X0227340Y0172610D01*
X0227360Y0172648D02*
X0226556Y0172648D01*
X0226565Y0172686D02*
X0227379Y0172686D01*
X0227423Y0172724D02*
X0226575Y0172724D01*
X0226584Y0172762D02*
X0227446Y0172762D01*
X0227473Y0172762D01*
X0227446Y0172800D02*
X0226594Y0172800D01*
X0226603Y0172838D02*
X0227446Y0172838D01*
X0227633Y0172838D01*
X0227523Y0172800D02*
X0227446Y0172800D01*
X0227446Y0172875D02*
X0226614Y0172875D01*
X0226631Y0172913D02*
X0227446Y0172913D01*
X0228919Y0172913D01*
X0228935Y0172875D02*
X0227446Y0172875D01*
X0227446Y0172951D02*
X0226649Y0172951D01*
X0226667Y0172989D02*
X0227446Y0172989D01*
X0228889Y0172989D01*
X0228904Y0172951D02*
X0227446Y0172951D01*
X0227446Y0173027D02*
X0226684Y0173027D01*
X0226702Y0173065D02*
X0227446Y0173065D01*
X0228849Y0173065D01*
X0228825Y0173103D02*
X0227446Y0173103D01*
X0226720Y0173103D01*
X0226747Y0173141D02*
X0227446Y0173141D01*
X0228800Y0173141D01*
X0228775Y0173179D02*
X0227446Y0173179D01*
X0226775Y0173179D01*
X0226803Y0173216D02*
X0227446Y0173216D01*
X0228751Y0173216D01*
X0228723Y0173254D02*
X0227446Y0173254D01*
X0226831Y0173254D01*
X0226859Y0173292D02*
X0227446Y0173292D01*
X0228684Y0173292D01*
X0228646Y0173330D02*
X0227446Y0173330D01*
X0226898Y0173330D01*
X0226941Y0173368D02*
X0227446Y0173368D01*
X0228607Y0173368D01*
X0228569Y0173406D02*
X0227446Y0173406D01*
X0226985Y0173406D01*
X0227028Y0173444D02*
X0227446Y0173444D01*
X0228517Y0173444D01*
X0228456Y0173482D02*
X0227446Y0173482D01*
X0227085Y0173482D01*
X0227154Y0173519D02*
X0227446Y0173519D01*
X0228395Y0173519D01*
X0228333Y0173557D02*
X0227446Y0173557D01*
X0227224Y0173557D01*
X0227320Y0173595D02*
X0227446Y0173595D01*
X0228219Y0173595D01*
X0228104Y0173633D02*
X0227450Y0173633D01*
X0227747Y0173671D02*
X0227780Y0173671D01*
X0227446Y0173027D02*
X0228873Y0173027D01*
X0228950Y0172838D02*
X0227951Y0172838D01*
X0228052Y0172800D02*
X0228965Y0172800D01*
X0228977Y0172762D02*
X0228106Y0172762D01*
X0228161Y0172724D02*
X0228985Y0172724D01*
X0228994Y0172686D02*
X0228202Y0172686D01*
X0228224Y0172648D02*
X0229002Y0172648D01*
X0229010Y0172610D02*
X0228247Y0172610D01*
X0228269Y0172572D02*
X0229019Y0172572D01*
X0229027Y0172535D02*
X0228292Y0172535D01*
X0228312Y0172497D02*
X0229034Y0172497D01*
X0229037Y0172459D02*
X0228317Y0172459D01*
X0228323Y0172421D02*
X0229039Y0172421D01*
X0229042Y0172383D02*
X0228328Y0172383D01*
X0228334Y0172345D02*
X0229045Y0172345D01*
X0229047Y0172307D02*
X0228339Y0172307D01*
X0228345Y0172269D02*
X0229050Y0172269D01*
X0229053Y0172232D02*
X0228350Y0172232D01*
X0228350Y0172194D02*
X0229054Y0172194D01*
X0229054Y0172156D02*
X0228350Y0172156D01*
X0228350Y0172118D02*
X0229054Y0172118D01*
X0229054Y0172080D02*
X0228350Y0172080D01*
X0228350Y0172042D02*
X0229054Y0172042D01*
X0229054Y0172004D02*
X0228350Y0172004D01*
X0228350Y0171966D02*
X0229054Y0171966D01*
X0229054Y0171928D02*
X0228350Y0171928D01*
X0228350Y0171891D02*
X0229054Y0171891D01*
X0229054Y0171853D02*
X0228350Y0171853D01*
X0228350Y0171815D02*
X0229054Y0171815D01*
X0229054Y0171777D02*
X0228350Y0171777D01*
X0228350Y0171739D02*
X0229054Y0171739D01*
X0229054Y0171701D02*
X0228350Y0171701D01*
X0228350Y0171663D02*
X0229054Y0171663D01*
X0229054Y0171625D02*
X0228350Y0171625D01*
X0227446Y0170830D02*
X0230140Y0170830D01*
X0230145Y0173952D02*
X0227446Y0175100D01*
X0227446Y0176642D01*
X0226497Y0176238D01*
X0226497Y0175504D01*
X0227446Y0175100D01*
X0227446Y0176642D01*
X0230145Y0177791D01*
X0230145Y0176957D01*
X0227456Y0175860D01*
X0230145Y0174764D01*
X0230145Y0173952D01*
X0230145Y0173974D02*
X0230092Y0173974D01*
X0230145Y0174012D02*
X0230003Y0174012D01*
X0229914Y0174050D02*
X0230145Y0174050D01*
X0230145Y0174088D02*
X0229825Y0174088D01*
X0229736Y0174126D02*
X0230145Y0174126D01*
X0230145Y0174163D02*
X0229647Y0174163D01*
X0229558Y0174201D02*
X0230145Y0174201D01*
X0230145Y0174239D02*
X0229469Y0174239D01*
X0229380Y0174277D02*
X0230145Y0174277D01*
X0230145Y0174315D02*
X0229291Y0174315D01*
X0229202Y0174353D02*
X0230145Y0174353D01*
X0230145Y0174391D02*
X0229113Y0174391D01*
X0229024Y0174429D02*
X0230145Y0174429D01*
X0230145Y0174467D02*
X0228935Y0174467D01*
X0228846Y0174504D02*
X0230145Y0174504D01*
X0230145Y0174542D02*
X0228757Y0174542D01*
X0228668Y0174580D02*
X0230145Y0174580D01*
X0230145Y0174618D02*
X0228579Y0174618D01*
X0228490Y0174656D02*
X0230145Y0174656D01*
X0230145Y0174694D02*
X0228401Y0174694D01*
X0228312Y0174732D02*
X0230145Y0174732D01*
X0230132Y0174770D02*
X0228223Y0174770D01*
X0228134Y0174807D02*
X0230039Y0174807D01*
X0229946Y0174845D02*
X0228045Y0174845D01*
X0227956Y0174883D02*
X0229853Y0174883D01*
X0229760Y0174921D02*
X0227867Y0174921D01*
X0227778Y0174959D02*
X0229667Y0174959D01*
X0229574Y0174997D02*
X0227689Y0174997D01*
X0227600Y0175035D02*
X0229482Y0175035D01*
X0229389Y0175073D02*
X0227511Y0175073D01*
X0227446Y0175110D02*
X0227422Y0175110D01*
X0227446Y0175110D02*
X0229296Y0175110D01*
X0229203Y0175148D02*
X0227446Y0175148D01*
X0227333Y0175148D01*
X0227244Y0175186D02*
X0227446Y0175186D01*
X0229110Y0175186D01*
X0229017Y0175224D02*
X0227446Y0175224D01*
X0227155Y0175224D01*
X0227066Y0175262D02*
X0227446Y0175262D01*
X0228924Y0175262D01*
X0228831Y0175300D02*
X0227446Y0175300D01*
X0226977Y0175300D01*
X0226888Y0175338D02*
X0227446Y0175338D01*
X0228738Y0175338D01*
X0228645Y0175376D02*
X0227446Y0175376D01*
X0226799Y0175376D01*
X0226710Y0175414D02*
X0227446Y0175414D01*
X0228552Y0175414D01*
X0228459Y0175451D02*
X0227446Y0175451D01*
X0226621Y0175451D01*
X0226532Y0175489D02*
X0227446Y0175489D01*
X0228366Y0175489D01*
X0228273Y0175527D02*
X0227446Y0175527D01*
X0226497Y0175527D01*
X0226497Y0175565D02*
X0227446Y0175565D01*
X0228181Y0175565D01*
X0228088Y0175603D02*
X0227446Y0175603D01*
X0226497Y0175603D01*
X0226497Y0175641D02*
X0227446Y0175641D01*
X0227995Y0175641D01*
X0227902Y0175679D02*
X0227446Y0175679D01*
X0226497Y0175679D01*
X0226497Y0175717D02*
X0227446Y0175717D01*
X0227809Y0175717D01*
X0227716Y0175754D02*
X0227446Y0175754D01*
X0226497Y0175754D01*
X0226497Y0175792D02*
X0227446Y0175792D01*
X0227623Y0175792D01*
X0227530Y0175830D02*
X0227446Y0175830D01*
X0226497Y0175830D01*
X0226497Y0175868D02*
X0227446Y0175868D01*
X0227475Y0175868D01*
X0227446Y0175906D02*
X0226497Y0175906D01*
X0226497Y0175944D02*
X0227446Y0175944D01*
X0227660Y0175944D01*
X0227568Y0175906D02*
X0227446Y0175906D01*
X0227446Y0175982D02*
X0226497Y0175982D01*
X0226497Y0176020D02*
X0227446Y0176020D01*
X0227846Y0176020D01*
X0227753Y0175982D02*
X0227446Y0175982D01*
X0227446Y0176058D02*
X0226497Y0176058D01*
X0226497Y0176095D02*
X0227446Y0176095D01*
X0228032Y0176095D01*
X0227939Y0176058D02*
X0227446Y0176058D01*
X0227446Y0176133D02*
X0226497Y0176133D01*
X0226497Y0176171D02*
X0227446Y0176171D01*
X0228218Y0176171D01*
X0228125Y0176133D02*
X0227446Y0176133D01*
X0227446Y0176209D02*
X0226497Y0176209D01*
X0226517Y0176247D02*
X0227446Y0176247D01*
X0228404Y0176247D01*
X0228497Y0176285D02*
X0227446Y0176285D01*
X0226606Y0176285D01*
X0226695Y0176323D02*
X0227446Y0176323D01*
X0228590Y0176323D01*
X0228683Y0176361D02*
X0227446Y0176361D01*
X0226784Y0176361D01*
X0226873Y0176398D02*
X0227446Y0176398D01*
X0228776Y0176398D01*
X0228869Y0176436D02*
X0227446Y0176436D01*
X0226962Y0176436D01*
X0227051Y0176474D02*
X0227446Y0176474D01*
X0228961Y0176474D01*
X0229054Y0176512D02*
X0227446Y0176512D01*
X0227140Y0176512D01*
X0227229Y0176550D02*
X0227446Y0176550D01*
X0229147Y0176550D01*
X0229240Y0176588D02*
X0227446Y0176588D01*
X0227319Y0176588D01*
X0227408Y0176626D02*
X0227446Y0176626D01*
X0229333Y0176626D01*
X0229426Y0176664D02*
X0227497Y0176664D01*
X0227586Y0176702D02*
X0229519Y0176702D01*
X0229612Y0176739D02*
X0227675Y0176739D01*
X0227764Y0176777D02*
X0229705Y0176777D01*
X0229798Y0176815D02*
X0227853Y0176815D01*
X0227942Y0176853D02*
X0229891Y0176853D01*
X0229984Y0176891D02*
X0228031Y0176891D01*
X0228120Y0176929D02*
X0230077Y0176929D01*
X0230145Y0176967D02*
X0228209Y0176967D01*
X0228298Y0177005D02*
X0230145Y0177005D01*
X0230145Y0177042D02*
X0228387Y0177042D01*
X0228475Y0177080D02*
X0230145Y0177080D01*
X0230145Y0177118D02*
X0228564Y0177118D01*
X0228653Y0177156D02*
X0230145Y0177156D01*
X0230145Y0177194D02*
X0228742Y0177194D01*
X0228831Y0177232D02*
X0230145Y0177232D01*
X0230145Y0177270D02*
X0228920Y0177270D01*
X0229009Y0177308D02*
X0230145Y0177308D01*
X0230145Y0177345D02*
X0229098Y0177345D01*
X0229187Y0177383D02*
X0230145Y0177383D01*
X0230145Y0177421D02*
X0229276Y0177421D01*
X0229365Y0177459D02*
X0230145Y0177459D01*
X0230145Y0177497D02*
X0229454Y0177497D01*
X0229543Y0177535D02*
X0230145Y0177535D01*
X0230145Y0177573D02*
X0229632Y0177573D01*
X0229721Y0177611D02*
X0230145Y0177611D01*
X0230145Y0177649D02*
X0229810Y0177649D01*
X0229899Y0177686D02*
X0230145Y0177686D01*
X0230145Y0177724D02*
X0229988Y0177724D01*
X0230077Y0177762D02*
X0230145Y0177762D01*
X0230145Y0178350D02*
X0230145Y0179146D01*
X0228987Y0179146D01*
X0228987Y0179773D01*
X0230145Y0180548D01*
X0230145Y0181479D01*
X0228852Y0180594D01*
X0228686Y0180908D01*
X0228447Y0181155D01*
X0228130Y0181317D01*
X0227731Y0181371D01*
X0227720Y0181371D01*
X0227454Y0181349D01*
X0227446Y0181346D01*
X0227446Y0180455D01*
X0227372Y0180399D01*
X0227275Y0180201D01*
X0227243Y0179937D01*
X0227243Y0179146D01*
X0227446Y0179146D01*
X0227446Y0178350D01*
X0226524Y0178350D01*
X0226524Y0180005D01*
X0226544Y0180311D01*
X0226603Y0180580D01*
X0226702Y0180814D01*
X0226840Y0181012D01*
X0227014Y0181170D01*
X0227219Y0181282D01*
X0227446Y0181346D01*
X0227446Y0180455D01*
X0227534Y0180523D01*
X0227761Y0180564D01*
X0227769Y0180564D01*
X0227978Y0180525D01*
X0228142Y0180407D01*
X0228246Y0180215D01*
X0228282Y0179954D01*
X0228282Y0179146D01*
X0227446Y0179146D01*
X0227446Y0178350D01*
X0230145Y0178350D01*
X0230145Y0178368D02*
X0227446Y0178368D01*
X0226524Y0178368D01*
X0226524Y0178406D02*
X0227446Y0178406D01*
X0230145Y0178406D01*
X0230145Y0178444D02*
X0227446Y0178444D01*
X0226524Y0178444D01*
X0226524Y0178482D02*
X0227446Y0178482D01*
X0230145Y0178482D01*
X0230145Y0178520D02*
X0227446Y0178520D01*
X0226524Y0178520D01*
X0226524Y0178558D02*
X0227446Y0178558D01*
X0230145Y0178558D01*
X0230145Y0178596D02*
X0227446Y0178596D01*
X0226524Y0178596D01*
X0226524Y0178633D02*
X0227446Y0178633D01*
X0230145Y0178633D01*
X0230145Y0178671D02*
X0227446Y0178671D01*
X0226524Y0178671D01*
X0226524Y0178709D02*
X0227446Y0178709D01*
X0230145Y0178709D01*
X0230145Y0178747D02*
X0227446Y0178747D01*
X0226524Y0178747D01*
X0226524Y0178785D02*
X0227446Y0178785D01*
X0230145Y0178785D01*
X0230145Y0178823D02*
X0227446Y0178823D01*
X0226524Y0178823D01*
X0226524Y0178861D02*
X0227446Y0178861D01*
X0230145Y0178861D01*
X0230145Y0178899D02*
X0227446Y0178899D01*
X0226524Y0178899D01*
X0226524Y0178937D02*
X0227446Y0178937D01*
X0230145Y0178937D01*
X0230145Y0178974D02*
X0227446Y0178974D01*
X0226524Y0178974D01*
X0226524Y0179012D02*
X0227446Y0179012D01*
X0230145Y0179012D01*
X0230145Y0179050D02*
X0227446Y0179050D01*
X0226524Y0179050D01*
X0226524Y0179088D02*
X0227446Y0179088D01*
X0230145Y0179088D01*
X0230145Y0179126D02*
X0227446Y0179126D01*
X0226524Y0179126D01*
X0226524Y0179164D02*
X0227243Y0179164D01*
X0227243Y0179202D02*
X0226524Y0179202D01*
X0226524Y0179240D02*
X0227243Y0179240D01*
X0227243Y0179277D02*
X0226524Y0179277D01*
X0226524Y0179315D02*
X0227243Y0179315D01*
X0227243Y0179353D02*
X0226524Y0179353D01*
X0226524Y0179391D02*
X0227243Y0179391D01*
X0227243Y0179429D02*
X0226524Y0179429D01*
X0226524Y0179467D02*
X0227243Y0179467D01*
X0227243Y0179505D02*
X0226524Y0179505D01*
X0226524Y0179543D02*
X0227243Y0179543D01*
X0227243Y0179580D02*
X0226524Y0179580D01*
X0226524Y0179618D02*
X0227243Y0179618D01*
X0227243Y0179656D02*
X0226524Y0179656D01*
X0226524Y0179694D02*
X0227243Y0179694D01*
X0227243Y0179732D02*
X0226524Y0179732D01*
X0226524Y0179770D02*
X0227243Y0179770D01*
X0227243Y0179808D02*
X0226524Y0179808D01*
X0226524Y0179846D02*
X0227243Y0179846D01*
X0227243Y0179884D02*
X0226524Y0179884D01*
X0226524Y0179921D02*
X0227243Y0179921D01*
X0227245Y0179959D02*
X0226524Y0179959D01*
X0226524Y0179997D02*
X0227250Y0179997D01*
X0227255Y0180035D02*
X0226526Y0180035D01*
X0226529Y0180073D02*
X0227259Y0180073D01*
X0227264Y0180111D02*
X0226531Y0180111D01*
X0226534Y0180149D02*
X0227269Y0180149D01*
X0227273Y0180187D02*
X0226536Y0180187D01*
X0226539Y0180224D02*
X0227286Y0180224D01*
X0227305Y0180262D02*
X0226541Y0180262D01*
X0226543Y0180300D02*
X0227324Y0180300D01*
X0227342Y0180338D02*
X0226550Y0180338D01*
X0226558Y0180376D02*
X0227361Y0180376D01*
X0227391Y0180414D02*
X0226567Y0180414D01*
X0226575Y0180452D02*
X0227441Y0180452D01*
X0227446Y0180490D02*
X0226583Y0180490D01*
X0226592Y0180528D02*
X0227446Y0180528D01*
X0227559Y0180528D01*
X0227491Y0180490D02*
X0227446Y0180490D01*
X0227446Y0180565D02*
X0226600Y0180565D01*
X0226613Y0180603D02*
X0227446Y0180603D01*
X0228847Y0180603D01*
X0228866Y0180603D02*
X0230145Y0180603D01*
X0230145Y0180565D02*
X0227446Y0180565D01*
X0227446Y0180641D02*
X0226629Y0180641D01*
X0226645Y0180679D02*
X0227446Y0180679D01*
X0228806Y0180679D01*
X0228786Y0180717D02*
X0227446Y0180717D01*
X0226661Y0180717D01*
X0226677Y0180755D02*
X0227446Y0180755D01*
X0228766Y0180755D01*
X0228746Y0180793D02*
X0227446Y0180793D01*
X0226693Y0180793D01*
X0226713Y0180831D02*
X0227446Y0180831D01*
X0228726Y0180831D01*
X0228706Y0180868D02*
X0227446Y0180868D01*
X0226740Y0180868D01*
X0226766Y0180906D02*
X0227446Y0180906D01*
X0228686Y0180906D01*
X0228650Y0180944D02*
X0227446Y0180944D01*
X0226793Y0180944D01*
X0226819Y0180982D02*
X0227446Y0180982D01*
X0228614Y0180982D01*
X0228577Y0181020D02*
X0227446Y0181020D01*
X0226849Y0181020D01*
X0226891Y0181058D02*
X0227446Y0181058D01*
X0228541Y0181058D01*
X0228504Y0181096D02*
X0227446Y0181096D01*
X0226933Y0181096D01*
X0226974Y0181134D02*
X0227446Y0181134D01*
X0228468Y0181134D01*
X0228415Y0181172D02*
X0227446Y0181172D01*
X0227017Y0181172D01*
X0227087Y0181209D02*
X0227446Y0181209D01*
X0228340Y0181209D01*
X0228266Y0181247D02*
X0227446Y0181247D01*
X0227156Y0181247D01*
X0227230Y0181285D02*
X0227446Y0181285D01*
X0228192Y0181285D01*
X0228084Y0181323D02*
X0227446Y0181323D01*
X0227364Y0181323D01*
X0227598Y0181361D02*
X0227806Y0181361D01*
X0227446Y0180641D02*
X0228827Y0180641D01*
X0228921Y0180641D02*
X0230145Y0180641D01*
X0230145Y0180679D02*
X0228977Y0180679D01*
X0229032Y0180717D02*
X0230145Y0180717D01*
X0230145Y0180755D02*
X0229087Y0180755D01*
X0229143Y0180793D02*
X0230145Y0180793D01*
X0230145Y0180831D02*
X0229198Y0180831D01*
X0229253Y0180868D02*
X0230145Y0180868D01*
X0230145Y0180906D02*
X0229309Y0180906D01*
X0229364Y0180944D02*
X0230145Y0180944D01*
X0230145Y0180982D02*
X0229419Y0180982D01*
X0229474Y0181020D02*
X0230145Y0181020D01*
X0230145Y0181058D02*
X0229530Y0181058D01*
X0229585Y0181096D02*
X0230145Y0181096D01*
X0230145Y0181134D02*
X0229640Y0181134D01*
X0229696Y0181172D02*
X0230145Y0181172D01*
X0230145Y0181209D02*
X0229751Y0181209D01*
X0229806Y0181247D02*
X0230145Y0181247D01*
X0230145Y0181285D02*
X0229862Y0181285D01*
X0229917Y0181323D02*
X0230145Y0181323D01*
X0230145Y0181361D02*
X0229972Y0181361D01*
X0230028Y0181399D02*
X0230145Y0181399D01*
X0230145Y0181437D02*
X0230083Y0181437D01*
X0230138Y0181475D02*
X0230145Y0181475D01*
X0230145Y0182092D02*
X0230145Y0182889D01*
X0229038Y0182889D01*
X0228603Y0183307D01*
X0230145Y0184430D01*
X0230145Y0185386D01*
X0228061Y0183844D01*
X0227446Y0184434D01*
X0227446Y0183502D01*
X0226524Y0184357D01*
X0226524Y0185319D01*
X0227446Y0184434D01*
X0227446Y0183502D01*
X0228107Y0182889D01*
X0227446Y0182889D01*
X0227446Y0182092D01*
X0226524Y0182092D01*
X0226524Y0182889D01*
X0227446Y0182889D01*
X0227446Y0182092D01*
X0230145Y0182092D01*
X0230145Y0182119D02*
X0227446Y0182119D01*
X0226524Y0182119D01*
X0226524Y0182156D02*
X0227446Y0182156D01*
X0230145Y0182156D01*
X0230145Y0182194D02*
X0227446Y0182194D01*
X0226524Y0182194D01*
X0226524Y0182232D02*
X0227446Y0182232D01*
X0230145Y0182232D01*
X0230145Y0182270D02*
X0227446Y0182270D01*
X0226524Y0182270D01*
X0226524Y0182308D02*
X0227446Y0182308D01*
X0230145Y0182308D01*
X0230145Y0182346D02*
X0227446Y0182346D01*
X0226524Y0182346D01*
X0226524Y0182384D02*
X0227446Y0182384D01*
X0230145Y0182384D01*
X0230145Y0182422D02*
X0227446Y0182422D01*
X0226524Y0182422D01*
X0226524Y0182459D02*
X0227446Y0182459D01*
X0230145Y0182459D01*
X0230145Y0182497D02*
X0227446Y0182497D01*
X0226524Y0182497D01*
X0226524Y0182535D02*
X0227446Y0182535D01*
X0230145Y0182535D01*
X0230145Y0182573D02*
X0227446Y0182573D01*
X0226524Y0182573D01*
X0226524Y0182611D02*
X0227446Y0182611D01*
X0230145Y0182611D01*
X0230145Y0182649D02*
X0227446Y0182649D01*
X0226524Y0182649D01*
X0226524Y0182687D02*
X0227446Y0182687D01*
X0230145Y0182687D01*
X0230145Y0182725D02*
X0227446Y0182725D01*
X0226524Y0182725D01*
X0226524Y0182763D02*
X0227446Y0182763D01*
X0230145Y0182763D01*
X0230145Y0182800D02*
X0227446Y0182800D01*
X0226524Y0182800D01*
X0226524Y0182838D02*
X0227446Y0182838D01*
X0230145Y0182838D01*
X0230145Y0182876D02*
X0227446Y0182876D01*
X0226524Y0182876D01*
X0227263Y0183672D02*
X0227446Y0183672D01*
X0229104Y0183672D01*
X0229156Y0183710D02*
X0227446Y0183710D01*
X0227222Y0183710D01*
X0227181Y0183747D02*
X0227446Y0183747D01*
X0229208Y0183747D01*
X0229260Y0183785D02*
X0227446Y0183785D01*
X0227141Y0183785D01*
X0227100Y0183823D02*
X0227446Y0183823D01*
X0229312Y0183823D01*
X0229364Y0183861D02*
X0228083Y0183861D01*
X0228043Y0183861D02*
X0227446Y0183861D01*
X0227059Y0183861D01*
X0227018Y0183899D02*
X0227446Y0183899D01*
X0228004Y0183899D01*
X0227964Y0183937D02*
X0227446Y0183937D01*
X0226977Y0183937D01*
X0226936Y0183975D02*
X0227446Y0183975D01*
X0227925Y0183975D01*
X0227885Y0184013D02*
X0227446Y0184013D01*
X0226896Y0184013D01*
X0226855Y0184051D02*
X0227446Y0184051D01*
X0227846Y0184051D01*
X0227806Y0184088D02*
X0227446Y0184088D01*
X0226814Y0184088D01*
X0226773Y0184126D02*
X0227446Y0184126D01*
X0227767Y0184126D01*
X0227727Y0184164D02*
X0227446Y0184164D01*
X0226732Y0184164D01*
X0226692Y0184202D02*
X0227446Y0184202D01*
X0227688Y0184202D01*
X0227648Y0184240D02*
X0227446Y0184240D01*
X0226651Y0184240D01*
X0226610Y0184278D02*
X0227446Y0184278D01*
X0227609Y0184278D01*
X0227569Y0184316D02*
X0227446Y0184316D01*
X0226569Y0184316D01*
X0226528Y0184354D02*
X0227446Y0184354D01*
X0227530Y0184354D01*
X0227490Y0184391D02*
X0227446Y0184391D01*
X0226524Y0184391D01*
X0226524Y0184429D02*
X0227446Y0184429D01*
X0227451Y0184429D01*
X0227412Y0184467D02*
X0226524Y0184467D01*
X0226524Y0184505D02*
X0227372Y0184505D01*
X0227333Y0184543D02*
X0226524Y0184543D01*
X0226524Y0184581D02*
X0227293Y0184581D01*
X0227254Y0184619D02*
X0226524Y0184619D01*
X0226524Y0184657D02*
X0227214Y0184657D01*
X0227175Y0184694D02*
X0226524Y0184694D01*
X0226524Y0184732D02*
X0227135Y0184732D01*
X0227096Y0184770D02*
X0226524Y0184770D01*
X0226524Y0184808D02*
X0227056Y0184808D01*
X0227017Y0184846D02*
X0226524Y0184846D01*
X0226524Y0184884D02*
X0226977Y0184884D01*
X0226938Y0184922D02*
X0226524Y0184922D01*
X0226524Y0184960D02*
X0226898Y0184960D01*
X0226859Y0184998D02*
X0226524Y0184998D01*
X0226524Y0185035D02*
X0226819Y0185035D01*
X0226780Y0185073D02*
X0226524Y0185073D01*
X0226524Y0185111D02*
X0226740Y0185111D01*
X0226701Y0185149D02*
X0226524Y0185149D01*
X0226524Y0185187D02*
X0226661Y0185187D01*
X0226622Y0185225D02*
X0226524Y0185225D01*
X0226524Y0185263D02*
X0226583Y0185263D01*
X0226543Y0185301D02*
X0226524Y0185301D01*
X0227304Y0183634D02*
X0227446Y0183634D01*
X0229052Y0183634D01*
X0229000Y0183596D02*
X0227446Y0183596D01*
X0227345Y0183596D01*
X0227385Y0183558D02*
X0227446Y0183558D01*
X0228948Y0183558D01*
X0228896Y0183520D02*
X0227446Y0183520D01*
X0227426Y0183520D01*
X0227467Y0183482D02*
X0228844Y0183482D01*
X0228792Y0183444D02*
X0227508Y0183444D01*
X0227549Y0183407D02*
X0228740Y0183407D01*
X0228688Y0183369D02*
X0227589Y0183369D01*
X0227630Y0183331D02*
X0228636Y0183331D01*
X0228618Y0183293D02*
X0227671Y0183293D01*
X0227712Y0183255D02*
X0228657Y0183255D01*
X0228697Y0183217D02*
X0227753Y0183217D01*
X0227793Y0183179D02*
X0228736Y0183179D01*
X0228775Y0183141D02*
X0227834Y0183141D01*
X0227875Y0183103D02*
X0228815Y0183103D01*
X0228854Y0183066D02*
X0227916Y0183066D01*
X0227957Y0183028D02*
X0228894Y0183028D01*
X0228933Y0182990D02*
X0227997Y0182990D01*
X0228038Y0182952D02*
X0228972Y0182952D01*
X0229012Y0182914D02*
X0228079Y0182914D01*
X0228134Y0183899D02*
X0229416Y0183899D01*
X0229468Y0183937D02*
X0228186Y0183937D01*
X0228237Y0183975D02*
X0229520Y0183975D01*
X0229572Y0184013D02*
X0228288Y0184013D01*
X0228339Y0184051D02*
X0229624Y0184051D01*
X0229676Y0184088D02*
X0228391Y0184088D01*
X0228442Y0184126D02*
X0229728Y0184126D01*
X0229780Y0184164D02*
X0228493Y0184164D01*
X0228544Y0184202D02*
X0229832Y0184202D01*
X0229884Y0184240D02*
X0228595Y0184240D01*
X0228647Y0184278D02*
X0229936Y0184278D01*
X0229988Y0184316D02*
X0228698Y0184316D01*
X0228749Y0184354D02*
X0230040Y0184354D01*
X0230092Y0184391D02*
X0228800Y0184391D01*
X0228852Y0184429D02*
X0230144Y0184429D01*
X0230145Y0184467D02*
X0228903Y0184467D01*
X0228954Y0184505D02*
X0230145Y0184505D01*
X0230145Y0184543D02*
X0229005Y0184543D01*
X0229056Y0184581D02*
X0230145Y0184581D01*
X0230145Y0184619D02*
X0229108Y0184619D01*
X0229159Y0184657D02*
X0230145Y0184657D01*
X0230145Y0184694D02*
X0229210Y0184694D01*
X0229261Y0184732D02*
X0230145Y0184732D01*
X0230145Y0184770D02*
X0229312Y0184770D01*
X0229364Y0184808D02*
X0230145Y0184808D01*
X0230145Y0184846D02*
X0229415Y0184846D01*
X0229466Y0184884D02*
X0230145Y0184884D01*
X0230145Y0184922D02*
X0229517Y0184922D01*
X0229569Y0184960D02*
X0230145Y0184960D01*
X0230145Y0184998D02*
X0229620Y0184998D01*
X0229671Y0185035D02*
X0230145Y0185035D01*
X0230145Y0185073D02*
X0229722Y0185073D01*
X0229773Y0185111D02*
X0230145Y0185111D01*
X0230145Y0185149D02*
X0229825Y0185149D01*
X0229876Y0185187D02*
X0230145Y0185187D01*
X0230145Y0185225D02*
X0229927Y0185225D01*
X0229978Y0185263D02*
X0230145Y0185263D01*
X0230145Y0185301D02*
X0230029Y0185301D01*
X0230081Y0185338D02*
X0230145Y0185338D01*
X0230145Y0185376D02*
X0230132Y0185376D01*
X0228697Y0186475D02*
X0232070Y0186475D01*
X0232070Y0186513D02*
X0228697Y0186513D01*
X0224597Y0186513D01*
X0224597Y0186551D02*
X0228697Y0186551D01*
X0232070Y0186551D01*
X0232070Y0186589D02*
X0228697Y0186589D01*
X0224597Y0186589D01*
X0224597Y0186626D02*
X0228697Y0186626D01*
X0232070Y0186626D01*
X0232070Y0186664D02*
X0228697Y0186664D01*
X0224597Y0186664D01*
X0224597Y0186702D02*
X0228697Y0186702D01*
X0232070Y0186702D01*
X0232070Y0186740D02*
X0228697Y0186740D01*
X0224597Y0186740D01*
X0224597Y0186778D02*
X0228697Y0186778D01*
X0232070Y0186778D01*
X0232070Y0186816D02*
X0228697Y0186816D01*
X0224597Y0186816D01*
X0224597Y0186854D02*
X0228697Y0186854D01*
X0232070Y0186854D01*
X0232070Y0186892D02*
X0228697Y0186892D01*
X0224597Y0186892D01*
X0224597Y0186929D02*
X0228697Y0186929D01*
X0232070Y0186929D01*
X0232070Y0186967D02*
X0228697Y0186967D01*
X0224597Y0186967D01*
X0224597Y0187005D02*
X0228697Y0187005D01*
X0232070Y0187005D01*
X0232070Y0187043D02*
X0228697Y0187043D01*
X0224597Y0187043D01*
X0224597Y0187081D02*
X0228697Y0187081D01*
X0232070Y0187081D01*
X0232070Y0187119D02*
X0228697Y0187119D01*
X0224597Y0187119D01*
X0224597Y0187157D02*
X0228697Y0187157D01*
X0232070Y0187157D01*
X0232070Y0187195D02*
X0228697Y0187195D01*
X0224597Y0187195D01*
X0224597Y0187233D02*
X0228697Y0187233D01*
X0232070Y0187233D01*
X0232070Y0187270D02*
X0228697Y0187270D01*
X0224597Y0187270D01*
X0224597Y0187308D02*
X0228697Y0187308D01*
X0232070Y0187308D01*
X0232070Y0187346D02*
X0228697Y0187346D01*
X0224597Y0187346D01*
X0224597Y0187384D02*
X0228697Y0187384D01*
X0232070Y0187384D01*
X0232070Y0187422D02*
X0228697Y0187422D01*
X0224597Y0187422D01*
X0224597Y0187460D02*
X0228697Y0187460D01*
X0232070Y0187460D01*
X0232070Y0187498D02*
X0228697Y0187498D01*
X0224597Y0187498D01*
X0224597Y0187536D02*
X0228697Y0187536D01*
X0232070Y0187536D01*
X0232070Y0187573D02*
X0228697Y0187573D01*
X0224597Y0187573D01*
X0224597Y0187611D02*
X0228697Y0187611D01*
X0232070Y0187611D01*
X0232070Y0187649D02*
X0228697Y0187649D01*
X0224597Y0187649D01*
X0224597Y0187687D02*
X0228697Y0187687D01*
X0230140Y0187687D01*
X0230145Y0187687D02*
X0232070Y0187687D01*
X0232070Y0187725D02*
X0230145Y0187725D01*
X0230145Y0187763D02*
X0232070Y0187763D01*
X0232070Y0187801D02*
X0230145Y0187801D01*
X0230145Y0187839D02*
X0232070Y0187839D01*
X0232070Y0187877D02*
X0230145Y0187877D01*
X0230145Y0187914D02*
X0232070Y0187914D01*
X0232070Y0187952D02*
X0230145Y0187952D01*
X0230145Y0187990D02*
X0232070Y0187990D01*
X0232070Y0188028D02*
X0230145Y0188028D01*
X0230145Y0188066D02*
X0232070Y0188066D01*
X0232070Y0188104D02*
X0230145Y0188104D01*
X0230145Y0188142D02*
X0232070Y0188142D01*
X0232070Y0188180D02*
X0230145Y0188180D01*
X0230145Y0188217D02*
X0232070Y0188217D01*
X0232070Y0188255D02*
X0230145Y0188255D01*
X0230145Y0188293D02*
X0232070Y0188293D01*
X0232070Y0188331D02*
X0230145Y0188331D01*
X0230145Y0188369D02*
X0232070Y0188369D01*
X0232070Y0188407D02*
X0230145Y0188407D01*
X0230145Y0188445D02*
X0232070Y0188445D01*
X0232070Y0188483D02*
X0230145Y0188483D01*
X0230145Y0188521D02*
X0232070Y0188521D01*
X0232070Y0188558D02*
X0230145Y0188558D01*
X0230133Y0188596D02*
X0232070Y0188596D01*
X0232070Y0188634D02*
X0230075Y0188634D01*
X0230018Y0188672D02*
X0232070Y0188672D01*
X0232070Y0188710D02*
X0229960Y0188710D01*
X0229903Y0188748D02*
X0232070Y0188748D01*
X0232070Y0188786D02*
X0229845Y0188786D01*
X0229788Y0188824D02*
X0232070Y0188824D01*
X0232070Y0188861D02*
X0229730Y0188861D01*
X0229673Y0188899D02*
X0232070Y0188899D01*
X0232070Y0188937D02*
X0229615Y0188937D01*
X0229558Y0188975D02*
X0232070Y0188975D01*
X0232070Y0189013D02*
X0229500Y0189013D01*
X0229443Y0189051D02*
X0232070Y0189051D01*
X0232070Y0189089D02*
X0229385Y0189089D01*
X0229328Y0189127D02*
X0232070Y0189127D01*
X0232070Y0189164D02*
X0229270Y0189164D01*
X0229213Y0189202D02*
X0232070Y0189202D01*
X0232070Y0189240D02*
X0229155Y0189240D01*
X0229098Y0189278D02*
X0232070Y0189278D01*
X0232070Y0189316D02*
X0229040Y0189316D01*
X0228983Y0189354D02*
X0232070Y0189354D01*
X0232070Y0189392D02*
X0228925Y0189392D01*
X0228939Y0189430D02*
X0232070Y0189430D01*
X0232070Y0189468D02*
X0228997Y0189468D01*
X0229054Y0189505D02*
X0232070Y0189505D01*
X0232070Y0189543D02*
X0229112Y0189543D01*
X0229170Y0189581D02*
X0232070Y0189581D01*
X0232070Y0189619D02*
X0229228Y0189619D01*
X0229286Y0189657D02*
X0232070Y0189657D01*
X0232070Y0189695D02*
X0229344Y0189695D01*
X0229402Y0189733D02*
X0232070Y0189733D01*
X0232070Y0189771D02*
X0229460Y0189771D01*
X0229518Y0189808D02*
X0232070Y0189808D01*
X0232070Y0189846D02*
X0229575Y0189846D01*
X0229633Y0189884D02*
X0232070Y0189884D01*
X0232070Y0189922D02*
X0229691Y0189922D01*
X0229749Y0189960D02*
X0232070Y0189960D01*
X0232070Y0189998D02*
X0229807Y0189998D01*
X0229865Y0190036D02*
X0232070Y0190036D01*
X0232070Y0190074D02*
X0229923Y0190074D01*
X0229981Y0190112D02*
X0232070Y0190112D01*
X0232070Y0190149D02*
X0230039Y0190149D01*
X0230096Y0190187D02*
X0232070Y0190187D01*
X0232070Y0190225D02*
X0230145Y0190225D01*
X0230145Y0190263D02*
X0232070Y0190263D01*
X0232070Y0190301D02*
X0230145Y0190301D01*
X0230145Y0190339D02*
X0232070Y0190339D01*
X0232070Y0190377D02*
X0230145Y0190377D01*
X0230145Y0190415D02*
X0232070Y0190415D01*
X0232070Y0190452D02*
X0230145Y0190452D01*
X0230145Y0190490D02*
X0232070Y0190490D01*
X0232070Y0190528D02*
X0230145Y0190528D01*
X0230145Y0190566D02*
X0232070Y0190566D01*
X0232070Y0190604D02*
X0230145Y0190604D01*
X0230145Y0190642D02*
X0232070Y0190642D01*
X0232070Y0190680D02*
X0230145Y0190680D01*
X0230145Y0190718D02*
X0232070Y0190718D01*
X0232070Y0190756D02*
X0230145Y0190756D01*
X0230145Y0190793D02*
X0232070Y0190793D01*
X0232070Y0190831D02*
X0230145Y0190831D01*
X0230145Y0190869D02*
X0232070Y0190869D01*
X0232070Y0190907D02*
X0230145Y0190907D01*
X0230145Y0190945D02*
X0232070Y0190945D01*
X0232070Y0190983D02*
X0230145Y0190983D01*
X0230145Y0191021D02*
X0232070Y0191021D01*
X0232070Y0191059D02*
X0230145Y0191059D01*
X0230145Y0191096D02*
X0232070Y0191096D01*
X0232070Y0191134D02*
X0230145Y0191134D01*
X0230113Y0191134D02*
X0228697Y0191134D01*
X0224597Y0191134D01*
X0224597Y0191096D02*
X0226524Y0191096D01*
X0226532Y0191096D02*
X0228697Y0191096D01*
X0230058Y0191096D01*
X0230002Y0191059D02*
X0228697Y0191059D01*
X0226588Y0191059D01*
X0226524Y0191059D02*
X0224597Y0191059D01*
X0224597Y0191021D02*
X0226524Y0191021D01*
X0226524Y0190983D02*
X0224597Y0190983D01*
X0224597Y0190945D02*
X0226524Y0190945D01*
X0226524Y0190907D02*
X0224597Y0190907D01*
X0224597Y0190869D02*
X0226524Y0190869D01*
X0226524Y0190831D02*
X0224597Y0190831D01*
X0224597Y0190793D02*
X0226524Y0190793D01*
X0226524Y0190756D02*
X0224597Y0190756D01*
X0224597Y0190718D02*
X0226524Y0190718D01*
X0226524Y0190680D02*
X0224597Y0190680D01*
X0224597Y0190642D02*
X0226524Y0190642D01*
X0226524Y0190604D02*
X0224597Y0190604D01*
X0224597Y0190566D02*
X0226524Y0190566D01*
X0226524Y0190528D02*
X0224597Y0190528D01*
X0224597Y0190490D02*
X0226524Y0190490D01*
X0226524Y0190452D02*
X0224597Y0190452D01*
X0224597Y0190415D02*
X0226524Y0190415D01*
X0226524Y0190377D02*
X0224597Y0190377D01*
X0224597Y0190339D02*
X0226524Y0190339D01*
X0226524Y0190301D02*
X0224597Y0190301D01*
X0224597Y0190263D02*
X0226524Y0190263D01*
X0226524Y0190225D02*
X0224597Y0190225D01*
X0224597Y0190187D02*
X0226540Y0190187D01*
X0226598Y0190149D02*
X0224597Y0190149D01*
X0224597Y0190112D02*
X0226656Y0190112D01*
X0226714Y0190074D02*
X0224597Y0190074D01*
X0224597Y0190036D02*
X0226772Y0190036D01*
X0226830Y0189998D02*
X0224597Y0189998D01*
X0224597Y0189960D02*
X0226888Y0189960D01*
X0226946Y0189922D02*
X0224597Y0189922D01*
X0224597Y0189884D02*
X0227004Y0189884D01*
X0227062Y0189846D02*
X0224597Y0189846D01*
X0224597Y0189808D02*
X0227120Y0189808D01*
X0227178Y0189771D02*
X0224597Y0189771D01*
X0224597Y0189733D02*
X0227236Y0189733D01*
X0227294Y0189695D02*
X0224597Y0189695D01*
X0224597Y0189657D02*
X0227352Y0189657D01*
X0227410Y0189619D02*
X0224597Y0189619D01*
X0224597Y0189581D02*
X0227468Y0189581D01*
X0227526Y0189543D02*
X0224597Y0189543D01*
X0224597Y0189505D02*
X0227584Y0189505D01*
X0227642Y0189468D02*
X0224597Y0189468D01*
X0224597Y0189430D02*
X0227697Y0189430D01*
X0227639Y0189392D02*
X0224597Y0189392D01*
X0224597Y0189354D02*
X0227580Y0189354D01*
X0227522Y0189316D02*
X0224597Y0189316D01*
X0224597Y0189278D02*
X0227464Y0189278D01*
X0227405Y0189240D02*
X0224597Y0189240D01*
X0224597Y0189202D02*
X0227347Y0189202D01*
X0227288Y0189164D02*
X0224597Y0189164D01*
X0224597Y0189127D02*
X0227230Y0189127D01*
X0227171Y0189089D02*
X0224597Y0189089D01*
X0224597Y0189051D02*
X0227113Y0189051D01*
X0227054Y0189013D02*
X0224597Y0189013D01*
X0224597Y0188975D02*
X0226996Y0188975D01*
X0226938Y0188937D02*
X0224597Y0188937D01*
X0224597Y0188899D02*
X0226879Y0188899D01*
X0226821Y0188861D02*
X0224597Y0188861D01*
X0224597Y0188824D02*
X0226762Y0188824D01*
X0226704Y0188786D02*
X0224597Y0188786D01*
X0224597Y0188748D02*
X0226645Y0188748D01*
X0226587Y0188710D02*
X0224597Y0188710D01*
X0224597Y0188672D02*
X0226529Y0188672D01*
X0226524Y0188634D02*
X0224597Y0188634D01*
X0224597Y0188596D02*
X0226524Y0188596D01*
X0226524Y0188558D02*
X0224597Y0188558D01*
X0224597Y0188521D02*
X0226524Y0188521D01*
X0226524Y0188483D02*
X0224597Y0188483D01*
X0224597Y0188445D02*
X0226524Y0188445D01*
X0226524Y0188407D02*
X0224597Y0188407D01*
X0224597Y0188369D02*
X0226524Y0188369D01*
X0226524Y0188331D02*
X0224597Y0188331D01*
X0224597Y0188293D02*
X0226524Y0188293D01*
X0226524Y0188255D02*
X0224597Y0188255D01*
X0224597Y0188217D02*
X0226524Y0188217D01*
X0226524Y0188180D02*
X0224597Y0188180D01*
X0224597Y0188142D02*
X0226524Y0188142D01*
X0226524Y0188104D02*
X0224597Y0188104D01*
X0224597Y0188066D02*
X0226524Y0188066D01*
X0226524Y0188028D02*
X0224597Y0188028D01*
X0224597Y0187990D02*
X0226524Y0187990D01*
X0226524Y0187952D02*
X0224597Y0187952D01*
X0224597Y0187914D02*
X0226524Y0187914D01*
X0226524Y0187877D02*
X0224597Y0187877D01*
X0224597Y0187839D02*
X0226524Y0187839D01*
X0226524Y0187801D02*
X0224597Y0187801D01*
X0224597Y0187763D02*
X0226524Y0187763D01*
X0226561Y0187763D02*
X0228697Y0187763D01*
X0230030Y0187763D01*
X0230085Y0187725D02*
X0228697Y0187725D01*
X0224597Y0187725D01*
X0224597Y0186475D02*
X0228697Y0186475D01*
X0228697Y0187801D02*
X0229975Y0187801D01*
X0229919Y0187839D02*
X0228697Y0187839D01*
X0226673Y0187839D01*
X0226728Y0187877D02*
X0228697Y0187877D01*
X0229864Y0187877D01*
X0229809Y0187914D02*
X0228697Y0187914D01*
X0226784Y0187914D01*
X0226840Y0187952D02*
X0228697Y0187952D01*
X0229754Y0187952D01*
X0229699Y0187990D02*
X0228697Y0187990D01*
X0226896Y0187990D01*
X0226951Y0188028D02*
X0228697Y0188028D01*
X0229643Y0188028D01*
X0229588Y0188066D02*
X0228697Y0188066D01*
X0227007Y0188066D01*
X0227063Y0188104D02*
X0228697Y0188104D01*
X0229533Y0188104D01*
X0229478Y0188142D02*
X0228697Y0188142D01*
X0227119Y0188142D01*
X0227174Y0188180D02*
X0228697Y0188180D01*
X0229423Y0188180D01*
X0229367Y0188217D02*
X0228697Y0188217D01*
X0227230Y0188217D01*
X0227286Y0188255D02*
X0228697Y0188255D01*
X0229312Y0188255D01*
X0229257Y0188293D02*
X0228697Y0188293D01*
X0227341Y0188293D01*
X0227397Y0188331D02*
X0228697Y0188331D01*
X0229202Y0188331D01*
X0229147Y0188369D02*
X0228697Y0188369D01*
X0227453Y0188369D01*
X0227509Y0188407D02*
X0228697Y0188407D01*
X0229091Y0188407D01*
X0229036Y0188445D02*
X0228697Y0188445D01*
X0227564Y0188445D01*
X0227620Y0188483D02*
X0228697Y0188483D01*
X0228981Y0188483D01*
X0228926Y0188521D02*
X0228697Y0188521D01*
X0227676Y0188521D01*
X0227731Y0188558D02*
X0228697Y0188558D01*
X0228871Y0188558D01*
X0228815Y0188596D02*
X0228697Y0188596D01*
X0227787Y0188596D01*
X0227843Y0188634D02*
X0228697Y0188634D01*
X0228760Y0188634D01*
X0228705Y0188672D02*
X0228697Y0188672D01*
X0227899Y0188672D01*
X0227954Y0188710D02*
X0228650Y0188710D01*
X0228595Y0188748D02*
X0228010Y0188748D01*
X0228066Y0188786D02*
X0228539Y0188786D01*
X0228484Y0188824D02*
X0228122Y0188824D01*
X0228177Y0188861D02*
X0228429Y0188861D01*
X0228374Y0188899D02*
X0228233Y0188899D01*
X0228289Y0188937D02*
X0228318Y0188937D01*
X0228336Y0189922D02*
X0228249Y0189922D01*
X0228194Y0189960D02*
X0228392Y0189960D01*
X0228447Y0189998D02*
X0228139Y0189998D01*
X0228083Y0190036D02*
X0228503Y0190036D01*
X0228558Y0190074D02*
X0228028Y0190074D01*
X0227972Y0190112D02*
X0228614Y0190112D01*
X0228669Y0190149D02*
X0227917Y0190149D01*
X0227862Y0190187D02*
X0228697Y0190187D01*
X0228725Y0190187D01*
X0228697Y0190225D02*
X0228780Y0190225D01*
X0228836Y0190263D02*
X0228697Y0190263D01*
X0227751Y0190263D01*
X0227806Y0190225D02*
X0228697Y0190225D01*
X0228697Y0190301D02*
X0228892Y0190301D01*
X0228947Y0190339D02*
X0228697Y0190339D01*
X0227640Y0190339D01*
X0227585Y0190377D02*
X0228697Y0190377D01*
X0229003Y0190377D01*
X0229058Y0190415D02*
X0228697Y0190415D01*
X0227529Y0190415D01*
X0227474Y0190452D02*
X0228697Y0190452D01*
X0229114Y0190452D01*
X0229169Y0190490D02*
X0228697Y0190490D01*
X0227419Y0190490D01*
X0227363Y0190528D02*
X0228697Y0190528D01*
X0229225Y0190528D01*
X0229280Y0190566D02*
X0228697Y0190566D01*
X0227308Y0190566D01*
X0227252Y0190604D02*
X0228697Y0190604D01*
X0229336Y0190604D01*
X0229391Y0190642D02*
X0228697Y0190642D01*
X0227197Y0190642D01*
X0227142Y0190680D02*
X0228697Y0190680D01*
X0229447Y0190680D01*
X0229502Y0190718D02*
X0228697Y0190718D01*
X0227086Y0190718D01*
X0227031Y0190756D02*
X0228697Y0190756D01*
X0229558Y0190756D01*
X0229613Y0190793D02*
X0228697Y0190793D01*
X0226975Y0190793D01*
X0226920Y0190831D02*
X0228697Y0190831D01*
X0229669Y0190831D01*
X0229725Y0190869D02*
X0228697Y0190869D01*
X0226865Y0190869D01*
X0226809Y0190907D02*
X0228697Y0190907D01*
X0229780Y0190907D01*
X0229836Y0190945D02*
X0228697Y0190945D01*
X0226754Y0190945D01*
X0226699Y0190983D02*
X0228697Y0190983D01*
X0229891Y0190983D01*
X0229947Y0191021D02*
X0228697Y0191021D01*
X0226643Y0191021D01*
X0227695Y0190301D02*
X0228697Y0190301D01*
X0228697Y0191172D02*
X0232070Y0191172D01*
X0232070Y0191210D02*
X0228697Y0191210D01*
X0224597Y0191210D01*
X0224597Y0191172D02*
X0228697Y0191172D01*
X0228697Y0191248D02*
X0232070Y0191248D01*
X0232070Y0191286D02*
X0228697Y0191286D01*
X0224597Y0191286D01*
X0224597Y0191324D02*
X0228697Y0191324D01*
X0232070Y0191324D01*
X0232070Y0191362D02*
X0228697Y0191362D01*
X0224597Y0191362D01*
X0224597Y0191399D02*
X0228697Y0191399D01*
X0232070Y0191399D01*
X0232070Y0191437D02*
X0228697Y0191437D01*
X0224597Y0191437D01*
X0224597Y0191475D02*
X0228697Y0191475D01*
X0232070Y0191475D01*
X0232070Y0191513D02*
X0228697Y0191513D01*
X0224597Y0191513D01*
X0224597Y0191551D02*
X0228697Y0191551D01*
X0232070Y0191551D01*
X0232070Y0191589D02*
X0228697Y0191589D01*
X0224597Y0191589D01*
X0224597Y0191627D02*
X0228697Y0191627D01*
X0232070Y0191627D01*
X0232070Y0191665D02*
X0228697Y0191665D01*
X0224597Y0191665D01*
X0224597Y0191703D02*
X0228697Y0191703D01*
X0232070Y0191703D01*
X0232070Y0191740D02*
X0228697Y0191740D01*
X0224597Y0191740D01*
X0224597Y0191778D02*
X0228697Y0191778D01*
X0232070Y0191778D01*
X0232070Y0191816D02*
X0228697Y0191816D01*
X0224597Y0191816D01*
X0224597Y0191854D02*
X0228697Y0191854D01*
X0232070Y0191854D01*
X0232070Y0191892D02*
X0228697Y0191892D01*
X0224597Y0191892D01*
X0224597Y0191930D02*
X0228697Y0191930D01*
X0232070Y0191930D01*
X0232070Y0191968D02*
X0228697Y0191968D01*
X0224597Y0191968D01*
X0224597Y0192006D02*
X0228697Y0192006D01*
X0232070Y0192006D01*
X0232070Y0192043D02*
X0228697Y0192043D01*
X0224597Y0192043D01*
X0224597Y0192081D02*
X0228697Y0192081D01*
X0232070Y0192081D01*
X0232070Y0192119D02*
X0228697Y0192119D01*
X0224597Y0192119D01*
X0224597Y0192157D02*
X0228697Y0192157D01*
X0232070Y0192157D01*
X0232070Y0192195D02*
X0228697Y0192195D01*
X0224597Y0192195D01*
X0224597Y0192233D02*
X0228697Y0192233D01*
X0232070Y0192233D01*
X0232070Y0192271D02*
X0228697Y0192271D01*
X0224597Y0192271D01*
X0224597Y0192309D02*
X0228697Y0192309D01*
X0232070Y0192309D01*
X0232070Y0192347D02*
X0228697Y0192347D01*
X0224597Y0192347D01*
X0224597Y0192384D02*
X0228697Y0192384D01*
X0232070Y0192384D01*
X0232070Y0192422D02*
X0228697Y0192422D01*
X0224597Y0192422D01*
X0224597Y0191248D02*
X0228697Y0191248D01*
X0228697Y0187801D02*
X0226617Y0187801D01*
X0227965Y0180528D02*
X0230115Y0180528D01*
X0230058Y0180490D02*
X0228027Y0180490D01*
X0228080Y0180452D02*
X0230002Y0180452D01*
X0229945Y0180414D02*
X0228132Y0180414D01*
X0228159Y0180376D02*
X0229888Y0180376D01*
X0229832Y0180338D02*
X0228179Y0180338D01*
X0228200Y0180300D02*
X0229775Y0180300D01*
X0229719Y0180262D02*
X0228221Y0180262D01*
X0228241Y0180224D02*
X0229662Y0180224D01*
X0229605Y0180187D02*
X0228250Y0180187D01*
X0228255Y0180149D02*
X0229549Y0180149D01*
X0229492Y0180111D02*
X0228261Y0180111D01*
X0228266Y0180073D02*
X0229435Y0180073D01*
X0229379Y0180035D02*
X0228271Y0180035D01*
X0228276Y0179997D02*
X0229322Y0179997D01*
X0229266Y0179959D02*
X0228281Y0179959D01*
X0228282Y0179921D02*
X0229209Y0179921D01*
X0229152Y0179884D02*
X0228282Y0179884D01*
X0228282Y0179846D02*
X0229096Y0179846D01*
X0229039Y0179808D02*
X0228282Y0179808D01*
X0228282Y0179770D02*
X0228987Y0179770D01*
X0228987Y0179732D02*
X0228282Y0179732D01*
X0228282Y0179694D02*
X0228987Y0179694D01*
X0228987Y0179656D02*
X0228282Y0179656D01*
X0228282Y0179618D02*
X0228987Y0179618D01*
X0228987Y0179580D02*
X0228282Y0179580D01*
X0228282Y0179543D02*
X0228987Y0179543D01*
X0228987Y0179505D02*
X0228282Y0179505D01*
X0228282Y0179467D02*
X0228987Y0179467D01*
X0228987Y0179429D02*
X0228282Y0179429D01*
X0228282Y0179391D02*
X0228987Y0179391D01*
X0228987Y0179353D02*
X0228282Y0179353D01*
X0228282Y0179315D02*
X0228987Y0179315D01*
X0228987Y0179277D02*
X0228282Y0179277D01*
X0228282Y0179240D02*
X0228987Y0179240D01*
X0228987Y0179202D02*
X0228282Y0179202D01*
X0228282Y0179164D02*
X0228987Y0179164D01*
X0228311Y0176209D02*
X0227446Y0176209D01*
X0229240Y0167572D02*
X0229863Y0167572D01*
X0229834Y0167534D02*
X0229286Y0167534D01*
X0229331Y0167496D02*
X0229806Y0167496D01*
X0229778Y0167458D02*
X0229377Y0167458D01*
X0229422Y0167421D02*
X0229749Y0167421D01*
X0229721Y0167383D02*
X0229468Y0167383D01*
X0229513Y0167345D02*
X0229693Y0167345D01*
X0229664Y0167307D02*
X0229559Y0167307D01*
X0229604Y0167269D02*
X0229636Y0167269D01*
D16*
X0175676Y0293815D03*
X0170991Y0293815D03*
D17*
X0171109Y0293815D03*
X0175558Y0293815D03*
D18*
X0171207Y0293815D03*
D19*
X0171325Y0293815D03*
D20*
X0171463Y0293815D03*
X0175243Y0293815D03*
D21*
X0175125Y0293815D03*
X0171581Y0293815D03*
D22*
X0171680Y0293815D03*
D23*
X0171778Y0289622D03*
D24*
X0171778Y0293756D03*
D25*
X0171778Y0297949D03*
D26*
X0171916Y0288146D03*
X0174751Y0288146D03*
D27*
X0172861Y0290449D03*
X0171916Y0291394D03*
X0173806Y0291748D03*
X0174751Y0297299D03*
X0172861Y0297299D03*
X0169121Y0311287D03*
X0169278Y0314280D03*
X0169436Y0314280D03*
X0167546Y0314752D03*
X0167388Y0314752D03*
X0167703Y0317744D03*
X0169121Y0317744D03*
X0178018Y0315280D03*
X0178963Y0318429D03*
X0179121Y0311972D03*
X0177861Y0311815D03*
X0187703Y0316752D03*
X0187861Y0316752D03*
X0187861Y0315020D03*
X0188963Y0315020D03*
X0189751Y0313602D03*
X0197231Y0314917D03*
X0154203Y0224402D03*
X0155306Y0218102D03*
D28*
X0171916Y0292929D03*
X0171916Y0294583D03*
X0174751Y0295528D03*
D29*
X0173806Y0293756D03*
X0172861Y0294583D03*
X0171916Y0295882D03*
X0172861Y0292929D03*
X0173333Y0291866D03*
X0169751Y0312783D03*
X0168176Y0312783D03*
X0167388Y0312783D03*
X0167231Y0312783D03*
X0167073Y0312783D03*
X0168648Y0314043D03*
X0168806Y0314043D03*
X0168176Y0314988D03*
X0168018Y0314988D03*
X0168018Y0316248D03*
X0167861Y0316248D03*
X0167703Y0316248D03*
X0167546Y0316248D03*
X0167388Y0316248D03*
X0167231Y0316248D03*
X0167073Y0316248D03*
X0166916Y0316248D03*
X0168176Y0316248D03*
X0168333Y0316248D03*
X0168491Y0316248D03*
X0168648Y0316248D03*
X0168806Y0316248D03*
X0168963Y0316248D03*
X0169121Y0316248D03*
X0169278Y0316248D03*
X0169436Y0316248D03*
X0169593Y0316248D03*
X0169751Y0316248D03*
X0169908Y0316248D03*
X0177073Y0317248D03*
X0177388Y0317091D03*
X0178491Y0315201D03*
X0178648Y0315201D03*
X0177388Y0313311D03*
X0177231Y0313311D03*
X0177073Y0313154D03*
X0187231Y0313681D03*
X0187388Y0313681D03*
X0187546Y0313681D03*
X0188333Y0313681D03*
X0189436Y0313681D03*
X0189593Y0313681D03*
X0189121Y0314941D03*
X0189436Y0316201D03*
X0189278Y0316358D03*
X0188963Y0316516D03*
X0188806Y0316516D03*
X0188648Y0316673D03*
X0188491Y0316673D03*
X0188333Y0316673D03*
X0197703Y0317358D03*
X0199593Y0317358D03*
X0199121Y0314839D03*
X0198333Y0314681D03*
X0155463Y0230465D03*
X0155621Y0230150D03*
X0154833Y0224323D03*
X0154676Y0224323D03*
X0155621Y0218496D03*
D30*
X0171916Y0299189D03*
X0173806Y0299543D03*
X0170066Y0309240D03*
X0166759Y0309240D03*
X0187073Y0319587D03*
X0187231Y0319587D03*
D31*
X0174888Y0299366D03*
X0174495Y0299602D03*
X0174416Y0299602D03*
X0174888Y0288264D03*
X0174613Y0288146D03*
X0172054Y0288146D03*
D32*
X0172054Y0291453D03*
X0173471Y0291807D03*
X0172605Y0292870D03*
X0172999Y0295823D03*
X0173117Y0295823D03*
D33*
X0173944Y0295646D03*
X0174062Y0295646D03*
X0174613Y0297299D03*
X0172999Y0297299D03*
X0172133Y0294583D03*
X0172054Y0294583D03*
X0172054Y0292929D03*
X0172133Y0292929D03*
X0174495Y0293756D03*
X0174613Y0293756D03*
X0173117Y0290449D03*
X0172999Y0290449D03*
X0172723Y0290449D03*
D34*
X0172251Y0291571D03*
X0172526Y0291689D03*
X0172999Y0291807D03*
X0173117Y0291807D03*
X0172999Y0292870D03*
X0172251Y0295941D03*
X0172133Y0295941D03*
X0172054Y0295941D03*
D35*
X0172054Y0299307D03*
X0172133Y0299425D03*
X0173471Y0299661D03*
X0174062Y0299543D03*
X0174495Y0291276D03*
X0174613Y0291276D03*
X0173944Y0287969D03*
X0173668Y0287969D03*
X0173550Y0287969D03*
X0173471Y0287969D03*
X0173196Y0287969D03*
X0173117Y0287969D03*
X0172999Y0287969D03*
X0172723Y0287969D03*
D36*
X0172251Y0288087D03*
X0172133Y0288087D03*
X0174416Y0288087D03*
X0174495Y0288087D03*
X0174140Y0291157D03*
D37*
X0173196Y0291866D03*
X0172133Y0291512D03*
X0172723Y0292929D03*
X0173944Y0293756D03*
X0174062Y0293756D03*
X0172999Y0294583D03*
X0172723Y0294583D03*
X0172723Y0295882D03*
X0172605Y0295882D03*
X0172526Y0295882D03*
D38*
X0173550Y0295705D03*
X0173668Y0295705D03*
X0173196Y0297240D03*
X0173117Y0297240D03*
X0172723Y0297240D03*
X0174416Y0297240D03*
X0174495Y0297240D03*
X0172251Y0294524D03*
X0172251Y0292870D03*
X0173668Y0291807D03*
X0173196Y0290390D03*
D39*
X0174416Y0291217D03*
X0174140Y0288028D03*
X0174062Y0288028D03*
X0172605Y0288028D03*
X0172526Y0288028D03*
X0172251Y0299484D03*
X0172526Y0299602D03*
X0172605Y0299602D03*
X0172723Y0299720D03*
X0172999Y0299720D03*
X0173117Y0299720D03*
X0173196Y0299720D03*
X0174140Y0299602D03*
D40*
X0174278Y0299602D03*
X0172861Y0299720D03*
X0172388Y0299602D03*
X0174278Y0291217D03*
X0174278Y0288028D03*
X0172388Y0288028D03*
D41*
X0172388Y0291630D03*
X0173333Y0294583D03*
D42*
X0172388Y0294583D03*
X0173333Y0295764D03*
X0174278Y0297181D03*
X0174278Y0293756D03*
X0172388Y0292929D03*
D43*
X0172861Y0291807D03*
X0172388Y0295941D03*
D44*
X0173196Y0295764D03*
X0173471Y0295764D03*
X0172605Y0294583D03*
X0172526Y0294583D03*
X0172526Y0292929D03*
X0173550Y0291866D03*
X0172605Y0290331D03*
X0174140Y0293756D03*
X0174416Y0293756D03*
X0174140Y0297181D03*
X0172605Y0297181D03*
D45*
X0173117Y0294583D03*
X0173196Y0294583D03*
X0173471Y0293756D03*
X0173550Y0293756D03*
X0173668Y0293756D03*
X0173196Y0292929D03*
X0173117Y0292929D03*
X0172723Y0291748D03*
X0172605Y0291748D03*
D46*
X0174751Y0291276D03*
X0173806Y0287969D03*
X0173333Y0287969D03*
X0172861Y0287969D03*
X0173333Y0299661D03*
D47*
X0172861Y0295823D03*
D48*
X0173333Y0292870D03*
D49*
X0173550Y0299602D03*
X0173944Y0299602D03*
D50*
X0173668Y0299543D03*
X0174888Y0291276D03*
D51*
X0173806Y0295705D03*
D52*
X0174888Y0293697D03*
X0173944Y0291689D03*
D53*
X0174062Y0291512D03*
D54*
X0174140Y0295587D03*
X0174416Y0295587D03*
D55*
X0174278Y0295587D03*
X0174751Y0293697D03*
D56*
X0174613Y0295528D03*
X0174495Y0295528D03*
X0174888Y0297299D03*
D57*
X0174613Y0299543D03*
D58*
X0174751Y0299543D03*
D59*
X0174888Y0295528D03*
D60*
X0175007Y0293815D03*
D61*
X0175322Y0293815D03*
D62*
X0175440Y0293815D03*
D63*
X0157983Y0224323D03*
X0151684Y0224323D03*
D64*
X0151841Y0224323D03*
X0157825Y0224323D03*
D65*
X0157668Y0224323D03*
X0151999Y0224323D03*
D66*
X0152156Y0224323D03*
X0157510Y0224323D03*
D67*
X0157353Y0224323D03*
X0152314Y0224323D03*
D68*
X0152471Y0224323D03*
X0157196Y0224323D03*
D69*
X0157038Y0224323D03*
X0152629Y0224323D03*
D70*
X0152786Y0224323D03*
X0156881Y0224323D03*
D71*
X0156723Y0224323D03*
X0156566Y0224323D03*
X0153101Y0224323D03*
X0152944Y0224323D03*
D72*
X0153259Y0224323D03*
X0156251Y0224323D03*
X0156408Y0224323D03*
D73*
X0153416Y0218024D03*
X0153416Y0230622D03*
D74*
X0153416Y0224323D03*
X0168176Y0308689D03*
X0168333Y0308689D03*
X0168491Y0308689D03*
X0168648Y0308689D03*
X0177073Y0315201D03*
X0177231Y0315201D03*
X0178176Y0317248D03*
X0178333Y0317248D03*
X0178018Y0317406D03*
X0179751Y0316618D03*
X0179593Y0320555D03*
X0179436Y0320555D03*
X0178806Y0320555D03*
X0178648Y0320555D03*
X0178018Y0320555D03*
X0177861Y0320555D03*
X0177703Y0320555D03*
X0177546Y0320555D03*
X0177388Y0320555D03*
X0187231Y0316673D03*
X0189278Y0320138D03*
X0189436Y0320138D03*
X0189593Y0320138D03*
X0199436Y0320508D03*
X0199593Y0320508D03*
X0199751Y0320508D03*
X0199751Y0314996D03*
X0179593Y0309846D03*
X0179436Y0309846D03*
X0178963Y0309846D03*
X0177546Y0309846D03*
X0177388Y0309846D03*
X0168648Y0320343D03*
X0168491Y0320343D03*
X0168333Y0320343D03*
X0168176Y0320343D03*
X0168018Y0320343D03*
D75*
X0156093Y0233299D03*
X0153573Y0233299D03*
X0154046Y0228102D03*
X0153573Y0215346D03*
X0156093Y0215346D03*
D76*
X0153573Y0220465D03*
X0153731Y0220622D03*
X0153888Y0220622D03*
X0153888Y0228024D03*
X0153573Y0228181D03*
X0188806Y0310610D03*
X0198806Y0311610D03*
D77*
X0198018Y0314209D03*
X0197073Y0314996D03*
X0188018Y0313209D03*
X0187388Y0316673D03*
X0179436Y0316618D03*
X0177546Y0315201D03*
X0177388Y0315201D03*
X0169908Y0314516D03*
X0168491Y0317980D03*
X0168333Y0317980D03*
X0153731Y0224323D03*
X0153573Y0224323D03*
D78*
X0153731Y0228102D03*
X0153731Y0233457D03*
X0155778Y0233614D03*
X0155936Y0233457D03*
X0155936Y0215189D03*
X0155778Y0215031D03*
X0153731Y0215189D03*
D79*
X0153888Y0214953D03*
X0153888Y0233693D03*
D80*
X0153888Y0224402D03*
X0168806Y0311130D03*
X0169751Y0314437D03*
X0167073Y0314594D03*
X0166916Y0314594D03*
X0168018Y0317902D03*
X0168176Y0317902D03*
X0168648Y0317902D03*
X0168806Y0317902D03*
X0176759Y0317327D03*
X0178963Y0316697D03*
X0179278Y0316539D03*
X0179278Y0313862D03*
X0179121Y0313862D03*
X0178491Y0313547D03*
X0178333Y0313390D03*
X0176759Y0313075D03*
X0187546Y0316752D03*
X0188333Y0315177D03*
X0188491Y0315177D03*
X0189278Y0317854D03*
X0189436Y0317854D03*
D81*
X0188648Y0310374D03*
X0198648Y0311374D03*
X0155621Y0233772D03*
X0154046Y0233772D03*
X0154046Y0214874D03*
X0155621Y0214874D03*
D82*
X0154046Y0220622D03*
D83*
X0155148Y0218024D03*
X0154046Y0224323D03*
X0155148Y0230622D03*
X0168963Y0311209D03*
X0170066Y0312626D03*
X0169593Y0314358D03*
X0167231Y0314673D03*
X0166759Y0312626D03*
X0167861Y0317823D03*
X0168963Y0317823D03*
X0177861Y0317091D03*
X0179121Y0316618D03*
X0179121Y0318508D03*
X0177861Y0315201D03*
X0177703Y0315201D03*
X0178176Y0313469D03*
X0178648Y0313626D03*
X0178806Y0313783D03*
X0178963Y0313783D03*
X0178963Y0311894D03*
X0188018Y0315098D03*
X0188176Y0315098D03*
X0188648Y0315098D03*
X0188806Y0315098D03*
X0189751Y0316043D03*
X0199593Y0314996D03*
D84*
X0155463Y0233929D03*
X0154203Y0233929D03*
X0154203Y0214717D03*
X0155463Y0214717D03*
D85*
X0154203Y0220543D03*
X0154203Y0228102D03*
D86*
X0154361Y0234087D03*
X0154361Y0214559D03*
X0187073Y0310217D03*
X0188333Y0310059D03*
X0197073Y0311217D03*
X0198333Y0311059D03*
D87*
X0155936Y0227551D03*
X0155778Y0227551D03*
X0155778Y0221094D03*
X0155936Y0221094D03*
X0154361Y0220465D03*
D88*
X0155621Y0220071D03*
X0154361Y0224323D03*
X0155621Y0228575D03*
X0155306Y0230622D03*
X0168333Y0310736D03*
X0167546Y0311366D03*
X0166916Y0312626D03*
X0167703Y0314831D03*
X0169121Y0314201D03*
X0170066Y0316248D03*
X0169278Y0311366D03*
X0176916Y0313154D03*
X0177861Y0313469D03*
X0178018Y0313469D03*
X0177703Y0311894D03*
X0179278Y0311894D03*
X0178176Y0315201D03*
X0177703Y0317091D03*
X0177861Y0318350D03*
X0177703Y0318508D03*
X0179278Y0318508D03*
X0187703Y0314941D03*
X0188176Y0313524D03*
X0188963Y0312579D03*
X0197388Y0314839D03*
X0197703Y0314681D03*
X0198176Y0314524D03*
X0198963Y0313579D03*
X0199436Y0314839D03*
X0199751Y0317358D03*
D89*
X0154361Y0228260D03*
D90*
X0154518Y0234165D03*
X0155148Y0234165D03*
X0155148Y0214480D03*
X0154518Y0214480D03*
X0187546Y0309980D03*
X0187703Y0309980D03*
X0187861Y0309980D03*
X0188018Y0309980D03*
X0188176Y0309980D03*
X0188963Y0309980D03*
X0189593Y0310138D03*
X0189751Y0310295D03*
X0187231Y0310138D03*
X0197231Y0311138D03*
X0197546Y0310980D03*
X0197703Y0310980D03*
X0197861Y0310980D03*
X0198018Y0310980D03*
X0198176Y0310980D03*
X0198963Y0310980D03*
X0199593Y0311138D03*
X0199751Y0311295D03*
D91*
X0154518Y0228339D03*
X0156093Y0227551D03*
X0156093Y0221094D03*
X0154518Y0220307D03*
D92*
X0155463Y0218260D03*
X0154518Y0224402D03*
X0168176Y0310815D03*
X0168491Y0310815D03*
X0168648Y0310815D03*
X0167546Y0312705D03*
X0168963Y0314122D03*
X0167861Y0314909D03*
X0166759Y0316169D03*
X0167546Y0317587D03*
X0169278Y0317587D03*
X0169908Y0312705D03*
X0176916Y0317327D03*
X0177231Y0317169D03*
X0177546Y0317012D03*
X0177546Y0318587D03*
X0178333Y0315280D03*
X0177703Y0313390D03*
X0177546Y0313390D03*
X0177546Y0311972D03*
X0187073Y0313602D03*
X0187703Y0313602D03*
X0187703Y0312657D03*
X0189121Y0312657D03*
X0189593Y0316122D03*
X0188176Y0316752D03*
X0188018Y0316752D03*
X0197073Y0317280D03*
X0197703Y0316335D03*
X0199121Y0316335D03*
X0199278Y0314917D03*
X0199121Y0313657D03*
X0197703Y0313657D03*
X0197546Y0314760D03*
D93*
X0197388Y0311059D03*
X0199121Y0310902D03*
X0199436Y0311059D03*
X0189436Y0310059D03*
X0189121Y0309902D03*
X0187388Y0310059D03*
X0178806Y0310634D03*
X0154991Y0234244D03*
X0154676Y0234244D03*
X0154676Y0214402D03*
X0154991Y0214402D03*
D94*
X0154991Y0220307D03*
X0154676Y0220307D03*
X0154991Y0228339D03*
D95*
X0154676Y0228417D03*
D96*
X0154833Y0234323D03*
X0154833Y0214323D03*
X0189278Y0309980D03*
X0199278Y0310980D03*
X0199121Y0319799D03*
X0198963Y0319799D03*
X0198806Y0319799D03*
X0198648Y0319799D03*
X0198491Y0319799D03*
X0198333Y0319799D03*
X0198176Y0319799D03*
X0198018Y0319799D03*
X0197861Y0319799D03*
X0197703Y0319799D03*
X0197546Y0319799D03*
X0197388Y0319799D03*
X0197231Y0319799D03*
X0197073Y0319799D03*
D97*
X0154833Y0228417D03*
X0154833Y0220228D03*
D98*
X0155148Y0220071D03*
X0155306Y0220071D03*
X0155463Y0220071D03*
X0154991Y0224323D03*
X0155306Y0228575D03*
X0155463Y0228575D03*
X0178971Y0237303D03*
X0178971Y0237461D03*
X0178971Y0237618D03*
X0187160Y0237461D03*
X0187160Y0237303D03*
X0187546Y0312579D03*
X0178806Y0315201D03*
X0168491Y0315146D03*
X0168333Y0313886D03*
X0197546Y0313579D03*
D99*
X0198176Y0316571D03*
X0198333Y0316571D03*
X0198491Y0316571D03*
X0198648Y0316571D03*
X0188806Y0319980D03*
X0188648Y0319980D03*
X0179908Y0320398D03*
X0178333Y0320398D03*
X0176916Y0320398D03*
X0178648Y0317248D03*
X0179908Y0316618D03*
X0179908Y0313783D03*
X0176916Y0315201D03*
X0176759Y0315201D03*
X0176916Y0310004D03*
X0177861Y0310004D03*
X0179908Y0310004D03*
X0169436Y0308846D03*
X0169278Y0308846D03*
X0167546Y0308846D03*
X0167388Y0308846D03*
X0167388Y0320185D03*
X0167546Y0320185D03*
X0169278Y0320185D03*
X0169436Y0320185D03*
X0155463Y0225898D03*
X0155463Y0222748D03*
X0155148Y0222591D03*
D100*
X0155306Y0222669D03*
X0155306Y0225976D03*
X0155148Y0225976D03*
X0167703Y0308768D03*
X0167861Y0308768D03*
X0168018Y0308768D03*
X0168806Y0308768D03*
X0168963Y0308768D03*
X0169121Y0308768D03*
X0177073Y0309925D03*
X0177231Y0309925D03*
X0177703Y0309925D03*
X0179751Y0309925D03*
X0179751Y0313862D03*
X0178491Y0317169D03*
X0178491Y0320476D03*
X0178176Y0320476D03*
X0177231Y0320476D03*
X0177073Y0320476D03*
X0179751Y0320476D03*
X0187073Y0316594D03*
X0188963Y0320059D03*
X0189121Y0320059D03*
X0189751Y0320059D03*
X0197861Y0316650D03*
X0198018Y0316650D03*
X0198806Y0316650D03*
X0198963Y0316650D03*
X0199278Y0320429D03*
X0169121Y0320264D03*
X0168963Y0320264D03*
X0168806Y0320264D03*
X0167861Y0320264D03*
X0167703Y0320264D03*
D101*
X0168333Y0315067D03*
X0168491Y0313965D03*
X0168491Y0312862D03*
X0168648Y0312862D03*
X0168806Y0312862D03*
X0168963Y0312862D03*
X0169121Y0312862D03*
X0169278Y0312862D03*
X0169436Y0312862D03*
X0169593Y0312862D03*
X0168333Y0312862D03*
X0188491Y0313760D03*
X0188648Y0313760D03*
X0188806Y0313760D03*
X0188963Y0313760D03*
X0189121Y0313760D03*
X0189278Y0313760D03*
X0189121Y0316437D03*
X0188491Y0317854D03*
X0188333Y0317854D03*
X0197231Y0317437D03*
X0197388Y0317437D03*
X0197546Y0317437D03*
X0199121Y0317437D03*
X0199278Y0317437D03*
X0199436Y0317437D03*
X0198963Y0314760D03*
X0198806Y0314760D03*
X0198648Y0314760D03*
X0198491Y0314760D03*
X0155148Y0228496D03*
D102*
X0155306Y0234008D03*
X0155306Y0214638D03*
X0186916Y0310453D03*
X0188491Y0310138D03*
X0196916Y0311453D03*
X0198491Y0311138D03*
D103*
X0188176Y0319823D03*
X0188018Y0319823D03*
X0180066Y0316618D03*
X0180066Y0313783D03*
X0176759Y0310161D03*
X0169751Y0309004D03*
X0167073Y0309004D03*
X0167703Y0311839D03*
X0167073Y0320028D03*
X0169751Y0320028D03*
X0176759Y0320240D03*
X0155621Y0226055D03*
X0155621Y0222591D03*
D104*
X0183066Y0234783D03*
X0183066Y0241083D03*
D105*
X0183066Y0240925D03*
X0183066Y0234941D03*
D106*
X0183066Y0235098D03*
X0183066Y0240768D03*
D107*
X0183066Y0240610D03*
X0183066Y0235256D03*
D108*
X0183066Y0235413D03*
X0183066Y0240453D03*
D109*
X0183066Y0240295D03*
X0183066Y0235571D03*
D110*
X0183066Y0235728D03*
X0183066Y0240138D03*
D111*
X0183066Y0239980D03*
X0183066Y0235886D03*
D112*
X0183066Y0236043D03*
X0183066Y0236201D03*
X0183066Y0239665D03*
X0183066Y0239823D03*
D113*
X0183066Y0239508D03*
X0183066Y0236516D03*
X0183066Y0236358D03*
D114*
X0189207Y0239350D03*
X0176924Y0239350D03*
D115*
X0176924Y0237618D03*
X0183066Y0237618D03*
X0183066Y0237461D03*
X0183066Y0237303D03*
X0183066Y0237146D03*
X0183066Y0236988D03*
X0183066Y0236831D03*
X0183066Y0236673D03*
X0183066Y0238406D03*
X0183066Y0238563D03*
X0183066Y0238720D03*
X0183066Y0238878D03*
X0183066Y0239035D03*
X0183066Y0239193D03*
X0183066Y0239350D03*
X0189207Y0237618D03*
D116*
X0186688Y0236673D03*
X0186688Y0238720D03*
X0186688Y0239193D03*
X0191885Y0239193D03*
X0191885Y0236673D03*
X0179444Y0236673D03*
X0179444Y0238720D03*
X0179444Y0239193D03*
X0174247Y0239193D03*
X0174247Y0236673D03*
D117*
X0174089Y0236831D03*
X0173932Y0236988D03*
X0174089Y0239035D03*
X0192042Y0239035D03*
X0192199Y0236988D03*
X0192042Y0236831D03*
D118*
X0186609Y0236831D03*
X0186609Y0236988D03*
X0186609Y0238878D03*
X0186609Y0239035D03*
X0179522Y0239035D03*
X0179522Y0238878D03*
X0179522Y0236988D03*
X0179522Y0236831D03*
D119*
X0173853Y0238878D03*
X0192278Y0238878D03*
D120*
X0192357Y0238720D03*
X0192357Y0237146D03*
X0173774Y0237146D03*
X0173774Y0238720D03*
D121*
X0173617Y0238563D03*
X0173617Y0237303D03*
X0192514Y0237303D03*
X0192514Y0238563D03*
D122*
X0186766Y0238563D03*
X0179365Y0238563D03*
D123*
X0173459Y0238406D03*
X0192672Y0238406D03*
D124*
X0186924Y0238406D03*
X0179207Y0238406D03*
D125*
X0173381Y0238248D03*
X0173381Y0237618D03*
X0192751Y0237618D03*
X0192751Y0238248D03*
D126*
X0187081Y0238248D03*
X0179050Y0238248D03*
D127*
X0173302Y0238091D03*
X0173302Y0237776D03*
X0192829Y0237776D03*
X0192829Y0238091D03*
D128*
X0187160Y0238091D03*
X0187160Y0237776D03*
X0178971Y0237776D03*
X0178971Y0238091D03*
D129*
X0173223Y0237933D03*
X0192908Y0237933D03*
D130*
X0187239Y0237933D03*
X0178892Y0237933D03*
D131*
X0181176Y0237618D03*
D132*
X0181255Y0237461D03*
X0181255Y0237303D03*
X0184877Y0237303D03*
X0184877Y0237461D03*
X0184877Y0237618D03*
D133*
X0187081Y0237618D03*
D134*
X0192593Y0237461D03*
X0173538Y0237461D03*
D135*
X0177003Y0237461D03*
D136*
X0178971Y0237146D03*
X0187160Y0237146D03*
X0189207Y0237461D03*
D137*
X0177160Y0237303D03*
D138*
X0177396Y0237146D03*
X0188735Y0237146D03*
X0189050Y0237303D03*
D139*
X0185034Y0237146D03*
X0181097Y0237146D03*
D140*
X0215892Y0299642D03*
X0216798Y0300783D03*
X0215971Y0303461D03*
D141*
X0215892Y0303461D03*
X0215892Y0305154D03*
X0215971Y0306059D03*
X0216798Y0306059D03*
X0216877Y0306059D03*
X0216955Y0306059D03*
X0217703Y0306059D03*
X0217782Y0306059D03*
X0217861Y0306059D03*
X0217940Y0306059D03*
X0216877Y0307909D03*
X0215971Y0301768D03*
X0215892Y0301768D03*
X0215892Y0300823D03*
X0215971Y0300823D03*
X0216955Y0300823D03*
X0218688Y0300823D03*
X0218766Y0300823D03*
X0218845Y0300823D03*
X0218924Y0300823D03*
X0216955Y0298894D03*
X0216877Y0298933D03*
D142*
X0216798Y0298953D03*
X0216877Y0300803D03*
X0215892Y0306039D03*
X0215892Y0307024D03*
X0215971Y0307024D03*
X0216798Y0307024D03*
X0216877Y0307024D03*
X0217703Y0307024D03*
X0217782Y0307024D03*
X0217861Y0307024D03*
X0217940Y0307024D03*
X0216798Y0307929D03*
D143*
X0215892Y0308717D03*
X0217940Y0304307D03*
D144*
X0215971Y0299602D03*
D145*
X0216798Y0302063D03*
X0216877Y0302063D03*
X0216955Y0302102D03*
X0215971Y0305134D03*
D146*
X0215971Y0308736D03*
D147*
X0217526Y0304327D03*
X0217566Y0304327D03*
X0217605Y0304327D03*
X0216739Y0303461D03*
X0216699Y0303461D03*
X0216660Y0303461D03*
X0217526Y0302594D03*
X0217566Y0302594D03*
X0216030Y0299602D03*
X0222841Y0299642D03*
X0222881Y0299642D03*
X0222920Y0299642D03*
X0225636Y0299642D03*
X0225715Y0299642D03*
X0225794Y0299642D03*
D148*
X0219062Y0300823D03*
X0219022Y0300823D03*
X0218983Y0300823D03*
X0218668Y0300823D03*
X0218629Y0300823D03*
X0218589Y0300823D03*
X0218550Y0300823D03*
X0218510Y0300823D03*
X0218471Y0300823D03*
X0218432Y0300823D03*
X0218392Y0300823D03*
X0218353Y0300823D03*
X0218314Y0300823D03*
X0218274Y0300823D03*
X0218235Y0300823D03*
X0218196Y0300823D03*
X0218156Y0300823D03*
X0218117Y0300823D03*
X0217211Y0300823D03*
X0217172Y0300823D03*
X0217133Y0300823D03*
X0217093Y0300823D03*
X0217054Y0300823D03*
X0217014Y0300823D03*
X0216070Y0300823D03*
X0216030Y0300823D03*
X0216070Y0301807D03*
X0216109Y0301807D03*
X0216188Y0301846D03*
X0216227Y0301846D03*
X0216266Y0301886D03*
X0216306Y0301886D03*
X0216345Y0301886D03*
X0218196Y0302594D03*
X0218235Y0302594D03*
X0218235Y0304287D03*
X0218196Y0306059D03*
X0218156Y0306059D03*
X0218117Y0306059D03*
X0218077Y0306059D03*
X0218038Y0306059D03*
X0217999Y0306059D03*
X0217644Y0306059D03*
X0217605Y0306059D03*
X0217566Y0306059D03*
X0217526Y0306059D03*
X0217487Y0306059D03*
X0217448Y0306059D03*
X0217408Y0306059D03*
X0217369Y0306059D03*
X0217329Y0306059D03*
X0217290Y0306059D03*
X0217251Y0306059D03*
X0217211Y0306059D03*
X0217172Y0306059D03*
X0217133Y0306059D03*
X0217093Y0306059D03*
X0217054Y0306059D03*
X0217014Y0306059D03*
X0216778Y0306059D03*
X0216739Y0306059D03*
X0216699Y0306059D03*
X0216660Y0306059D03*
X0216621Y0306059D03*
X0216581Y0306059D03*
X0216542Y0306059D03*
X0216503Y0306059D03*
X0216463Y0306059D03*
X0216424Y0306059D03*
X0216385Y0306059D03*
X0216345Y0306059D03*
X0216306Y0306059D03*
X0216266Y0306059D03*
X0216227Y0306059D03*
X0216188Y0306059D03*
X0216148Y0306059D03*
X0216109Y0306059D03*
X0216070Y0306059D03*
X0216030Y0306059D03*
X0217211Y0307909D03*
X0217251Y0307909D03*
X0218235Y0307004D03*
X0216503Y0309248D03*
X0217211Y0298933D03*
X0217251Y0298933D03*
X0217290Y0298933D03*
X0217172Y0298894D03*
X0217133Y0298894D03*
X0217093Y0298894D03*
X0217054Y0298894D03*
X0217014Y0298894D03*
D149*
X0216778Y0298953D03*
X0217329Y0298953D03*
X0217369Y0298953D03*
X0217448Y0298992D03*
X0217290Y0300803D03*
X0217251Y0300803D03*
X0218077Y0300803D03*
X0216109Y0300803D03*
X0216030Y0301787D03*
X0216148Y0301827D03*
X0218156Y0304307D03*
X0218196Y0304307D03*
X0218196Y0307024D03*
X0218156Y0307024D03*
X0218117Y0307024D03*
X0218077Y0307024D03*
X0218038Y0307024D03*
X0217999Y0307024D03*
X0217644Y0307024D03*
X0217605Y0307024D03*
X0217566Y0307024D03*
X0217526Y0307024D03*
X0217487Y0307024D03*
X0217448Y0307024D03*
X0217408Y0307024D03*
X0217369Y0307024D03*
X0217329Y0307024D03*
X0217290Y0307024D03*
X0217251Y0307024D03*
X0216778Y0307024D03*
X0216739Y0307024D03*
X0216699Y0307024D03*
X0216660Y0307024D03*
X0216621Y0307024D03*
X0216581Y0307024D03*
X0216542Y0307024D03*
X0216503Y0307024D03*
X0216463Y0307024D03*
X0216424Y0307024D03*
X0216385Y0307024D03*
X0216345Y0307024D03*
X0216306Y0307024D03*
X0216266Y0307024D03*
X0216227Y0307024D03*
X0216188Y0307024D03*
X0216148Y0307024D03*
X0216109Y0307024D03*
X0216070Y0307024D03*
X0216030Y0307024D03*
X0216778Y0307929D03*
X0217290Y0307929D03*
X0217329Y0307929D03*
D150*
X0217369Y0307949D03*
X0217408Y0307949D03*
X0216739Y0307949D03*
X0216699Y0307949D03*
X0217211Y0307043D03*
X0216070Y0303461D03*
X0216030Y0303461D03*
X0218077Y0302594D03*
X0218117Y0302594D03*
X0218156Y0302594D03*
X0217408Y0300783D03*
X0217369Y0300783D03*
X0217329Y0300783D03*
X0216778Y0300783D03*
X0216660Y0299012D03*
X0216739Y0298972D03*
X0217408Y0298972D03*
X0217487Y0299012D03*
X0217566Y0299051D03*
D151*
X0219101Y0300803D03*
X0217211Y0302181D03*
X0217172Y0302181D03*
X0217133Y0302142D03*
X0217093Y0302142D03*
X0217014Y0302102D03*
X0216739Y0302024D03*
X0216660Y0301984D03*
X0216621Y0301984D03*
X0216581Y0301984D03*
X0216542Y0301945D03*
X0216503Y0301945D03*
X0216463Y0301945D03*
X0216424Y0301906D03*
X0216385Y0301906D03*
X0216581Y0304937D03*
X0216621Y0304937D03*
X0216503Y0304976D03*
X0216385Y0305016D03*
X0216345Y0305016D03*
X0216266Y0305055D03*
X0216227Y0305055D03*
X0216148Y0305094D03*
X0216109Y0305094D03*
X0216070Y0305134D03*
X0216030Y0305134D03*
X0218235Y0306079D03*
X0218196Y0308756D03*
X0229652Y0303598D03*
D152*
X0229455Y0303106D03*
X0225951Y0304209D03*
X0224810Y0299563D03*
X0224731Y0299563D03*
X0224652Y0299563D03*
X0224573Y0299563D03*
X0223983Y0299563D03*
X0223904Y0299563D03*
X0223825Y0299563D03*
X0223747Y0299563D03*
X0223668Y0299563D03*
X0222762Y0308854D03*
X0222802Y0308894D03*
X0222841Y0308894D03*
X0222881Y0308894D03*
X0222959Y0308933D03*
X0222999Y0308933D03*
X0223038Y0308933D03*
X0223077Y0308933D03*
X0223117Y0308933D03*
X0223156Y0308933D03*
X0223196Y0308933D03*
X0225440Y0308933D03*
X0225479Y0308933D03*
X0225558Y0308933D03*
X0216030Y0308736D03*
D153*
X0217408Y0304346D03*
X0217369Y0302575D03*
X0217329Y0302575D03*
X0218077Y0299622D03*
X0216070Y0299622D03*
X0223314Y0299583D03*
X0223392Y0299583D03*
X0223432Y0299583D03*
X0223510Y0299583D03*
X0223589Y0299583D03*
X0224888Y0299583D03*
X0224967Y0299583D03*
X0225046Y0299583D03*
X0225125Y0299583D03*
X0225203Y0299583D03*
X0225282Y0299583D03*
X0227684Y0307890D03*
X0225873Y0308874D03*
X0225715Y0308913D03*
X0225636Y0308913D03*
X0222920Y0308913D03*
D154*
X0224062Y0309012D03*
X0224140Y0309012D03*
X0224219Y0309012D03*
X0224298Y0309012D03*
X0224377Y0309012D03*
X0224455Y0309012D03*
X0227605Y0307870D03*
X0227014Y0304484D03*
X0226936Y0304445D03*
X0226857Y0304406D03*
X0226699Y0304366D03*
X0216070Y0308736D03*
D155*
X0223235Y0308953D03*
X0223314Y0308953D03*
X0225282Y0308953D03*
X0225361Y0308953D03*
X0224495Y0299543D03*
X0224455Y0299543D03*
X0224377Y0299543D03*
X0224298Y0299543D03*
X0224219Y0299543D03*
X0224140Y0299543D03*
X0224062Y0299543D03*
X0216109Y0299622D03*
D156*
X0216581Y0299051D03*
X0217605Y0299091D03*
X0218235Y0299642D03*
X0217487Y0300744D03*
X0216699Y0300744D03*
X0216660Y0300744D03*
X0216148Y0303461D03*
X0216109Y0303461D03*
X0217999Y0304287D03*
X0217526Y0308028D03*
X0216581Y0308028D03*
X0216542Y0308067D03*
X0223825Y0301846D03*
X0227920Y0307949D03*
D157*
X0229298Y0302870D03*
X0217999Y0308736D03*
X0216109Y0308736D03*
D158*
X0216148Y0300035D03*
X0217999Y0300035D03*
X0228510Y0302004D03*
X0227172Y0307791D03*
D159*
X0227526Y0307831D03*
X0227841Y0304917D03*
X0227762Y0304839D03*
X0227684Y0304839D03*
X0229219Y0302752D03*
X0216148Y0308736D03*
D160*
X0216188Y0300016D03*
X0228471Y0301945D03*
D161*
X0229573Y0303441D03*
X0217999Y0302575D03*
X0217566Y0300724D03*
X0217526Y0300724D03*
X0216621Y0300724D03*
X0216542Y0299110D03*
X0217644Y0299110D03*
X0216188Y0303480D03*
X0217566Y0308087D03*
D162*
X0216463Y0304996D03*
X0216424Y0304996D03*
X0216542Y0304957D03*
X0216660Y0304917D03*
X0216699Y0304917D03*
X0216739Y0304878D03*
X0216778Y0304878D03*
X0217014Y0304799D03*
X0217369Y0304681D03*
X0216306Y0305035D03*
X0216188Y0305075D03*
X0217251Y0302201D03*
X0217290Y0302201D03*
X0217054Y0302122D03*
X0216778Y0302043D03*
X0216699Y0302004D03*
X0218274Y0299642D03*
D163*
X0216188Y0308717D03*
X0227487Y0307850D03*
X0228156Y0305134D03*
D164*
X0228983Y0306020D03*
X0227093Y0307791D03*
X0228392Y0301886D03*
X0216227Y0299996D03*
D165*
X0216581Y0300705D03*
X0218196Y0299642D03*
X0216306Y0303461D03*
X0216266Y0303461D03*
X0216227Y0303461D03*
X0218156Y0308736D03*
X0223825Y0306610D03*
X0224810Y0306610D03*
X0223825Y0303461D03*
X0224731Y0301846D03*
X0224810Y0301846D03*
D166*
X0229140Y0302634D03*
X0228235Y0305193D03*
X0216227Y0308736D03*
D167*
X0216266Y0299976D03*
X0230440Y0308087D03*
D168*
X0227408Y0307831D03*
X0228392Y0305350D03*
X0228314Y0305272D03*
X0216266Y0308736D03*
D169*
X0216306Y0299957D03*
X0216345Y0299957D03*
X0228314Y0301807D03*
X0229062Y0306138D03*
D170*
X0228471Y0305409D03*
X0216306Y0308717D03*
D171*
X0216345Y0303480D03*
X0217605Y0300685D03*
X0223904Y0301827D03*
X0223983Y0301827D03*
X0224062Y0301827D03*
X0224140Y0301827D03*
X0224219Y0301827D03*
X0224298Y0301827D03*
X0224377Y0301827D03*
X0224455Y0301827D03*
X0224495Y0301827D03*
X0224573Y0301827D03*
X0224652Y0301827D03*
X0224652Y0303441D03*
X0224573Y0303441D03*
X0224495Y0303441D03*
X0224455Y0303441D03*
X0224377Y0303441D03*
X0224298Y0303441D03*
X0224219Y0303441D03*
X0224140Y0303441D03*
X0224062Y0303441D03*
X0223983Y0303441D03*
X0223904Y0303441D03*
X0224731Y0303441D03*
X0224810Y0303441D03*
X0223825Y0305055D03*
X0224731Y0306630D03*
D172*
X0228983Y0302476D03*
X0230558Y0308303D03*
X0216345Y0308736D03*
D173*
X0216385Y0299937D03*
X0216424Y0299937D03*
X0228235Y0301748D03*
X0227014Y0307772D03*
D174*
X0224652Y0306610D03*
X0224573Y0306610D03*
X0224495Y0306610D03*
X0224455Y0306610D03*
X0224377Y0306610D03*
X0224298Y0306610D03*
X0224219Y0306610D03*
X0224140Y0306610D03*
X0224062Y0306610D03*
X0223983Y0306610D03*
X0223904Y0306610D03*
X0223904Y0305035D03*
X0223983Y0305035D03*
X0224062Y0305035D03*
X0224140Y0305035D03*
X0224219Y0305035D03*
X0224298Y0305035D03*
X0224377Y0305035D03*
X0224455Y0305035D03*
X0224495Y0305035D03*
X0224573Y0305035D03*
X0224652Y0305035D03*
X0224731Y0305035D03*
X0224810Y0305035D03*
X0217644Y0300665D03*
X0216542Y0300665D03*
X0216503Y0299169D03*
X0216424Y0303461D03*
X0216385Y0303461D03*
X0216503Y0308146D03*
D175*
X0216424Y0308697D03*
X0216385Y0308736D03*
X0217605Y0308657D03*
X0217644Y0308697D03*
X0228589Y0305587D03*
X0228668Y0305665D03*
X0228904Y0302358D03*
D176*
X0228156Y0301689D03*
X0228077Y0301650D03*
X0216463Y0299917D03*
D177*
X0218156Y0299622D03*
X0216503Y0303480D03*
X0216463Y0303480D03*
X0227841Y0307929D03*
D178*
X0227329Y0307811D03*
X0228510Y0305488D03*
X0216463Y0308677D03*
D179*
X0216581Y0303480D03*
X0216621Y0303480D03*
X0217605Y0302575D03*
X0217644Y0302575D03*
X0216503Y0300606D03*
X0229495Y0303283D03*
D180*
X0230794Y0308736D03*
X0218117Y0308736D03*
X0217644Y0304327D03*
X0216542Y0303461D03*
D181*
X0216542Y0309287D03*
X0217526Y0309327D03*
X0229731Y0303736D03*
D182*
X0218314Y0299642D03*
X0217487Y0309327D03*
X0216581Y0309287D03*
D183*
X0216621Y0308008D03*
X0216660Y0307969D03*
X0217448Y0307969D03*
X0217487Y0308008D03*
X0218038Y0304307D03*
X0218077Y0304307D03*
X0218117Y0304307D03*
X0218038Y0302575D03*
X0217448Y0300764D03*
X0216739Y0300764D03*
X0216621Y0299031D03*
X0216699Y0298992D03*
X0217526Y0299031D03*
D184*
X0216621Y0309287D03*
D185*
X0216660Y0309268D03*
D186*
X0216699Y0309287D03*
D187*
X0217487Y0304346D03*
X0216778Y0303480D03*
X0217448Y0302575D03*
X0217487Y0302575D03*
X0218117Y0299622D03*
X0222802Y0299661D03*
X0222959Y0299622D03*
X0222999Y0299622D03*
X0223038Y0299622D03*
X0225479Y0299622D03*
X0225558Y0299622D03*
X0225873Y0299701D03*
D188*
X0216798Y0303480D03*
D189*
X0216955Y0304799D03*
X0216877Y0304839D03*
X0216798Y0304878D03*
D190*
X0216877Y0303106D03*
D191*
X0216955Y0303087D03*
X0216955Y0303835D03*
X0216877Y0303835D03*
D192*
X0216955Y0307457D03*
D193*
X0217566Y0309327D03*
X0217251Y0304720D03*
X0217133Y0303894D03*
X0217054Y0303854D03*
X0217014Y0303854D03*
X0217014Y0303067D03*
X0217093Y0303028D03*
X0217211Y0302988D03*
D194*
X0217172Y0307457D03*
X0217133Y0307457D03*
X0217093Y0307457D03*
X0217054Y0307457D03*
X0217014Y0307457D03*
X0227408Y0304661D03*
X0227487Y0304701D03*
X0227526Y0304740D03*
X0227605Y0304780D03*
X0230715Y0308480D03*
D195*
X0227999Y0308008D03*
X0217329Y0304701D03*
X0217290Y0304701D03*
X0217211Y0304740D03*
X0217172Y0304740D03*
X0217133Y0304780D03*
X0217093Y0304780D03*
X0217054Y0304780D03*
X0217290Y0303953D03*
X0217329Y0303953D03*
X0217369Y0303953D03*
X0217251Y0303913D03*
X0217211Y0303913D03*
X0217172Y0303913D03*
X0217093Y0303874D03*
X0217054Y0303047D03*
X0217251Y0302969D03*
X0217290Y0302969D03*
D196*
X0217172Y0303008D03*
X0217133Y0303008D03*
D197*
X0217408Y0302555D03*
X0217448Y0304327D03*
X0218077Y0308736D03*
X0225794Y0308894D03*
X0227762Y0307909D03*
X0225440Y0299602D03*
X0225361Y0299602D03*
X0223235Y0299602D03*
X0223196Y0299602D03*
X0223156Y0299602D03*
X0223117Y0299602D03*
X0223077Y0299602D03*
X0222762Y0299681D03*
D198*
X0228156Y0308106D03*
X0229377Y0308933D03*
X0217408Y0309287D03*
D199*
X0217448Y0309307D03*
D200*
X0217703Y0299937D03*
D201*
X0217703Y0302575D03*
D202*
X0217782Y0302594D03*
X0217703Y0304327D03*
D203*
X0217703Y0308736D03*
D204*
X0217782Y0299957D03*
D205*
X0217861Y0302575D03*
X0217782Y0304307D03*
D206*
X0217782Y0308736D03*
D207*
X0217861Y0299976D03*
D208*
X0217940Y0302594D03*
X0217861Y0304327D03*
D209*
X0217861Y0308736D03*
D210*
X0217940Y0300016D03*
D211*
X0217940Y0308736D03*
D212*
X0218038Y0300055D03*
X0228904Y0305921D03*
D213*
X0226778Y0304386D03*
X0226621Y0304346D03*
X0226542Y0304346D03*
X0226463Y0304307D03*
X0226424Y0304268D03*
X0226345Y0304268D03*
X0226266Y0304268D03*
X0229377Y0302969D03*
X0224888Y0308992D03*
X0224810Y0308992D03*
X0224731Y0308992D03*
X0224652Y0308992D03*
X0224573Y0308992D03*
X0224495Y0308992D03*
X0223983Y0308992D03*
X0223904Y0308992D03*
X0223825Y0308992D03*
X0223747Y0308992D03*
X0223668Y0308992D03*
X0218038Y0308756D03*
D214*
X0218235Y0308717D03*
D215*
X0218766Y0304307D03*
D216*
X0218845Y0304307D03*
D217*
X0218924Y0304307D03*
D218*
X0218983Y0304307D03*
X0226621Y0307772D03*
X0230203Y0307850D03*
X0227251Y0301157D03*
D219*
X0226424Y0300843D03*
X0226266Y0300803D03*
X0226345Y0307772D03*
X0226424Y0307772D03*
X0219022Y0304307D03*
D220*
X0219062Y0304307D03*
D221*
X0219101Y0304307D03*
D222*
X0219140Y0304307D03*
D223*
X0219180Y0304307D03*
X0229455Y0307299D03*
D224*
X0219219Y0304307D03*
D225*
X0219259Y0304307D03*
D226*
X0219298Y0304307D03*
D227*
X0219337Y0304307D03*
D228*
X0219377Y0304307D03*
D229*
X0219416Y0304287D03*
D230*
X0219455Y0304307D03*
D231*
X0219495Y0304307D03*
D232*
X0219534Y0304327D03*
D233*
X0219573Y0304307D03*
D234*
X0219613Y0304307D03*
D235*
X0219652Y0304307D03*
D236*
X0219692Y0304307D03*
D237*
X0219731Y0304307D03*
D238*
X0219770Y0304307D03*
D239*
X0219810Y0304307D03*
D240*
X0219849Y0304307D03*
D241*
X0219888Y0304307D03*
D242*
X0219928Y0304307D03*
D243*
X0219967Y0304307D03*
D244*
X0220007Y0304307D03*
D245*
X0220046Y0304307D03*
D246*
X0220085Y0304307D03*
D247*
X0220125Y0304307D03*
D248*
X0220164Y0304307D03*
D249*
X0220203Y0304307D03*
D250*
X0220243Y0304307D03*
D251*
X0220282Y0304307D03*
D252*
X0220322Y0304307D03*
D253*
X0220361Y0304307D03*
D254*
X0220400Y0304307D03*
D255*
X0220440Y0304327D03*
D256*
X0220479Y0304307D03*
D257*
X0220518Y0304307D03*
D258*
X0220558Y0304307D03*
D259*
X0220597Y0304307D03*
D260*
X0220636Y0304287D03*
D261*
X0220676Y0304287D03*
D262*
X0220715Y0304307D03*
D263*
X0220755Y0304307D03*
D264*
X0220794Y0304307D03*
D265*
X0220833Y0304307D03*
D266*
X0220873Y0304307D03*
D267*
X0220912Y0304307D03*
X0220951Y0304307D03*
D268*
X0220991Y0304307D03*
D269*
X0221030Y0304287D03*
D270*
X0221070Y0304307D03*
D271*
X0221109Y0304307D03*
D272*
X0221148Y0304307D03*
D273*
X0221188Y0304327D03*
D274*
X0221227Y0304307D03*
D275*
X0221266Y0304307D03*
X0221306Y0304307D03*
D276*
X0221345Y0304307D03*
D277*
X0221385Y0304307D03*
X0221424Y0304307D03*
D278*
X0221463Y0304307D03*
D279*
X0221503Y0304307D03*
X0221542Y0304307D03*
D280*
X0221581Y0304287D03*
D281*
X0221621Y0304307D03*
D282*
X0221660Y0304307D03*
X0221699Y0304307D03*
D283*
X0221739Y0304307D03*
X0221778Y0304307D03*
D284*
X0221818Y0304307D03*
D285*
X0221857Y0304307D03*
X0221896Y0304307D03*
X0221936Y0304307D03*
D286*
X0221975Y0304307D03*
D287*
X0222014Y0304287D03*
D288*
X0222054Y0304307D03*
X0222093Y0304307D03*
D289*
X0222133Y0304287D03*
D290*
X0222172Y0304307D03*
D291*
X0222211Y0304287D03*
X0222251Y0304287D03*
D292*
X0222290Y0304307D03*
D293*
X0222329Y0304327D03*
D294*
X0222369Y0304307D03*
X0222408Y0304307D03*
X0222448Y0304307D03*
D295*
X0222487Y0304307D03*
D296*
X0222526Y0304327D03*
D297*
X0222566Y0304307D03*
X0222605Y0304307D03*
X0222644Y0304307D03*
D298*
X0222684Y0304307D03*
X0222723Y0304307D03*
D299*
X0226030Y0304209D03*
X0226109Y0304248D03*
X0226188Y0304248D03*
X0225203Y0308972D03*
X0225125Y0308972D03*
X0225046Y0308972D03*
X0224967Y0308972D03*
X0223589Y0308972D03*
X0223510Y0308972D03*
X0223432Y0308972D03*
X0223392Y0308972D03*
D300*
X0226266Y0307772D03*
X0230046Y0307693D03*
X0226109Y0300764D03*
X0226030Y0300724D03*
X0225951Y0300724D03*
D301*
X0225951Y0307791D03*
X0226030Y0307791D03*
X0229377Y0306925D03*
X0229888Y0307594D03*
D302*
X0226109Y0307772D03*
D303*
X0226345Y0300823D03*
X0226188Y0300783D03*
D304*
X0226188Y0307772D03*
D305*
X0226542Y0300902D03*
X0226463Y0300862D03*
D306*
X0226621Y0300921D03*
X0226699Y0300961D03*
X0226778Y0300961D03*
X0226463Y0307772D03*
X0230125Y0307772D03*
D307*
X0226542Y0307772D03*
D308*
X0226699Y0307772D03*
X0227526Y0301315D03*
X0227487Y0301276D03*
X0227408Y0301236D03*
X0227329Y0301197D03*
D309*
X0227605Y0301374D03*
X0229219Y0306453D03*
X0226778Y0307791D03*
D310*
X0229298Y0306650D03*
X0226936Y0301020D03*
X0226857Y0301020D03*
D311*
X0227762Y0301453D03*
X0226857Y0307791D03*
D312*
X0226936Y0307772D03*
X0229140Y0306276D03*
X0227999Y0301591D03*
D313*
X0227172Y0301138D03*
X0227093Y0301098D03*
X0227014Y0301059D03*
D314*
X0227093Y0304504D03*
X0227172Y0304543D03*
X0227251Y0304583D03*
X0227329Y0304622D03*
D315*
X0228825Y0305803D03*
X0227251Y0307811D03*
D316*
X0230282Y0307929D03*
X0227684Y0301433D03*
D317*
X0227841Y0301472D03*
D318*
X0227920Y0301531D03*
X0230361Y0307988D03*
D319*
X0230636Y0308441D03*
X0227920Y0304976D03*
D320*
X0227999Y0305035D03*
X0228077Y0305075D03*
D321*
X0228077Y0308067D03*
D322*
X0230479Y0308185D03*
X0228668Y0302161D03*
X0228589Y0302083D03*
D323*
X0228747Y0302201D03*
X0228825Y0302280D03*
D324*
X0228747Y0305724D03*
D325*
X0229062Y0302535D03*
D326*
X0229495Y0307358D03*
D327*
X0229573Y0307398D03*
D328*
X0229652Y0307457D03*
D329*
X0229731Y0307476D03*
D330*
X0229810Y0307516D03*
D331*
X0229967Y0307634D03*
D332*
X0201483Y0316492D03*
X0195184Y0316492D03*
D333*
X0195341Y0316256D03*
X0201325Y0316256D03*
D334*
X0201168Y0316098D03*
X0195499Y0316098D03*
D335*
X0195656Y0315941D03*
X0191325Y0315571D03*
X0185341Y0315571D03*
X0201010Y0315941D03*
D336*
X0200853Y0315862D03*
X0195814Y0315862D03*
D337*
X0195971Y0315783D03*
X0200696Y0315783D03*
X0191168Y0315413D03*
X0185499Y0315413D03*
D338*
X0196129Y0315705D03*
X0200538Y0315705D03*
D339*
X0200381Y0315626D03*
X0196286Y0315626D03*
X0191010Y0315256D03*
X0185656Y0315256D03*
D340*
X0185814Y0315177D03*
X0190853Y0315177D03*
X0196444Y0315547D03*
X0196601Y0315547D03*
X0200066Y0315547D03*
X0200223Y0315547D03*
D341*
X0199908Y0315469D03*
X0196759Y0315469D03*
X0190696Y0315098D03*
X0185971Y0315098D03*
D342*
X0196916Y0317594D03*
D343*
X0197861Y0314130D03*
X0189751Y0317854D03*
X0189593Y0317854D03*
X0187861Y0313130D03*
X0179593Y0313862D03*
X0179436Y0313862D03*
X0179593Y0316539D03*
X0179278Y0320634D03*
X0179121Y0320634D03*
X0178963Y0320634D03*
X0170066Y0314594D03*
X0166759Y0314594D03*
X0179121Y0309768D03*
X0179278Y0309768D03*
D344*
X0185184Y0315807D03*
X0191483Y0315807D03*
D345*
X0190538Y0315020D03*
X0186129Y0315020D03*
D346*
X0186286Y0314941D03*
X0190381Y0314941D03*
D347*
X0190223Y0314862D03*
X0190066Y0314862D03*
X0186601Y0314862D03*
X0186444Y0314862D03*
D348*
X0186759Y0314783D03*
X0189908Y0314783D03*
X0181483Y0315201D03*
X0181325Y0315201D03*
X0181168Y0315201D03*
X0181010Y0315201D03*
X0180853Y0315201D03*
X0180696Y0315201D03*
X0180538Y0315201D03*
X0180381Y0315201D03*
X0180223Y0315201D03*
X0176601Y0315201D03*
X0176444Y0315201D03*
X0176286Y0315201D03*
X0176129Y0315201D03*
X0175971Y0315201D03*
X0175814Y0315201D03*
X0175656Y0315201D03*
X0175499Y0315201D03*
X0175341Y0315201D03*
X0175184Y0315201D03*
D349*
X0186916Y0316909D03*
D350*
X0187388Y0319665D03*
X0187546Y0319665D03*
X0178806Y0317563D03*
X0178648Y0310319D03*
X0178018Y0310319D03*
X0169908Y0319870D03*
X0166916Y0319870D03*
D351*
X0167861Y0311760D03*
X0168018Y0311760D03*
X0166916Y0309083D03*
X0169908Y0309083D03*
X0178176Y0310240D03*
X0178333Y0310240D03*
X0178491Y0310240D03*
X0187703Y0319744D03*
X0187861Y0319744D03*
D352*
X0188333Y0319902D03*
X0188491Y0319902D03*
X0180066Y0320319D03*
X0180066Y0310083D03*
X0169593Y0308925D03*
X0167231Y0308925D03*
X0167231Y0320106D03*
X0169593Y0320106D03*
D353*
X0170223Y0314516D03*
X0170381Y0314516D03*
X0170538Y0314516D03*
X0170696Y0314516D03*
X0170853Y0314516D03*
X0171010Y0314516D03*
X0171168Y0314516D03*
X0171325Y0314516D03*
X0171483Y0314516D03*
X0166601Y0314516D03*
X0166444Y0314516D03*
X0166286Y0314516D03*
X0166129Y0314516D03*
X0165971Y0314516D03*
X0165814Y0314516D03*
X0165656Y0314516D03*
X0165499Y0314516D03*
X0165341Y0314516D03*
X0165184Y0314516D03*
D354*
X0166759Y0319713D03*
X0170066Y0319713D03*
M02*
