M48
;DRILL file {KiCad 4.0.6} date 02/21/18 15:14:37
;FORMAT={-:-/ absolute / inch / decimal}
FMAT,2
INCH,TZ
T1C0.016
T2C0.020
T3C0.035
T4C0.035
T5C0.040
T6C0.055
T7C0.130
%
G90
G05
M72
T1
X5.67Y-4.12
X5.67Y-4.158
X5.6966Y-4.9474
X5.808Y-3.838
X5.808Y-3.882
X5.822Y-4.206
X5.9Y-4.1354
X5.94Y-4.018
X5.988Y-3.842
X6.115Y-4.097
X6.147Y-4.137
T2
X5.8Y-4.286
X5.8Y-4.386
X5.9Y-4.286
X5.9Y-4.386
X6.Y-4.286
X6.Y-4.386
T3
X5.5Y-5.
X5.5Y-5.1
X5.5Y-5.2
X5.8Y-5.5
X5.9Y-5.5
X6.Y-5.5
T4
X5.775Y-4.6
X5.775Y-4.8
X6.025Y-4.6
X6.025Y-4.8
T5
X5.75Y-3.67
X5.85Y-3.67
X5.95Y-3.67
X6.05Y-3.67
T6
X5.6Y-4.8375
X5.6Y-5.3625
X6.2Y-4.8375
X6.2Y-5.3625
T7
X5.5Y-3.7
X5.5Y-4.5
X6.3Y-3.7
X6.3Y-4.5
T0
M30
