G04 #@! TF.FileFunction,Copper,L1,Top,Signal*
%FSLAX46Y46*%
G04 Gerber Fmt 4.6, Leading zero omitted, Abs format (unit mm)*
G04 Created by KiCad (PCBNEW 4.0.6) date 02/21/18 15:14:43*
%MOMM*%
%LPD*%
G01*
G04 APERTURE LIST*
%ADD10C,0.100000*%
%ADD11R,0.800000X0.800000*%
%ADD12C,1.778000*%
%ADD13C,2.286000*%
%ADD14R,1.099820X0.998220*%
%ADD15R,2.000000X1.200000*%
%ADD16R,1.350000X0.600000*%
%ADD17C,1.000000*%
%ADD18C,1.879600*%
%ADD19C,1.016000*%
%ADD20R,0.998220X1.099820*%
%ADD21R,1.524000X0.762000*%
%ADD22C,0.700000*%
%ADD23C,0.250000*%
%ADD24C,0.203200*%
G04 APERTURE END LIST*
D10*
D11*
X159308800Y-120078400D03*
X159308800Y-118478400D03*
D12*
X146685000Y-116840000D03*
X153035000Y-116840000D03*
X146685000Y-121920000D03*
X153035000Y-121920000D03*
X147320000Y-139700000D03*
X149860000Y-139700000D03*
X152400000Y-139700000D03*
D13*
X142240000Y-122872500D03*
X142240000Y-136207500D03*
X157480000Y-136207500D03*
X157480000Y-122872500D03*
D12*
X139700000Y-127000000D03*
X139700000Y-129540000D03*
X139700000Y-132080000D03*
D14*
X150708360Y-97586800D03*
X149011640Y-97586800D03*
D15*
X161155000Y-106940000D03*
X161155000Y-101340000D03*
D16*
X157480000Y-105640000D03*
X157480000Y-104640000D03*
X157480000Y-103640000D03*
X157480000Y-102640000D03*
D15*
X138565000Y-101340000D03*
X138565000Y-106940000D03*
D16*
X142240000Y-102640000D03*
X142240000Y-103640000D03*
X142240000Y-104640000D03*
X142240000Y-105640000D03*
D17*
X138176000Y-141224000D03*
X157480000Y-92456000D03*
D14*
X154091640Y-99466400D03*
X155788360Y-99466400D03*
D18*
X146050000Y-93218000D03*
X148590000Y-93218000D03*
X151130000Y-93218000D03*
X153670000Y-93218000D03*
D19*
X152400000Y-108864400D03*
X152400000Y-111404400D03*
X149860000Y-108864400D03*
X149860000Y-111404400D03*
X147320000Y-108864400D03*
X147320000Y-111404400D03*
D14*
X143931640Y-99466400D03*
X145628360Y-99466400D03*
X149011640Y-99517200D03*
X150708360Y-99517200D03*
D20*
X157276800Y-118379240D03*
X157276800Y-120075960D03*
D21*
X146202400Y-102069900D03*
X146202400Y-103339900D03*
X146202400Y-104609900D03*
X146202400Y-105879900D03*
X153611580Y-105879900D03*
X153611580Y-104609900D03*
X153611580Y-103339900D03*
X153611580Y-102069900D03*
D22*
X147523200Y-98602800D03*
X152095200Y-97586800D03*
X156133800Y-105079800D03*
X150876000Y-102057200D03*
X155321000Y-104063800D03*
X147523200Y-97485200D03*
X144018000Y-104648000D03*
X149860000Y-105040300D03*
X144018000Y-105613200D03*
X147878800Y-106832400D03*
X144693001Y-125664599D03*
D23*
X157480000Y-105640000D02*
X157105000Y-105640000D01*
X149011640Y-99517200D02*
X148437600Y-99517200D01*
X148437600Y-99517200D02*
X147523200Y-98602800D01*
X150708360Y-97586800D02*
X152095200Y-97586800D01*
X156133800Y-105079800D02*
X156555000Y-104658600D01*
X156555000Y-104658600D02*
X156555000Y-104640000D01*
X150876000Y-102057200D02*
X152146000Y-102057200D01*
X152146000Y-102057200D02*
X152572700Y-102057200D01*
X154091640Y-99466400D02*
X153263600Y-99466400D01*
X153263600Y-99466400D02*
X152146000Y-100584000D01*
X152146000Y-100584000D02*
X152146000Y-102057200D01*
X150876000Y-102057200D02*
X153598880Y-102057200D01*
X153598880Y-102057200D02*
X153611580Y-102069900D01*
X155092400Y-115394930D02*
X155092400Y-114096800D01*
X155092400Y-114096800D02*
X152400000Y-111404400D01*
X157276800Y-118379240D02*
X157276800Y-117579330D01*
X157276800Y-117579330D02*
X155092400Y-115394930D01*
X147652930Y-94996000D02*
X147650201Y-94993271D01*
X147650201Y-94157799D02*
X148590000Y-93218000D01*
X147650201Y-94993271D02*
X147650201Y-94157799D01*
X143931640Y-99466400D02*
X143931640Y-98717290D01*
X143931640Y-98717290D02*
X147652930Y-94996000D01*
X143931640Y-99466400D02*
X143982440Y-99466400D01*
X155295600Y-105899400D02*
X155581800Y-105613200D01*
X155581800Y-105613200D02*
X156555000Y-104640000D01*
X152572700Y-102057200D02*
X152585400Y-102069900D01*
X142240000Y-103640000D02*
X143165000Y-103640000D01*
X143165000Y-103640000D02*
X143931640Y-102873360D01*
X143931640Y-102873360D02*
X143931640Y-100215510D01*
X143931640Y-100215510D02*
X143931640Y-99466400D01*
X148590000Y-115214400D02*
X148590000Y-127000000D01*
X148590000Y-127000000D02*
X148590000Y-138430000D01*
X139700000Y-127000000D02*
X148590000Y-127000000D01*
X152400000Y-111404400D02*
X148590000Y-115214400D01*
X148590000Y-138430000D02*
X148208999Y-138811001D01*
X148208999Y-138811001D02*
X147320000Y-139700000D01*
X155295600Y-108508800D02*
X155295600Y-105899400D01*
X156555000Y-104640000D02*
X157480000Y-104640000D01*
X152400000Y-111404400D02*
X155295600Y-108508800D01*
X154838400Y-104546400D02*
X155321000Y-104063800D01*
X155321000Y-104063800D02*
X155744800Y-103640000D01*
X153611580Y-105879900D02*
X154623580Y-105879900D01*
X154623580Y-105879900D02*
X154838400Y-105665080D01*
X154838400Y-105665080D02*
X154838400Y-104546400D01*
X155744800Y-103640000D02*
X156555000Y-103640000D01*
X156555000Y-103640000D02*
X157480000Y-103640000D01*
X147523200Y-97485200D02*
X148910040Y-97485200D01*
X148910040Y-97485200D02*
X149011640Y-97586800D01*
X142240000Y-104640000D02*
X144010000Y-104640000D01*
X144010000Y-104640000D02*
X144018000Y-104648000D01*
X149011640Y-97586800D02*
X149011640Y-96837690D01*
X149011640Y-96837690D02*
X151130000Y-94719330D01*
X151130000Y-94719330D02*
X151130000Y-93218000D01*
X153924000Y-108000800D02*
X152585400Y-106662200D01*
X152585400Y-106662200D02*
X152585400Y-105879900D01*
X153924000Y-108573242D02*
X153924000Y-108000800D01*
X149860000Y-111404400D02*
X150693001Y-110571399D01*
X150693001Y-110571399D02*
X151925843Y-110571399D01*
X151925843Y-110571399D02*
X153924000Y-108573242D01*
X152585400Y-105879900D02*
X153610400Y-105879900D01*
X154673300Y-103339900D02*
X155373200Y-102640000D01*
X155373200Y-102640000D02*
X156555000Y-102640000D01*
X153611580Y-103339900D02*
X154673300Y-103339900D01*
X149860000Y-105040300D02*
X150723600Y-104176700D01*
X150723600Y-104176700D02*
X151560400Y-103339900D01*
X149656800Y-101317870D02*
X149656800Y-103109900D01*
X149656800Y-103109900D02*
X150723600Y-104176700D01*
X150708360Y-99517200D02*
X150708360Y-100266310D01*
X150708360Y-100266310D02*
X149656800Y-101317870D01*
X142240000Y-105640000D02*
X143991200Y-105640000D01*
X143991200Y-105640000D02*
X144018000Y-105613200D01*
X150708360Y-99517200D02*
X151536400Y-99517200D01*
X151536400Y-99517200D02*
X153670000Y-97383600D01*
X153670000Y-97383600D02*
X153670000Y-93218000D01*
X149860000Y-108864400D02*
X149860000Y-105040300D01*
X151560400Y-103339900D02*
X152585400Y-103339900D01*
X152585400Y-103339900D02*
X153610400Y-103339900D01*
X156555000Y-102640000D02*
X157480000Y-102640000D01*
X153611580Y-104609900D02*
X151371300Y-104609900D01*
X151371300Y-104609900D02*
X150926800Y-105054400D01*
X150926800Y-105054400D02*
X150926800Y-107391200D01*
X150926800Y-107391200D02*
X152400000Y-108864400D01*
X152400000Y-108864400D02*
X151566999Y-109697401D01*
X151566999Y-109697401D02*
X150334157Y-109697401D01*
X150334157Y-109697401D02*
X146685000Y-113346558D01*
X146685000Y-113346558D02*
X146685000Y-115582765D01*
X146685000Y-115582765D02*
X146685000Y-116840000D01*
X148450300Y-102069900D02*
X147777200Y-102069900D01*
X147777200Y-102069900D02*
X147185400Y-102069900D01*
X145628360Y-99466400D02*
X146558000Y-99466400D01*
X146558000Y-99466400D02*
X147777200Y-100685600D01*
X147777200Y-100685600D02*
X147777200Y-102069900D01*
X147185400Y-102069900D02*
X146202400Y-102069900D01*
X147320000Y-108864400D02*
X148793200Y-107391200D01*
X148793200Y-107391200D02*
X148793200Y-102412800D01*
X148793200Y-102412800D02*
X148450300Y-102069900D01*
X147472400Y-104622600D02*
X147878800Y-105029000D01*
X147878800Y-105029000D02*
X147878800Y-106832400D01*
X146596100Y-104622600D02*
X147472400Y-104622600D01*
X146202400Y-104609900D02*
X146583400Y-104609900D01*
X146583400Y-104609900D02*
X146596100Y-104622600D01*
X144693001Y-125664599D02*
X144693001Y-103642799D01*
X144693001Y-103642799D02*
X144995900Y-103339900D01*
X144995900Y-103339900D02*
X146202400Y-103339900D01*
X157276800Y-120075960D02*
X159103160Y-120075960D01*
X159103160Y-120075960D02*
X159105600Y-120078400D01*
D24*
G36*
X145154240Y-92106714D02*
X146050000Y-93002474D01*
X146945760Y-92106714D01*
X146875575Y-91921400D01*
X148202792Y-91921400D01*
X147828435Y-92076081D01*
X147449412Y-92454443D01*
X147438266Y-92481286D01*
X147411666Y-92417068D01*
X147161286Y-92322240D01*
X146265526Y-93218000D01*
X146279669Y-93232143D01*
X146064143Y-93447669D01*
X146050000Y-93433526D01*
X145154240Y-94329286D01*
X145249068Y-94579666D01*
X145831122Y-94782519D01*
X146446499Y-94747188D01*
X146850932Y-94579666D01*
X146945759Y-94329288D01*
X147057883Y-94441412D01*
X147118801Y-94380494D01*
X147118801Y-94778616D01*
X143555883Y-98341533D01*
X143440690Y-98513932D01*
X143432933Y-98552929D01*
X143381730Y-98552929D01*
X143231127Y-98581267D01*
X143092808Y-98670273D01*
X143000015Y-98806080D01*
X142967369Y-98967290D01*
X142967369Y-99965510D01*
X142995707Y-100116113D01*
X143084713Y-100254432D01*
X143220520Y-100347225D01*
X143381730Y-100379871D01*
X143400240Y-100379871D01*
X143400240Y-101963135D01*
X143260311Y-101823206D01*
X143036257Y-101730400D01*
X142544800Y-101730400D01*
X142392400Y-101882800D01*
X142392400Y-102490000D01*
X142412400Y-102490000D01*
X142412400Y-102790000D01*
X142392400Y-102790000D01*
X142392400Y-102812400D01*
X142087600Y-102812400D01*
X142087600Y-102790000D01*
X141107800Y-102790000D01*
X140955400Y-102942400D01*
X140955400Y-103061257D01*
X141048206Y-103285311D01*
X141150639Y-103387744D01*
X141150639Y-103940000D01*
X141178977Y-104090603D01*
X141210291Y-104139266D01*
X141183285Y-104178790D01*
X141150639Y-104340000D01*
X141150639Y-104940000D01*
X141178977Y-105090603D01*
X141210291Y-105139266D01*
X141183285Y-105178790D01*
X141150639Y-105340000D01*
X141150639Y-105940000D01*
X141178977Y-106090603D01*
X141267983Y-106228922D01*
X141403790Y-106321715D01*
X141565000Y-106354361D01*
X142915000Y-106354361D01*
X143065603Y-106326023D01*
X143203922Y-106237017D01*
X143248756Y-106171400D01*
X143506447Y-106171400D01*
X143588974Y-106254071D01*
X143866883Y-106369469D01*
X144161601Y-106369726D01*
X144161601Y-125126293D01*
X144052130Y-125235573D01*
X143936732Y-125513482D01*
X143936470Y-125814396D01*
X144051382Y-126092506D01*
X144263975Y-126305470D01*
X144541884Y-126420868D01*
X144842798Y-126421130D01*
X145120908Y-126306218D01*
X145333872Y-126093625D01*
X145449270Y-125815716D01*
X145449532Y-125514802D01*
X145334620Y-125236692D01*
X145224401Y-125126281D01*
X145224401Y-122994442D01*
X145826084Y-122994442D01*
X145914661Y-123239559D01*
X146478272Y-123433909D01*
X147073357Y-123397781D01*
X147455339Y-123239559D01*
X147543916Y-122994442D01*
X146685000Y-122135526D01*
X145826084Y-122994442D01*
X145224401Y-122994442D01*
X145224401Y-122349838D01*
X145365441Y-122690339D01*
X145610558Y-122778916D01*
X146469474Y-121920000D01*
X145610558Y-121061084D01*
X145365441Y-121149661D01*
X145224401Y-121558674D01*
X145224401Y-120845558D01*
X145826084Y-120845558D01*
X146685000Y-121704474D01*
X147543916Y-120845558D01*
X147455339Y-120600441D01*
X146891728Y-120406091D01*
X146296643Y-120442219D01*
X145914661Y-120600441D01*
X145826084Y-120845558D01*
X145224401Y-120845558D01*
X145224401Y-111288970D01*
X146186367Y-111288970D01*
X146228487Y-111731579D01*
X146316833Y-111944866D01*
X146522625Y-111986249D01*
X147104474Y-111404400D01*
X146522625Y-110822551D01*
X146316833Y-110863934D01*
X146186367Y-111288970D01*
X145224401Y-111288970D01*
X145224401Y-110607025D01*
X146738151Y-110607025D01*
X147320000Y-111188874D01*
X147901849Y-110607025D01*
X147860466Y-110401233D01*
X147435430Y-110270767D01*
X146992821Y-110312887D01*
X146779534Y-110401233D01*
X146738151Y-110607025D01*
X145224401Y-110607025D01*
X145224401Y-106831257D01*
X145319143Y-106870500D01*
X145897600Y-106870500D01*
X146050000Y-106718100D01*
X146050000Y-106032300D01*
X146030000Y-106032300D01*
X146030000Y-105727500D01*
X146050000Y-105727500D01*
X146050000Y-105707500D01*
X146354800Y-105707500D01*
X146354800Y-105727500D01*
X146374800Y-105727500D01*
X146374800Y-106032300D01*
X146354800Y-106032300D01*
X146354800Y-106718100D01*
X146507200Y-106870500D01*
X147085657Y-106870500D01*
X147122379Y-106855289D01*
X147122269Y-106982197D01*
X147237181Y-107260307D01*
X147449774Y-107473271D01*
X147727683Y-107588669D01*
X147844116Y-107588770D01*
X147482745Y-107950142D01*
X147138913Y-107949842D01*
X146802711Y-108088758D01*
X146545262Y-108345758D01*
X146405759Y-108681717D01*
X146405442Y-109045487D01*
X146544358Y-109381689D01*
X146801358Y-109639138D01*
X147137317Y-109778641D01*
X147501087Y-109778958D01*
X147837289Y-109640042D01*
X148094738Y-109383042D01*
X148234241Y-109047083D01*
X148234542Y-108701371D01*
X149168954Y-107766959D01*
X149168957Y-107766957D01*
X149263781Y-107625043D01*
X149284150Y-107594559D01*
X149324600Y-107391200D01*
X149324600Y-105574611D01*
X149328600Y-105578618D01*
X149328600Y-108102844D01*
X149085262Y-108345758D01*
X148945759Y-108681717D01*
X148945442Y-109045487D01*
X149084358Y-109381689D01*
X149341358Y-109639138D01*
X149553018Y-109727027D01*
X148350389Y-110929655D01*
X148323167Y-110863934D01*
X148117375Y-110822551D01*
X147535526Y-111404400D01*
X147549669Y-111418543D01*
X147334143Y-111634069D01*
X147320000Y-111619926D01*
X146738151Y-112201775D01*
X146779534Y-112407567D01*
X146850648Y-112429396D01*
X146309243Y-112970801D01*
X146194050Y-113143200D01*
X146153599Y-113346558D01*
X146153600Y-113346563D01*
X146153600Y-115657946D01*
X145952174Y-115741173D01*
X145587454Y-116105257D01*
X145389826Y-116581199D01*
X145389376Y-117096540D01*
X145586173Y-117572826D01*
X145950257Y-117937546D01*
X146426199Y-118135174D01*
X146941540Y-118135624D01*
X147417826Y-117938827D01*
X147782546Y-117574743D01*
X147980174Y-117098801D01*
X147980624Y-116583460D01*
X147783827Y-116107174D01*
X147419743Y-115742454D01*
X147216400Y-115658019D01*
X147216400Y-113566672D01*
X149019164Y-111763908D01*
X149084358Y-111921689D01*
X149341358Y-112179138D01*
X149677317Y-112318641D01*
X150041087Y-112318958D01*
X150377289Y-112180042D01*
X150634738Y-111923042D01*
X150774241Y-111587083D01*
X150774542Y-111241371D01*
X150913114Y-111102799D01*
X151535138Y-111102799D01*
X151485759Y-111221717D01*
X151485458Y-111567429D01*
X148214243Y-114838643D01*
X148099050Y-115011042D01*
X148058599Y-115214400D01*
X148058600Y-115214405D01*
X148058600Y-121280128D01*
X148004559Y-121149661D01*
X147759442Y-121061084D01*
X146900526Y-121920000D01*
X147759442Y-122778916D01*
X148004559Y-122690339D01*
X148058600Y-122533621D01*
X148058600Y-126468600D01*
X140882054Y-126468600D01*
X140798827Y-126267174D01*
X140434743Y-125902454D01*
X139958801Y-125704826D01*
X139443460Y-125704376D01*
X138967174Y-125901173D01*
X138602454Y-126265257D01*
X138404826Y-126741199D01*
X138404376Y-127256540D01*
X138601173Y-127732826D01*
X138965257Y-128097546D01*
X139381008Y-128270181D01*
X138967174Y-128441173D01*
X138602454Y-128805257D01*
X138404826Y-129281199D01*
X138404376Y-129796540D01*
X138601173Y-130272826D01*
X138965257Y-130637546D01*
X139095646Y-130691688D01*
X138929661Y-130760441D01*
X138841084Y-131005558D01*
X139700000Y-131864474D01*
X140558916Y-131005558D01*
X140470339Y-130760441D01*
X140289455Y-130698067D01*
X140432826Y-130638827D01*
X140797546Y-130274743D01*
X140995174Y-129798801D01*
X140995624Y-129283460D01*
X140798827Y-128807174D01*
X140434743Y-128442454D01*
X140018992Y-128269819D01*
X140432826Y-128098827D01*
X140797546Y-127734743D01*
X140881981Y-127531400D01*
X148058600Y-127531400D01*
X148058600Y-138209887D01*
X147833242Y-138435244D01*
X147833240Y-138435247D01*
X147780082Y-138488405D01*
X147578801Y-138404826D01*
X147063460Y-138404376D01*
X146587174Y-138601173D01*
X146222454Y-138965257D01*
X146024826Y-139441199D01*
X146024376Y-139956540D01*
X146221173Y-140432826D01*
X146585257Y-140797546D01*
X147061199Y-140995174D01*
X147576540Y-140995624D01*
X148052826Y-140798827D01*
X148417546Y-140434743D01*
X148590181Y-140018992D01*
X148761173Y-140432826D01*
X149125257Y-140797546D01*
X149601199Y-140995174D01*
X150116540Y-140995624D01*
X150592826Y-140798827D01*
X150617253Y-140774442D01*
X151541084Y-140774442D01*
X151629661Y-141019559D01*
X152193272Y-141213909D01*
X152788357Y-141177781D01*
X153170339Y-141019559D01*
X153258916Y-140774442D01*
X152400000Y-139915526D01*
X151541084Y-140774442D01*
X150617253Y-140774442D01*
X150957546Y-140434743D01*
X151011688Y-140304354D01*
X151080441Y-140470339D01*
X151325558Y-140558916D01*
X152184474Y-139700000D01*
X152615526Y-139700000D01*
X153474442Y-140558916D01*
X153719559Y-140470339D01*
X153913909Y-139906728D01*
X153877781Y-139311643D01*
X153719559Y-138929661D01*
X153474442Y-138841084D01*
X152615526Y-139700000D01*
X152184474Y-139700000D01*
X151325558Y-138841084D01*
X151080441Y-138929661D01*
X151018067Y-139110545D01*
X150958827Y-138967174D01*
X150617807Y-138625558D01*
X151541084Y-138625558D01*
X152400000Y-139484474D01*
X153258916Y-138625558D01*
X153170339Y-138380441D01*
X152606728Y-138186091D01*
X152011643Y-138222219D01*
X151629661Y-138380441D01*
X151541084Y-138625558D01*
X150617807Y-138625558D01*
X150594743Y-138602454D01*
X150118801Y-138404826D01*
X149603460Y-138404376D01*
X149127174Y-138601173D01*
X149052941Y-138675277D01*
X149080950Y-138633358D01*
X149087352Y-138601173D01*
X149121401Y-138430000D01*
X149121400Y-138429995D01*
X149121400Y-136514343D01*
X155930331Y-136514343D01*
X156165716Y-137084018D01*
X156601189Y-137520252D01*
X157170453Y-137756631D01*
X157786843Y-137757169D01*
X158356518Y-137521784D01*
X158792752Y-137086311D01*
X159029131Y-136517047D01*
X159029669Y-135900657D01*
X158794284Y-135330982D01*
X158358811Y-134894748D01*
X157789547Y-134658369D01*
X157173157Y-134657831D01*
X156603482Y-134893216D01*
X156167248Y-135328689D01*
X155930869Y-135897953D01*
X155930331Y-136514343D01*
X149121400Y-136514343D01*
X149121400Y-122176540D01*
X151739376Y-122176540D01*
X151936173Y-122652826D01*
X152300257Y-123017546D01*
X152776199Y-123215174D01*
X153291540Y-123215624D01*
X153379346Y-123179343D01*
X155930331Y-123179343D01*
X156165716Y-123749018D01*
X156601189Y-124185252D01*
X157170453Y-124421631D01*
X157786843Y-124422169D01*
X158356518Y-124186784D01*
X158792752Y-123751311D01*
X159029131Y-123182047D01*
X159029669Y-122565657D01*
X158794284Y-121995982D01*
X158358811Y-121559748D01*
X157789547Y-121323369D01*
X157173157Y-121322831D01*
X156603482Y-121558216D01*
X156167248Y-121993689D01*
X155930869Y-122562953D01*
X155930331Y-123179343D01*
X153379346Y-123179343D01*
X153767826Y-123018827D01*
X154132546Y-122654743D01*
X154330174Y-122178801D01*
X154330624Y-121663460D01*
X154133827Y-121187174D01*
X153769743Y-120822454D01*
X153293801Y-120624826D01*
X152778460Y-120624376D01*
X152302174Y-120821173D01*
X151937454Y-121185257D01*
X151739826Y-121661199D01*
X151739376Y-122176540D01*
X149121400Y-122176540D01*
X149121400Y-117096540D01*
X151739376Y-117096540D01*
X151936173Y-117572826D01*
X152300257Y-117937546D01*
X152776199Y-118135174D01*
X153291540Y-118135624D01*
X153767826Y-117938827D01*
X154132546Y-117574743D01*
X154330174Y-117098801D01*
X154330624Y-116583460D01*
X154133827Y-116107174D01*
X153769743Y-115742454D01*
X153293801Y-115544826D01*
X152778460Y-115544376D01*
X152302174Y-115741173D01*
X151937454Y-116105257D01*
X151739826Y-116581199D01*
X151739376Y-117096540D01*
X149121400Y-117096540D01*
X149121400Y-115434514D01*
X152237255Y-112318658D01*
X152563028Y-112318942D01*
X154561000Y-114316913D01*
X154561000Y-115394925D01*
X154560999Y-115394930D01*
X154601450Y-115598288D01*
X154716643Y-115770687D01*
X156484507Y-117538550D01*
X156395975Y-117668120D01*
X156363329Y-117829330D01*
X156363329Y-118929150D01*
X156391667Y-119079753D01*
X156480673Y-119218072D01*
X156492861Y-119226399D01*
X156488768Y-119229033D01*
X156395975Y-119364840D01*
X156363329Y-119526050D01*
X156363329Y-120625870D01*
X156391667Y-120776473D01*
X156480673Y-120914792D01*
X156616480Y-121007585D01*
X156777690Y-121040231D01*
X157775910Y-121040231D01*
X157926513Y-121011893D01*
X158064832Y-120922887D01*
X158157625Y-120787080D01*
X158190271Y-120625870D01*
X158190271Y-120607360D01*
X158518705Y-120607360D01*
X158522777Y-120629003D01*
X158611783Y-120767322D01*
X158747590Y-120860115D01*
X158908800Y-120892761D01*
X159708800Y-120892761D01*
X159859403Y-120864423D01*
X159997722Y-120775417D01*
X160090515Y-120639610D01*
X160123161Y-120478400D01*
X160123161Y-119678400D01*
X160094823Y-119527797D01*
X160018884Y-119409785D01*
X160054111Y-119395194D01*
X160225594Y-119223711D01*
X160318400Y-118999657D01*
X160318400Y-118783200D01*
X160166000Y-118630800D01*
X159461200Y-118630800D01*
X159461200Y-118650800D01*
X159156400Y-118650800D01*
X159156400Y-118630800D01*
X158451600Y-118630800D01*
X158299200Y-118783200D01*
X158299200Y-118999657D01*
X158392006Y-119223711D01*
X158563489Y-119395194D01*
X158600084Y-119410352D01*
X158527085Y-119517190D01*
X158521542Y-119544560D01*
X158190271Y-119544560D01*
X158190271Y-119526050D01*
X158161933Y-119375447D01*
X158072927Y-119237128D01*
X158060739Y-119228801D01*
X158064832Y-119226167D01*
X158157625Y-119090360D01*
X158190271Y-118929150D01*
X158190271Y-117957143D01*
X158299200Y-117957143D01*
X158299200Y-118173600D01*
X158451600Y-118326000D01*
X159156400Y-118326000D01*
X159156400Y-117621200D01*
X159461200Y-117621200D01*
X159461200Y-118326000D01*
X160166000Y-118326000D01*
X160318400Y-118173600D01*
X160318400Y-117957143D01*
X160225594Y-117733089D01*
X160054111Y-117561606D01*
X159830057Y-117468800D01*
X159613600Y-117468800D01*
X159461200Y-117621200D01*
X159156400Y-117621200D01*
X159004000Y-117468800D01*
X158787543Y-117468800D01*
X158563489Y-117561606D01*
X158392006Y-117733089D01*
X158299200Y-117957143D01*
X158190271Y-117957143D01*
X158190271Y-117829330D01*
X158161933Y-117678727D01*
X158072927Y-117540408D01*
X157937120Y-117447615D01*
X157775910Y-117414969D01*
X157775507Y-117414969D01*
X157767750Y-117375972D01*
X157731286Y-117321400D01*
X157652557Y-117203573D01*
X157652554Y-117203571D01*
X155623800Y-115174816D01*
X155623800Y-114707447D01*
X157962244Y-114707447D01*
X158274804Y-115463901D01*
X158853055Y-116043162D01*
X159608962Y-116357042D01*
X160427447Y-116357756D01*
X161183901Y-116045196D01*
X161763162Y-115466945D01*
X162077042Y-114711038D01*
X162077756Y-113892553D01*
X161765196Y-113136099D01*
X161186945Y-112556838D01*
X160431038Y-112242958D01*
X159612553Y-112242244D01*
X158856099Y-112554804D01*
X158276838Y-113133055D01*
X157962958Y-113888962D01*
X157962244Y-114707447D01*
X155623800Y-114707447D01*
X155623800Y-114096805D01*
X155623801Y-114096800D01*
X155583350Y-113893442D01*
X155545976Y-113837508D01*
X155468157Y-113721043D01*
X155468154Y-113721041D01*
X153314258Y-111567145D01*
X153314542Y-111241372D01*
X155671354Y-108884559D01*
X155671357Y-108884557D01*
X155786550Y-108712158D01*
X155792605Y-108681717D01*
X155827001Y-108508800D01*
X155827000Y-108508795D01*
X155827000Y-106119513D01*
X155957554Y-105988959D01*
X155957557Y-105988957D01*
X156110334Y-105836180D01*
X156283597Y-105836331D01*
X156314053Y-105823747D01*
X156195400Y-105942400D01*
X156195400Y-106061257D01*
X156288206Y-106285311D01*
X156459689Y-106456794D01*
X156683743Y-106549600D01*
X157175200Y-106549600D01*
X157327600Y-106397200D01*
X157327600Y-105790000D01*
X157632400Y-105790000D01*
X157632400Y-106397200D01*
X157784800Y-106549600D01*
X158276257Y-106549600D01*
X158500311Y-106456794D01*
X158671794Y-106285311D01*
X158764600Y-106061257D01*
X158764600Y-105942400D01*
X158612200Y-105790000D01*
X157632400Y-105790000D01*
X157327600Y-105790000D01*
X157307600Y-105790000D01*
X157307600Y-105490000D01*
X157327600Y-105490000D01*
X157327600Y-105467600D01*
X157632400Y-105467600D01*
X157632400Y-105490000D01*
X158612200Y-105490000D01*
X158764600Y-105337600D01*
X158764600Y-105218743D01*
X158671794Y-104994689D01*
X158569361Y-104892256D01*
X158569361Y-104340000D01*
X158541023Y-104189397D01*
X158509709Y-104140734D01*
X158536715Y-104101210D01*
X158569361Y-103940000D01*
X158569361Y-103340000D01*
X158541023Y-103189397D01*
X158509709Y-103140734D01*
X158536715Y-103101210D01*
X158569361Y-102940000D01*
X158569361Y-102340000D01*
X158541023Y-102189397D01*
X158452017Y-102051078D01*
X158316210Y-101958285D01*
X158155000Y-101925639D01*
X156805000Y-101925639D01*
X156654397Y-101953977D01*
X156516078Y-102042983D01*
X156471244Y-102108600D01*
X155373205Y-102108600D01*
X155373200Y-102108599D01*
X155169842Y-102149050D01*
X154997443Y-102264243D01*
X154997441Y-102264246D01*
X154782140Y-102479547D01*
X154787941Y-102450900D01*
X154787941Y-101688900D01*
X154759603Y-101538297D01*
X154670597Y-101399978D01*
X154534790Y-101307185D01*
X154373580Y-101274539D01*
X152849580Y-101274539D01*
X152698977Y-101302877D01*
X152677400Y-101316761D01*
X152677400Y-100804114D01*
X153237810Y-100243704D01*
X153244713Y-100254432D01*
X153380520Y-100347225D01*
X153541730Y-100379871D01*
X154641550Y-100379871D01*
X154767085Y-100356250D01*
X154893139Y-100482304D01*
X155117193Y-100575110D01*
X155483560Y-100575110D01*
X155635960Y-100422710D01*
X155635960Y-99618800D01*
X155940760Y-99618800D01*
X155940760Y-100422710D01*
X156093160Y-100575110D01*
X156459527Y-100575110D01*
X156683581Y-100482304D01*
X156855064Y-100310821D01*
X156947870Y-100086767D01*
X156947870Y-99771200D01*
X156795470Y-99618800D01*
X155940760Y-99618800D01*
X155635960Y-99618800D01*
X155615960Y-99618800D01*
X155615960Y-99314000D01*
X155635960Y-99314000D01*
X155635960Y-98510090D01*
X155940760Y-98510090D01*
X155940760Y-99314000D01*
X156795470Y-99314000D01*
X156947870Y-99161600D01*
X156947870Y-98846033D01*
X156855064Y-98621979D01*
X156683581Y-98450496D01*
X156459527Y-98357690D01*
X156093160Y-98357690D01*
X155940760Y-98510090D01*
X155635960Y-98510090D01*
X155483560Y-98357690D01*
X155117193Y-98357690D01*
X154893139Y-98450496D01*
X154765588Y-98578047D01*
X154641550Y-98552929D01*
X153541730Y-98552929D01*
X153391127Y-98581267D01*
X153252808Y-98670273D01*
X153160015Y-98806080D01*
X153128465Y-98961879D01*
X153060242Y-98975450D01*
X152887843Y-99090643D01*
X152887841Y-99090646D01*
X151770243Y-100208243D01*
X151655050Y-100380642D01*
X151614599Y-100584000D01*
X151614600Y-100584005D01*
X151614600Y-101525800D01*
X151414306Y-101525800D01*
X151305026Y-101416329D01*
X151027117Y-101300931D01*
X150726203Y-101300669D01*
X150448093Y-101415581D01*
X150235129Y-101628174D01*
X150188200Y-101741191D01*
X150188200Y-101537984D01*
X151084114Y-100642069D01*
X151084117Y-100642067D01*
X151190867Y-100482304D01*
X151199310Y-100469669D01*
X151207067Y-100430671D01*
X151258270Y-100430671D01*
X151408873Y-100402333D01*
X151547192Y-100313327D01*
X151639985Y-100177520D01*
X151671535Y-100021721D01*
X151739758Y-100008150D01*
X151912157Y-99892957D01*
X154045757Y-97759357D01*
X154160950Y-97586958D01*
X154201401Y-97383600D01*
X154201400Y-97383595D01*
X154201400Y-94455021D01*
X154431565Y-94359919D01*
X154810588Y-93981557D01*
X155015966Y-93486951D01*
X155016434Y-92951399D01*
X154811919Y-92456435D01*
X154433557Y-92077412D01*
X154057838Y-91921400D01*
X156732572Y-91921400D01*
X156712040Y-91941896D01*
X156573758Y-92274915D01*
X156573443Y-92635503D01*
X156711144Y-92968763D01*
X156965896Y-93223960D01*
X157298915Y-93362242D01*
X157659503Y-93362557D01*
X157992763Y-93224856D01*
X158185902Y-93032054D01*
X157962958Y-93568962D01*
X157962244Y-94387447D01*
X158274804Y-95143901D01*
X158853055Y-95723162D01*
X159608962Y-96037042D01*
X160427447Y-96037756D01*
X161183901Y-95725196D01*
X161763162Y-95146945D01*
X162077042Y-94391038D01*
X162077756Y-93572553D01*
X161765196Y-92816099D01*
X161186945Y-92236838D01*
X160431038Y-91922958D01*
X159612553Y-91922244D01*
X158856099Y-92234804D01*
X158338897Y-92751104D01*
X158386242Y-92637085D01*
X158386557Y-92276497D01*
X158248856Y-91943237D01*
X158227057Y-91921400D01*
X162078600Y-91921400D01*
X162078600Y-100325639D01*
X160155000Y-100325639D01*
X160004397Y-100353977D01*
X159866078Y-100442983D01*
X159773285Y-100578790D01*
X159740639Y-100740000D01*
X159740639Y-101940000D01*
X159768977Y-102090603D01*
X159857983Y-102228922D01*
X159993790Y-102321715D01*
X160155000Y-102354361D01*
X162078600Y-102354361D01*
X162078600Y-105925639D01*
X160155000Y-105925639D01*
X160004397Y-105953977D01*
X159866078Y-106042983D01*
X159773285Y-106178790D01*
X159740639Y-106340000D01*
X159740639Y-107540000D01*
X159768977Y-107690603D01*
X159857983Y-107828922D01*
X159993790Y-107921715D01*
X160155000Y-107954361D01*
X162078600Y-107954361D01*
X162078600Y-141758600D01*
X138923428Y-141758600D01*
X138943960Y-141738104D01*
X139082242Y-141405085D01*
X139082557Y-141044497D01*
X138944856Y-140711237D01*
X138690104Y-140456040D01*
X138357085Y-140317758D01*
X137996497Y-140317443D01*
X137663237Y-140455144D01*
X137641400Y-140476943D01*
X137641400Y-136514343D01*
X140690331Y-136514343D01*
X140925716Y-137084018D01*
X141361189Y-137520252D01*
X141930453Y-137756631D01*
X142546843Y-137757169D01*
X143116518Y-137521784D01*
X143552752Y-137086311D01*
X143789131Y-136517047D01*
X143789669Y-135900657D01*
X143554284Y-135330982D01*
X143118811Y-134894748D01*
X142549547Y-134658369D01*
X141933157Y-134657831D01*
X141363482Y-134893216D01*
X140927248Y-135328689D01*
X140690869Y-135897953D01*
X140690331Y-136514343D01*
X137641400Y-136514343D01*
X137641400Y-133154442D01*
X138841084Y-133154442D01*
X138929661Y-133399559D01*
X139493272Y-133593909D01*
X140088357Y-133557781D01*
X140470339Y-133399559D01*
X140558916Y-133154442D01*
X139700000Y-132295526D01*
X138841084Y-133154442D01*
X137641400Y-133154442D01*
X137641400Y-131873272D01*
X138186091Y-131873272D01*
X138222219Y-132468357D01*
X138380441Y-132850339D01*
X138625558Y-132938916D01*
X139484474Y-132080000D01*
X139915526Y-132080000D01*
X140774442Y-132938916D01*
X141019559Y-132850339D01*
X141213909Y-132286728D01*
X141177781Y-131691643D01*
X141019559Y-131309661D01*
X140774442Y-131221084D01*
X139915526Y-132080000D01*
X139484474Y-132080000D01*
X138625558Y-131221084D01*
X138380441Y-131309661D01*
X138186091Y-131873272D01*
X137641400Y-131873272D01*
X137641400Y-123179343D01*
X140690331Y-123179343D01*
X140925716Y-123749018D01*
X141361189Y-124185252D01*
X141930453Y-124421631D01*
X142546843Y-124422169D01*
X143116518Y-124186784D01*
X143552752Y-123751311D01*
X143789131Y-123182047D01*
X143789669Y-122565657D01*
X143554284Y-121995982D01*
X143118811Y-121559748D01*
X142549547Y-121323369D01*
X141933157Y-121322831D01*
X141363482Y-121558216D01*
X140927248Y-121993689D01*
X140690869Y-122562953D01*
X140690331Y-123179343D01*
X137641400Y-123179343D01*
X137641400Y-114707447D01*
X137642244Y-114707447D01*
X137954804Y-115463901D01*
X138533055Y-116043162D01*
X139288962Y-116357042D01*
X140107447Y-116357756D01*
X140863901Y-116045196D01*
X141443162Y-115466945D01*
X141757042Y-114711038D01*
X141757756Y-113892553D01*
X141445196Y-113136099D01*
X140866945Y-112556838D01*
X140111038Y-112242958D01*
X139292553Y-112242244D01*
X138536099Y-112554804D01*
X137956838Y-113133055D01*
X137642958Y-113888962D01*
X137642244Y-114707447D01*
X137641400Y-114707447D01*
X137641400Y-107954361D01*
X139565000Y-107954361D01*
X139715603Y-107926023D01*
X139853922Y-107837017D01*
X139946715Y-107701210D01*
X139979361Y-107540000D01*
X139979361Y-106340000D01*
X139951023Y-106189397D01*
X139862017Y-106051078D01*
X139726210Y-105958285D01*
X139565000Y-105925639D01*
X137641400Y-105925639D01*
X137641400Y-102354361D01*
X139565000Y-102354361D01*
X139715603Y-102326023D01*
X139853922Y-102237017D01*
X139866408Y-102218743D01*
X140955400Y-102218743D01*
X140955400Y-102337600D01*
X141107800Y-102490000D01*
X142087600Y-102490000D01*
X142087600Y-101882800D01*
X141935200Y-101730400D01*
X141443743Y-101730400D01*
X141219689Y-101823206D01*
X141048206Y-101994689D01*
X140955400Y-102218743D01*
X139866408Y-102218743D01*
X139946715Y-102101210D01*
X139979361Y-101940000D01*
X139979361Y-100740000D01*
X139951023Y-100589397D01*
X139862017Y-100451078D01*
X139726210Y-100358285D01*
X139565000Y-100325639D01*
X137641400Y-100325639D01*
X137641400Y-94387447D01*
X137642244Y-94387447D01*
X137954804Y-95143901D01*
X138533055Y-95723162D01*
X139288962Y-96037042D01*
X140107447Y-96037756D01*
X140863901Y-95725196D01*
X141443162Y-95146945D01*
X141757042Y-94391038D01*
X141757756Y-93572553D01*
X141520820Y-92999122D01*
X144485481Y-92999122D01*
X144520812Y-93614499D01*
X144688334Y-94018932D01*
X144938714Y-94113760D01*
X145834474Y-93218000D01*
X144938714Y-92322240D01*
X144688334Y-92417068D01*
X144485481Y-92999122D01*
X141520820Y-92999122D01*
X141445196Y-92816099D01*
X140866945Y-92236838D01*
X140111038Y-91922958D01*
X139292553Y-91922244D01*
X138536099Y-92234804D01*
X137956838Y-92813055D01*
X137642958Y-93568962D01*
X137642244Y-94387447D01*
X137641400Y-94387447D01*
X137641400Y-91921400D01*
X145224425Y-91921400D01*
X145154240Y-92106714D01*
X145154240Y-92106714D01*
G37*
X145154240Y-92106714D02*
X146050000Y-93002474D01*
X146945760Y-92106714D01*
X146875575Y-91921400D01*
X148202792Y-91921400D01*
X147828435Y-92076081D01*
X147449412Y-92454443D01*
X147438266Y-92481286D01*
X147411666Y-92417068D01*
X147161286Y-92322240D01*
X146265526Y-93218000D01*
X146279669Y-93232143D01*
X146064143Y-93447669D01*
X146050000Y-93433526D01*
X145154240Y-94329286D01*
X145249068Y-94579666D01*
X145831122Y-94782519D01*
X146446499Y-94747188D01*
X146850932Y-94579666D01*
X146945759Y-94329288D01*
X147057883Y-94441412D01*
X147118801Y-94380494D01*
X147118801Y-94778616D01*
X143555883Y-98341533D01*
X143440690Y-98513932D01*
X143432933Y-98552929D01*
X143381730Y-98552929D01*
X143231127Y-98581267D01*
X143092808Y-98670273D01*
X143000015Y-98806080D01*
X142967369Y-98967290D01*
X142967369Y-99965510D01*
X142995707Y-100116113D01*
X143084713Y-100254432D01*
X143220520Y-100347225D01*
X143381730Y-100379871D01*
X143400240Y-100379871D01*
X143400240Y-101963135D01*
X143260311Y-101823206D01*
X143036257Y-101730400D01*
X142544800Y-101730400D01*
X142392400Y-101882800D01*
X142392400Y-102490000D01*
X142412400Y-102490000D01*
X142412400Y-102790000D01*
X142392400Y-102790000D01*
X142392400Y-102812400D01*
X142087600Y-102812400D01*
X142087600Y-102790000D01*
X141107800Y-102790000D01*
X140955400Y-102942400D01*
X140955400Y-103061257D01*
X141048206Y-103285311D01*
X141150639Y-103387744D01*
X141150639Y-103940000D01*
X141178977Y-104090603D01*
X141210291Y-104139266D01*
X141183285Y-104178790D01*
X141150639Y-104340000D01*
X141150639Y-104940000D01*
X141178977Y-105090603D01*
X141210291Y-105139266D01*
X141183285Y-105178790D01*
X141150639Y-105340000D01*
X141150639Y-105940000D01*
X141178977Y-106090603D01*
X141267983Y-106228922D01*
X141403790Y-106321715D01*
X141565000Y-106354361D01*
X142915000Y-106354361D01*
X143065603Y-106326023D01*
X143203922Y-106237017D01*
X143248756Y-106171400D01*
X143506447Y-106171400D01*
X143588974Y-106254071D01*
X143866883Y-106369469D01*
X144161601Y-106369726D01*
X144161601Y-125126293D01*
X144052130Y-125235573D01*
X143936732Y-125513482D01*
X143936470Y-125814396D01*
X144051382Y-126092506D01*
X144263975Y-126305470D01*
X144541884Y-126420868D01*
X144842798Y-126421130D01*
X145120908Y-126306218D01*
X145333872Y-126093625D01*
X145449270Y-125815716D01*
X145449532Y-125514802D01*
X145334620Y-125236692D01*
X145224401Y-125126281D01*
X145224401Y-122994442D01*
X145826084Y-122994442D01*
X145914661Y-123239559D01*
X146478272Y-123433909D01*
X147073357Y-123397781D01*
X147455339Y-123239559D01*
X147543916Y-122994442D01*
X146685000Y-122135526D01*
X145826084Y-122994442D01*
X145224401Y-122994442D01*
X145224401Y-122349838D01*
X145365441Y-122690339D01*
X145610558Y-122778916D01*
X146469474Y-121920000D01*
X145610558Y-121061084D01*
X145365441Y-121149661D01*
X145224401Y-121558674D01*
X145224401Y-120845558D01*
X145826084Y-120845558D01*
X146685000Y-121704474D01*
X147543916Y-120845558D01*
X147455339Y-120600441D01*
X146891728Y-120406091D01*
X146296643Y-120442219D01*
X145914661Y-120600441D01*
X145826084Y-120845558D01*
X145224401Y-120845558D01*
X145224401Y-111288970D01*
X146186367Y-111288970D01*
X146228487Y-111731579D01*
X146316833Y-111944866D01*
X146522625Y-111986249D01*
X147104474Y-111404400D01*
X146522625Y-110822551D01*
X146316833Y-110863934D01*
X146186367Y-111288970D01*
X145224401Y-111288970D01*
X145224401Y-110607025D01*
X146738151Y-110607025D01*
X147320000Y-111188874D01*
X147901849Y-110607025D01*
X147860466Y-110401233D01*
X147435430Y-110270767D01*
X146992821Y-110312887D01*
X146779534Y-110401233D01*
X146738151Y-110607025D01*
X145224401Y-110607025D01*
X145224401Y-106831257D01*
X145319143Y-106870500D01*
X145897600Y-106870500D01*
X146050000Y-106718100D01*
X146050000Y-106032300D01*
X146030000Y-106032300D01*
X146030000Y-105727500D01*
X146050000Y-105727500D01*
X146050000Y-105707500D01*
X146354800Y-105707500D01*
X146354800Y-105727500D01*
X146374800Y-105727500D01*
X146374800Y-106032300D01*
X146354800Y-106032300D01*
X146354800Y-106718100D01*
X146507200Y-106870500D01*
X147085657Y-106870500D01*
X147122379Y-106855289D01*
X147122269Y-106982197D01*
X147237181Y-107260307D01*
X147449774Y-107473271D01*
X147727683Y-107588669D01*
X147844116Y-107588770D01*
X147482745Y-107950142D01*
X147138913Y-107949842D01*
X146802711Y-108088758D01*
X146545262Y-108345758D01*
X146405759Y-108681717D01*
X146405442Y-109045487D01*
X146544358Y-109381689D01*
X146801358Y-109639138D01*
X147137317Y-109778641D01*
X147501087Y-109778958D01*
X147837289Y-109640042D01*
X148094738Y-109383042D01*
X148234241Y-109047083D01*
X148234542Y-108701371D01*
X149168954Y-107766959D01*
X149168957Y-107766957D01*
X149263781Y-107625043D01*
X149284150Y-107594559D01*
X149324600Y-107391200D01*
X149324600Y-105574611D01*
X149328600Y-105578618D01*
X149328600Y-108102844D01*
X149085262Y-108345758D01*
X148945759Y-108681717D01*
X148945442Y-109045487D01*
X149084358Y-109381689D01*
X149341358Y-109639138D01*
X149553018Y-109727027D01*
X148350389Y-110929655D01*
X148323167Y-110863934D01*
X148117375Y-110822551D01*
X147535526Y-111404400D01*
X147549669Y-111418543D01*
X147334143Y-111634069D01*
X147320000Y-111619926D01*
X146738151Y-112201775D01*
X146779534Y-112407567D01*
X146850648Y-112429396D01*
X146309243Y-112970801D01*
X146194050Y-113143200D01*
X146153599Y-113346558D01*
X146153600Y-113346563D01*
X146153600Y-115657946D01*
X145952174Y-115741173D01*
X145587454Y-116105257D01*
X145389826Y-116581199D01*
X145389376Y-117096540D01*
X145586173Y-117572826D01*
X145950257Y-117937546D01*
X146426199Y-118135174D01*
X146941540Y-118135624D01*
X147417826Y-117938827D01*
X147782546Y-117574743D01*
X147980174Y-117098801D01*
X147980624Y-116583460D01*
X147783827Y-116107174D01*
X147419743Y-115742454D01*
X147216400Y-115658019D01*
X147216400Y-113566672D01*
X149019164Y-111763908D01*
X149084358Y-111921689D01*
X149341358Y-112179138D01*
X149677317Y-112318641D01*
X150041087Y-112318958D01*
X150377289Y-112180042D01*
X150634738Y-111923042D01*
X150774241Y-111587083D01*
X150774542Y-111241371D01*
X150913114Y-111102799D01*
X151535138Y-111102799D01*
X151485759Y-111221717D01*
X151485458Y-111567429D01*
X148214243Y-114838643D01*
X148099050Y-115011042D01*
X148058599Y-115214400D01*
X148058600Y-115214405D01*
X148058600Y-121280128D01*
X148004559Y-121149661D01*
X147759442Y-121061084D01*
X146900526Y-121920000D01*
X147759442Y-122778916D01*
X148004559Y-122690339D01*
X148058600Y-122533621D01*
X148058600Y-126468600D01*
X140882054Y-126468600D01*
X140798827Y-126267174D01*
X140434743Y-125902454D01*
X139958801Y-125704826D01*
X139443460Y-125704376D01*
X138967174Y-125901173D01*
X138602454Y-126265257D01*
X138404826Y-126741199D01*
X138404376Y-127256540D01*
X138601173Y-127732826D01*
X138965257Y-128097546D01*
X139381008Y-128270181D01*
X138967174Y-128441173D01*
X138602454Y-128805257D01*
X138404826Y-129281199D01*
X138404376Y-129796540D01*
X138601173Y-130272826D01*
X138965257Y-130637546D01*
X139095646Y-130691688D01*
X138929661Y-130760441D01*
X138841084Y-131005558D01*
X139700000Y-131864474D01*
X140558916Y-131005558D01*
X140470339Y-130760441D01*
X140289455Y-130698067D01*
X140432826Y-130638827D01*
X140797546Y-130274743D01*
X140995174Y-129798801D01*
X140995624Y-129283460D01*
X140798827Y-128807174D01*
X140434743Y-128442454D01*
X140018992Y-128269819D01*
X140432826Y-128098827D01*
X140797546Y-127734743D01*
X140881981Y-127531400D01*
X148058600Y-127531400D01*
X148058600Y-138209887D01*
X147833242Y-138435244D01*
X147833240Y-138435247D01*
X147780082Y-138488405D01*
X147578801Y-138404826D01*
X147063460Y-138404376D01*
X146587174Y-138601173D01*
X146222454Y-138965257D01*
X146024826Y-139441199D01*
X146024376Y-139956540D01*
X146221173Y-140432826D01*
X146585257Y-140797546D01*
X147061199Y-140995174D01*
X147576540Y-140995624D01*
X148052826Y-140798827D01*
X148417546Y-140434743D01*
X148590181Y-140018992D01*
X148761173Y-140432826D01*
X149125257Y-140797546D01*
X149601199Y-140995174D01*
X150116540Y-140995624D01*
X150592826Y-140798827D01*
X150617253Y-140774442D01*
X151541084Y-140774442D01*
X151629661Y-141019559D01*
X152193272Y-141213909D01*
X152788357Y-141177781D01*
X153170339Y-141019559D01*
X153258916Y-140774442D01*
X152400000Y-139915526D01*
X151541084Y-140774442D01*
X150617253Y-140774442D01*
X150957546Y-140434743D01*
X151011688Y-140304354D01*
X151080441Y-140470339D01*
X151325558Y-140558916D01*
X152184474Y-139700000D01*
X152615526Y-139700000D01*
X153474442Y-140558916D01*
X153719559Y-140470339D01*
X153913909Y-139906728D01*
X153877781Y-139311643D01*
X153719559Y-138929661D01*
X153474442Y-138841084D01*
X152615526Y-139700000D01*
X152184474Y-139700000D01*
X151325558Y-138841084D01*
X151080441Y-138929661D01*
X151018067Y-139110545D01*
X150958827Y-138967174D01*
X150617807Y-138625558D01*
X151541084Y-138625558D01*
X152400000Y-139484474D01*
X153258916Y-138625558D01*
X153170339Y-138380441D01*
X152606728Y-138186091D01*
X152011643Y-138222219D01*
X151629661Y-138380441D01*
X151541084Y-138625558D01*
X150617807Y-138625558D01*
X150594743Y-138602454D01*
X150118801Y-138404826D01*
X149603460Y-138404376D01*
X149127174Y-138601173D01*
X149052941Y-138675277D01*
X149080950Y-138633358D01*
X149087352Y-138601173D01*
X149121401Y-138430000D01*
X149121400Y-138429995D01*
X149121400Y-136514343D01*
X155930331Y-136514343D01*
X156165716Y-137084018D01*
X156601189Y-137520252D01*
X157170453Y-137756631D01*
X157786843Y-137757169D01*
X158356518Y-137521784D01*
X158792752Y-137086311D01*
X159029131Y-136517047D01*
X159029669Y-135900657D01*
X158794284Y-135330982D01*
X158358811Y-134894748D01*
X157789547Y-134658369D01*
X157173157Y-134657831D01*
X156603482Y-134893216D01*
X156167248Y-135328689D01*
X155930869Y-135897953D01*
X155930331Y-136514343D01*
X149121400Y-136514343D01*
X149121400Y-122176540D01*
X151739376Y-122176540D01*
X151936173Y-122652826D01*
X152300257Y-123017546D01*
X152776199Y-123215174D01*
X153291540Y-123215624D01*
X153379346Y-123179343D01*
X155930331Y-123179343D01*
X156165716Y-123749018D01*
X156601189Y-124185252D01*
X157170453Y-124421631D01*
X157786843Y-124422169D01*
X158356518Y-124186784D01*
X158792752Y-123751311D01*
X159029131Y-123182047D01*
X159029669Y-122565657D01*
X158794284Y-121995982D01*
X158358811Y-121559748D01*
X157789547Y-121323369D01*
X157173157Y-121322831D01*
X156603482Y-121558216D01*
X156167248Y-121993689D01*
X155930869Y-122562953D01*
X155930331Y-123179343D01*
X153379346Y-123179343D01*
X153767826Y-123018827D01*
X154132546Y-122654743D01*
X154330174Y-122178801D01*
X154330624Y-121663460D01*
X154133827Y-121187174D01*
X153769743Y-120822454D01*
X153293801Y-120624826D01*
X152778460Y-120624376D01*
X152302174Y-120821173D01*
X151937454Y-121185257D01*
X151739826Y-121661199D01*
X151739376Y-122176540D01*
X149121400Y-122176540D01*
X149121400Y-117096540D01*
X151739376Y-117096540D01*
X151936173Y-117572826D01*
X152300257Y-117937546D01*
X152776199Y-118135174D01*
X153291540Y-118135624D01*
X153767826Y-117938827D01*
X154132546Y-117574743D01*
X154330174Y-117098801D01*
X154330624Y-116583460D01*
X154133827Y-116107174D01*
X153769743Y-115742454D01*
X153293801Y-115544826D01*
X152778460Y-115544376D01*
X152302174Y-115741173D01*
X151937454Y-116105257D01*
X151739826Y-116581199D01*
X151739376Y-117096540D01*
X149121400Y-117096540D01*
X149121400Y-115434514D01*
X152237255Y-112318658D01*
X152563028Y-112318942D01*
X154561000Y-114316913D01*
X154561000Y-115394925D01*
X154560999Y-115394930D01*
X154601450Y-115598288D01*
X154716643Y-115770687D01*
X156484507Y-117538550D01*
X156395975Y-117668120D01*
X156363329Y-117829330D01*
X156363329Y-118929150D01*
X156391667Y-119079753D01*
X156480673Y-119218072D01*
X156492861Y-119226399D01*
X156488768Y-119229033D01*
X156395975Y-119364840D01*
X156363329Y-119526050D01*
X156363329Y-120625870D01*
X156391667Y-120776473D01*
X156480673Y-120914792D01*
X156616480Y-121007585D01*
X156777690Y-121040231D01*
X157775910Y-121040231D01*
X157926513Y-121011893D01*
X158064832Y-120922887D01*
X158157625Y-120787080D01*
X158190271Y-120625870D01*
X158190271Y-120607360D01*
X158518705Y-120607360D01*
X158522777Y-120629003D01*
X158611783Y-120767322D01*
X158747590Y-120860115D01*
X158908800Y-120892761D01*
X159708800Y-120892761D01*
X159859403Y-120864423D01*
X159997722Y-120775417D01*
X160090515Y-120639610D01*
X160123161Y-120478400D01*
X160123161Y-119678400D01*
X160094823Y-119527797D01*
X160018884Y-119409785D01*
X160054111Y-119395194D01*
X160225594Y-119223711D01*
X160318400Y-118999657D01*
X160318400Y-118783200D01*
X160166000Y-118630800D01*
X159461200Y-118630800D01*
X159461200Y-118650800D01*
X159156400Y-118650800D01*
X159156400Y-118630800D01*
X158451600Y-118630800D01*
X158299200Y-118783200D01*
X158299200Y-118999657D01*
X158392006Y-119223711D01*
X158563489Y-119395194D01*
X158600084Y-119410352D01*
X158527085Y-119517190D01*
X158521542Y-119544560D01*
X158190271Y-119544560D01*
X158190271Y-119526050D01*
X158161933Y-119375447D01*
X158072927Y-119237128D01*
X158060739Y-119228801D01*
X158064832Y-119226167D01*
X158157625Y-119090360D01*
X158190271Y-118929150D01*
X158190271Y-117957143D01*
X158299200Y-117957143D01*
X158299200Y-118173600D01*
X158451600Y-118326000D01*
X159156400Y-118326000D01*
X159156400Y-117621200D01*
X159461200Y-117621200D01*
X159461200Y-118326000D01*
X160166000Y-118326000D01*
X160318400Y-118173600D01*
X160318400Y-117957143D01*
X160225594Y-117733089D01*
X160054111Y-117561606D01*
X159830057Y-117468800D01*
X159613600Y-117468800D01*
X159461200Y-117621200D01*
X159156400Y-117621200D01*
X159004000Y-117468800D01*
X158787543Y-117468800D01*
X158563489Y-117561606D01*
X158392006Y-117733089D01*
X158299200Y-117957143D01*
X158190271Y-117957143D01*
X158190271Y-117829330D01*
X158161933Y-117678727D01*
X158072927Y-117540408D01*
X157937120Y-117447615D01*
X157775910Y-117414969D01*
X157775507Y-117414969D01*
X157767750Y-117375972D01*
X157731286Y-117321400D01*
X157652557Y-117203573D01*
X157652554Y-117203571D01*
X155623800Y-115174816D01*
X155623800Y-114707447D01*
X157962244Y-114707447D01*
X158274804Y-115463901D01*
X158853055Y-116043162D01*
X159608962Y-116357042D01*
X160427447Y-116357756D01*
X161183901Y-116045196D01*
X161763162Y-115466945D01*
X162077042Y-114711038D01*
X162077756Y-113892553D01*
X161765196Y-113136099D01*
X161186945Y-112556838D01*
X160431038Y-112242958D01*
X159612553Y-112242244D01*
X158856099Y-112554804D01*
X158276838Y-113133055D01*
X157962958Y-113888962D01*
X157962244Y-114707447D01*
X155623800Y-114707447D01*
X155623800Y-114096805D01*
X155623801Y-114096800D01*
X155583350Y-113893442D01*
X155545976Y-113837508D01*
X155468157Y-113721043D01*
X155468154Y-113721041D01*
X153314258Y-111567145D01*
X153314542Y-111241372D01*
X155671354Y-108884559D01*
X155671357Y-108884557D01*
X155786550Y-108712158D01*
X155792605Y-108681717D01*
X155827001Y-108508800D01*
X155827000Y-108508795D01*
X155827000Y-106119513D01*
X155957554Y-105988959D01*
X155957557Y-105988957D01*
X156110334Y-105836180D01*
X156283597Y-105836331D01*
X156314053Y-105823747D01*
X156195400Y-105942400D01*
X156195400Y-106061257D01*
X156288206Y-106285311D01*
X156459689Y-106456794D01*
X156683743Y-106549600D01*
X157175200Y-106549600D01*
X157327600Y-106397200D01*
X157327600Y-105790000D01*
X157632400Y-105790000D01*
X157632400Y-106397200D01*
X157784800Y-106549600D01*
X158276257Y-106549600D01*
X158500311Y-106456794D01*
X158671794Y-106285311D01*
X158764600Y-106061257D01*
X158764600Y-105942400D01*
X158612200Y-105790000D01*
X157632400Y-105790000D01*
X157327600Y-105790000D01*
X157307600Y-105790000D01*
X157307600Y-105490000D01*
X157327600Y-105490000D01*
X157327600Y-105467600D01*
X157632400Y-105467600D01*
X157632400Y-105490000D01*
X158612200Y-105490000D01*
X158764600Y-105337600D01*
X158764600Y-105218743D01*
X158671794Y-104994689D01*
X158569361Y-104892256D01*
X158569361Y-104340000D01*
X158541023Y-104189397D01*
X158509709Y-104140734D01*
X158536715Y-104101210D01*
X158569361Y-103940000D01*
X158569361Y-103340000D01*
X158541023Y-103189397D01*
X158509709Y-103140734D01*
X158536715Y-103101210D01*
X158569361Y-102940000D01*
X158569361Y-102340000D01*
X158541023Y-102189397D01*
X158452017Y-102051078D01*
X158316210Y-101958285D01*
X158155000Y-101925639D01*
X156805000Y-101925639D01*
X156654397Y-101953977D01*
X156516078Y-102042983D01*
X156471244Y-102108600D01*
X155373205Y-102108600D01*
X155373200Y-102108599D01*
X155169842Y-102149050D01*
X154997443Y-102264243D01*
X154997441Y-102264246D01*
X154782140Y-102479547D01*
X154787941Y-102450900D01*
X154787941Y-101688900D01*
X154759603Y-101538297D01*
X154670597Y-101399978D01*
X154534790Y-101307185D01*
X154373580Y-101274539D01*
X152849580Y-101274539D01*
X152698977Y-101302877D01*
X152677400Y-101316761D01*
X152677400Y-100804114D01*
X153237810Y-100243704D01*
X153244713Y-100254432D01*
X153380520Y-100347225D01*
X153541730Y-100379871D01*
X154641550Y-100379871D01*
X154767085Y-100356250D01*
X154893139Y-100482304D01*
X155117193Y-100575110D01*
X155483560Y-100575110D01*
X155635960Y-100422710D01*
X155635960Y-99618800D01*
X155940760Y-99618800D01*
X155940760Y-100422710D01*
X156093160Y-100575110D01*
X156459527Y-100575110D01*
X156683581Y-100482304D01*
X156855064Y-100310821D01*
X156947870Y-100086767D01*
X156947870Y-99771200D01*
X156795470Y-99618800D01*
X155940760Y-99618800D01*
X155635960Y-99618800D01*
X155615960Y-99618800D01*
X155615960Y-99314000D01*
X155635960Y-99314000D01*
X155635960Y-98510090D01*
X155940760Y-98510090D01*
X155940760Y-99314000D01*
X156795470Y-99314000D01*
X156947870Y-99161600D01*
X156947870Y-98846033D01*
X156855064Y-98621979D01*
X156683581Y-98450496D01*
X156459527Y-98357690D01*
X156093160Y-98357690D01*
X155940760Y-98510090D01*
X155635960Y-98510090D01*
X155483560Y-98357690D01*
X155117193Y-98357690D01*
X154893139Y-98450496D01*
X154765588Y-98578047D01*
X154641550Y-98552929D01*
X153541730Y-98552929D01*
X153391127Y-98581267D01*
X153252808Y-98670273D01*
X153160015Y-98806080D01*
X153128465Y-98961879D01*
X153060242Y-98975450D01*
X152887843Y-99090643D01*
X152887841Y-99090646D01*
X151770243Y-100208243D01*
X151655050Y-100380642D01*
X151614599Y-100584000D01*
X151614600Y-100584005D01*
X151614600Y-101525800D01*
X151414306Y-101525800D01*
X151305026Y-101416329D01*
X151027117Y-101300931D01*
X150726203Y-101300669D01*
X150448093Y-101415581D01*
X150235129Y-101628174D01*
X150188200Y-101741191D01*
X150188200Y-101537984D01*
X151084114Y-100642069D01*
X151084117Y-100642067D01*
X151190867Y-100482304D01*
X151199310Y-100469669D01*
X151207067Y-100430671D01*
X151258270Y-100430671D01*
X151408873Y-100402333D01*
X151547192Y-100313327D01*
X151639985Y-100177520D01*
X151671535Y-100021721D01*
X151739758Y-100008150D01*
X151912157Y-99892957D01*
X154045757Y-97759357D01*
X154160950Y-97586958D01*
X154201401Y-97383600D01*
X154201400Y-97383595D01*
X154201400Y-94455021D01*
X154431565Y-94359919D01*
X154810588Y-93981557D01*
X155015966Y-93486951D01*
X155016434Y-92951399D01*
X154811919Y-92456435D01*
X154433557Y-92077412D01*
X154057838Y-91921400D01*
X156732572Y-91921400D01*
X156712040Y-91941896D01*
X156573758Y-92274915D01*
X156573443Y-92635503D01*
X156711144Y-92968763D01*
X156965896Y-93223960D01*
X157298915Y-93362242D01*
X157659503Y-93362557D01*
X157992763Y-93224856D01*
X158185902Y-93032054D01*
X157962958Y-93568962D01*
X157962244Y-94387447D01*
X158274804Y-95143901D01*
X158853055Y-95723162D01*
X159608962Y-96037042D01*
X160427447Y-96037756D01*
X161183901Y-95725196D01*
X161763162Y-95146945D01*
X162077042Y-94391038D01*
X162077756Y-93572553D01*
X161765196Y-92816099D01*
X161186945Y-92236838D01*
X160431038Y-91922958D01*
X159612553Y-91922244D01*
X158856099Y-92234804D01*
X158338897Y-92751104D01*
X158386242Y-92637085D01*
X158386557Y-92276497D01*
X158248856Y-91943237D01*
X158227057Y-91921400D01*
X162078600Y-91921400D01*
X162078600Y-100325639D01*
X160155000Y-100325639D01*
X160004397Y-100353977D01*
X159866078Y-100442983D01*
X159773285Y-100578790D01*
X159740639Y-100740000D01*
X159740639Y-101940000D01*
X159768977Y-102090603D01*
X159857983Y-102228922D01*
X159993790Y-102321715D01*
X160155000Y-102354361D01*
X162078600Y-102354361D01*
X162078600Y-105925639D01*
X160155000Y-105925639D01*
X160004397Y-105953977D01*
X159866078Y-106042983D01*
X159773285Y-106178790D01*
X159740639Y-106340000D01*
X159740639Y-107540000D01*
X159768977Y-107690603D01*
X159857983Y-107828922D01*
X159993790Y-107921715D01*
X160155000Y-107954361D01*
X162078600Y-107954361D01*
X162078600Y-141758600D01*
X138923428Y-141758600D01*
X138943960Y-141738104D01*
X139082242Y-141405085D01*
X139082557Y-141044497D01*
X138944856Y-140711237D01*
X138690104Y-140456040D01*
X138357085Y-140317758D01*
X137996497Y-140317443D01*
X137663237Y-140455144D01*
X137641400Y-140476943D01*
X137641400Y-136514343D01*
X140690331Y-136514343D01*
X140925716Y-137084018D01*
X141361189Y-137520252D01*
X141930453Y-137756631D01*
X142546843Y-137757169D01*
X143116518Y-137521784D01*
X143552752Y-137086311D01*
X143789131Y-136517047D01*
X143789669Y-135900657D01*
X143554284Y-135330982D01*
X143118811Y-134894748D01*
X142549547Y-134658369D01*
X141933157Y-134657831D01*
X141363482Y-134893216D01*
X140927248Y-135328689D01*
X140690869Y-135897953D01*
X140690331Y-136514343D01*
X137641400Y-136514343D01*
X137641400Y-133154442D01*
X138841084Y-133154442D01*
X138929661Y-133399559D01*
X139493272Y-133593909D01*
X140088357Y-133557781D01*
X140470339Y-133399559D01*
X140558916Y-133154442D01*
X139700000Y-132295526D01*
X138841084Y-133154442D01*
X137641400Y-133154442D01*
X137641400Y-131873272D01*
X138186091Y-131873272D01*
X138222219Y-132468357D01*
X138380441Y-132850339D01*
X138625558Y-132938916D01*
X139484474Y-132080000D01*
X139915526Y-132080000D01*
X140774442Y-132938916D01*
X141019559Y-132850339D01*
X141213909Y-132286728D01*
X141177781Y-131691643D01*
X141019559Y-131309661D01*
X140774442Y-131221084D01*
X139915526Y-132080000D01*
X139484474Y-132080000D01*
X138625558Y-131221084D01*
X138380441Y-131309661D01*
X138186091Y-131873272D01*
X137641400Y-131873272D01*
X137641400Y-123179343D01*
X140690331Y-123179343D01*
X140925716Y-123749018D01*
X141361189Y-124185252D01*
X141930453Y-124421631D01*
X142546843Y-124422169D01*
X143116518Y-124186784D01*
X143552752Y-123751311D01*
X143789131Y-123182047D01*
X143789669Y-122565657D01*
X143554284Y-121995982D01*
X143118811Y-121559748D01*
X142549547Y-121323369D01*
X141933157Y-121322831D01*
X141363482Y-121558216D01*
X140927248Y-121993689D01*
X140690869Y-122562953D01*
X140690331Y-123179343D01*
X137641400Y-123179343D01*
X137641400Y-114707447D01*
X137642244Y-114707447D01*
X137954804Y-115463901D01*
X138533055Y-116043162D01*
X139288962Y-116357042D01*
X140107447Y-116357756D01*
X140863901Y-116045196D01*
X141443162Y-115466945D01*
X141757042Y-114711038D01*
X141757756Y-113892553D01*
X141445196Y-113136099D01*
X140866945Y-112556838D01*
X140111038Y-112242958D01*
X139292553Y-112242244D01*
X138536099Y-112554804D01*
X137956838Y-113133055D01*
X137642958Y-113888962D01*
X137642244Y-114707447D01*
X137641400Y-114707447D01*
X137641400Y-107954361D01*
X139565000Y-107954361D01*
X139715603Y-107926023D01*
X139853922Y-107837017D01*
X139946715Y-107701210D01*
X139979361Y-107540000D01*
X139979361Y-106340000D01*
X139951023Y-106189397D01*
X139862017Y-106051078D01*
X139726210Y-105958285D01*
X139565000Y-105925639D01*
X137641400Y-105925639D01*
X137641400Y-102354361D01*
X139565000Y-102354361D01*
X139715603Y-102326023D01*
X139853922Y-102237017D01*
X139866408Y-102218743D01*
X140955400Y-102218743D01*
X140955400Y-102337600D01*
X141107800Y-102490000D01*
X142087600Y-102490000D01*
X142087600Y-101882800D01*
X141935200Y-101730400D01*
X141443743Y-101730400D01*
X141219689Y-101823206D01*
X141048206Y-101994689D01*
X140955400Y-102218743D01*
X139866408Y-102218743D01*
X139946715Y-102101210D01*
X139979361Y-101940000D01*
X139979361Y-100740000D01*
X139951023Y-100589397D01*
X139862017Y-100451078D01*
X139726210Y-100358285D01*
X139565000Y-100325639D01*
X137641400Y-100325639D01*
X137641400Y-94387447D01*
X137642244Y-94387447D01*
X137954804Y-95143901D01*
X138533055Y-95723162D01*
X139288962Y-96037042D01*
X140107447Y-96037756D01*
X140863901Y-95725196D01*
X141443162Y-95146945D01*
X141757042Y-94391038D01*
X141757756Y-93572553D01*
X141520820Y-92999122D01*
X144485481Y-92999122D01*
X144520812Y-93614499D01*
X144688334Y-94018932D01*
X144938714Y-94113760D01*
X145834474Y-93218000D01*
X144938714Y-92322240D01*
X144688334Y-92417068D01*
X144485481Y-92999122D01*
X141520820Y-92999122D01*
X141445196Y-92816099D01*
X140866945Y-92236838D01*
X140111038Y-91922958D01*
X139292553Y-91922244D01*
X138536099Y-92234804D01*
X137956838Y-92813055D01*
X137642958Y-93568962D01*
X137642244Y-94387447D01*
X137641400Y-94387447D01*
X137641400Y-91921400D01*
X145224425Y-91921400D01*
X145154240Y-92106714D01*
M02*
