G04 #@! TF.FileFunction,Soldermask,Top*
%FSLAX46Y46*%
G04 Gerber Fmt 4.6, Leading zero omitted, Abs format (unit mm)*
G04 Created by KiCad (PCBNEW 4.0.6) date 02/21/18 15:14:43*
%MOMM*%
%LPD*%
G01*
G04 APERTURE LIST*
%ADD10C,0.100000*%
%ADD11R,0.950000X0.950000*%
%ADD12C,1.981200*%
%ADD13C,2.489200*%
%ADD14R,1.303020X1.201420*%
%ADD15R,2.150000X1.350000*%
%ADD16R,1.500000X0.750000*%
%ADD17C,1.150000*%
%ADD18C,2.082800*%
%ADD19C,1.219200*%
%ADD20R,1.201420X1.303020*%
%ADD21R,1.674000X0.912000*%
G04 APERTURE END LIST*
D10*
D11*
X159308800Y-120078400D03*
X159308800Y-118478400D03*
D12*
X146685000Y-116840000D03*
X153035000Y-116840000D03*
X146685000Y-121920000D03*
X153035000Y-121920000D03*
X147320000Y-139700000D03*
X149860000Y-139700000D03*
X152400000Y-139700000D03*
D13*
X142240000Y-122872500D03*
X142240000Y-136207500D03*
X157480000Y-136207500D03*
X157480000Y-122872500D03*
D12*
X139700000Y-127000000D03*
X139700000Y-129540000D03*
X139700000Y-132080000D03*
D14*
X150708360Y-97586800D03*
X149011640Y-97586800D03*
D15*
X161155000Y-106940000D03*
X161155000Y-101340000D03*
D16*
X157480000Y-105640000D03*
X157480000Y-104640000D03*
X157480000Y-103640000D03*
X157480000Y-102640000D03*
D15*
X138565000Y-101340000D03*
X138565000Y-106940000D03*
D16*
X142240000Y-102640000D03*
X142240000Y-103640000D03*
X142240000Y-104640000D03*
X142240000Y-105640000D03*
D17*
X138176000Y-141224000D03*
X157480000Y-92456000D03*
D14*
X154091640Y-99466400D03*
X155788360Y-99466400D03*
D18*
X146050000Y-93218000D03*
X148590000Y-93218000D03*
X151130000Y-93218000D03*
X153670000Y-93218000D03*
D19*
X152400000Y-108864400D03*
X152400000Y-111404400D03*
X149860000Y-108864400D03*
X149860000Y-111404400D03*
X147320000Y-108864400D03*
X147320000Y-111404400D03*
D14*
X143931640Y-99466400D03*
X145628360Y-99466400D03*
X149011640Y-99517200D03*
X150708360Y-99517200D03*
D20*
X157276800Y-118379240D03*
X157276800Y-120075960D03*
D21*
X146202400Y-102069900D03*
X146202400Y-103339900D03*
X146202400Y-104609900D03*
X146202400Y-105879900D03*
X153611580Y-105879900D03*
X153611580Y-104609900D03*
X153611580Y-103339900D03*
X153611580Y-102069900D03*
M02*
