G04 #@! TF.FileFunction,Soldermask,Top*
%FSLAX46Y46*%
G04 Gerber Fmt 4.6, Leading zero omitted, Abs format (unit mm)*
G04 Created by KiCad (PCBNEW 4.0.6) date 01/19/18 11:08:58*
%MOMM*%
%LPD*%
G01*
G04 APERTURE LIST*
%ADD10C,0.100000*%
%ADD11R,1.303020X1.201420*%
%ADD12C,1.219200*%
%ADD13C,1.150000*%
%ADD14R,2.150000X1.350000*%
%ADD15R,1.500000X0.750000*%
%ADD16R,1.700000X0.750000*%
%ADD17C,2.082800*%
%ADD18C,1.981200*%
%ADD19C,2.489200*%
G04 APERTURE END LIST*
D10*
D11*
X191856360Y-107238800D03*
X190159640Y-107238800D03*
X165948360Y-107238800D03*
X164251640Y-107238800D03*
X140040360Y-107238800D03*
X138343640Y-107238800D03*
X114132360Y-107238800D03*
X112435640Y-107238800D03*
X88224360Y-107238800D03*
X86527640Y-107238800D03*
X191856360Y-55930800D03*
X190159640Y-55930800D03*
X165948360Y-55930800D03*
X164251640Y-55930800D03*
X140040360Y-55930800D03*
X138343640Y-55930800D03*
X114132360Y-55930800D03*
X112435640Y-55930800D03*
X190159640Y-109169200D03*
X191856360Y-109169200D03*
X164251640Y-109169200D03*
X165948360Y-109169200D03*
X138343640Y-109169200D03*
X140040360Y-109169200D03*
X112435640Y-109169200D03*
X114132360Y-109169200D03*
X86527640Y-109169200D03*
X88224360Y-109169200D03*
X190159640Y-57861200D03*
X191856360Y-57861200D03*
X164251640Y-57861200D03*
X165948360Y-57861200D03*
X138343640Y-57861200D03*
X140040360Y-57861200D03*
X112435640Y-57861200D03*
X114132360Y-57861200D03*
D12*
X193548000Y-118516400D03*
X193548000Y-121056400D03*
X191008000Y-118516400D03*
X191008000Y-121056400D03*
X188468000Y-118516400D03*
X188468000Y-121056400D03*
X167640000Y-118516400D03*
X167640000Y-121056400D03*
X165100000Y-118516400D03*
X165100000Y-121056400D03*
X162560000Y-118516400D03*
X162560000Y-121056400D03*
X141732000Y-118516400D03*
X141732000Y-121056400D03*
X139192000Y-118516400D03*
X139192000Y-121056400D03*
X136652000Y-118516400D03*
X136652000Y-121056400D03*
X115824000Y-118516400D03*
X115824000Y-121056400D03*
X113284000Y-118516400D03*
X113284000Y-121056400D03*
X110744000Y-118516400D03*
X110744000Y-121056400D03*
X89916000Y-118516400D03*
X89916000Y-121056400D03*
X87376000Y-118516400D03*
X87376000Y-121056400D03*
X84836000Y-118516400D03*
X84836000Y-121056400D03*
X193548000Y-67208400D03*
X193548000Y-69748400D03*
X191008000Y-67208400D03*
X191008000Y-69748400D03*
X188468000Y-67208400D03*
X188468000Y-69748400D03*
X167640000Y-67208400D03*
X167640000Y-69748400D03*
X165100000Y-67208400D03*
X165100000Y-69748400D03*
X162560000Y-67208400D03*
X162560000Y-69748400D03*
X141732000Y-67208400D03*
X141732000Y-69748400D03*
X139192000Y-67208400D03*
X139192000Y-69748400D03*
X136652000Y-67208400D03*
X136652000Y-69748400D03*
X115824000Y-67208400D03*
X115824000Y-69748400D03*
X113284000Y-67208400D03*
X113284000Y-69748400D03*
X110744000Y-67208400D03*
X110744000Y-69748400D03*
D13*
X198628000Y-102108000D03*
X172720000Y-102108000D03*
X146812000Y-102108000D03*
X120904000Y-102108000D03*
X94996000Y-102108000D03*
X198628000Y-50800000D03*
X172720000Y-50800000D03*
X146812000Y-50800000D03*
X120904000Y-50800000D03*
D14*
X202303000Y-116592000D03*
X202303000Y-110992000D03*
D15*
X198628000Y-115292000D03*
X198628000Y-114292000D03*
X198628000Y-113292000D03*
X198628000Y-112292000D03*
D14*
X176395000Y-116592000D03*
X176395000Y-110992000D03*
D15*
X172720000Y-115292000D03*
X172720000Y-114292000D03*
X172720000Y-113292000D03*
X172720000Y-112292000D03*
D14*
X150487000Y-116592000D03*
X150487000Y-110992000D03*
D15*
X146812000Y-115292000D03*
X146812000Y-114292000D03*
X146812000Y-113292000D03*
X146812000Y-112292000D03*
D14*
X124579000Y-116592000D03*
X124579000Y-110992000D03*
D15*
X120904000Y-115292000D03*
X120904000Y-114292000D03*
X120904000Y-113292000D03*
X120904000Y-112292000D03*
D14*
X98671000Y-116592000D03*
X98671000Y-110992000D03*
D15*
X94996000Y-115292000D03*
X94996000Y-114292000D03*
X94996000Y-113292000D03*
X94996000Y-112292000D03*
D14*
X202303000Y-65284000D03*
X202303000Y-59684000D03*
D15*
X198628000Y-63984000D03*
X198628000Y-62984000D03*
X198628000Y-61984000D03*
X198628000Y-60984000D03*
D14*
X176395000Y-65284000D03*
X176395000Y-59684000D03*
D15*
X172720000Y-63984000D03*
X172720000Y-62984000D03*
X172720000Y-61984000D03*
X172720000Y-60984000D03*
D14*
X150487000Y-65284000D03*
X150487000Y-59684000D03*
D15*
X146812000Y-63984000D03*
X146812000Y-62984000D03*
X146812000Y-61984000D03*
X146812000Y-60984000D03*
D14*
X124579000Y-65284000D03*
X124579000Y-59684000D03*
D15*
X120904000Y-63984000D03*
X120904000Y-62984000D03*
X120904000Y-61984000D03*
X120904000Y-60984000D03*
D11*
X195239640Y-109118400D03*
X196936360Y-109118400D03*
X169331640Y-109118400D03*
X171028360Y-109118400D03*
X143423640Y-109118400D03*
X145120360Y-109118400D03*
X117515640Y-109118400D03*
X119212360Y-109118400D03*
X91607640Y-109118400D03*
X93304360Y-109118400D03*
X195239640Y-57810400D03*
X196936360Y-57810400D03*
X169331640Y-57810400D03*
X171028360Y-57810400D03*
X143423640Y-57810400D03*
X145120360Y-57810400D03*
X117515640Y-57810400D03*
X119212360Y-57810400D03*
D16*
X188333400Y-111721900D03*
X188333400Y-112991900D03*
X188333400Y-114261900D03*
X188333400Y-115531900D03*
X193733400Y-115531900D03*
X193733400Y-114261900D03*
X193733400Y-112991900D03*
X193733400Y-111721900D03*
X162425400Y-111721900D03*
X162425400Y-112991900D03*
X162425400Y-114261900D03*
X162425400Y-115531900D03*
X167825400Y-115531900D03*
X167825400Y-114261900D03*
X167825400Y-112991900D03*
X167825400Y-111721900D03*
X136517400Y-111721900D03*
X136517400Y-112991900D03*
X136517400Y-114261900D03*
X136517400Y-115531900D03*
X141917400Y-115531900D03*
X141917400Y-114261900D03*
X141917400Y-112991900D03*
X141917400Y-111721900D03*
X110609400Y-111721900D03*
X110609400Y-112991900D03*
X110609400Y-114261900D03*
X110609400Y-115531900D03*
X116009400Y-115531900D03*
X116009400Y-114261900D03*
X116009400Y-112991900D03*
X116009400Y-111721900D03*
X84701400Y-111721900D03*
X84701400Y-112991900D03*
X84701400Y-114261900D03*
X84701400Y-115531900D03*
X90101400Y-115531900D03*
X90101400Y-114261900D03*
X90101400Y-112991900D03*
X90101400Y-111721900D03*
X188333400Y-60413900D03*
X188333400Y-61683900D03*
X188333400Y-62953900D03*
X188333400Y-64223900D03*
X193733400Y-64223900D03*
X193733400Y-62953900D03*
X193733400Y-61683900D03*
X193733400Y-60413900D03*
X162425400Y-60413900D03*
X162425400Y-61683900D03*
X162425400Y-62953900D03*
X162425400Y-64223900D03*
X167825400Y-64223900D03*
X167825400Y-62953900D03*
X167825400Y-61683900D03*
X167825400Y-60413900D03*
X136517400Y-60413900D03*
X136517400Y-61683900D03*
X136517400Y-62953900D03*
X136517400Y-64223900D03*
X141917400Y-64223900D03*
X141917400Y-62953900D03*
X141917400Y-61683900D03*
X141917400Y-60413900D03*
X110609400Y-60413900D03*
X110609400Y-61683900D03*
X110609400Y-62953900D03*
X110609400Y-64223900D03*
X116009400Y-64223900D03*
X116009400Y-62953900D03*
X116009400Y-61683900D03*
X116009400Y-60413900D03*
D17*
X187198000Y-102870000D03*
X189738000Y-102870000D03*
X192278000Y-102870000D03*
X194818000Y-102870000D03*
X161290000Y-102870000D03*
X163830000Y-102870000D03*
X166370000Y-102870000D03*
X168910000Y-102870000D03*
X135382000Y-102870000D03*
X137922000Y-102870000D03*
X140462000Y-102870000D03*
X143002000Y-102870000D03*
X109474000Y-102870000D03*
X112014000Y-102870000D03*
X114554000Y-102870000D03*
X117094000Y-102870000D03*
X83566000Y-102870000D03*
X86106000Y-102870000D03*
X88646000Y-102870000D03*
X91186000Y-102870000D03*
X187198000Y-51562000D03*
X189738000Y-51562000D03*
X192278000Y-51562000D03*
X194818000Y-51562000D03*
X161290000Y-51562000D03*
X163830000Y-51562000D03*
X166370000Y-51562000D03*
X168910000Y-51562000D03*
X135382000Y-51562000D03*
X137922000Y-51562000D03*
X140462000Y-51562000D03*
X143002000Y-51562000D03*
X109474000Y-51562000D03*
X112014000Y-51562000D03*
X114554000Y-51562000D03*
X117094000Y-51562000D03*
D11*
X185079640Y-109118400D03*
X186776360Y-109118400D03*
X159171640Y-109118400D03*
X160868360Y-109118400D03*
X133263640Y-109118400D03*
X134960360Y-109118400D03*
X107355640Y-109118400D03*
X109052360Y-109118400D03*
X81447640Y-109118400D03*
X83144360Y-109118400D03*
X185079640Y-57810400D03*
X186776360Y-57810400D03*
X159171640Y-57810400D03*
X160868360Y-57810400D03*
X133263640Y-57810400D03*
X134960360Y-57810400D03*
X107355640Y-57810400D03*
X109052360Y-57810400D03*
D14*
X179713000Y-110992000D03*
X179713000Y-116592000D03*
D15*
X183388000Y-112292000D03*
X183388000Y-113292000D03*
X183388000Y-114292000D03*
X183388000Y-115292000D03*
D14*
X153805000Y-110992000D03*
X153805000Y-116592000D03*
D15*
X157480000Y-112292000D03*
X157480000Y-113292000D03*
X157480000Y-114292000D03*
X157480000Y-115292000D03*
D14*
X127897000Y-110992000D03*
X127897000Y-116592000D03*
D15*
X131572000Y-112292000D03*
X131572000Y-113292000D03*
X131572000Y-114292000D03*
X131572000Y-115292000D03*
D14*
X101989000Y-110992000D03*
X101989000Y-116592000D03*
D15*
X105664000Y-112292000D03*
X105664000Y-113292000D03*
X105664000Y-114292000D03*
X105664000Y-115292000D03*
D14*
X76081000Y-110992000D03*
X76081000Y-116592000D03*
D15*
X79756000Y-112292000D03*
X79756000Y-113292000D03*
X79756000Y-114292000D03*
X79756000Y-115292000D03*
D14*
X179713000Y-59684000D03*
X179713000Y-65284000D03*
D15*
X183388000Y-60984000D03*
X183388000Y-61984000D03*
X183388000Y-62984000D03*
X183388000Y-63984000D03*
D14*
X153805000Y-59684000D03*
X153805000Y-65284000D03*
D15*
X157480000Y-60984000D03*
X157480000Y-61984000D03*
X157480000Y-62984000D03*
X157480000Y-63984000D03*
D14*
X127897000Y-59684000D03*
X127897000Y-65284000D03*
D15*
X131572000Y-60984000D03*
X131572000Y-61984000D03*
X131572000Y-62984000D03*
X131572000Y-63984000D03*
D14*
X101989000Y-59684000D03*
X101989000Y-65284000D03*
D15*
X105664000Y-60984000D03*
X105664000Y-61984000D03*
X105664000Y-62984000D03*
X105664000Y-63984000D03*
D18*
X187833000Y-126492000D03*
X194183000Y-126492000D03*
X187833000Y-131572000D03*
X194183000Y-131572000D03*
X188468000Y-149352000D03*
X191008000Y-149352000D03*
X193548000Y-149352000D03*
D19*
X183388000Y-132524500D03*
X183388000Y-145859500D03*
X198628000Y-145859500D03*
X198628000Y-132524500D03*
D18*
X180848000Y-136652000D03*
X180848000Y-139192000D03*
X180848000Y-141732000D03*
X161925000Y-126492000D03*
X168275000Y-126492000D03*
X161925000Y-131572000D03*
X168275000Y-131572000D03*
X162560000Y-149352000D03*
X165100000Y-149352000D03*
X167640000Y-149352000D03*
D19*
X157480000Y-132524500D03*
X157480000Y-145859500D03*
X172720000Y-145859500D03*
X172720000Y-132524500D03*
D18*
X154940000Y-136652000D03*
X154940000Y-139192000D03*
X154940000Y-141732000D03*
X136017000Y-126492000D03*
X142367000Y-126492000D03*
X136017000Y-131572000D03*
X142367000Y-131572000D03*
X136652000Y-149352000D03*
X139192000Y-149352000D03*
X141732000Y-149352000D03*
D19*
X131572000Y-132524500D03*
X131572000Y-145859500D03*
X146812000Y-145859500D03*
X146812000Y-132524500D03*
D18*
X129032000Y-136652000D03*
X129032000Y-139192000D03*
X129032000Y-141732000D03*
X110109000Y-126492000D03*
X116459000Y-126492000D03*
X110109000Y-131572000D03*
X116459000Y-131572000D03*
X110744000Y-149352000D03*
X113284000Y-149352000D03*
X115824000Y-149352000D03*
D19*
X105664000Y-132524500D03*
X105664000Y-145859500D03*
X120904000Y-145859500D03*
X120904000Y-132524500D03*
D18*
X103124000Y-136652000D03*
X103124000Y-139192000D03*
X103124000Y-141732000D03*
X84201000Y-126492000D03*
X90551000Y-126492000D03*
X84201000Y-131572000D03*
X90551000Y-131572000D03*
X84836000Y-149352000D03*
X87376000Y-149352000D03*
X89916000Y-149352000D03*
D19*
X79756000Y-132524500D03*
X79756000Y-145859500D03*
X94996000Y-145859500D03*
X94996000Y-132524500D03*
D18*
X77216000Y-136652000D03*
X77216000Y-139192000D03*
X77216000Y-141732000D03*
X187833000Y-75184000D03*
X194183000Y-75184000D03*
X187833000Y-80264000D03*
X194183000Y-80264000D03*
X188468000Y-98044000D03*
X191008000Y-98044000D03*
X193548000Y-98044000D03*
D19*
X183388000Y-81216500D03*
X183388000Y-94551500D03*
X198628000Y-94551500D03*
X198628000Y-81216500D03*
D18*
X180848000Y-85344000D03*
X180848000Y-87884000D03*
X180848000Y-90424000D03*
X161925000Y-75184000D03*
X168275000Y-75184000D03*
X161925000Y-80264000D03*
X168275000Y-80264000D03*
X162560000Y-98044000D03*
X165100000Y-98044000D03*
X167640000Y-98044000D03*
D19*
X157480000Y-81216500D03*
X157480000Y-94551500D03*
X172720000Y-94551500D03*
X172720000Y-81216500D03*
D18*
X154940000Y-85344000D03*
X154940000Y-87884000D03*
X154940000Y-90424000D03*
X136017000Y-75184000D03*
X142367000Y-75184000D03*
X136017000Y-80264000D03*
X142367000Y-80264000D03*
X136652000Y-98044000D03*
X139192000Y-98044000D03*
X141732000Y-98044000D03*
D19*
X131572000Y-81216500D03*
X131572000Y-94551500D03*
X146812000Y-94551500D03*
X146812000Y-81216500D03*
D18*
X129032000Y-85344000D03*
X129032000Y-87884000D03*
X129032000Y-90424000D03*
X110109000Y-75184000D03*
X116459000Y-75184000D03*
X110109000Y-80264000D03*
X116459000Y-80264000D03*
X110744000Y-98044000D03*
X113284000Y-98044000D03*
X115824000Y-98044000D03*
D19*
X105664000Y-81216500D03*
X105664000Y-94551500D03*
X120904000Y-94551500D03*
X120904000Y-81216500D03*
D18*
X103124000Y-85344000D03*
X103124000Y-87884000D03*
X103124000Y-90424000D03*
D13*
X179324000Y-150876000D03*
X153416000Y-150876000D03*
X127508000Y-150876000D03*
X101600000Y-150876000D03*
X75692000Y-150876000D03*
X179324000Y-99568000D03*
X153416000Y-99568000D03*
X127508000Y-99568000D03*
X101600000Y-99568000D03*
D11*
X88224360Y-55930800D03*
X86527640Y-55930800D03*
D14*
X98671000Y-65284000D03*
X98671000Y-59684000D03*
D15*
X94996000Y-63984000D03*
X94996000Y-62984000D03*
X94996000Y-61984000D03*
X94996000Y-60984000D03*
D14*
X76081000Y-59684000D03*
X76081000Y-65284000D03*
D15*
X79756000Y-60984000D03*
X79756000Y-61984000D03*
X79756000Y-62984000D03*
X79756000Y-63984000D03*
D13*
X75692000Y-99568000D03*
X94996000Y-50800000D03*
D11*
X91607640Y-57810400D03*
X93304360Y-57810400D03*
D17*
X83566000Y-51562000D03*
X86106000Y-51562000D03*
X88646000Y-51562000D03*
X91186000Y-51562000D03*
D12*
X89916000Y-67208400D03*
X89916000Y-69748400D03*
X87376000Y-67208400D03*
X87376000Y-69748400D03*
X84836000Y-67208400D03*
X84836000Y-69748400D03*
D11*
X81447640Y-57810400D03*
X83144360Y-57810400D03*
X86527640Y-57861200D03*
X88224360Y-57861200D03*
D18*
X84201000Y-75184000D03*
X90551000Y-75184000D03*
X84201000Y-80264000D03*
X90551000Y-80264000D03*
X84836000Y-98044000D03*
X87376000Y-98044000D03*
X89916000Y-98044000D03*
D19*
X79756000Y-81216500D03*
X79756000Y-94551500D03*
X94996000Y-94551500D03*
X94996000Y-81216500D03*
D18*
X77216000Y-85344000D03*
X77216000Y-87884000D03*
X77216000Y-90424000D03*
D16*
X84701400Y-60413900D03*
X84701400Y-61683900D03*
X84701400Y-62953900D03*
X84701400Y-64223900D03*
X90101400Y-64223900D03*
X90101400Y-62953900D03*
X90101400Y-61683900D03*
X90101400Y-60413900D03*
M02*
