G04 #@! TF.FileFunction,Profile,NP*
%FSLAX46Y46*%
G04 Gerber Fmt 4.6, Leading zero omitted, Abs format (unit mm)*
G04 Created by KiCad (PCBNEW 4.0.6) date 01/19/18 11:08:58*
%MOMM*%
%LPD*%
G01*
G04 APERTURE LIST*
%ADD10C,0.100000*%
%ADD11C,0.150000*%
G04 APERTURE END LIST*
D10*
D11*
X178054000Y-153924000D02*
X178054000Y-158242000D01*
X152146000Y-153924000D02*
X152146000Y-158242000D01*
X126238000Y-153924000D02*
X126238000Y-158242000D01*
X178054000Y-44450000D02*
X178054000Y-35306000D01*
X152146000Y-44450000D02*
X152146000Y-35306000D01*
X126238000Y-44450000D02*
X126238000Y-35306000D01*
X178054000Y-44450000D02*
X178054000Y-153924000D01*
X152146000Y-44450000D02*
X152146000Y-153924000D01*
X126238000Y-44450000D02*
X126238000Y-153924000D01*
X100330000Y-44450000D02*
X100330000Y-35306000D01*
X100330000Y-153924000D02*
X100330000Y-158242000D01*
X100330000Y-44450000D02*
X100330000Y-153924000D01*
X204216000Y-100838000D02*
X211810600Y-100838000D01*
X73914000Y-100838000D02*
X55270400Y-100838000D01*
X204216000Y-100838000D02*
X73914000Y-100838000D01*
X178308000Y-126492000D02*
X178308000Y-151892000D01*
X152400000Y-126492000D02*
X152400000Y-151892000D01*
X126492000Y-126492000D02*
X126492000Y-151892000D01*
X100584000Y-126492000D02*
X100584000Y-151892000D01*
X74676000Y-126492000D02*
X74676000Y-151892000D01*
X178308000Y-75184000D02*
X178308000Y-100584000D01*
X152400000Y-75184000D02*
X152400000Y-100584000D01*
X126492000Y-75184000D02*
X126492000Y-100584000D01*
X100584000Y-75184000D02*
X100584000Y-100584000D01*
X178308000Y-101092000D02*
X203708000Y-101092000D01*
X152400000Y-101092000D02*
X177800000Y-101092000D01*
X126492000Y-101092000D02*
X151892000Y-101092000D01*
X100584000Y-101092000D02*
X125984000Y-101092000D01*
X74676000Y-101092000D02*
X100076000Y-101092000D01*
X178308000Y-49784000D02*
X203708000Y-49784000D01*
X152400000Y-49784000D02*
X177800000Y-49784000D01*
X126492000Y-49784000D02*
X151892000Y-49784000D01*
X100584000Y-49784000D02*
X125984000Y-49784000D01*
X203708000Y-101092000D02*
X203708000Y-126492000D01*
X177800000Y-101092000D02*
X177800000Y-126492000D01*
X151892000Y-101092000D02*
X151892000Y-126492000D01*
X125984000Y-101092000D02*
X125984000Y-126492000D01*
X100076000Y-101092000D02*
X100076000Y-126492000D01*
X203708000Y-49784000D02*
X203708000Y-75184000D01*
X177800000Y-49784000D02*
X177800000Y-75184000D01*
X151892000Y-49784000D02*
X151892000Y-75184000D01*
X125984000Y-49784000D02*
X125984000Y-75184000D01*
X178308000Y-126492000D02*
X178308000Y-101092000D01*
X152400000Y-126492000D02*
X152400000Y-101092000D01*
X126492000Y-126492000D02*
X126492000Y-101092000D01*
X100584000Y-126492000D02*
X100584000Y-101092000D01*
X74676000Y-126492000D02*
X74676000Y-101092000D01*
X178308000Y-75184000D02*
X178308000Y-49784000D01*
X152400000Y-75184000D02*
X152400000Y-49784000D01*
X126492000Y-75184000D02*
X126492000Y-49784000D01*
X100584000Y-75184000D02*
X100584000Y-49784000D01*
X203708000Y-151892000D02*
X178308000Y-151892000D01*
X177800000Y-151892000D02*
X152400000Y-151892000D01*
X151892000Y-151892000D02*
X126492000Y-151892000D01*
X125984000Y-151892000D02*
X100584000Y-151892000D01*
X100076000Y-151892000D02*
X74676000Y-151892000D01*
X203708000Y-100584000D02*
X178308000Y-100584000D01*
X177800000Y-100584000D02*
X152400000Y-100584000D01*
X151892000Y-100584000D02*
X126492000Y-100584000D01*
X125984000Y-100584000D02*
X100584000Y-100584000D01*
X203708000Y-151892000D02*
X203708000Y-126492000D01*
X177800000Y-151892000D02*
X177800000Y-126492000D01*
X151892000Y-151892000D02*
X151892000Y-126492000D01*
X125984000Y-151892000D02*
X125984000Y-126492000D01*
X100076000Y-151892000D02*
X100076000Y-126492000D01*
X203708000Y-100584000D02*
X203708000Y-75184000D01*
X177800000Y-100584000D02*
X177800000Y-75184000D01*
X151892000Y-100584000D02*
X151892000Y-75184000D01*
X125984000Y-100584000D02*
X125984000Y-75184000D01*
X100076000Y-100584000D02*
X100076000Y-75184000D01*
X74676000Y-75184000D02*
X74676000Y-100584000D01*
X100076000Y-100584000D02*
X74676000Y-100584000D01*
X100076000Y-49784000D02*
X100076000Y-75184000D01*
X74676000Y-49784000D02*
X100076000Y-49784000D01*
X74676000Y-75184000D02*
X74676000Y-49784000D01*
M02*
