G04 #@! TF.FileFunction,Paste,Top*
%FSLAX46Y46*%
G04 Gerber Fmt 4.6, Leading zero omitted, Abs format (unit mm)*
G04 Created by KiCad (PCBNEW 4.0.6) date 01/19/18 11:08:58*
%MOMM*%
%LPD*%
G01*
G04 APERTURE LIST*
%ADD10C,0.100000*%
%ADD11R,1.099820X0.998220*%
%ADD12R,2.000000X1.200000*%
%ADD13R,1.350000X0.600000*%
%ADD14R,1.550000X0.600000*%
G04 APERTURE END LIST*
D10*
D11*
X191856360Y-107238800D03*
X190159640Y-107238800D03*
X165948360Y-107238800D03*
X164251640Y-107238800D03*
X140040360Y-107238800D03*
X138343640Y-107238800D03*
X114132360Y-107238800D03*
X112435640Y-107238800D03*
X88224360Y-107238800D03*
X86527640Y-107238800D03*
X191856360Y-55930800D03*
X190159640Y-55930800D03*
X165948360Y-55930800D03*
X164251640Y-55930800D03*
X140040360Y-55930800D03*
X138343640Y-55930800D03*
X114132360Y-55930800D03*
X112435640Y-55930800D03*
X190159640Y-109169200D03*
X191856360Y-109169200D03*
X164251640Y-109169200D03*
X165948360Y-109169200D03*
X138343640Y-109169200D03*
X140040360Y-109169200D03*
X112435640Y-109169200D03*
X114132360Y-109169200D03*
X86527640Y-109169200D03*
X88224360Y-109169200D03*
X190159640Y-57861200D03*
X191856360Y-57861200D03*
X164251640Y-57861200D03*
X165948360Y-57861200D03*
X138343640Y-57861200D03*
X140040360Y-57861200D03*
X112435640Y-57861200D03*
X114132360Y-57861200D03*
D12*
X202303000Y-116592000D03*
X202303000Y-110992000D03*
D13*
X198628000Y-115292000D03*
X198628000Y-114292000D03*
X198628000Y-113292000D03*
X198628000Y-112292000D03*
D12*
X176395000Y-116592000D03*
X176395000Y-110992000D03*
D13*
X172720000Y-115292000D03*
X172720000Y-114292000D03*
X172720000Y-113292000D03*
X172720000Y-112292000D03*
D12*
X150487000Y-116592000D03*
X150487000Y-110992000D03*
D13*
X146812000Y-115292000D03*
X146812000Y-114292000D03*
X146812000Y-113292000D03*
X146812000Y-112292000D03*
D12*
X124579000Y-116592000D03*
X124579000Y-110992000D03*
D13*
X120904000Y-115292000D03*
X120904000Y-114292000D03*
X120904000Y-113292000D03*
X120904000Y-112292000D03*
D12*
X98671000Y-116592000D03*
X98671000Y-110992000D03*
D13*
X94996000Y-115292000D03*
X94996000Y-114292000D03*
X94996000Y-113292000D03*
X94996000Y-112292000D03*
D12*
X202303000Y-65284000D03*
X202303000Y-59684000D03*
D13*
X198628000Y-63984000D03*
X198628000Y-62984000D03*
X198628000Y-61984000D03*
X198628000Y-60984000D03*
D12*
X176395000Y-65284000D03*
X176395000Y-59684000D03*
D13*
X172720000Y-63984000D03*
X172720000Y-62984000D03*
X172720000Y-61984000D03*
X172720000Y-60984000D03*
D12*
X150487000Y-65284000D03*
X150487000Y-59684000D03*
D13*
X146812000Y-63984000D03*
X146812000Y-62984000D03*
X146812000Y-61984000D03*
X146812000Y-60984000D03*
D12*
X124579000Y-65284000D03*
X124579000Y-59684000D03*
D13*
X120904000Y-63984000D03*
X120904000Y-62984000D03*
X120904000Y-61984000D03*
X120904000Y-60984000D03*
D11*
X195239640Y-109118400D03*
X196936360Y-109118400D03*
X169331640Y-109118400D03*
X171028360Y-109118400D03*
X143423640Y-109118400D03*
X145120360Y-109118400D03*
X117515640Y-109118400D03*
X119212360Y-109118400D03*
X91607640Y-109118400D03*
X93304360Y-109118400D03*
X195239640Y-57810400D03*
X196936360Y-57810400D03*
X169331640Y-57810400D03*
X171028360Y-57810400D03*
X143423640Y-57810400D03*
X145120360Y-57810400D03*
X117515640Y-57810400D03*
X119212360Y-57810400D03*
D14*
X188333400Y-111721900D03*
X188333400Y-112991900D03*
X188333400Y-114261900D03*
X188333400Y-115531900D03*
X193733400Y-115531900D03*
X193733400Y-114261900D03*
X193733400Y-112991900D03*
X193733400Y-111721900D03*
X162425400Y-111721900D03*
X162425400Y-112991900D03*
X162425400Y-114261900D03*
X162425400Y-115531900D03*
X167825400Y-115531900D03*
X167825400Y-114261900D03*
X167825400Y-112991900D03*
X167825400Y-111721900D03*
X136517400Y-111721900D03*
X136517400Y-112991900D03*
X136517400Y-114261900D03*
X136517400Y-115531900D03*
X141917400Y-115531900D03*
X141917400Y-114261900D03*
X141917400Y-112991900D03*
X141917400Y-111721900D03*
X110609400Y-111721900D03*
X110609400Y-112991900D03*
X110609400Y-114261900D03*
X110609400Y-115531900D03*
X116009400Y-115531900D03*
X116009400Y-114261900D03*
X116009400Y-112991900D03*
X116009400Y-111721900D03*
X84701400Y-111721900D03*
X84701400Y-112991900D03*
X84701400Y-114261900D03*
X84701400Y-115531900D03*
X90101400Y-115531900D03*
X90101400Y-114261900D03*
X90101400Y-112991900D03*
X90101400Y-111721900D03*
X188333400Y-60413900D03*
X188333400Y-61683900D03*
X188333400Y-62953900D03*
X188333400Y-64223900D03*
X193733400Y-64223900D03*
X193733400Y-62953900D03*
X193733400Y-61683900D03*
X193733400Y-60413900D03*
X162425400Y-60413900D03*
X162425400Y-61683900D03*
X162425400Y-62953900D03*
X162425400Y-64223900D03*
X167825400Y-64223900D03*
X167825400Y-62953900D03*
X167825400Y-61683900D03*
X167825400Y-60413900D03*
X136517400Y-60413900D03*
X136517400Y-61683900D03*
X136517400Y-62953900D03*
X136517400Y-64223900D03*
X141917400Y-64223900D03*
X141917400Y-62953900D03*
X141917400Y-61683900D03*
X141917400Y-60413900D03*
X110609400Y-60413900D03*
X110609400Y-61683900D03*
X110609400Y-62953900D03*
X110609400Y-64223900D03*
X116009400Y-64223900D03*
X116009400Y-62953900D03*
X116009400Y-61683900D03*
X116009400Y-60413900D03*
D11*
X185079640Y-109118400D03*
X186776360Y-109118400D03*
X159171640Y-109118400D03*
X160868360Y-109118400D03*
X133263640Y-109118400D03*
X134960360Y-109118400D03*
X107355640Y-109118400D03*
X109052360Y-109118400D03*
X81447640Y-109118400D03*
X83144360Y-109118400D03*
X185079640Y-57810400D03*
X186776360Y-57810400D03*
X159171640Y-57810400D03*
X160868360Y-57810400D03*
X133263640Y-57810400D03*
X134960360Y-57810400D03*
X107355640Y-57810400D03*
X109052360Y-57810400D03*
D12*
X179713000Y-110992000D03*
X179713000Y-116592000D03*
D13*
X183388000Y-112292000D03*
X183388000Y-113292000D03*
X183388000Y-114292000D03*
X183388000Y-115292000D03*
D12*
X153805000Y-110992000D03*
X153805000Y-116592000D03*
D13*
X157480000Y-112292000D03*
X157480000Y-113292000D03*
X157480000Y-114292000D03*
X157480000Y-115292000D03*
D12*
X127897000Y-110992000D03*
X127897000Y-116592000D03*
D13*
X131572000Y-112292000D03*
X131572000Y-113292000D03*
X131572000Y-114292000D03*
X131572000Y-115292000D03*
D12*
X101989000Y-110992000D03*
X101989000Y-116592000D03*
D13*
X105664000Y-112292000D03*
X105664000Y-113292000D03*
X105664000Y-114292000D03*
X105664000Y-115292000D03*
D12*
X76081000Y-110992000D03*
X76081000Y-116592000D03*
D13*
X79756000Y-112292000D03*
X79756000Y-113292000D03*
X79756000Y-114292000D03*
X79756000Y-115292000D03*
D12*
X179713000Y-59684000D03*
X179713000Y-65284000D03*
D13*
X183388000Y-60984000D03*
X183388000Y-61984000D03*
X183388000Y-62984000D03*
X183388000Y-63984000D03*
D12*
X153805000Y-59684000D03*
X153805000Y-65284000D03*
D13*
X157480000Y-60984000D03*
X157480000Y-61984000D03*
X157480000Y-62984000D03*
X157480000Y-63984000D03*
D12*
X127897000Y-59684000D03*
X127897000Y-65284000D03*
D13*
X131572000Y-60984000D03*
X131572000Y-61984000D03*
X131572000Y-62984000D03*
X131572000Y-63984000D03*
D12*
X101989000Y-59684000D03*
X101989000Y-65284000D03*
D13*
X105664000Y-60984000D03*
X105664000Y-61984000D03*
X105664000Y-62984000D03*
X105664000Y-63984000D03*
D11*
X88224360Y-55930800D03*
X86527640Y-55930800D03*
D12*
X98671000Y-65284000D03*
X98671000Y-59684000D03*
D13*
X94996000Y-63984000D03*
X94996000Y-62984000D03*
X94996000Y-61984000D03*
X94996000Y-60984000D03*
D12*
X76081000Y-59684000D03*
X76081000Y-65284000D03*
D13*
X79756000Y-60984000D03*
X79756000Y-61984000D03*
X79756000Y-62984000D03*
X79756000Y-63984000D03*
D11*
X91607640Y-57810400D03*
X93304360Y-57810400D03*
X81447640Y-57810400D03*
X83144360Y-57810400D03*
X86527640Y-57861200D03*
X88224360Y-57861200D03*
D14*
X84701400Y-60413900D03*
X84701400Y-61683900D03*
X84701400Y-62953900D03*
X84701400Y-64223900D03*
X90101400Y-64223900D03*
X90101400Y-62953900D03*
X90101400Y-61683900D03*
X90101400Y-60413900D03*
M02*
