G04 #@! TF.FileFunction,Soldermask,Bot*
%FSLAX46Y46*%
G04 Gerber Fmt 4.6, Leading zero omitted, Abs format (unit mm)*
G04 Created by KiCad (PCBNEW 4.0.6) date 01/19/18 11:08:58*
%MOMM*%
%LPD*%
G01*
G04 APERTURE LIST*
%ADD10C,0.100000*%
%ADD11R,0.838200X1.473200*%
%ADD12C,1.219200*%
%ADD13C,2.082800*%
%ADD14C,1.981200*%
%ADD15C,2.489200*%
G04 APERTURE END LIST*
D10*
D11*
X189992000Y-109423200D03*
X191008000Y-109423200D03*
X192024000Y-109423200D03*
X164084000Y-109423200D03*
X165100000Y-109423200D03*
X166116000Y-109423200D03*
X138176000Y-109423200D03*
X139192000Y-109423200D03*
X140208000Y-109423200D03*
X112268000Y-109423200D03*
X113284000Y-109423200D03*
X114300000Y-109423200D03*
X86360000Y-109423200D03*
X87376000Y-109423200D03*
X88392000Y-109423200D03*
X189992000Y-58115200D03*
X191008000Y-58115200D03*
X192024000Y-58115200D03*
X164084000Y-58115200D03*
X165100000Y-58115200D03*
X166116000Y-58115200D03*
X138176000Y-58115200D03*
X139192000Y-58115200D03*
X140208000Y-58115200D03*
X112268000Y-58115200D03*
X113284000Y-58115200D03*
X114300000Y-58115200D03*
D12*
X193548000Y-118516400D03*
X193548000Y-121056400D03*
X191008000Y-118516400D03*
X191008000Y-121056400D03*
X188468000Y-118516400D03*
X188468000Y-121056400D03*
X167640000Y-118516400D03*
X167640000Y-121056400D03*
X165100000Y-118516400D03*
X165100000Y-121056400D03*
X162560000Y-118516400D03*
X162560000Y-121056400D03*
X141732000Y-118516400D03*
X141732000Y-121056400D03*
X139192000Y-118516400D03*
X139192000Y-121056400D03*
X136652000Y-118516400D03*
X136652000Y-121056400D03*
X115824000Y-118516400D03*
X115824000Y-121056400D03*
X113284000Y-118516400D03*
X113284000Y-121056400D03*
X110744000Y-118516400D03*
X110744000Y-121056400D03*
X89916000Y-118516400D03*
X89916000Y-121056400D03*
X87376000Y-118516400D03*
X87376000Y-121056400D03*
X84836000Y-118516400D03*
X84836000Y-121056400D03*
X193548000Y-67208400D03*
X193548000Y-69748400D03*
X191008000Y-67208400D03*
X191008000Y-69748400D03*
X188468000Y-67208400D03*
X188468000Y-69748400D03*
X167640000Y-67208400D03*
X167640000Y-69748400D03*
X165100000Y-67208400D03*
X165100000Y-69748400D03*
X162560000Y-67208400D03*
X162560000Y-69748400D03*
X141732000Y-67208400D03*
X141732000Y-69748400D03*
X139192000Y-67208400D03*
X139192000Y-69748400D03*
X136652000Y-67208400D03*
X136652000Y-69748400D03*
X115824000Y-67208400D03*
X115824000Y-69748400D03*
X113284000Y-67208400D03*
X113284000Y-69748400D03*
X110744000Y-67208400D03*
X110744000Y-69748400D03*
D13*
X187198000Y-102870000D03*
X189738000Y-102870000D03*
X192278000Y-102870000D03*
X194818000Y-102870000D03*
X161290000Y-102870000D03*
X163830000Y-102870000D03*
X166370000Y-102870000D03*
X168910000Y-102870000D03*
X135382000Y-102870000D03*
X137922000Y-102870000D03*
X140462000Y-102870000D03*
X143002000Y-102870000D03*
X109474000Y-102870000D03*
X112014000Y-102870000D03*
X114554000Y-102870000D03*
X117094000Y-102870000D03*
X83566000Y-102870000D03*
X86106000Y-102870000D03*
X88646000Y-102870000D03*
X91186000Y-102870000D03*
X187198000Y-51562000D03*
X189738000Y-51562000D03*
X192278000Y-51562000D03*
X194818000Y-51562000D03*
X161290000Y-51562000D03*
X163830000Y-51562000D03*
X166370000Y-51562000D03*
X168910000Y-51562000D03*
X135382000Y-51562000D03*
X137922000Y-51562000D03*
X140462000Y-51562000D03*
X143002000Y-51562000D03*
X109474000Y-51562000D03*
X112014000Y-51562000D03*
X114554000Y-51562000D03*
X117094000Y-51562000D03*
D14*
X187833000Y-126492000D03*
X194183000Y-126492000D03*
X187833000Y-131572000D03*
X194183000Y-131572000D03*
X188468000Y-149352000D03*
X191008000Y-149352000D03*
X193548000Y-149352000D03*
D15*
X183388000Y-132524500D03*
X183388000Y-145859500D03*
X198628000Y-145859500D03*
X198628000Y-132524500D03*
D14*
X180848000Y-136652000D03*
X180848000Y-139192000D03*
X180848000Y-141732000D03*
X161925000Y-126492000D03*
X168275000Y-126492000D03*
X161925000Y-131572000D03*
X168275000Y-131572000D03*
X162560000Y-149352000D03*
X165100000Y-149352000D03*
X167640000Y-149352000D03*
D15*
X157480000Y-132524500D03*
X157480000Y-145859500D03*
X172720000Y-145859500D03*
X172720000Y-132524500D03*
D14*
X154940000Y-136652000D03*
X154940000Y-139192000D03*
X154940000Y-141732000D03*
X136017000Y-126492000D03*
X142367000Y-126492000D03*
X136017000Y-131572000D03*
X142367000Y-131572000D03*
X136652000Y-149352000D03*
X139192000Y-149352000D03*
X141732000Y-149352000D03*
D15*
X131572000Y-132524500D03*
X131572000Y-145859500D03*
X146812000Y-145859500D03*
X146812000Y-132524500D03*
D14*
X129032000Y-136652000D03*
X129032000Y-139192000D03*
X129032000Y-141732000D03*
X110109000Y-126492000D03*
X116459000Y-126492000D03*
X110109000Y-131572000D03*
X116459000Y-131572000D03*
X110744000Y-149352000D03*
X113284000Y-149352000D03*
X115824000Y-149352000D03*
D15*
X105664000Y-132524500D03*
X105664000Y-145859500D03*
X120904000Y-145859500D03*
X120904000Y-132524500D03*
D14*
X103124000Y-136652000D03*
X103124000Y-139192000D03*
X103124000Y-141732000D03*
X84201000Y-126492000D03*
X90551000Y-126492000D03*
X84201000Y-131572000D03*
X90551000Y-131572000D03*
X84836000Y-149352000D03*
X87376000Y-149352000D03*
X89916000Y-149352000D03*
D15*
X79756000Y-132524500D03*
X79756000Y-145859500D03*
X94996000Y-145859500D03*
X94996000Y-132524500D03*
D14*
X77216000Y-136652000D03*
X77216000Y-139192000D03*
X77216000Y-141732000D03*
X187833000Y-75184000D03*
X194183000Y-75184000D03*
X187833000Y-80264000D03*
X194183000Y-80264000D03*
X188468000Y-98044000D03*
X191008000Y-98044000D03*
X193548000Y-98044000D03*
D15*
X183388000Y-81216500D03*
X183388000Y-94551500D03*
X198628000Y-94551500D03*
X198628000Y-81216500D03*
D14*
X180848000Y-85344000D03*
X180848000Y-87884000D03*
X180848000Y-90424000D03*
X161925000Y-75184000D03*
X168275000Y-75184000D03*
X161925000Y-80264000D03*
X168275000Y-80264000D03*
X162560000Y-98044000D03*
X165100000Y-98044000D03*
X167640000Y-98044000D03*
D15*
X157480000Y-81216500D03*
X157480000Y-94551500D03*
X172720000Y-94551500D03*
X172720000Y-81216500D03*
D14*
X154940000Y-85344000D03*
X154940000Y-87884000D03*
X154940000Y-90424000D03*
X136017000Y-75184000D03*
X142367000Y-75184000D03*
X136017000Y-80264000D03*
X142367000Y-80264000D03*
X136652000Y-98044000D03*
X139192000Y-98044000D03*
X141732000Y-98044000D03*
D15*
X131572000Y-81216500D03*
X131572000Y-94551500D03*
X146812000Y-94551500D03*
X146812000Y-81216500D03*
D14*
X129032000Y-85344000D03*
X129032000Y-87884000D03*
X129032000Y-90424000D03*
X110109000Y-75184000D03*
X116459000Y-75184000D03*
X110109000Y-80264000D03*
X116459000Y-80264000D03*
X110744000Y-98044000D03*
X113284000Y-98044000D03*
X115824000Y-98044000D03*
D15*
X105664000Y-81216500D03*
X105664000Y-94551500D03*
X120904000Y-94551500D03*
X120904000Y-81216500D03*
D14*
X103124000Y-85344000D03*
X103124000Y-87884000D03*
X103124000Y-90424000D03*
D13*
X83566000Y-51562000D03*
X86106000Y-51562000D03*
X88646000Y-51562000D03*
X91186000Y-51562000D03*
D12*
X89916000Y-67208400D03*
X89916000Y-69748400D03*
X87376000Y-67208400D03*
X87376000Y-69748400D03*
X84836000Y-67208400D03*
X84836000Y-69748400D03*
D14*
X84201000Y-75184000D03*
X90551000Y-75184000D03*
X84201000Y-80264000D03*
X90551000Y-80264000D03*
X84836000Y-98044000D03*
X87376000Y-98044000D03*
X89916000Y-98044000D03*
D15*
X79756000Y-81216500D03*
X79756000Y-94551500D03*
X94996000Y-94551500D03*
X94996000Y-81216500D03*
D14*
X77216000Y-85344000D03*
X77216000Y-87884000D03*
X77216000Y-90424000D03*
D11*
X86360000Y-58115200D03*
X87376000Y-58115200D03*
X88392000Y-58115200D03*
M02*
