G04 #@! TF.FileFunction,Legend,Bot*
%FSLAX46Y46*%
G04 Gerber Fmt 4.6, Leading zero omitted, Abs format (unit mm)*
G04 Created by KiCad (PCBNEW 4.0.6) date 01/19/18 11:08:58*
%MOMM*%
%LPD*%
G01*
G04 APERTURE LIST*
%ADD10C,0.100000*%
%ADD11C,0.254000*%
%ADD12C,0.152400*%
G04 APERTURE END LIST*
D10*
D11*
X195382848Y-104558496D02*
X195443324Y-104739924D01*
X195443324Y-105042305D01*
X195382848Y-105163258D01*
X195322371Y-105223734D01*
X195201419Y-105284210D01*
X195080467Y-105284210D01*
X194959514Y-105223734D01*
X194899038Y-105163258D01*
X194838562Y-105042305D01*
X194778086Y-104800401D01*
X194717610Y-104679448D01*
X194657133Y-104618972D01*
X194536181Y-104558496D01*
X194415229Y-104558496D01*
X194294276Y-104618972D01*
X194233800Y-104679448D01*
X194173324Y-104800401D01*
X194173324Y-105102781D01*
X194233800Y-105284210D01*
X195322371Y-106554210D02*
X195382848Y-106493734D01*
X195443324Y-106312305D01*
X195443324Y-106191353D01*
X195382848Y-106009925D01*
X195261895Y-105888972D01*
X195140943Y-105828496D01*
X194899038Y-105768020D01*
X194717610Y-105768020D01*
X194475705Y-105828496D01*
X194354752Y-105888972D01*
X194233800Y-106009925D01*
X194173324Y-106191353D01*
X194173324Y-106312305D01*
X194233800Y-106493734D01*
X194294276Y-106554210D01*
X195443324Y-107703258D02*
X195443324Y-107098496D01*
X194173324Y-107098496D01*
X169474848Y-104558496D02*
X169535324Y-104739924D01*
X169535324Y-105042305D01*
X169474848Y-105163258D01*
X169414371Y-105223734D01*
X169293419Y-105284210D01*
X169172467Y-105284210D01*
X169051514Y-105223734D01*
X168991038Y-105163258D01*
X168930562Y-105042305D01*
X168870086Y-104800401D01*
X168809610Y-104679448D01*
X168749133Y-104618972D01*
X168628181Y-104558496D01*
X168507229Y-104558496D01*
X168386276Y-104618972D01*
X168325800Y-104679448D01*
X168265324Y-104800401D01*
X168265324Y-105102781D01*
X168325800Y-105284210D01*
X169414371Y-106554210D02*
X169474848Y-106493734D01*
X169535324Y-106312305D01*
X169535324Y-106191353D01*
X169474848Y-106009925D01*
X169353895Y-105888972D01*
X169232943Y-105828496D01*
X168991038Y-105768020D01*
X168809610Y-105768020D01*
X168567705Y-105828496D01*
X168446752Y-105888972D01*
X168325800Y-106009925D01*
X168265324Y-106191353D01*
X168265324Y-106312305D01*
X168325800Y-106493734D01*
X168386276Y-106554210D01*
X169535324Y-107703258D02*
X169535324Y-107098496D01*
X168265324Y-107098496D01*
X143566848Y-104558496D02*
X143627324Y-104739924D01*
X143627324Y-105042305D01*
X143566848Y-105163258D01*
X143506371Y-105223734D01*
X143385419Y-105284210D01*
X143264467Y-105284210D01*
X143143514Y-105223734D01*
X143083038Y-105163258D01*
X143022562Y-105042305D01*
X142962086Y-104800401D01*
X142901610Y-104679448D01*
X142841133Y-104618972D01*
X142720181Y-104558496D01*
X142599229Y-104558496D01*
X142478276Y-104618972D01*
X142417800Y-104679448D01*
X142357324Y-104800401D01*
X142357324Y-105102781D01*
X142417800Y-105284210D01*
X143506371Y-106554210D02*
X143566848Y-106493734D01*
X143627324Y-106312305D01*
X143627324Y-106191353D01*
X143566848Y-106009925D01*
X143445895Y-105888972D01*
X143324943Y-105828496D01*
X143083038Y-105768020D01*
X142901610Y-105768020D01*
X142659705Y-105828496D01*
X142538752Y-105888972D01*
X142417800Y-106009925D01*
X142357324Y-106191353D01*
X142357324Y-106312305D01*
X142417800Y-106493734D01*
X142478276Y-106554210D01*
X143627324Y-107703258D02*
X143627324Y-107098496D01*
X142357324Y-107098496D01*
X117658848Y-104558496D02*
X117719324Y-104739924D01*
X117719324Y-105042305D01*
X117658848Y-105163258D01*
X117598371Y-105223734D01*
X117477419Y-105284210D01*
X117356467Y-105284210D01*
X117235514Y-105223734D01*
X117175038Y-105163258D01*
X117114562Y-105042305D01*
X117054086Y-104800401D01*
X116993610Y-104679448D01*
X116933133Y-104618972D01*
X116812181Y-104558496D01*
X116691229Y-104558496D01*
X116570276Y-104618972D01*
X116509800Y-104679448D01*
X116449324Y-104800401D01*
X116449324Y-105102781D01*
X116509800Y-105284210D01*
X117598371Y-106554210D02*
X117658848Y-106493734D01*
X117719324Y-106312305D01*
X117719324Y-106191353D01*
X117658848Y-106009925D01*
X117537895Y-105888972D01*
X117416943Y-105828496D01*
X117175038Y-105768020D01*
X116993610Y-105768020D01*
X116751705Y-105828496D01*
X116630752Y-105888972D01*
X116509800Y-106009925D01*
X116449324Y-106191353D01*
X116449324Y-106312305D01*
X116509800Y-106493734D01*
X116570276Y-106554210D01*
X117719324Y-107703258D02*
X117719324Y-107098496D01*
X116449324Y-107098496D01*
X91750848Y-104558496D02*
X91811324Y-104739924D01*
X91811324Y-105042305D01*
X91750848Y-105163258D01*
X91690371Y-105223734D01*
X91569419Y-105284210D01*
X91448467Y-105284210D01*
X91327514Y-105223734D01*
X91267038Y-105163258D01*
X91206562Y-105042305D01*
X91146086Y-104800401D01*
X91085610Y-104679448D01*
X91025133Y-104618972D01*
X90904181Y-104558496D01*
X90783229Y-104558496D01*
X90662276Y-104618972D01*
X90601800Y-104679448D01*
X90541324Y-104800401D01*
X90541324Y-105102781D01*
X90601800Y-105284210D01*
X91690371Y-106554210D02*
X91750848Y-106493734D01*
X91811324Y-106312305D01*
X91811324Y-106191353D01*
X91750848Y-106009925D01*
X91629895Y-105888972D01*
X91508943Y-105828496D01*
X91267038Y-105768020D01*
X91085610Y-105768020D01*
X90843705Y-105828496D01*
X90722752Y-105888972D01*
X90601800Y-106009925D01*
X90541324Y-106191353D01*
X90541324Y-106312305D01*
X90601800Y-106493734D01*
X90662276Y-106554210D01*
X91811324Y-107703258D02*
X91811324Y-107098496D01*
X90541324Y-107098496D01*
X195382848Y-53250496D02*
X195443324Y-53431924D01*
X195443324Y-53734305D01*
X195382848Y-53855258D01*
X195322371Y-53915734D01*
X195201419Y-53976210D01*
X195080467Y-53976210D01*
X194959514Y-53915734D01*
X194899038Y-53855258D01*
X194838562Y-53734305D01*
X194778086Y-53492401D01*
X194717610Y-53371448D01*
X194657133Y-53310972D01*
X194536181Y-53250496D01*
X194415229Y-53250496D01*
X194294276Y-53310972D01*
X194233800Y-53371448D01*
X194173324Y-53492401D01*
X194173324Y-53794781D01*
X194233800Y-53976210D01*
X195322371Y-55246210D02*
X195382848Y-55185734D01*
X195443324Y-55004305D01*
X195443324Y-54883353D01*
X195382848Y-54701925D01*
X195261895Y-54580972D01*
X195140943Y-54520496D01*
X194899038Y-54460020D01*
X194717610Y-54460020D01*
X194475705Y-54520496D01*
X194354752Y-54580972D01*
X194233800Y-54701925D01*
X194173324Y-54883353D01*
X194173324Y-55004305D01*
X194233800Y-55185734D01*
X194294276Y-55246210D01*
X195443324Y-56395258D02*
X195443324Y-55790496D01*
X194173324Y-55790496D01*
X169474848Y-53250496D02*
X169535324Y-53431924D01*
X169535324Y-53734305D01*
X169474848Y-53855258D01*
X169414371Y-53915734D01*
X169293419Y-53976210D01*
X169172467Y-53976210D01*
X169051514Y-53915734D01*
X168991038Y-53855258D01*
X168930562Y-53734305D01*
X168870086Y-53492401D01*
X168809610Y-53371448D01*
X168749133Y-53310972D01*
X168628181Y-53250496D01*
X168507229Y-53250496D01*
X168386276Y-53310972D01*
X168325800Y-53371448D01*
X168265324Y-53492401D01*
X168265324Y-53794781D01*
X168325800Y-53976210D01*
X169414371Y-55246210D02*
X169474848Y-55185734D01*
X169535324Y-55004305D01*
X169535324Y-54883353D01*
X169474848Y-54701925D01*
X169353895Y-54580972D01*
X169232943Y-54520496D01*
X168991038Y-54460020D01*
X168809610Y-54460020D01*
X168567705Y-54520496D01*
X168446752Y-54580972D01*
X168325800Y-54701925D01*
X168265324Y-54883353D01*
X168265324Y-55004305D01*
X168325800Y-55185734D01*
X168386276Y-55246210D01*
X169535324Y-56395258D02*
X169535324Y-55790496D01*
X168265324Y-55790496D01*
X143566848Y-53250496D02*
X143627324Y-53431924D01*
X143627324Y-53734305D01*
X143566848Y-53855258D01*
X143506371Y-53915734D01*
X143385419Y-53976210D01*
X143264467Y-53976210D01*
X143143514Y-53915734D01*
X143083038Y-53855258D01*
X143022562Y-53734305D01*
X142962086Y-53492401D01*
X142901610Y-53371448D01*
X142841133Y-53310972D01*
X142720181Y-53250496D01*
X142599229Y-53250496D01*
X142478276Y-53310972D01*
X142417800Y-53371448D01*
X142357324Y-53492401D01*
X142357324Y-53794781D01*
X142417800Y-53976210D01*
X143506371Y-55246210D02*
X143566848Y-55185734D01*
X143627324Y-55004305D01*
X143627324Y-54883353D01*
X143566848Y-54701925D01*
X143445895Y-54580972D01*
X143324943Y-54520496D01*
X143083038Y-54460020D01*
X142901610Y-54460020D01*
X142659705Y-54520496D01*
X142538752Y-54580972D01*
X142417800Y-54701925D01*
X142357324Y-54883353D01*
X142357324Y-55004305D01*
X142417800Y-55185734D01*
X142478276Y-55246210D01*
X143627324Y-56395258D02*
X143627324Y-55790496D01*
X142357324Y-55790496D01*
X117658848Y-53250496D02*
X117719324Y-53431924D01*
X117719324Y-53734305D01*
X117658848Y-53855258D01*
X117598371Y-53915734D01*
X117477419Y-53976210D01*
X117356467Y-53976210D01*
X117235514Y-53915734D01*
X117175038Y-53855258D01*
X117114562Y-53734305D01*
X117054086Y-53492401D01*
X116993610Y-53371448D01*
X116933133Y-53310972D01*
X116812181Y-53250496D01*
X116691229Y-53250496D01*
X116570276Y-53310972D01*
X116509800Y-53371448D01*
X116449324Y-53492401D01*
X116449324Y-53794781D01*
X116509800Y-53976210D01*
X117598371Y-55246210D02*
X117658848Y-55185734D01*
X117719324Y-55004305D01*
X117719324Y-54883353D01*
X117658848Y-54701925D01*
X117537895Y-54580972D01*
X117416943Y-54520496D01*
X117175038Y-54460020D01*
X116993610Y-54460020D01*
X116751705Y-54520496D01*
X116630752Y-54580972D01*
X116509800Y-54701925D01*
X116449324Y-54883353D01*
X116449324Y-55004305D01*
X116509800Y-55185734D01*
X116570276Y-55246210D01*
X117719324Y-56395258D02*
X117719324Y-55790496D01*
X116449324Y-55790496D01*
X192893648Y-104579058D02*
X192954124Y-104760486D01*
X192954124Y-105062867D01*
X192893648Y-105183820D01*
X192833171Y-105244296D01*
X192712219Y-105304772D01*
X192591267Y-105304772D01*
X192470314Y-105244296D01*
X192409838Y-105183820D01*
X192349362Y-105062867D01*
X192288886Y-104820963D01*
X192228410Y-104700010D01*
X192167933Y-104639534D01*
X192046981Y-104579058D01*
X191926029Y-104579058D01*
X191805076Y-104639534D01*
X191744600Y-104700010D01*
X191684124Y-104820963D01*
X191684124Y-105123343D01*
X191744600Y-105304772D01*
X192954124Y-105849058D02*
X191684124Y-105849058D01*
X191684124Y-106151439D01*
X191744600Y-106332867D01*
X191865552Y-106453820D01*
X191986505Y-106514296D01*
X192228410Y-106574772D01*
X192409838Y-106574772D01*
X192651743Y-106514296D01*
X192772695Y-106453820D01*
X192893648Y-106332867D01*
X192954124Y-106151439D01*
X192954124Y-105849058D01*
X192591267Y-107058582D02*
X192591267Y-107663344D01*
X192954124Y-106937629D02*
X191684124Y-107360963D01*
X192954124Y-107784296D01*
X166985648Y-104579058D02*
X167046124Y-104760486D01*
X167046124Y-105062867D01*
X166985648Y-105183820D01*
X166925171Y-105244296D01*
X166804219Y-105304772D01*
X166683267Y-105304772D01*
X166562314Y-105244296D01*
X166501838Y-105183820D01*
X166441362Y-105062867D01*
X166380886Y-104820963D01*
X166320410Y-104700010D01*
X166259933Y-104639534D01*
X166138981Y-104579058D01*
X166018029Y-104579058D01*
X165897076Y-104639534D01*
X165836600Y-104700010D01*
X165776124Y-104820963D01*
X165776124Y-105123343D01*
X165836600Y-105304772D01*
X167046124Y-105849058D02*
X165776124Y-105849058D01*
X165776124Y-106151439D01*
X165836600Y-106332867D01*
X165957552Y-106453820D01*
X166078505Y-106514296D01*
X166320410Y-106574772D01*
X166501838Y-106574772D01*
X166743743Y-106514296D01*
X166864695Y-106453820D01*
X166985648Y-106332867D01*
X167046124Y-106151439D01*
X167046124Y-105849058D01*
X166683267Y-107058582D02*
X166683267Y-107663344D01*
X167046124Y-106937629D02*
X165776124Y-107360963D01*
X167046124Y-107784296D01*
X141077648Y-104579058D02*
X141138124Y-104760486D01*
X141138124Y-105062867D01*
X141077648Y-105183820D01*
X141017171Y-105244296D01*
X140896219Y-105304772D01*
X140775267Y-105304772D01*
X140654314Y-105244296D01*
X140593838Y-105183820D01*
X140533362Y-105062867D01*
X140472886Y-104820963D01*
X140412410Y-104700010D01*
X140351933Y-104639534D01*
X140230981Y-104579058D01*
X140110029Y-104579058D01*
X139989076Y-104639534D01*
X139928600Y-104700010D01*
X139868124Y-104820963D01*
X139868124Y-105123343D01*
X139928600Y-105304772D01*
X141138124Y-105849058D02*
X139868124Y-105849058D01*
X139868124Y-106151439D01*
X139928600Y-106332867D01*
X140049552Y-106453820D01*
X140170505Y-106514296D01*
X140412410Y-106574772D01*
X140593838Y-106574772D01*
X140835743Y-106514296D01*
X140956695Y-106453820D01*
X141077648Y-106332867D01*
X141138124Y-106151439D01*
X141138124Y-105849058D01*
X140775267Y-107058582D02*
X140775267Y-107663344D01*
X141138124Y-106937629D02*
X139868124Y-107360963D01*
X141138124Y-107784296D01*
X115169648Y-104579058D02*
X115230124Y-104760486D01*
X115230124Y-105062867D01*
X115169648Y-105183820D01*
X115109171Y-105244296D01*
X114988219Y-105304772D01*
X114867267Y-105304772D01*
X114746314Y-105244296D01*
X114685838Y-105183820D01*
X114625362Y-105062867D01*
X114564886Y-104820963D01*
X114504410Y-104700010D01*
X114443933Y-104639534D01*
X114322981Y-104579058D01*
X114202029Y-104579058D01*
X114081076Y-104639534D01*
X114020600Y-104700010D01*
X113960124Y-104820963D01*
X113960124Y-105123343D01*
X114020600Y-105304772D01*
X115230124Y-105849058D02*
X113960124Y-105849058D01*
X113960124Y-106151439D01*
X114020600Y-106332867D01*
X114141552Y-106453820D01*
X114262505Y-106514296D01*
X114504410Y-106574772D01*
X114685838Y-106574772D01*
X114927743Y-106514296D01*
X115048695Y-106453820D01*
X115169648Y-106332867D01*
X115230124Y-106151439D01*
X115230124Y-105849058D01*
X114867267Y-107058582D02*
X114867267Y-107663344D01*
X115230124Y-106937629D02*
X113960124Y-107360963D01*
X115230124Y-107784296D01*
X89261648Y-104579058D02*
X89322124Y-104760486D01*
X89322124Y-105062867D01*
X89261648Y-105183820D01*
X89201171Y-105244296D01*
X89080219Y-105304772D01*
X88959267Y-105304772D01*
X88838314Y-105244296D01*
X88777838Y-105183820D01*
X88717362Y-105062867D01*
X88656886Y-104820963D01*
X88596410Y-104700010D01*
X88535933Y-104639534D01*
X88414981Y-104579058D01*
X88294029Y-104579058D01*
X88173076Y-104639534D01*
X88112600Y-104700010D01*
X88052124Y-104820963D01*
X88052124Y-105123343D01*
X88112600Y-105304772D01*
X89322124Y-105849058D02*
X88052124Y-105849058D01*
X88052124Y-106151439D01*
X88112600Y-106332867D01*
X88233552Y-106453820D01*
X88354505Y-106514296D01*
X88596410Y-106574772D01*
X88777838Y-106574772D01*
X89019743Y-106514296D01*
X89140695Y-106453820D01*
X89261648Y-106332867D01*
X89322124Y-106151439D01*
X89322124Y-105849058D01*
X88959267Y-107058582D02*
X88959267Y-107663344D01*
X89322124Y-106937629D02*
X88052124Y-107360963D01*
X89322124Y-107784296D01*
X192893648Y-53271058D02*
X192954124Y-53452486D01*
X192954124Y-53754867D01*
X192893648Y-53875820D01*
X192833171Y-53936296D01*
X192712219Y-53996772D01*
X192591267Y-53996772D01*
X192470314Y-53936296D01*
X192409838Y-53875820D01*
X192349362Y-53754867D01*
X192288886Y-53512963D01*
X192228410Y-53392010D01*
X192167933Y-53331534D01*
X192046981Y-53271058D01*
X191926029Y-53271058D01*
X191805076Y-53331534D01*
X191744600Y-53392010D01*
X191684124Y-53512963D01*
X191684124Y-53815343D01*
X191744600Y-53996772D01*
X192954124Y-54541058D02*
X191684124Y-54541058D01*
X191684124Y-54843439D01*
X191744600Y-55024867D01*
X191865552Y-55145820D01*
X191986505Y-55206296D01*
X192228410Y-55266772D01*
X192409838Y-55266772D01*
X192651743Y-55206296D01*
X192772695Y-55145820D01*
X192893648Y-55024867D01*
X192954124Y-54843439D01*
X192954124Y-54541058D01*
X192591267Y-55750582D02*
X192591267Y-56355344D01*
X192954124Y-55629629D02*
X191684124Y-56052963D01*
X192954124Y-56476296D01*
X166985648Y-53271058D02*
X167046124Y-53452486D01*
X167046124Y-53754867D01*
X166985648Y-53875820D01*
X166925171Y-53936296D01*
X166804219Y-53996772D01*
X166683267Y-53996772D01*
X166562314Y-53936296D01*
X166501838Y-53875820D01*
X166441362Y-53754867D01*
X166380886Y-53512963D01*
X166320410Y-53392010D01*
X166259933Y-53331534D01*
X166138981Y-53271058D01*
X166018029Y-53271058D01*
X165897076Y-53331534D01*
X165836600Y-53392010D01*
X165776124Y-53512963D01*
X165776124Y-53815343D01*
X165836600Y-53996772D01*
X167046124Y-54541058D02*
X165776124Y-54541058D01*
X165776124Y-54843439D01*
X165836600Y-55024867D01*
X165957552Y-55145820D01*
X166078505Y-55206296D01*
X166320410Y-55266772D01*
X166501838Y-55266772D01*
X166743743Y-55206296D01*
X166864695Y-55145820D01*
X166985648Y-55024867D01*
X167046124Y-54843439D01*
X167046124Y-54541058D01*
X166683267Y-55750582D02*
X166683267Y-56355344D01*
X167046124Y-55629629D02*
X165776124Y-56052963D01*
X167046124Y-56476296D01*
X141077648Y-53271058D02*
X141138124Y-53452486D01*
X141138124Y-53754867D01*
X141077648Y-53875820D01*
X141017171Y-53936296D01*
X140896219Y-53996772D01*
X140775267Y-53996772D01*
X140654314Y-53936296D01*
X140593838Y-53875820D01*
X140533362Y-53754867D01*
X140472886Y-53512963D01*
X140412410Y-53392010D01*
X140351933Y-53331534D01*
X140230981Y-53271058D01*
X140110029Y-53271058D01*
X139989076Y-53331534D01*
X139928600Y-53392010D01*
X139868124Y-53512963D01*
X139868124Y-53815343D01*
X139928600Y-53996772D01*
X141138124Y-54541058D02*
X139868124Y-54541058D01*
X139868124Y-54843439D01*
X139928600Y-55024867D01*
X140049552Y-55145820D01*
X140170505Y-55206296D01*
X140412410Y-55266772D01*
X140593838Y-55266772D01*
X140835743Y-55206296D01*
X140956695Y-55145820D01*
X141077648Y-55024867D01*
X141138124Y-54843439D01*
X141138124Y-54541058D01*
X140775267Y-55750582D02*
X140775267Y-56355344D01*
X141138124Y-55629629D02*
X139868124Y-56052963D01*
X141138124Y-56476296D01*
X115169648Y-53271058D02*
X115230124Y-53452486D01*
X115230124Y-53754867D01*
X115169648Y-53875820D01*
X115109171Y-53936296D01*
X114988219Y-53996772D01*
X114867267Y-53996772D01*
X114746314Y-53936296D01*
X114685838Y-53875820D01*
X114625362Y-53754867D01*
X114564886Y-53512963D01*
X114504410Y-53392010D01*
X114443933Y-53331534D01*
X114322981Y-53271058D01*
X114202029Y-53271058D01*
X114081076Y-53331534D01*
X114020600Y-53392010D01*
X113960124Y-53512963D01*
X113960124Y-53815343D01*
X114020600Y-53996772D01*
X115230124Y-54541058D02*
X113960124Y-54541058D01*
X113960124Y-54843439D01*
X114020600Y-55024867D01*
X114141552Y-55145820D01*
X114262505Y-55206296D01*
X114504410Y-55266772D01*
X114685838Y-55266772D01*
X114927743Y-55206296D01*
X115048695Y-55145820D01*
X115169648Y-55024867D01*
X115230124Y-54843439D01*
X115230124Y-54541058D01*
X114867267Y-55750582D02*
X114867267Y-56355344D01*
X115230124Y-55629629D02*
X113960124Y-56052963D01*
X115230124Y-56476296D01*
X192338475Y-138299976D02*
X192459428Y-138239500D01*
X192580380Y-138118548D01*
X192761809Y-137937119D01*
X192882761Y-137876643D01*
X193003713Y-137876643D01*
X192943237Y-138179024D02*
X193064190Y-138118548D01*
X193185142Y-137997595D01*
X193245618Y-137755690D01*
X193245618Y-137332357D01*
X193185142Y-137090452D01*
X193064190Y-136969500D01*
X192943237Y-136909024D01*
X192701333Y-136909024D01*
X192580380Y-136969500D01*
X192459428Y-137090452D01*
X192398952Y-137332357D01*
X192398952Y-137755690D01*
X192459428Y-137997595D01*
X192580380Y-138118548D01*
X192701333Y-138179024D01*
X192943237Y-138179024D01*
X191975618Y-137332357D02*
X191733714Y-138179024D01*
X191491809Y-137574262D01*
X191249904Y-138179024D01*
X191007999Y-137332357D01*
X190524190Y-138179024D02*
X190524190Y-137332357D01*
X190524190Y-136909024D02*
X190584666Y-136969500D01*
X190524190Y-137029976D01*
X190463714Y-136969500D01*
X190524190Y-136909024D01*
X190524190Y-137029976D01*
X189919428Y-138179024D02*
X189919428Y-137332357D01*
X189919428Y-136909024D02*
X189979904Y-136969500D01*
X189919428Y-137029976D01*
X189858952Y-136969500D01*
X189919428Y-136909024D01*
X189919428Y-137029976D01*
X188770380Y-138118548D02*
X188891333Y-138179024D01*
X189133237Y-138179024D01*
X189254190Y-138118548D01*
X189314666Y-138058071D01*
X189375142Y-137937119D01*
X189375142Y-137574262D01*
X189314666Y-137453310D01*
X189254190Y-137392833D01*
X189133237Y-137332357D01*
X188891333Y-137332357D01*
X188770380Y-137392833D01*
X193910857Y-139068024D02*
X193910857Y-139975167D01*
X193971333Y-140156595D01*
X194092285Y-140277548D01*
X194273714Y-140338024D01*
X194394666Y-140338024D01*
X193124666Y-140338024D02*
X193245619Y-140277548D01*
X193306095Y-140217071D01*
X193366571Y-140096119D01*
X193366571Y-139733262D01*
X193306095Y-139612310D01*
X193245619Y-139551833D01*
X193124666Y-139491357D01*
X192943238Y-139491357D01*
X192822286Y-139551833D01*
X192761809Y-139612310D01*
X192701333Y-139733262D01*
X192701333Y-140096119D01*
X192761809Y-140217071D01*
X192822286Y-140277548D01*
X192943238Y-140338024D01*
X193124666Y-140338024D01*
X192277999Y-139491357D02*
X191975618Y-140338024D01*
X191673238Y-139491357D02*
X191975618Y-140338024D01*
X192096571Y-140640405D01*
X192157047Y-140700881D01*
X192277999Y-140761357D01*
X191249904Y-140277548D02*
X191128952Y-140338024D01*
X190887047Y-140338024D01*
X190766095Y-140277548D01*
X190705619Y-140156595D01*
X190705619Y-140096119D01*
X190766095Y-139975167D01*
X190887047Y-139914690D01*
X191068476Y-139914690D01*
X191189428Y-139854214D01*
X191249904Y-139733262D01*
X191249904Y-139672786D01*
X191189428Y-139551833D01*
X191068476Y-139491357D01*
X190887047Y-139491357D01*
X190766095Y-139551833D01*
X190342762Y-139491357D02*
X189858952Y-139491357D01*
X190161333Y-139068024D02*
X190161333Y-140156595D01*
X190100857Y-140277548D01*
X189979904Y-140338024D01*
X189858952Y-140338024D01*
X189435619Y-140338024D02*
X189435619Y-139491357D01*
X189435619Y-139068024D02*
X189496095Y-139128500D01*
X189435619Y-139188976D01*
X189375143Y-139128500D01*
X189435619Y-139068024D01*
X189435619Y-139188976D01*
X188830857Y-140338024D02*
X188830857Y-139491357D01*
X188830857Y-139068024D02*
X188891333Y-139128500D01*
X188830857Y-139188976D01*
X188770381Y-139128500D01*
X188830857Y-139068024D01*
X188830857Y-139188976D01*
X187681809Y-140277548D02*
X187802762Y-140338024D01*
X188044666Y-140338024D01*
X188165619Y-140277548D01*
X188226095Y-140217071D01*
X188286571Y-140096119D01*
X188286571Y-139733262D01*
X188226095Y-139612310D01*
X188165619Y-139551833D01*
X188044666Y-139491357D01*
X187802762Y-139491357D01*
X187681809Y-139551833D01*
X166430475Y-138299976D02*
X166551428Y-138239500D01*
X166672380Y-138118548D01*
X166853809Y-137937119D01*
X166974761Y-137876643D01*
X167095713Y-137876643D01*
X167035237Y-138179024D02*
X167156190Y-138118548D01*
X167277142Y-137997595D01*
X167337618Y-137755690D01*
X167337618Y-137332357D01*
X167277142Y-137090452D01*
X167156190Y-136969500D01*
X167035237Y-136909024D01*
X166793333Y-136909024D01*
X166672380Y-136969500D01*
X166551428Y-137090452D01*
X166490952Y-137332357D01*
X166490952Y-137755690D01*
X166551428Y-137997595D01*
X166672380Y-138118548D01*
X166793333Y-138179024D01*
X167035237Y-138179024D01*
X166067618Y-137332357D02*
X165825714Y-138179024D01*
X165583809Y-137574262D01*
X165341904Y-138179024D01*
X165099999Y-137332357D01*
X164616190Y-138179024D02*
X164616190Y-137332357D01*
X164616190Y-136909024D02*
X164676666Y-136969500D01*
X164616190Y-137029976D01*
X164555714Y-136969500D01*
X164616190Y-136909024D01*
X164616190Y-137029976D01*
X164011428Y-138179024D02*
X164011428Y-137332357D01*
X164011428Y-136909024D02*
X164071904Y-136969500D01*
X164011428Y-137029976D01*
X163950952Y-136969500D01*
X164011428Y-136909024D01*
X164011428Y-137029976D01*
X162862380Y-138118548D02*
X162983333Y-138179024D01*
X163225237Y-138179024D01*
X163346190Y-138118548D01*
X163406666Y-138058071D01*
X163467142Y-137937119D01*
X163467142Y-137574262D01*
X163406666Y-137453310D01*
X163346190Y-137392833D01*
X163225237Y-137332357D01*
X162983333Y-137332357D01*
X162862380Y-137392833D01*
X168002857Y-139068024D02*
X168002857Y-139975167D01*
X168063333Y-140156595D01*
X168184285Y-140277548D01*
X168365714Y-140338024D01*
X168486666Y-140338024D01*
X167216666Y-140338024D02*
X167337619Y-140277548D01*
X167398095Y-140217071D01*
X167458571Y-140096119D01*
X167458571Y-139733262D01*
X167398095Y-139612310D01*
X167337619Y-139551833D01*
X167216666Y-139491357D01*
X167035238Y-139491357D01*
X166914286Y-139551833D01*
X166853809Y-139612310D01*
X166793333Y-139733262D01*
X166793333Y-140096119D01*
X166853809Y-140217071D01*
X166914286Y-140277548D01*
X167035238Y-140338024D01*
X167216666Y-140338024D01*
X166369999Y-139491357D02*
X166067618Y-140338024D01*
X165765238Y-139491357D02*
X166067618Y-140338024D01*
X166188571Y-140640405D01*
X166249047Y-140700881D01*
X166369999Y-140761357D01*
X165341904Y-140277548D02*
X165220952Y-140338024D01*
X164979047Y-140338024D01*
X164858095Y-140277548D01*
X164797619Y-140156595D01*
X164797619Y-140096119D01*
X164858095Y-139975167D01*
X164979047Y-139914690D01*
X165160476Y-139914690D01*
X165281428Y-139854214D01*
X165341904Y-139733262D01*
X165341904Y-139672786D01*
X165281428Y-139551833D01*
X165160476Y-139491357D01*
X164979047Y-139491357D01*
X164858095Y-139551833D01*
X164434762Y-139491357D02*
X163950952Y-139491357D01*
X164253333Y-139068024D02*
X164253333Y-140156595D01*
X164192857Y-140277548D01*
X164071904Y-140338024D01*
X163950952Y-140338024D01*
X163527619Y-140338024D02*
X163527619Y-139491357D01*
X163527619Y-139068024D02*
X163588095Y-139128500D01*
X163527619Y-139188976D01*
X163467143Y-139128500D01*
X163527619Y-139068024D01*
X163527619Y-139188976D01*
X162922857Y-140338024D02*
X162922857Y-139491357D01*
X162922857Y-139068024D02*
X162983333Y-139128500D01*
X162922857Y-139188976D01*
X162862381Y-139128500D01*
X162922857Y-139068024D01*
X162922857Y-139188976D01*
X161773809Y-140277548D02*
X161894762Y-140338024D01*
X162136666Y-140338024D01*
X162257619Y-140277548D01*
X162318095Y-140217071D01*
X162378571Y-140096119D01*
X162378571Y-139733262D01*
X162318095Y-139612310D01*
X162257619Y-139551833D01*
X162136666Y-139491357D01*
X161894762Y-139491357D01*
X161773809Y-139551833D01*
X140522475Y-138299976D02*
X140643428Y-138239500D01*
X140764380Y-138118548D01*
X140945809Y-137937119D01*
X141066761Y-137876643D01*
X141187713Y-137876643D01*
X141127237Y-138179024D02*
X141248190Y-138118548D01*
X141369142Y-137997595D01*
X141429618Y-137755690D01*
X141429618Y-137332357D01*
X141369142Y-137090452D01*
X141248190Y-136969500D01*
X141127237Y-136909024D01*
X140885333Y-136909024D01*
X140764380Y-136969500D01*
X140643428Y-137090452D01*
X140582952Y-137332357D01*
X140582952Y-137755690D01*
X140643428Y-137997595D01*
X140764380Y-138118548D01*
X140885333Y-138179024D01*
X141127237Y-138179024D01*
X140159618Y-137332357D02*
X139917714Y-138179024D01*
X139675809Y-137574262D01*
X139433904Y-138179024D01*
X139191999Y-137332357D01*
X138708190Y-138179024D02*
X138708190Y-137332357D01*
X138708190Y-136909024D02*
X138768666Y-136969500D01*
X138708190Y-137029976D01*
X138647714Y-136969500D01*
X138708190Y-136909024D01*
X138708190Y-137029976D01*
X138103428Y-138179024D02*
X138103428Y-137332357D01*
X138103428Y-136909024D02*
X138163904Y-136969500D01*
X138103428Y-137029976D01*
X138042952Y-136969500D01*
X138103428Y-136909024D01*
X138103428Y-137029976D01*
X136954380Y-138118548D02*
X137075333Y-138179024D01*
X137317237Y-138179024D01*
X137438190Y-138118548D01*
X137498666Y-138058071D01*
X137559142Y-137937119D01*
X137559142Y-137574262D01*
X137498666Y-137453310D01*
X137438190Y-137392833D01*
X137317237Y-137332357D01*
X137075333Y-137332357D01*
X136954380Y-137392833D01*
X142094857Y-139068024D02*
X142094857Y-139975167D01*
X142155333Y-140156595D01*
X142276285Y-140277548D01*
X142457714Y-140338024D01*
X142578666Y-140338024D01*
X141308666Y-140338024D02*
X141429619Y-140277548D01*
X141490095Y-140217071D01*
X141550571Y-140096119D01*
X141550571Y-139733262D01*
X141490095Y-139612310D01*
X141429619Y-139551833D01*
X141308666Y-139491357D01*
X141127238Y-139491357D01*
X141006286Y-139551833D01*
X140945809Y-139612310D01*
X140885333Y-139733262D01*
X140885333Y-140096119D01*
X140945809Y-140217071D01*
X141006286Y-140277548D01*
X141127238Y-140338024D01*
X141308666Y-140338024D01*
X140461999Y-139491357D02*
X140159618Y-140338024D01*
X139857238Y-139491357D02*
X140159618Y-140338024D01*
X140280571Y-140640405D01*
X140341047Y-140700881D01*
X140461999Y-140761357D01*
X139433904Y-140277548D02*
X139312952Y-140338024D01*
X139071047Y-140338024D01*
X138950095Y-140277548D01*
X138889619Y-140156595D01*
X138889619Y-140096119D01*
X138950095Y-139975167D01*
X139071047Y-139914690D01*
X139252476Y-139914690D01*
X139373428Y-139854214D01*
X139433904Y-139733262D01*
X139433904Y-139672786D01*
X139373428Y-139551833D01*
X139252476Y-139491357D01*
X139071047Y-139491357D01*
X138950095Y-139551833D01*
X138526762Y-139491357D02*
X138042952Y-139491357D01*
X138345333Y-139068024D02*
X138345333Y-140156595D01*
X138284857Y-140277548D01*
X138163904Y-140338024D01*
X138042952Y-140338024D01*
X137619619Y-140338024D02*
X137619619Y-139491357D01*
X137619619Y-139068024D02*
X137680095Y-139128500D01*
X137619619Y-139188976D01*
X137559143Y-139128500D01*
X137619619Y-139068024D01*
X137619619Y-139188976D01*
X137014857Y-140338024D02*
X137014857Y-139491357D01*
X137014857Y-139068024D02*
X137075333Y-139128500D01*
X137014857Y-139188976D01*
X136954381Y-139128500D01*
X137014857Y-139068024D01*
X137014857Y-139188976D01*
X135865809Y-140277548D02*
X135986762Y-140338024D01*
X136228666Y-140338024D01*
X136349619Y-140277548D01*
X136410095Y-140217071D01*
X136470571Y-140096119D01*
X136470571Y-139733262D01*
X136410095Y-139612310D01*
X136349619Y-139551833D01*
X136228666Y-139491357D01*
X135986762Y-139491357D01*
X135865809Y-139551833D01*
X114614475Y-138299976D02*
X114735428Y-138239500D01*
X114856380Y-138118548D01*
X115037809Y-137937119D01*
X115158761Y-137876643D01*
X115279713Y-137876643D01*
X115219237Y-138179024D02*
X115340190Y-138118548D01*
X115461142Y-137997595D01*
X115521618Y-137755690D01*
X115521618Y-137332357D01*
X115461142Y-137090452D01*
X115340190Y-136969500D01*
X115219237Y-136909024D01*
X114977333Y-136909024D01*
X114856380Y-136969500D01*
X114735428Y-137090452D01*
X114674952Y-137332357D01*
X114674952Y-137755690D01*
X114735428Y-137997595D01*
X114856380Y-138118548D01*
X114977333Y-138179024D01*
X115219237Y-138179024D01*
X114251618Y-137332357D02*
X114009714Y-138179024D01*
X113767809Y-137574262D01*
X113525904Y-138179024D01*
X113283999Y-137332357D01*
X112800190Y-138179024D02*
X112800190Y-137332357D01*
X112800190Y-136909024D02*
X112860666Y-136969500D01*
X112800190Y-137029976D01*
X112739714Y-136969500D01*
X112800190Y-136909024D01*
X112800190Y-137029976D01*
X112195428Y-138179024D02*
X112195428Y-137332357D01*
X112195428Y-136909024D02*
X112255904Y-136969500D01*
X112195428Y-137029976D01*
X112134952Y-136969500D01*
X112195428Y-136909024D01*
X112195428Y-137029976D01*
X111046380Y-138118548D02*
X111167333Y-138179024D01*
X111409237Y-138179024D01*
X111530190Y-138118548D01*
X111590666Y-138058071D01*
X111651142Y-137937119D01*
X111651142Y-137574262D01*
X111590666Y-137453310D01*
X111530190Y-137392833D01*
X111409237Y-137332357D01*
X111167333Y-137332357D01*
X111046380Y-137392833D01*
X116186857Y-139068024D02*
X116186857Y-139975167D01*
X116247333Y-140156595D01*
X116368285Y-140277548D01*
X116549714Y-140338024D01*
X116670666Y-140338024D01*
X115400666Y-140338024D02*
X115521619Y-140277548D01*
X115582095Y-140217071D01*
X115642571Y-140096119D01*
X115642571Y-139733262D01*
X115582095Y-139612310D01*
X115521619Y-139551833D01*
X115400666Y-139491357D01*
X115219238Y-139491357D01*
X115098286Y-139551833D01*
X115037809Y-139612310D01*
X114977333Y-139733262D01*
X114977333Y-140096119D01*
X115037809Y-140217071D01*
X115098286Y-140277548D01*
X115219238Y-140338024D01*
X115400666Y-140338024D01*
X114553999Y-139491357D02*
X114251618Y-140338024D01*
X113949238Y-139491357D02*
X114251618Y-140338024D01*
X114372571Y-140640405D01*
X114433047Y-140700881D01*
X114553999Y-140761357D01*
X113525904Y-140277548D02*
X113404952Y-140338024D01*
X113163047Y-140338024D01*
X113042095Y-140277548D01*
X112981619Y-140156595D01*
X112981619Y-140096119D01*
X113042095Y-139975167D01*
X113163047Y-139914690D01*
X113344476Y-139914690D01*
X113465428Y-139854214D01*
X113525904Y-139733262D01*
X113525904Y-139672786D01*
X113465428Y-139551833D01*
X113344476Y-139491357D01*
X113163047Y-139491357D01*
X113042095Y-139551833D01*
X112618762Y-139491357D02*
X112134952Y-139491357D01*
X112437333Y-139068024D02*
X112437333Y-140156595D01*
X112376857Y-140277548D01*
X112255904Y-140338024D01*
X112134952Y-140338024D01*
X111711619Y-140338024D02*
X111711619Y-139491357D01*
X111711619Y-139068024D02*
X111772095Y-139128500D01*
X111711619Y-139188976D01*
X111651143Y-139128500D01*
X111711619Y-139068024D01*
X111711619Y-139188976D01*
X111106857Y-140338024D02*
X111106857Y-139491357D01*
X111106857Y-139068024D02*
X111167333Y-139128500D01*
X111106857Y-139188976D01*
X111046381Y-139128500D01*
X111106857Y-139068024D01*
X111106857Y-139188976D01*
X109957809Y-140277548D02*
X110078762Y-140338024D01*
X110320666Y-140338024D01*
X110441619Y-140277548D01*
X110502095Y-140217071D01*
X110562571Y-140096119D01*
X110562571Y-139733262D01*
X110502095Y-139612310D01*
X110441619Y-139551833D01*
X110320666Y-139491357D01*
X110078762Y-139491357D01*
X109957809Y-139551833D01*
X88706475Y-138299976D02*
X88827428Y-138239500D01*
X88948380Y-138118548D01*
X89129809Y-137937119D01*
X89250761Y-137876643D01*
X89371713Y-137876643D01*
X89311237Y-138179024D02*
X89432190Y-138118548D01*
X89553142Y-137997595D01*
X89613618Y-137755690D01*
X89613618Y-137332357D01*
X89553142Y-137090452D01*
X89432190Y-136969500D01*
X89311237Y-136909024D01*
X89069333Y-136909024D01*
X88948380Y-136969500D01*
X88827428Y-137090452D01*
X88766952Y-137332357D01*
X88766952Y-137755690D01*
X88827428Y-137997595D01*
X88948380Y-138118548D01*
X89069333Y-138179024D01*
X89311237Y-138179024D01*
X88343618Y-137332357D02*
X88101714Y-138179024D01*
X87859809Y-137574262D01*
X87617904Y-138179024D01*
X87375999Y-137332357D01*
X86892190Y-138179024D02*
X86892190Y-137332357D01*
X86892190Y-136909024D02*
X86952666Y-136969500D01*
X86892190Y-137029976D01*
X86831714Y-136969500D01*
X86892190Y-136909024D01*
X86892190Y-137029976D01*
X86287428Y-138179024D02*
X86287428Y-137332357D01*
X86287428Y-136909024D02*
X86347904Y-136969500D01*
X86287428Y-137029976D01*
X86226952Y-136969500D01*
X86287428Y-136909024D01*
X86287428Y-137029976D01*
X85138380Y-138118548D02*
X85259333Y-138179024D01*
X85501237Y-138179024D01*
X85622190Y-138118548D01*
X85682666Y-138058071D01*
X85743142Y-137937119D01*
X85743142Y-137574262D01*
X85682666Y-137453310D01*
X85622190Y-137392833D01*
X85501237Y-137332357D01*
X85259333Y-137332357D01*
X85138380Y-137392833D01*
X90278857Y-139068024D02*
X90278857Y-139975167D01*
X90339333Y-140156595D01*
X90460285Y-140277548D01*
X90641714Y-140338024D01*
X90762666Y-140338024D01*
X89492666Y-140338024D02*
X89613619Y-140277548D01*
X89674095Y-140217071D01*
X89734571Y-140096119D01*
X89734571Y-139733262D01*
X89674095Y-139612310D01*
X89613619Y-139551833D01*
X89492666Y-139491357D01*
X89311238Y-139491357D01*
X89190286Y-139551833D01*
X89129809Y-139612310D01*
X89069333Y-139733262D01*
X89069333Y-140096119D01*
X89129809Y-140217071D01*
X89190286Y-140277548D01*
X89311238Y-140338024D01*
X89492666Y-140338024D01*
X88645999Y-139491357D02*
X88343618Y-140338024D01*
X88041238Y-139491357D02*
X88343618Y-140338024D01*
X88464571Y-140640405D01*
X88525047Y-140700881D01*
X88645999Y-140761357D01*
X87617904Y-140277548D02*
X87496952Y-140338024D01*
X87255047Y-140338024D01*
X87134095Y-140277548D01*
X87073619Y-140156595D01*
X87073619Y-140096119D01*
X87134095Y-139975167D01*
X87255047Y-139914690D01*
X87436476Y-139914690D01*
X87557428Y-139854214D01*
X87617904Y-139733262D01*
X87617904Y-139672786D01*
X87557428Y-139551833D01*
X87436476Y-139491357D01*
X87255047Y-139491357D01*
X87134095Y-139551833D01*
X86710762Y-139491357D02*
X86226952Y-139491357D01*
X86529333Y-139068024D02*
X86529333Y-140156595D01*
X86468857Y-140277548D01*
X86347904Y-140338024D01*
X86226952Y-140338024D01*
X85803619Y-140338024D02*
X85803619Y-139491357D01*
X85803619Y-139068024D02*
X85864095Y-139128500D01*
X85803619Y-139188976D01*
X85743143Y-139128500D01*
X85803619Y-139068024D01*
X85803619Y-139188976D01*
X85198857Y-140338024D02*
X85198857Y-139491357D01*
X85198857Y-139068024D02*
X85259333Y-139128500D01*
X85198857Y-139188976D01*
X85138381Y-139128500D01*
X85198857Y-139068024D01*
X85198857Y-139188976D01*
X84049809Y-140277548D02*
X84170762Y-140338024D01*
X84412666Y-140338024D01*
X84533619Y-140277548D01*
X84594095Y-140217071D01*
X84654571Y-140096119D01*
X84654571Y-139733262D01*
X84594095Y-139612310D01*
X84533619Y-139551833D01*
X84412666Y-139491357D01*
X84170762Y-139491357D01*
X84049809Y-139551833D01*
X192338475Y-86991976D02*
X192459428Y-86931500D01*
X192580380Y-86810548D01*
X192761809Y-86629119D01*
X192882761Y-86568643D01*
X193003713Y-86568643D01*
X192943237Y-86871024D02*
X193064190Y-86810548D01*
X193185142Y-86689595D01*
X193245618Y-86447690D01*
X193245618Y-86024357D01*
X193185142Y-85782452D01*
X193064190Y-85661500D01*
X192943237Y-85601024D01*
X192701333Y-85601024D01*
X192580380Y-85661500D01*
X192459428Y-85782452D01*
X192398952Y-86024357D01*
X192398952Y-86447690D01*
X192459428Y-86689595D01*
X192580380Y-86810548D01*
X192701333Y-86871024D01*
X192943237Y-86871024D01*
X191975618Y-86024357D02*
X191733714Y-86871024D01*
X191491809Y-86266262D01*
X191249904Y-86871024D01*
X191007999Y-86024357D01*
X190524190Y-86871024D02*
X190524190Y-86024357D01*
X190524190Y-85601024D02*
X190584666Y-85661500D01*
X190524190Y-85721976D01*
X190463714Y-85661500D01*
X190524190Y-85601024D01*
X190524190Y-85721976D01*
X189919428Y-86871024D02*
X189919428Y-86024357D01*
X189919428Y-85601024D02*
X189979904Y-85661500D01*
X189919428Y-85721976D01*
X189858952Y-85661500D01*
X189919428Y-85601024D01*
X189919428Y-85721976D01*
X188770380Y-86810548D02*
X188891333Y-86871024D01*
X189133237Y-86871024D01*
X189254190Y-86810548D01*
X189314666Y-86750071D01*
X189375142Y-86629119D01*
X189375142Y-86266262D01*
X189314666Y-86145310D01*
X189254190Y-86084833D01*
X189133237Y-86024357D01*
X188891333Y-86024357D01*
X188770380Y-86084833D01*
X193910857Y-87760024D02*
X193910857Y-88667167D01*
X193971333Y-88848595D01*
X194092285Y-88969548D01*
X194273714Y-89030024D01*
X194394666Y-89030024D01*
X193124666Y-89030024D02*
X193245619Y-88969548D01*
X193306095Y-88909071D01*
X193366571Y-88788119D01*
X193366571Y-88425262D01*
X193306095Y-88304310D01*
X193245619Y-88243833D01*
X193124666Y-88183357D01*
X192943238Y-88183357D01*
X192822286Y-88243833D01*
X192761809Y-88304310D01*
X192701333Y-88425262D01*
X192701333Y-88788119D01*
X192761809Y-88909071D01*
X192822286Y-88969548D01*
X192943238Y-89030024D01*
X193124666Y-89030024D01*
X192277999Y-88183357D02*
X191975618Y-89030024D01*
X191673238Y-88183357D02*
X191975618Y-89030024D01*
X192096571Y-89332405D01*
X192157047Y-89392881D01*
X192277999Y-89453357D01*
X191249904Y-88969548D02*
X191128952Y-89030024D01*
X190887047Y-89030024D01*
X190766095Y-88969548D01*
X190705619Y-88848595D01*
X190705619Y-88788119D01*
X190766095Y-88667167D01*
X190887047Y-88606690D01*
X191068476Y-88606690D01*
X191189428Y-88546214D01*
X191249904Y-88425262D01*
X191249904Y-88364786D01*
X191189428Y-88243833D01*
X191068476Y-88183357D01*
X190887047Y-88183357D01*
X190766095Y-88243833D01*
X190342762Y-88183357D02*
X189858952Y-88183357D01*
X190161333Y-87760024D02*
X190161333Y-88848595D01*
X190100857Y-88969548D01*
X189979904Y-89030024D01*
X189858952Y-89030024D01*
X189435619Y-89030024D02*
X189435619Y-88183357D01*
X189435619Y-87760024D02*
X189496095Y-87820500D01*
X189435619Y-87880976D01*
X189375143Y-87820500D01*
X189435619Y-87760024D01*
X189435619Y-87880976D01*
X188830857Y-89030024D02*
X188830857Y-88183357D01*
X188830857Y-87760024D02*
X188891333Y-87820500D01*
X188830857Y-87880976D01*
X188770381Y-87820500D01*
X188830857Y-87760024D01*
X188830857Y-87880976D01*
X187681809Y-88969548D02*
X187802762Y-89030024D01*
X188044666Y-89030024D01*
X188165619Y-88969548D01*
X188226095Y-88909071D01*
X188286571Y-88788119D01*
X188286571Y-88425262D01*
X188226095Y-88304310D01*
X188165619Y-88243833D01*
X188044666Y-88183357D01*
X187802762Y-88183357D01*
X187681809Y-88243833D01*
X166430475Y-86991976D02*
X166551428Y-86931500D01*
X166672380Y-86810548D01*
X166853809Y-86629119D01*
X166974761Y-86568643D01*
X167095713Y-86568643D01*
X167035237Y-86871024D02*
X167156190Y-86810548D01*
X167277142Y-86689595D01*
X167337618Y-86447690D01*
X167337618Y-86024357D01*
X167277142Y-85782452D01*
X167156190Y-85661500D01*
X167035237Y-85601024D01*
X166793333Y-85601024D01*
X166672380Y-85661500D01*
X166551428Y-85782452D01*
X166490952Y-86024357D01*
X166490952Y-86447690D01*
X166551428Y-86689595D01*
X166672380Y-86810548D01*
X166793333Y-86871024D01*
X167035237Y-86871024D01*
X166067618Y-86024357D02*
X165825714Y-86871024D01*
X165583809Y-86266262D01*
X165341904Y-86871024D01*
X165099999Y-86024357D01*
X164616190Y-86871024D02*
X164616190Y-86024357D01*
X164616190Y-85601024D02*
X164676666Y-85661500D01*
X164616190Y-85721976D01*
X164555714Y-85661500D01*
X164616190Y-85601024D01*
X164616190Y-85721976D01*
X164011428Y-86871024D02*
X164011428Y-86024357D01*
X164011428Y-85601024D02*
X164071904Y-85661500D01*
X164011428Y-85721976D01*
X163950952Y-85661500D01*
X164011428Y-85601024D01*
X164011428Y-85721976D01*
X162862380Y-86810548D02*
X162983333Y-86871024D01*
X163225237Y-86871024D01*
X163346190Y-86810548D01*
X163406666Y-86750071D01*
X163467142Y-86629119D01*
X163467142Y-86266262D01*
X163406666Y-86145310D01*
X163346190Y-86084833D01*
X163225237Y-86024357D01*
X162983333Y-86024357D01*
X162862380Y-86084833D01*
X168002857Y-87760024D02*
X168002857Y-88667167D01*
X168063333Y-88848595D01*
X168184285Y-88969548D01*
X168365714Y-89030024D01*
X168486666Y-89030024D01*
X167216666Y-89030024D02*
X167337619Y-88969548D01*
X167398095Y-88909071D01*
X167458571Y-88788119D01*
X167458571Y-88425262D01*
X167398095Y-88304310D01*
X167337619Y-88243833D01*
X167216666Y-88183357D01*
X167035238Y-88183357D01*
X166914286Y-88243833D01*
X166853809Y-88304310D01*
X166793333Y-88425262D01*
X166793333Y-88788119D01*
X166853809Y-88909071D01*
X166914286Y-88969548D01*
X167035238Y-89030024D01*
X167216666Y-89030024D01*
X166369999Y-88183357D02*
X166067618Y-89030024D01*
X165765238Y-88183357D02*
X166067618Y-89030024D01*
X166188571Y-89332405D01*
X166249047Y-89392881D01*
X166369999Y-89453357D01*
X165341904Y-88969548D02*
X165220952Y-89030024D01*
X164979047Y-89030024D01*
X164858095Y-88969548D01*
X164797619Y-88848595D01*
X164797619Y-88788119D01*
X164858095Y-88667167D01*
X164979047Y-88606690D01*
X165160476Y-88606690D01*
X165281428Y-88546214D01*
X165341904Y-88425262D01*
X165341904Y-88364786D01*
X165281428Y-88243833D01*
X165160476Y-88183357D01*
X164979047Y-88183357D01*
X164858095Y-88243833D01*
X164434762Y-88183357D02*
X163950952Y-88183357D01*
X164253333Y-87760024D02*
X164253333Y-88848595D01*
X164192857Y-88969548D01*
X164071904Y-89030024D01*
X163950952Y-89030024D01*
X163527619Y-89030024D02*
X163527619Y-88183357D01*
X163527619Y-87760024D02*
X163588095Y-87820500D01*
X163527619Y-87880976D01*
X163467143Y-87820500D01*
X163527619Y-87760024D01*
X163527619Y-87880976D01*
X162922857Y-89030024D02*
X162922857Y-88183357D01*
X162922857Y-87760024D02*
X162983333Y-87820500D01*
X162922857Y-87880976D01*
X162862381Y-87820500D01*
X162922857Y-87760024D01*
X162922857Y-87880976D01*
X161773809Y-88969548D02*
X161894762Y-89030024D01*
X162136666Y-89030024D01*
X162257619Y-88969548D01*
X162318095Y-88909071D01*
X162378571Y-88788119D01*
X162378571Y-88425262D01*
X162318095Y-88304310D01*
X162257619Y-88243833D01*
X162136666Y-88183357D01*
X161894762Y-88183357D01*
X161773809Y-88243833D01*
X140522475Y-86991976D02*
X140643428Y-86931500D01*
X140764380Y-86810548D01*
X140945809Y-86629119D01*
X141066761Y-86568643D01*
X141187713Y-86568643D01*
X141127237Y-86871024D02*
X141248190Y-86810548D01*
X141369142Y-86689595D01*
X141429618Y-86447690D01*
X141429618Y-86024357D01*
X141369142Y-85782452D01*
X141248190Y-85661500D01*
X141127237Y-85601024D01*
X140885333Y-85601024D01*
X140764380Y-85661500D01*
X140643428Y-85782452D01*
X140582952Y-86024357D01*
X140582952Y-86447690D01*
X140643428Y-86689595D01*
X140764380Y-86810548D01*
X140885333Y-86871024D01*
X141127237Y-86871024D01*
X140159618Y-86024357D02*
X139917714Y-86871024D01*
X139675809Y-86266262D01*
X139433904Y-86871024D01*
X139191999Y-86024357D01*
X138708190Y-86871024D02*
X138708190Y-86024357D01*
X138708190Y-85601024D02*
X138768666Y-85661500D01*
X138708190Y-85721976D01*
X138647714Y-85661500D01*
X138708190Y-85601024D01*
X138708190Y-85721976D01*
X138103428Y-86871024D02*
X138103428Y-86024357D01*
X138103428Y-85601024D02*
X138163904Y-85661500D01*
X138103428Y-85721976D01*
X138042952Y-85661500D01*
X138103428Y-85601024D01*
X138103428Y-85721976D01*
X136954380Y-86810548D02*
X137075333Y-86871024D01*
X137317237Y-86871024D01*
X137438190Y-86810548D01*
X137498666Y-86750071D01*
X137559142Y-86629119D01*
X137559142Y-86266262D01*
X137498666Y-86145310D01*
X137438190Y-86084833D01*
X137317237Y-86024357D01*
X137075333Y-86024357D01*
X136954380Y-86084833D01*
X142094857Y-87760024D02*
X142094857Y-88667167D01*
X142155333Y-88848595D01*
X142276285Y-88969548D01*
X142457714Y-89030024D01*
X142578666Y-89030024D01*
X141308666Y-89030024D02*
X141429619Y-88969548D01*
X141490095Y-88909071D01*
X141550571Y-88788119D01*
X141550571Y-88425262D01*
X141490095Y-88304310D01*
X141429619Y-88243833D01*
X141308666Y-88183357D01*
X141127238Y-88183357D01*
X141006286Y-88243833D01*
X140945809Y-88304310D01*
X140885333Y-88425262D01*
X140885333Y-88788119D01*
X140945809Y-88909071D01*
X141006286Y-88969548D01*
X141127238Y-89030024D01*
X141308666Y-89030024D01*
X140461999Y-88183357D02*
X140159618Y-89030024D01*
X139857238Y-88183357D02*
X140159618Y-89030024D01*
X140280571Y-89332405D01*
X140341047Y-89392881D01*
X140461999Y-89453357D01*
X139433904Y-88969548D02*
X139312952Y-89030024D01*
X139071047Y-89030024D01*
X138950095Y-88969548D01*
X138889619Y-88848595D01*
X138889619Y-88788119D01*
X138950095Y-88667167D01*
X139071047Y-88606690D01*
X139252476Y-88606690D01*
X139373428Y-88546214D01*
X139433904Y-88425262D01*
X139433904Y-88364786D01*
X139373428Y-88243833D01*
X139252476Y-88183357D01*
X139071047Y-88183357D01*
X138950095Y-88243833D01*
X138526762Y-88183357D02*
X138042952Y-88183357D01*
X138345333Y-87760024D02*
X138345333Y-88848595D01*
X138284857Y-88969548D01*
X138163904Y-89030024D01*
X138042952Y-89030024D01*
X137619619Y-89030024D02*
X137619619Y-88183357D01*
X137619619Y-87760024D02*
X137680095Y-87820500D01*
X137619619Y-87880976D01*
X137559143Y-87820500D01*
X137619619Y-87760024D01*
X137619619Y-87880976D01*
X137014857Y-89030024D02*
X137014857Y-88183357D01*
X137014857Y-87760024D02*
X137075333Y-87820500D01*
X137014857Y-87880976D01*
X136954381Y-87820500D01*
X137014857Y-87760024D01*
X137014857Y-87880976D01*
X135865809Y-88969548D02*
X135986762Y-89030024D01*
X136228666Y-89030024D01*
X136349619Y-88969548D01*
X136410095Y-88909071D01*
X136470571Y-88788119D01*
X136470571Y-88425262D01*
X136410095Y-88304310D01*
X136349619Y-88243833D01*
X136228666Y-88183357D01*
X135986762Y-88183357D01*
X135865809Y-88243833D01*
X114614475Y-86991976D02*
X114735428Y-86931500D01*
X114856380Y-86810548D01*
X115037809Y-86629119D01*
X115158761Y-86568643D01*
X115279713Y-86568643D01*
X115219237Y-86871024D02*
X115340190Y-86810548D01*
X115461142Y-86689595D01*
X115521618Y-86447690D01*
X115521618Y-86024357D01*
X115461142Y-85782452D01*
X115340190Y-85661500D01*
X115219237Y-85601024D01*
X114977333Y-85601024D01*
X114856380Y-85661500D01*
X114735428Y-85782452D01*
X114674952Y-86024357D01*
X114674952Y-86447690D01*
X114735428Y-86689595D01*
X114856380Y-86810548D01*
X114977333Y-86871024D01*
X115219237Y-86871024D01*
X114251618Y-86024357D02*
X114009714Y-86871024D01*
X113767809Y-86266262D01*
X113525904Y-86871024D01*
X113283999Y-86024357D01*
X112800190Y-86871024D02*
X112800190Y-86024357D01*
X112800190Y-85601024D02*
X112860666Y-85661500D01*
X112800190Y-85721976D01*
X112739714Y-85661500D01*
X112800190Y-85601024D01*
X112800190Y-85721976D01*
X112195428Y-86871024D02*
X112195428Y-86024357D01*
X112195428Y-85601024D02*
X112255904Y-85661500D01*
X112195428Y-85721976D01*
X112134952Y-85661500D01*
X112195428Y-85601024D01*
X112195428Y-85721976D01*
X111046380Y-86810548D02*
X111167333Y-86871024D01*
X111409237Y-86871024D01*
X111530190Y-86810548D01*
X111590666Y-86750071D01*
X111651142Y-86629119D01*
X111651142Y-86266262D01*
X111590666Y-86145310D01*
X111530190Y-86084833D01*
X111409237Y-86024357D01*
X111167333Y-86024357D01*
X111046380Y-86084833D01*
X116186857Y-87760024D02*
X116186857Y-88667167D01*
X116247333Y-88848595D01*
X116368285Y-88969548D01*
X116549714Y-89030024D01*
X116670666Y-89030024D01*
X115400666Y-89030024D02*
X115521619Y-88969548D01*
X115582095Y-88909071D01*
X115642571Y-88788119D01*
X115642571Y-88425262D01*
X115582095Y-88304310D01*
X115521619Y-88243833D01*
X115400666Y-88183357D01*
X115219238Y-88183357D01*
X115098286Y-88243833D01*
X115037809Y-88304310D01*
X114977333Y-88425262D01*
X114977333Y-88788119D01*
X115037809Y-88909071D01*
X115098286Y-88969548D01*
X115219238Y-89030024D01*
X115400666Y-89030024D01*
X114553999Y-88183357D02*
X114251618Y-89030024D01*
X113949238Y-88183357D02*
X114251618Y-89030024D01*
X114372571Y-89332405D01*
X114433047Y-89392881D01*
X114553999Y-89453357D01*
X113525904Y-88969548D02*
X113404952Y-89030024D01*
X113163047Y-89030024D01*
X113042095Y-88969548D01*
X112981619Y-88848595D01*
X112981619Y-88788119D01*
X113042095Y-88667167D01*
X113163047Y-88606690D01*
X113344476Y-88606690D01*
X113465428Y-88546214D01*
X113525904Y-88425262D01*
X113525904Y-88364786D01*
X113465428Y-88243833D01*
X113344476Y-88183357D01*
X113163047Y-88183357D01*
X113042095Y-88243833D01*
X112618762Y-88183357D02*
X112134952Y-88183357D01*
X112437333Y-87760024D02*
X112437333Y-88848595D01*
X112376857Y-88969548D01*
X112255904Y-89030024D01*
X112134952Y-89030024D01*
X111711619Y-89030024D02*
X111711619Y-88183357D01*
X111711619Y-87760024D02*
X111772095Y-87820500D01*
X111711619Y-87880976D01*
X111651143Y-87820500D01*
X111711619Y-87760024D01*
X111711619Y-87880976D01*
X111106857Y-89030024D02*
X111106857Y-88183357D01*
X111106857Y-87760024D02*
X111167333Y-87820500D01*
X111106857Y-87880976D01*
X111046381Y-87820500D01*
X111106857Y-87760024D01*
X111106857Y-87880976D01*
X109957809Y-88969548D02*
X110078762Y-89030024D01*
X110320666Y-89030024D01*
X110441619Y-88969548D01*
X110502095Y-88909071D01*
X110562571Y-88788119D01*
X110562571Y-88425262D01*
X110502095Y-88304310D01*
X110441619Y-88243833D01*
X110320666Y-88183357D01*
X110078762Y-88183357D01*
X109957809Y-88243833D01*
X194031809Y-117687876D02*
X193064190Y-117687876D01*
X168123809Y-117687876D02*
X167156190Y-117687876D01*
X142215809Y-117687876D02*
X141248190Y-117687876D01*
X116307809Y-117687876D02*
X115340190Y-117687876D01*
X90399809Y-117687876D02*
X89432190Y-117687876D01*
X194031809Y-66379876D02*
X193064190Y-66379876D01*
X168123809Y-66379876D02*
X167156190Y-66379876D01*
X142215809Y-66379876D02*
X141248190Y-66379876D01*
X116307809Y-66379876D02*
X115340190Y-66379876D01*
X194031809Y-112131324D02*
X194031809Y-110861324D01*
X193487523Y-110982276D02*
X193427047Y-110921800D01*
X193306095Y-110861324D01*
X193003714Y-110861324D01*
X192882761Y-110921800D01*
X192822285Y-110982276D01*
X192761809Y-111103229D01*
X192761809Y-111224181D01*
X192822285Y-111405610D01*
X193547999Y-112131324D01*
X192761809Y-112131324D01*
X191491809Y-112010371D02*
X191552285Y-112070848D01*
X191733714Y-112131324D01*
X191854666Y-112131324D01*
X192036094Y-112070848D01*
X192157047Y-111949895D01*
X192217523Y-111828943D01*
X192277999Y-111587038D01*
X192277999Y-111405610D01*
X192217523Y-111163705D01*
X192157047Y-111042752D01*
X192036094Y-110921800D01*
X191854666Y-110861324D01*
X191733714Y-110861324D01*
X191552285Y-110921800D01*
X191491809Y-110982276D01*
X189979904Y-112131324D02*
X189979904Y-110861324D01*
X189496095Y-110861324D01*
X189375142Y-110921800D01*
X189314666Y-110982276D01*
X189254190Y-111103229D01*
X189254190Y-111284657D01*
X189314666Y-111405610D01*
X189375142Y-111466086D01*
X189496095Y-111526562D01*
X189979904Y-111526562D01*
X188709904Y-110861324D02*
X188709904Y-111889419D01*
X188649428Y-112010371D01*
X188588952Y-112070848D01*
X188467999Y-112131324D01*
X188226095Y-112131324D01*
X188105142Y-112070848D01*
X188044666Y-112010371D01*
X187984190Y-111889419D01*
X187984190Y-110861324D01*
X168123809Y-112131324D02*
X168123809Y-110861324D01*
X167579523Y-110982276D02*
X167519047Y-110921800D01*
X167398095Y-110861324D01*
X167095714Y-110861324D01*
X166974761Y-110921800D01*
X166914285Y-110982276D01*
X166853809Y-111103229D01*
X166853809Y-111224181D01*
X166914285Y-111405610D01*
X167639999Y-112131324D01*
X166853809Y-112131324D01*
X165583809Y-112010371D02*
X165644285Y-112070848D01*
X165825714Y-112131324D01*
X165946666Y-112131324D01*
X166128094Y-112070848D01*
X166249047Y-111949895D01*
X166309523Y-111828943D01*
X166369999Y-111587038D01*
X166369999Y-111405610D01*
X166309523Y-111163705D01*
X166249047Y-111042752D01*
X166128094Y-110921800D01*
X165946666Y-110861324D01*
X165825714Y-110861324D01*
X165644285Y-110921800D01*
X165583809Y-110982276D01*
X164071904Y-112131324D02*
X164071904Y-110861324D01*
X163588095Y-110861324D01*
X163467142Y-110921800D01*
X163406666Y-110982276D01*
X163346190Y-111103229D01*
X163346190Y-111284657D01*
X163406666Y-111405610D01*
X163467142Y-111466086D01*
X163588095Y-111526562D01*
X164071904Y-111526562D01*
X162801904Y-110861324D02*
X162801904Y-111889419D01*
X162741428Y-112010371D01*
X162680952Y-112070848D01*
X162559999Y-112131324D01*
X162318095Y-112131324D01*
X162197142Y-112070848D01*
X162136666Y-112010371D01*
X162076190Y-111889419D01*
X162076190Y-110861324D01*
X142215809Y-112131324D02*
X142215809Y-110861324D01*
X141671523Y-110982276D02*
X141611047Y-110921800D01*
X141490095Y-110861324D01*
X141187714Y-110861324D01*
X141066761Y-110921800D01*
X141006285Y-110982276D01*
X140945809Y-111103229D01*
X140945809Y-111224181D01*
X141006285Y-111405610D01*
X141731999Y-112131324D01*
X140945809Y-112131324D01*
X139675809Y-112010371D02*
X139736285Y-112070848D01*
X139917714Y-112131324D01*
X140038666Y-112131324D01*
X140220094Y-112070848D01*
X140341047Y-111949895D01*
X140401523Y-111828943D01*
X140461999Y-111587038D01*
X140461999Y-111405610D01*
X140401523Y-111163705D01*
X140341047Y-111042752D01*
X140220094Y-110921800D01*
X140038666Y-110861324D01*
X139917714Y-110861324D01*
X139736285Y-110921800D01*
X139675809Y-110982276D01*
X138163904Y-112131324D02*
X138163904Y-110861324D01*
X137680095Y-110861324D01*
X137559142Y-110921800D01*
X137498666Y-110982276D01*
X137438190Y-111103229D01*
X137438190Y-111284657D01*
X137498666Y-111405610D01*
X137559142Y-111466086D01*
X137680095Y-111526562D01*
X138163904Y-111526562D01*
X136893904Y-110861324D02*
X136893904Y-111889419D01*
X136833428Y-112010371D01*
X136772952Y-112070848D01*
X136651999Y-112131324D01*
X136410095Y-112131324D01*
X136289142Y-112070848D01*
X136228666Y-112010371D01*
X136168190Y-111889419D01*
X136168190Y-110861324D01*
X116307809Y-112131324D02*
X116307809Y-110861324D01*
X115763523Y-110982276D02*
X115703047Y-110921800D01*
X115582095Y-110861324D01*
X115279714Y-110861324D01*
X115158761Y-110921800D01*
X115098285Y-110982276D01*
X115037809Y-111103229D01*
X115037809Y-111224181D01*
X115098285Y-111405610D01*
X115823999Y-112131324D01*
X115037809Y-112131324D01*
X113767809Y-112010371D02*
X113828285Y-112070848D01*
X114009714Y-112131324D01*
X114130666Y-112131324D01*
X114312094Y-112070848D01*
X114433047Y-111949895D01*
X114493523Y-111828943D01*
X114553999Y-111587038D01*
X114553999Y-111405610D01*
X114493523Y-111163705D01*
X114433047Y-111042752D01*
X114312094Y-110921800D01*
X114130666Y-110861324D01*
X114009714Y-110861324D01*
X113828285Y-110921800D01*
X113767809Y-110982276D01*
X112255904Y-112131324D02*
X112255904Y-110861324D01*
X111772095Y-110861324D01*
X111651142Y-110921800D01*
X111590666Y-110982276D01*
X111530190Y-111103229D01*
X111530190Y-111284657D01*
X111590666Y-111405610D01*
X111651142Y-111466086D01*
X111772095Y-111526562D01*
X112255904Y-111526562D01*
X110985904Y-110861324D02*
X110985904Y-111889419D01*
X110925428Y-112010371D01*
X110864952Y-112070848D01*
X110743999Y-112131324D01*
X110502095Y-112131324D01*
X110381142Y-112070848D01*
X110320666Y-112010371D01*
X110260190Y-111889419D01*
X110260190Y-110861324D01*
X90399809Y-112131324D02*
X90399809Y-110861324D01*
X89855523Y-110982276D02*
X89795047Y-110921800D01*
X89674095Y-110861324D01*
X89371714Y-110861324D01*
X89250761Y-110921800D01*
X89190285Y-110982276D01*
X89129809Y-111103229D01*
X89129809Y-111224181D01*
X89190285Y-111405610D01*
X89915999Y-112131324D01*
X89129809Y-112131324D01*
X87859809Y-112010371D02*
X87920285Y-112070848D01*
X88101714Y-112131324D01*
X88222666Y-112131324D01*
X88404094Y-112070848D01*
X88525047Y-111949895D01*
X88585523Y-111828943D01*
X88645999Y-111587038D01*
X88645999Y-111405610D01*
X88585523Y-111163705D01*
X88525047Y-111042752D01*
X88404094Y-110921800D01*
X88222666Y-110861324D01*
X88101714Y-110861324D01*
X87920285Y-110921800D01*
X87859809Y-110982276D01*
X86347904Y-112131324D02*
X86347904Y-110861324D01*
X85864095Y-110861324D01*
X85743142Y-110921800D01*
X85682666Y-110982276D01*
X85622190Y-111103229D01*
X85622190Y-111284657D01*
X85682666Y-111405610D01*
X85743142Y-111466086D01*
X85864095Y-111526562D01*
X86347904Y-111526562D01*
X85077904Y-110861324D02*
X85077904Y-111889419D01*
X85017428Y-112010371D01*
X84956952Y-112070848D01*
X84835999Y-112131324D01*
X84594095Y-112131324D01*
X84473142Y-112070848D01*
X84412666Y-112010371D01*
X84352190Y-111889419D01*
X84352190Y-110861324D01*
X194031809Y-60823324D02*
X194031809Y-59553324D01*
X193487523Y-59674276D02*
X193427047Y-59613800D01*
X193306095Y-59553324D01*
X193003714Y-59553324D01*
X192882761Y-59613800D01*
X192822285Y-59674276D01*
X192761809Y-59795229D01*
X192761809Y-59916181D01*
X192822285Y-60097610D01*
X193547999Y-60823324D01*
X192761809Y-60823324D01*
X191491809Y-60702371D02*
X191552285Y-60762848D01*
X191733714Y-60823324D01*
X191854666Y-60823324D01*
X192036094Y-60762848D01*
X192157047Y-60641895D01*
X192217523Y-60520943D01*
X192277999Y-60279038D01*
X192277999Y-60097610D01*
X192217523Y-59855705D01*
X192157047Y-59734752D01*
X192036094Y-59613800D01*
X191854666Y-59553324D01*
X191733714Y-59553324D01*
X191552285Y-59613800D01*
X191491809Y-59674276D01*
X189979904Y-60823324D02*
X189979904Y-59553324D01*
X189496095Y-59553324D01*
X189375142Y-59613800D01*
X189314666Y-59674276D01*
X189254190Y-59795229D01*
X189254190Y-59976657D01*
X189314666Y-60097610D01*
X189375142Y-60158086D01*
X189496095Y-60218562D01*
X189979904Y-60218562D01*
X188709904Y-59553324D02*
X188709904Y-60581419D01*
X188649428Y-60702371D01*
X188588952Y-60762848D01*
X188467999Y-60823324D01*
X188226095Y-60823324D01*
X188105142Y-60762848D01*
X188044666Y-60702371D01*
X187984190Y-60581419D01*
X187984190Y-59553324D01*
X168123809Y-60823324D02*
X168123809Y-59553324D01*
X167579523Y-59674276D02*
X167519047Y-59613800D01*
X167398095Y-59553324D01*
X167095714Y-59553324D01*
X166974761Y-59613800D01*
X166914285Y-59674276D01*
X166853809Y-59795229D01*
X166853809Y-59916181D01*
X166914285Y-60097610D01*
X167639999Y-60823324D01*
X166853809Y-60823324D01*
X165583809Y-60702371D02*
X165644285Y-60762848D01*
X165825714Y-60823324D01*
X165946666Y-60823324D01*
X166128094Y-60762848D01*
X166249047Y-60641895D01*
X166309523Y-60520943D01*
X166369999Y-60279038D01*
X166369999Y-60097610D01*
X166309523Y-59855705D01*
X166249047Y-59734752D01*
X166128094Y-59613800D01*
X165946666Y-59553324D01*
X165825714Y-59553324D01*
X165644285Y-59613800D01*
X165583809Y-59674276D01*
X164071904Y-60823324D02*
X164071904Y-59553324D01*
X163588095Y-59553324D01*
X163467142Y-59613800D01*
X163406666Y-59674276D01*
X163346190Y-59795229D01*
X163346190Y-59976657D01*
X163406666Y-60097610D01*
X163467142Y-60158086D01*
X163588095Y-60218562D01*
X164071904Y-60218562D01*
X162801904Y-59553324D02*
X162801904Y-60581419D01*
X162741428Y-60702371D01*
X162680952Y-60762848D01*
X162559999Y-60823324D01*
X162318095Y-60823324D01*
X162197142Y-60762848D01*
X162136666Y-60702371D01*
X162076190Y-60581419D01*
X162076190Y-59553324D01*
X142215809Y-60823324D02*
X142215809Y-59553324D01*
X141671523Y-59674276D02*
X141611047Y-59613800D01*
X141490095Y-59553324D01*
X141187714Y-59553324D01*
X141066761Y-59613800D01*
X141006285Y-59674276D01*
X140945809Y-59795229D01*
X140945809Y-59916181D01*
X141006285Y-60097610D01*
X141731999Y-60823324D01*
X140945809Y-60823324D01*
X139675809Y-60702371D02*
X139736285Y-60762848D01*
X139917714Y-60823324D01*
X140038666Y-60823324D01*
X140220094Y-60762848D01*
X140341047Y-60641895D01*
X140401523Y-60520943D01*
X140461999Y-60279038D01*
X140461999Y-60097610D01*
X140401523Y-59855705D01*
X140341047Y-59734752D01*
X140220094Y-59613800D01*
X140038666Y-59553324D01*
X139917714Y-59553324D01*
X139736285Y-59613800D01*
X139675809Y-59674276D01*
X138163904Y-60823324D02*
X138163904Y-59553324D01*
X137680095Y-59553324D01*
X137559142Y-59613800D01*
X137498666Y-59674276D01*
X137438190Y-59795229D01*
X137438190Y-59976657D01*
X137498666Y-60097610D01*
X137559142Y-60158086D01*
X137680095Y-60218562D01*
X138163904Y-60218562D01*
X136893904Y-59553324D02*
X136893904Y-60581419D01*
X136833428Y-60702371D01*
X136772952Y-60762848D01*
X136651999Y-60823324D01*
X136410095Y-60823324D01*
X136289142Y-60762848D01*
X136228666Y-60702371D01*
X136168190Y-60581419D01*
X136168190Y-59553324D01*
X116307809Y-60823324D02*
X116307809Y-59553324D01*
X115763523Y-59674276D02*
X115703047Y-59613800D01*
X115582095Y-59553324D01*
X115279714Y-59553324D01*
X115158761Y-59613800D01*
X115098285Y-59674276D01*
X115037809Y-59795229D01*
X115037809Y-59916181D01*
X115098285Y-60097610D01*
X115823999Y-60823324D01*
X115037809Y-60823324D01*
X113767809Y-60702371D02*
X113828285Y-60762848D01*
X114009714Y-60823324D01*
X114130666Y-60823324D01*
X114312094Y-60762848D01*
X114433047Y-60641895D01*
X114493523Y-60520943D01*
X114553999Y-60279038D01*
X114553999Y-60097610D01*
X114493523Y-59855705D01*
X114433047Y-59734752D01*
X114312094Y-59613800D01*
X114130666Y-59553324D01*
X114009714Y-59553324D01*
X113828285Y-59613800D01*
X113767809Y-59674276D01*
X112255904Y-60823324D02*
X112255904Y-59553324D01*
X111772095Y-59553324D01*
X111651142Y-59613800D01*
X111590666Y-59674276D01*
X111530190Y-59795229D01*
X111530190Y-59976657D01*
X111590666Y-60097610D01*
X111651142Y-60158086D01*
X111772095Y-60218562D01*
X112255904Y-60218562D01*
X110985904Y-59553324D02*
X110985904Y-60581419D01*
X110925428Y-60702371D01*
X110864952Y-60762848D01*
X110743999Y-60823324D01*
X110502095Y-60823324D01*
X110381142Y-60762848D01*
X110320666Y-60702371D01*
X110260190Y-60581419D01*
X110260190Y-59553324D01*
X186613800Y-105255181D02*
X186553324Y-105134229D01*
X186553324Y-104952800D01*
X186613800Y-104771372D01*
X186734752Y-104650419D01*
X186855705Y-104589943D01*
X187097610Y-104529467D01*
X187279038Y-104529467D01*
X187520943Y-104589943D01*
X187641895Y-104650419D01*
X187762848Y-104771372D01*
X187823324Y-104952800D01*
X187823324Y-105073752D01*
X187762848Y-105255181D01*
X187702371Y-105315657D01*
X187279038Y-105315657D01*
X187279038Y-105073752D01*
X187823324Y-105859943D02*
X186553324Y-105859943D01*
X187823324Y-106585657D01*
X186553324Y-106585657D01*
X187823324Y-107190419D02*
X186553324Y-107190419D01*
X186553324Y-107492800D01*
X186613800Y-107674228D01*
X186734752Y-107795181D01*
X186855705Y-107855657D01*
X187097610Y-107916133D01*
X187279038Y-107916133D01*
X187520943Y-107855657D01*
X187641895Y-107795181D01*
X187762848Y-107674228D01*
X187823324Y-107492800D01*
X187823324Y-107190419D01*
X160705800Y-105255181D02*
X160645324Y-105134229D01*
X160645324Y-104952800D01*
X160705800Y-104771372D01*
X160826752Y-104650419D01*
X160947705Y-104589943D01*
X161189610Y-104529467D01*
X161371038Y-104529467D01*
X161612943Y-104589943D01*
X161733895Y-104650419D01*
X161854848Y-104771372D01*
X161915324Y-104952800D01*
X161915324Y-105073752D01*
X161854848Y-105255181D01*
X161794371Y-105315657D01*
X161371038Y-105315657D01*
X161371038Y-105073752D01*
X161915324Y-105859943D02*
X160645324Y-105859943D01*
X161915324Y-106585657D01*
X160645324Y-106585657D01*
X161915324Y-107190419D02*
X160645324Y-107190419D01*
X160645324Y-107492800D01*
X160705800Y-107674228D01*
X160826752Y-107795181D01*
X160947705Y-107855657D01*
X161189610Y-107916133D01*
X161371038Y-107916133D01*
X161612943Y-107855657D01*
X161733895Y-107795181D01*
X161854848Y-107674228D01*
X161915324Y-107492800D01*
X161915324Y-107190419D01*
X134797800Y-105255181D02*
X134737324Y-105134229D01*
X134737324Y-104952800D01*
X134797800Y-104771372D01*
X134918752Y-104650419D01*
X135039705Y-104589943D01*
X135281610Y-104529467D01*
X135463038Y-104529467D01*
X135704943Y-104589943D01*
X135825895Y-104650419D01*
X135946848Y-104771372D01*
X136007324Y-104952800D01*
X136007324Y-105073752D01*
X135946848Y-105255181D01*
X135886371Y-105315657D01*
X135463038Y-105315657D01*
X135463038Y-105073752D01*
X136007324Y-105859943D02*
X134737324Y-105859943D01*
X136007324Y-106585657D01*
X134737324Y-106585657D01*
X136007324Y-107190419D02*
X134737324Y-107190419D01*
X134737324Y-107492800D01*
X134797800Y-107674228D01*
X134918752Y-107795181D01*
X135039705Y-107855657D01*
X135281610Y-107916133D01*
X135463038Y-107916133D01*
X135704943Y-107855657D01*
X135825895Y-107795181D01*
X135946848Y-107674228D01*
X136007324Y-107492800D01*
X136007324Y-107190419D01*
X108889800Y-105255181D02*
X108829324Y-105134229D01*
X108829324Y-104952800D01*
X108889800Y-104771372D01*
X109010752Y-104650419D01*
X109131705Y-104589943D01*
X109373610Y-104529467D01*
X109555038Y-104529467D01*
X109796943Y-104589943D01*
X109917895Y-104650419D01*
X110038848Y-104771372D01*
X110099324Y-104952800D01*
X110099324Y-105073752D01*
X110038848Y-105255181D01*
X109978371Y-105315657D01*
X109555038Y-105315657D01*
X109555038Y-105073752D01*
X110099324Y-105859943D02*
X108829324Y-105859943D01*
X110099324Y-106585657D01*
X108829324Y-106585657D01*
X110099324Y-107190419D02*
X108829324Y-107190419D01*
X108829324Y-107492800D01*
X108889800Y-107674228D01*
X109010752Y-107795181D01*
X109131705Y-107855657D01*
X109373610Y-107916133D01*
X109555038Y-107916133D01*
X109796943Y-107855657D01*
X109917895Y-107795181D01*
X110038848Y-107674228D01*
X110099324Y-107492800D01*
X110099324Y-107190419D01*
X82981800Y-105255181D02*
X82921324Y-105134229D01*
X82921324Y-104952800D01*
X82981800Y-104771372D01*
X83102752Y-104650419D01*
X83223705Y-104589943D01*
X83465610Y-104529467D01*
X83647038Y-104529467D01*
X83888943Y-104589943D01*
X84009895Y-104650419D01*
X84130848Y-104771372D01*
X84191324Y-104952800D01*
X84191324Y-105073752D01*
X84130848Y-105255181D01*
X84070371Y-105315657D01*
X83647038Y-105315657D01*
X83647038Y-105073752D01*
X84191324Y-105859943D02*
X82921324Y-105859943D01*
X84191324Y-106585657D01*
X82921324Y-106585657D01*
X84191324Y-107190419D02*
X82921324Y-107190419D01*
X82921324Y-107492800D01*
X82981800Y-107674228D01*
X83102752Y-107795181D01*
X83223705Y-107855657D01*
X83465610Y-107916133D01*
X83647038Y-107916133D01*
X83888943Y-107855657D01*
X84009895Y-107795181D01*
X84130848Y-107674228D01*
X84191324Y-107492800D01*
X84191324Y-107190419D01*
X186613800Y-53947181D02*
X186553324Y-53826229D01*
X186553324Y-53644800D01*
X186613800Y-53463372D01*
X186734752Y-53342419D01*
X186855705Y-53281943D01*
X187097610Y-53221467D01*
X187279038Y-53221467D01*
X187520943Y-53281943D01*
X187641895Y-53342419D01*
X187762848Y-53463372D01*
X187823324Y-53644800D01*
X187823324Y-53765752D01*
X187762848Y-53947181D01*
X187702371Y-54007657D01*
X187279038Y-54007657D01*
X187279038Y-53765752D01*
X187823324Y-54551943D02*
X186553324Y-54551943D01*
X187823324Y-55277657D01*
X186553324Y-55277657D01*
X187823324Y-55882419D02*
X186553324Y-55882419D01*
X186553324Y-56184800D01*
X186613800Y-56366228D01*
X186734752Y-56487181D01*
X186855705Y-56547657D01*
X187097610Y-56608133D01*
X187279038Y-56608133D01*
X187520943Y-56547657D01*
X187641895Y-56487181D01*
X187762848Y-56366228D01*
X187823324Y-56184800D01*
X187823324Y-55882419D01*
X160705800Y-53947181D02*
X160645324Y-53826229D01*
X160645324Y-53644800D01*
X160705800Y-53463372D01*
X160826752Y-53342419D01*
X160947705Y-53281943D01*
X161189610Y-53221467D01*
X161371038Y-53221467D01*
X161612943Y-53281943D01*
X161733895Y-53342419D01*
X161854848Y-53463372D01*
X161915324Y-53644800D01*
X161915324Y-53765752D01*
X161854848Y-53947181D01*
X161794371Y-54007657D01*
X161371038Y-54007657D01*
X161371038Y-53765752D01*
X161915324Y-54551943D02*
X160645324Y-54551943D01*
X161915324Y-55277657D01*
X160645324Y-55277657D01*
X161915324Y-55882419D02*
X160645324Y-55882419D01*
X160645324Y-56184800D01*
X160705800Y-56366228D01*
X160826752Y-56487181D01*
X160947705Y-56547657D01*
X161189610Y-56608133D01*
X161371038Y-56608133D01*
X161612943Y-56547657D01*
X161733895Y-56487181D01*
X161854848Y-56366228D01*
X161915324Y-56184800D01*
X161915324Y-55882419D01*
X134797800Y-53947181D02*
X134737324Y-53826229D01*
X134737324Y-53644800D01*
X134797800Y-53463372D01*
X134918752Y-53342419D01*
X135039705Y-53281943D01*
X135281610Y-53221467D01*
X135463038Y-53221467D01*
X135704943Y-53281943D01*
X135825895Y-53342419D01*
X135946848Y-53463372D01*
X136007324Y-53644800D01*
X136007324Y-53765752D01*
X135946848Y-53947181D01*
X135886371Y-54007657D01*
X135463038Y-54007657D01*
X135463038Y-53765752D01*
X136007324Y-54551943D02*
X134737324Y-54551943D01*
X136007324Y-55277657D01*
X134737324Y-55277657D01*
X136007324Y-55882419D02*
X134737324Y-55882419D01*
X134737324Y-56184800D01*
X134797800Y-56366228D01*
X134918752Y-56487181D01*
X135039705Y-56547657D01*
X135281610Y-56608133D01*
X135463038Y-56608133D01*
X135704943Y-56547657D01*
X135825895Y-56487181D01*
X135946848Y-56366228D01*
X136007324Y-56184800D01*
X136007324Y-55882419D01*
X108889800Y-53947181D02*
X108829324Y-53826229D01*
X108829324Y-53644800D01*
X108889800Y-53463372D01*
X109010752Y-53342419D01*
X109131705Y-53281943D01*
X109373610Y-53221467D01*
X109555038Y-53221467D01*
X109796943Y-53281943D01*
X109917895Y-53342419D01*
X110038848Y-53463372D01*
X110099324Y-53644800D01*
X110099324Y-53765752D01*
X110038848Y-53947181D01*
X109978371Y-54007657D01*
X109555038Y-54007657D01*
X109555038Y-53765752D01*
X110099324Y-54551943D02*
X108829324Y-54551943D01*
X110099324Y-55277657D01*
X108829324Y-55277657D01*
X110099324Y-55882419D02*
X108829324Y-55882419D01*
X108829324Y-56184800D01*
X108889800Y-56366228D01*
X109010752Y-56487181D01*
X109131705Y-56547657D01*
X109373610Y-56608133D01*
X109555038Y-56608133D01*
X109796943Y-56547657D01*
X109917895Y-56487181D01*
X110038848Y-56366228D01*
X110099324Y-56184800D01*
X110099324Y-55882419D01*
X189194924Y-104548820D02*
X189194924Y-105335010D01*
X189678733Y-104911677D01*
X189678733Y-105093105D01*
X189739210Y-105214058D01*
X189799686Y-105274534D01*
X189920638Y-105335010D01*
X190223019Y-105335010D01*
X190343971Y-105274534D01*
X190404448Y-105214058D01*
X190464924Y-105093105D01*
X190464924Y-104730248D01*
X190404448Y-104609296D01*
X190343971Y-104548820D01*
X189194924Y-105697867D02*
X190464924Y-106121201D01*
X189194924Y-106544534D01*
X189194924Y-106846915D02*
X189194924Y-107633105D01*
X189678733Y-107209772D01*
X189678733Y-107391200D01*
X189739210Y-107512153D01*
X189799686Y-107572629D01*
X189920638Y-107633105D01*
X190223019Y-107633105D01*
X190343971Y-107572629D01*
X190404448Y-107512153D01*
X190464924Y-107391200D01*
X190464924Y-107028343D01*
X190404448Y-106907391D01*
X190343971Y-106846915D01*
X163286924Y-104548820D02*
X163286924Y-105335010D01*
X163770733Y-104911677D01*
X163770733Y-105093105D01*
X163831210Y-105214058D01*
X163891686Y-105274534D01*
X164012638Y-105335010D01*
X164315019Y-105335010D01*
X164435971Y-105274534D01*
X164496448Y-105214058D01*
X164556924Y-105093105D01*
X164556924Y-104730248D01*
X164496448Y-104609296D01*
X164435971Y-104548820D01*
X163286924Y-105697867D02*
X164556924Y-106121201D01*
X163286924Y-106544534D01*
X163286924Y-106846915D02*
X163286924Y-107633105D01*
X163770733Y-107209772D01*
X163770733Y-107391200D01*
X163831210Y-107512153D01*
X163891686Y-107572629D01*
X164012638Y-107633105D01*
X164315019Y-107633105D01*
X164435971Y-107572629D01*
X164496448Y-107512153D01*
X164556924Y-107391200D01*
X164556924Y-107028343D01*
X164496448Y-106907391D01*
X164435971Y-106846915D01*
X137378924Y-104548820D02*
X137378924Y-105335010D01*
X137862733Y-104911677D01*
X137862733Y-105093105D01*
X137923210Y-105214058D01*
X137983686Y-105274534D01*
X138104638Y-105335010D01*
X138407019Y-105335010D01*
X138527971Y-105274534D01*
X138588448Y-105214058D01*
X138648924Y-105093105D01*
X138648924Y-104730248D01*
X138588448Y-104609296D01*
X138527971Y-104548820D01*
X137378924Y-105697867D02*
X138648924Y-106121201D01*
X137378924Y-106544534D01*
X137378924Y-106846915D02*
X137378924Y-107633105D01*
X137862733Y-107209772D01*
X137862733Y-107391200D01*
X137923210Y-107512153D01*
X137983686Y-107572629D01*
X138104638Y-107633105D01*
X138407019Y-107633105D01*
X138527971Y-107572629D01*
X138588448Y-107512153D01*
X138648924Y-107391200D01*
X138648924Y-107028343D01*
X138588448Y-106907391D01*
X138527971Y-106846915D01*
X111470924Y-104548820D02*
X111470924Y-105335010D01*
X111954733Y-104911677D01*
X111954733Y-105093105D01*
X112015210Y-105214058D01*
X112075686Y-105274534D01*
X112196638Y-105335010D01*
X112499019Y-105335010D01*
X112619971Y-105274534D01*
X112680448Y-105214058D01*
X112740924Y-105093105D01*
X112740924Y-104730248D01*
X112680448Y-104609296D01*
X112619971Y-104548820D01*
X111470924Y-105697867D02*
X112740924Y-106121201D01*
X111470924Y-106544534D01*
X111470924Y-106846915D02*
X111470924Y-107633105D01*
X111954733Y-107209772D01*
X111954733Y-107391200D01*
X112015210Y-107512153D01*
X112075686Y-107572629D01*
X112196638Y-107633105D01*
X112499019Y-107633105D01*
X112619971Y-107572629D01*
X112680448Y-107512153D01*
X112740924Y-107391200D01*
X112740924Y-107028343D01*
X112680448Y-106907391D01*
X112619971Y-106846915D01*
X85562924Y-104548820D02*
X85562924Y-105335010D01*
X86046733Y-104911677D01*
X86046733Y-105093105D01*
X86107210Y-105214058D01*
X86167686Y-105274534D01*
X86288638Y-105335010D01*
X86591019Y-105335010D01*
X86711971Y-105274534D01*
X86772448Y-105214058D01*
X86832924Y-105093105D01*
X86832924Y-104730248D01*
X86772448Y-104609296D01*
X86711971Y-104548820D01*
X85562924Y-105697867D02*
X86832924Y-106121201D01*
X85562924Y-106544534D01*
X85562924Y-106846915D02*
X85562924Y-107633105D01*
X86046733Y-107209772D01*
X86046733Y-107391200D01*
X86107210Y-107512153D01*
X86167686Y-107572629D01*
X86288638Y-107633105D01*
X86591019Y-107633105D01*
X86711971Y-107572629D01*
X86772448Y-107512153D01*
X86832924Y-107391200D01*
X86832924Y-107028343D01*
X86772448Y-106907391D01*
X86711971Y-106846915D01*
X189194924Y-53240820D02*
X189194924Y-54027010D01*
X189678733Y-53603677D01*
X189678733Y-53785105D01*
X189739210Y-53906058D01*
X189799686Y-53966534D01*
X189920638Y-54027010D01*
X190223019Y-54027010D01*
X190343971Y-53966534D01*
X190404448Y-53906058D01*
X190464924Y-53785105D01*
X190464924Y-53422248D01*
X190404448Y-53301296D01*
X190343971Y-53240820D01*
X189194924Y-54389867D02*
X190464924Y-54813201D01*
X189194924Y-55236534D01*
X189194924Y-55538915D02*
X189194924Y-56325105D01*
X189678733Y-55901772D01*
X189678733Y-56083200D01*
X189739210Y-56204153D01*
X189799686Y-56264629D01*
X189920638Y-56325105D01*
X190223019Y-56325105D01*
X190343971Y-56264629D01*
X190404448Y-56204153D01*
X190464924Y-56083200D01*
X190464924Y-55720343D01*
X190404448Y-55599391D01*
X190343971Y-55538915D01*
X163286924Y-53240820D02*
X163286924Y-54027010D01*
X163770733Y-53603677D01*
X163770733Y-53785105D01*
X163831210Y-53906058D01*
X163891686Y-53966534D01*
X164012638Y-54027010D01*
X164315019Y-54027010D01*
X164435971Y-53966534D01*
X164496448Y-53906058D01*
X164556924Y-53785105D01*
X164556924Y-53422248D01*
X164496448Y-53301296D01*
X164435971Y-53240820D01*
X163286924Y-54389867D02*
X164556924Y-54813201D01*
X163286924Y-55236534D01*
X163286924Y-55538915D02*
X163286924Y-56325105D01*
X163770733Y-55901772D01*
X163770733Y-56083200D01*
X163831210Y-56204153D01*
X163891686Y-56264629D01*
X164012638Y-56325105D01*
X164315019Y-56325105D01*
X164435971Y-56264629D01*
X164496448Y-56204153D01*
X164556924Y-56083200D01*
X164556924Y-55720343D01*
X164496448Y-55599391D01*
X164435971Y-55538915D01*
X137378924Y-53240820D02*
X137378924Y-54027010D01*
X137862733Y-53603677D01*
X137862733Y-53785105D01*
X137923210Y-53906058D01*
X137983686Y-53966534D01*
X138104638Y-54027010D01*
X138407019Y-54027010D01*
X138527971Y-53966534D01*
X138588448Y-53906058D01*
X138648924Y-53785105D01*
X138648924Y-53422248D01*
X138588448Y-53301296D01*
X138527971Y-53240820D01*
X137378924Y-54389867D02*
X138648924Y-54813201D01*
X137378924Y-55236534D01*
X137378924Y-55538915D02*
X137378924Y-56325105D01*
X137862733Y-55901772D01*
X137862733Y-56083200D01*
X137923210Y-56204153D01*
X137983686Y-56264629D01*
X138104638Y-56325105D01*
X138407019Y-56325105D01*
X138527971Y-56264629D01*
X138588448Y-56204153D01*
X138648924Y-56083200D01*
X138648924Y-55720343D01*
X138588448Y-55599391D01*
X138527971Y-55538915D01*
X111470924Y-53240820D02*
X111470924Y-54027010D01*
X111954733Y-53603677D01*
X111954733Y-53785105D01*
X112015210Y-53906058D01*
X112075686Y-53966534D01*
X112196638Y-54027010D01*
X112499019Y-54027010D01*
X112619971Y-53966534D01*
X112680448Y-53906058D01*
X112740924Y-53785105D01*
X112740924Y-53422248D01*
X112680448Y-53301296D01*
X112619971Y-53240820D01*
X111470924Y-54389867D02*
X112740924Y-54813201D01*
X111470924Y-55236534D01*
X111470924Y-55538915D02*
X111470924Y-56325105D01*
X111954733Y-55901772D01*
X111954733Y-56083200D01*
X112015210Y-56204153D01*
X112075686Y-56264629D01*
X112196638Y-56325105D01*
X112499019Y-56325105D01*
X112619971Y-56264629D01*
X112680448Y-56204153D01*
X112740924Y-56083200D01*
X112740924Y-55720343D01*
X112680448Y-55599391D01*
X112619971Y-55538915D01*
X90399809Y-66379876D02*
X89432190Y-66379876D01*
X88706475Y-86991976D02*
X88827428Y-86931500D01*
X88948380Y-86810548D01*
X89129809Y-86629119D01*
X89250761Y-86568643D01*
X89371713Y-86568643D01*
X89311237Y-86871024D02*
X89432190Y-86810548D01*
X89553142Y-86689595D01*
X89613618Y-86447690D01*
X89613618Y-86024357D01*
X89553142Y-85782452D01*
X89432190Y-85661500D01*
X89311237Y-85601024D01*
X89069333Y-85601024D01*
X88948380Y-85661500D01*
X88827428Y-85782452D01*
X88766952Y-86024357D01*
X88766952Y-86447690D01*
X88827428Y-86689595D01*
X88948380Y-86810548D01*
X89069333Y-86871024D01*
X89311237Y-86871024D01*
X88343618Y-86024357D02*
X88101714Y-86871024D01*
X87859809Y-86266262D01*
X87617904Y-86871024D01*
X87375999Y-86024357D01*
X86892190Y-86871024D02*
X86892190Y-86024357D01*
X86892190Y-85601024D02*
X86952666Y-85661500D01*
X86892190Y-85721976D01*
X86831714Y-85661500D01*
X86892190Y-85601024D01*
X86892190Y-85721976D01*
X86287428Y-86871024D02*
X86287428Y-86024357D01*
X86287428Y-85601024D02*
X86347904Y-85661500D01*
X86287428Y-85721976D01*
X86226952Y-85661500D01*
X86287428Y-85601024D01*
X86287428Y-85721976D01*
X85138380Y-86810548D02*
X85259333Y-86871024D01*
X85501237Y-86871024D01*
X85622190Y-86810548D01*
X85682666Y-86750071D01*
X85743142Y-86629119D01*
X85743142Y-86266262D01*
X85682666Y-86145310D01*
X85622190Y-86084833D01*
X85501237Y-86024357D01*
X85259333Y-86024357D01*
X85138380Y-86084833D01*
X90278857Y-87760024D02*
X90278857Y-88667167D01*
X90339333Y-88848595D01*
X90460285Y-88969548D01*
X90641714Y-89030024D01*
X90762666Y-89030024D01*
X89492666Y-89030024D02*
X89613619Y-88969548D01*
X89674095Y-88909071D01*
X89734571Y-88788119D01*
X89734571Y-88425262D01*
X89674095Y-88304310D01*
X89613619Y-88243833D01*
X89492666Y-88183357D01*
X89311238Y-88183357D01*
X89190286Y-88243833D01*
X89129809Y-88304310D01*
X89069333Y-88425262D01*
X89069333Y-88788119D01*
X89129809Y-88909071D01*
X89190286Y-88969548D01*
X89311238Y-89030024D01*
X89492666Y-89030024D01*
X88645999Y-88183357D02*
X88343618Y-89030024D01*
X88041238Y-88183357D02*
X88343618Y-89030024D01*
X88464571Y-89332405D01*
X88525047Y-89392881D01*
X88645999Y-89453357D01*
X87617904Y-88969548D02*
X87496952Y-89030024D01*
X87255047Y-89030024D01*
X87134095Y-88969548D01*
X87073619Y-88848595D01*
X87073619Y-88788119D01*
X87134095Y-88667167D01*
X87255047Y-88606690D01*
X87436476Y-88606690D01*
X87557428Y-88546214D01*
X87617904Y-88425262D01*
X87617904Y-88364786D01*
X87557428Y-88243833D01*
X87436476Y-88183357D01*
X87255047Y-88183357D01*
X87134095Y-88243833D01*
X86710762Y-88183357D02*
X86226952Y-88183357D01*
X86529333Y-87760024D02*
X86529333Y-88848595D01*
X86468857Y-88969548D01*
X86347904Y-89030024D01*
X86226952Y-89030024D01*
X85803619Y-89030024D02*
X85803619Y-88183357D01*
X85803619Y-87760024D02*
X85864095Y-87820500D01*
X85803619Y-87880976D01*
X85743143Y-87820500D01*
X85803619Y-87760024D01*
X85803619Y-87880976D01*
X85198857Y-89030024D02*
X85198857Y-88183357D01*
X85198857Y-87760024D02*
X85259333Y-87820500D01*
X85198857Y-87880976D01*
X85138381Y-87820500D01*
X85198857Y-87760024D01*
X85198857Y-87880976D01*
X84049809Y-88969548D02*
X84170762Y-89030024D01*
X84412666Y-89030024D01*
X84533619Y-88969548D01*
X84594095Y-88909071D01*
X84654571Y-88788119D01*
X84654571Y-88425262D01*
X84594095Y-88304310D01*
X84533619Y-88243833D01*
X84412666Y-88183357D01*
X84170762Y-88183357D01*
X84049809Y-88243833D01*
X90399809Y-60823324D02*
X90399809Y-59553324D01*
X89855523Y-59674276D02*
X89795047Y-59613800D01*
X89674095Y-59553324D01*
X89371714Y-59553324D01*
X89250761Y-59613800D01*
X89190285Y-59674276D01*
X89129809Y-59795229D01*
X89129809Y-59916181D01*
X89190285Y-60097610D01*
X89915999Y-60823324D01*
X89129809Y-60823324D01*
X87859809Y-60702371D02*
X87920285Y-60762848D01*
X88101714Y-60823324D01*
X88222666Y-60823324D01*
X88404094Y-60762848D01*
X88525047Y-60641895D01*
X88585523Y-60520943D01*
X88645999Y-60279038D01*
X88645999Y-60097610D01*
X88585523Y-59855705D01*
X88525047Y-59734752D01*
X88404094Y-59613800D01*
X88222666Y-59553324D01*
X88101714Y-59553324D01*
X87920285Y-59613800D01*
X87859809Y-59674276D01*
X86347904Y-60823324D02*
X86347904Y-59553324D01*
X85864095Y-59553324D01*
X85743142Y-59613800D01*
X85682666Y-59674276D01*
X85622190Y-59795229D01*
X85622190Y-59976657D01*
X85682666Y-60097610D01*
X85743142Y-60158086D01*
X85864095Y-60218562D01*
X86347904Y-60218562D01*
X85077904Y-59553324D02*
X85077904Y-60581419D01*
X85017428Y-60702371D01*
X84956952Y-60762848D01*
X84835999Y-60823324D01*
X84594095Y-60823324D01*
X84473142Y-60762848D01*
X84412666Y-60702371D01*
X84352190Y-60581419D01*
X84352190Y-59553324D01*
X91750848Y-53250496D02*
X91811324Y-53431924D01*
X91811324Y-53734305D01*
X91750848Y-53855258D01*
X91690371Y-53915734D01*
X91569419Y-53976210D01*
X91448467Y-53976210D01*
X91327514Y-53915734D01*
X91267038Y-53855258D01*
X91206562Y-53734305D01*
X91146086Y-53492401D01*
X91085610Y-53371448D01*
X91025133Y-53310972D01*
X90904181Y-53250496D01*
X90783229Y-53250496D01*
X90662276Y-53310972D01*
X90601800Y-53371448D01*
X90541324Y-53492401D01*
X90541324Y-53794781D01*
X90601800Y-53976210D01*
X91690371Y-55246210D02*
X91750848Y-55185734D01*
X91811324Y-55004305D01*
X91811324Y-54883353D01*
X91750848Y-54701925D01*
X91629895Y-54580972D01*
X91508943Y-54520496D01*
X91267038Y-54460020D01*
X91085610Y-54460020D01*
X90843705Y-54520496D01*
X90722752Y-54580972D01*
X90601800Y-54701925D01*
X90541324Y-54883353D01*
X90541324Y-55004305D01*
X90601800Y-55185734D01*
X90662276Y-55246210D01*
X91811324Y-56395258D02*
X91811324Y-55790496D01*
X90541324Y-55790496D01*
X89261648Y-53271058D02*
X89322124Y-53452486D01*
X89322124Y-53754867D01*
X89261648Y-53875820D01*
X89201171Y-53936296D01*
X89080219Y-53996772D01*
X88959267Y-53996772D01*
X88838314Y-53936296D01*
X88777838Y-53875820D01*
X88717362Y-53754867D01*
X88656886Y-53512963D01*
X88596410Y-53392010D01*
X88535933Y-53331534D01*
X88414981Y-53271058D01*
X88294029Y-53271058D01*
X88173076Y-53331534D01*
X88112600Y-53392010D01*
X88052124Y-53512963D01*
X88052124Y-53815343D01*
X88112600Y-53996772D01*
X89322124Y-54541058D02*
X88052124Y-54541058D01*
X88052124Y-54843439D01*
X88112600Y-55024867D01*
X88233552Y-55145820D01*
X88354505Y-55206296D01*
X88596410Y-55266772D01*
X88777838Y-55266772D01*
X89019743Y-55206296D01*
X89140695Y-55145820D01*
X89261648Y-55024867D01*
X89322124Y-54843439D01*
X89322124Y-54541058D01*
X88959267Y-55750582D02*
X88959267Y-56355344D01*
X89322124Y-55629629D02*
X88052124Y-56052963D01*
X89322124Y-56476296D01*
X85562924Y-53240820D02*
X85562924Y-54027010D01*
X86046733Y-53603677D01*
X86046733Y-53785105D01*
X86107210Y-53906058D01*
X86167686Y-53966534D01*
X86288638Y-54027010D01*
X86591019Y-54027010D01*
X86711971Y-53966534D01*
X86772448Y-53906058D01*
X86832924Y-53785105D01*
X86832924Y-53422248D01*
X86772448Y-53301296D01*
X86711971Y-53240820D01*
X85562924Y-54389867D02*
X86832924Y-54813201D01*
X85562924Y-55236534D01*
X85562924Y-55538915D02*
X85562924Y-56325105D01*
X86046733Y-55901772D01*
X86046733Y-56083200D01*
X86107210Y-56204153D01*
X86167686Y-56264629D01*
X86288638Y-56325105D01*
X86591019Y-56325105D01*
X86711971Y-56264629D01*
X86772448Y-56204153D01*
X86832924Y-56083200D01*
X86832924Y-55720343D01*
X86772448Y-55599391D01*
X86711971Y-55538915D01*
X82981800Y-53947181D02*
X82921324Y-53826229D01*
X82921324Y-53644800D01*
X82981800Y-53463372D01*
X83102752Y-53342419D01*
X83223705Y-53281943D01*
X83465610Y-53221467D01*
X83647038Y-53221467D01*
X83888943Y-53281943D01*
X84009895Y-53342419D01*
X84130848Y-53463372D01*
X84191324Y-53644800D01*
X84191324Y-53765752D01*
X84130848Y-53947181D01*
X84070371Y-54007657D01*
X83647038Y-54007657D01*
X83647038Y-53765752D01*
X84191324Y-54551943D02*
X82921324Y-54551943D01*
X84191324Y-55277657D01*
X82921324Y-55277657D01*
X84191324Y-55882419D02*
X82921324Y-55882419D01*
X82921324Y-56184800D01*
X82981800Y-56366228D01*
X83102752Y-56487181D01*
X83223705Y-56547657D01*
X83465610Y-56608133D01*
X83647038Y-56608133D01*
X83888943Y-56547657D01*
X84009895Y-56487181D01*
X84130848Y-56366228D01*
X84191324Y-56184800D01*
X84191324Y-55882419D01*
D10*
G36*
X200816872Y-134264400D02*
X203347928Y-134264400D01*
X203347928Y-141283334D01*
X203112928Y-141283334D01*
X203112928Y-134499400D01*
X201051872Y-134499400D01*
X201051872Y-141365631D01*
X202205641Y-141365631D01*
X202205641Y-142136469D01*
X202072341Y-142227909D01*
X201469753Y-141818259D01*
X201469753Y-142133725D01*
X201867516Y-142391588D01*
X201469753Y-142651278D01*
X201469753Y-142957600D01*
X202068684Y-142547950D01*
X202205641Y-142641422D01*
X202205641Y-143408400D01*
X200816872Y-143408400D01*
X200816872Y-141365631D01*
X200816872Y-134264400D01*
G37*
G36*
X202205641Y-143408400D02*
X202205641Y-142641422D01*
X202695963Y-142975888D01*
X202695963Y-142974059D01*
X202695963Y-142658591D01*
X202275338Y-142383356D01*
X202695963Y-142106294D01*
X202695963Y-141799972D01*
X202205641Y-142136469D01*
X202205641Y-141365631D01*
X203112928Y-141365631D01*
X203112928Y-141283334D01*
X203347928Y-141283334D01*
X203347928Y-141365631D01*
X203347928Y-143408400D01*
X202205641Y-143408400D01*
G37*
G36*
X201453294Y-135355278D02*
X201459997Y-135264753D01*
X201479809Y-135182456D01*
X201511816Y-135109306D01*
X201554791Y-135047125D01*
X201608437Y-134997037D01*
X201670919Y-134959344D01*
X201742344Y-134935875D01*
X201781766Y-134932116D01*
X201781766Y-135199019D01*
X201756262Y-135205012D01*
X201722125Y-135234578D01*
X201699062Y-135283956D01*
X201691037Y-135352537D01*
X201699166Y-135431175D01*
X201723041Y-135509812D01*
X201781766Y-135616391D01*
X201781766Y-135691372D01*
X201608741Y-135810650D01*
X201542194Y-135711284D01*
X201493525Y-135603081D01*
X201463453Y-135484719D01*
X201453294Y-135355278D01*
G37*
G36*
X201781766Y-135691372D02*
X201781766Y-135616391D01*
X201811737Y-135670747D01*
X201781766Y-135691372D01*
G37*
G36*
X201781766Y-135199019D02*
X201781766Y-134932116D01*
X201822709Y-134928253D01*
X201826369Y-134928253D01*
X201909884Y-134935672D01*
X201979072Y-134957516D01*
X202035459Y-134992362D01*
X202081484Y-135038897D01*
X202150981Y-135166912D01*
X202202188Y-135336078D01*
X202238763Y-135461350D01*
X202273509Y-135537244D01*
X202311000Y-135573822D01*
X202357634Y-135583878D01*
X202361291Y-135583878D01*
X202409959Y-135572194D01*
X202446331Y-135537244D01*
X202469394Y-135481466D01*
X202477422Y-135406484D01*
X202467259Y-135305394D01*
X202437188Y-135212631D01*
X202389944Y-135125156D01*
X202328375Y-135039812D01*
X202519484Y-134880706D01*
X202606553Y-134997037D01*
X202667616Y-135125766D01*
X202703888Y-135262009D01*
X202716078Y-135401000D01*
X202709781Y-135496403D01*
X202690475Y-135582966D01*
X202659388Y-135659266D01*
X202617325Y-135724697D01*
X202563375Y-135777428D01*
X202498453Y-135817050D01*
X202422353Y-135841741D01*
X202336603Y-135849969D01*
X202332947Y-135849969D01*
X202329288Y-135849969D01*
X202254409Y-135843672D01*
X202191213Y-135824366D01*
X202137163Y-135792566D01*
X202090628Y-135748472D01*
X202017478Y-135625941D01*
X201962612Y-135459522D01*
X201926037Y-135328762D01*
X201893119Y-135247381D01*
X201853800Y-135206231D01*
X201801678Y-135195259D01*
X201798022Y-135195259D01*
X201781766Y-135199019D01*
G37*
G36*
X201781766Y-140699541D02*
X201781766Y-140383769D01*
X202005591Y-140175997D01*
X201781766Y-140175997D01*
X201781766Y-139906247D01*
X202695963Y-139906247D01*
X202695963Y-140175997D01*
X202321059Y-140175997D01*
X202173841Y-140317728D01*
X202695963Y-140698119D01*
X202695963Y-141021816D01*
X201990047Y-140499694D01*
X201781766Y-140699541D01*
G37*
G36*
X201781766Y-140699541D02*
X201469753Y-140998956D01*
X201469753Y-140673428D01*
X201781766Y-140383769D01*
X201781766Y-140699541D01*
G37*
G36*
X201781766Y-140175997D02*
X201469753Y-140175997D01*
X201469753Y-139906247D01*
X201781766Y-139906247D01*
X201781766Y-140175997D01*
G37*
G36*
X201781766Y-139653672D02*
X201781766Y-139351919D01*
X201811737Y-139374881D01*
X201888547Y-139388697D01*
X201891291Y-139388697D01*
X201961903Y-139375591D01*
X202017478Y-139335663D01*
X202052937Y-139270538D01*
X202065025Y-139182044D01*
X202065025Y-138908638D01*
X201781766Y-138908638D01*
X201781766Y-138638891D01*
X202695963Y-138638891D01*
X202695963Y-138908638D01*
X202303684Y-138908638D01*
X202303684Y-139120778D01*
X202695963Y-139383213D01*
X202695963Y-139698678D01*
X202257966Y-139398756D01*
X202201678Y-139505131D01*
X202120806Y-139588950D01*
X202013412Y-139643713D01*
X201878487Y-139662103D01*
X201874831Y-139662103D01*
X201784712Y-139654584D01*
X201781766Y-139653672D01*
G37*
G36*
X201781766Y-139653672D02*
X201704853Y-139631825D01*
X201635562Y-139593828D01*
X201576737Y-139540488D01*
X201529900Y-139473431D01*
X201496472Y-139394284D01*
X201476456Y-139302947D01*
X201469753Y-139199416D01*
X201469753Y-138638891D01*
X201781766Y-138638891D01*
X201781766Y-138908638D01*
X201712981Y-138908638D01*
X201712981Y-139176556D01*
X201723956Y-139265763D01*
X201756875Y-139332919D01*
X201781766Y-139351919D01*
X201781766Y-139653672D01*
G37*
G36*
X201781766Y-138060481D02*
X201781766Y-137538359D01*
X202695963Y-137149331D01*
X202695963Y-137424566D01*
X201785219Y-137795812D01*
X202695963Y-138167059D01*
X202695963Y-138449609D01*
X201781766Y-138060481D01*
G37*
G36*
X201781766Y-138060481D02*
X201460609Y-137923828D01*
X201460609Y-137675112D01*
X201781766Y-137538359D01*
X201781766Y-138060481D01*
G37*
G36*
X201781766Y-137041025D02*
X201781766Y-136739275D01*
X201818647Y-136767216D01*
X201898606Y-136781744D01*
X201902262Y-136781744D01*
X201974703Y-136767925D01*
X202034850Y-136725966D01*
X202074781Y-136658603D01*
X202087888Y-136568687D01*
X202087888Y-136354719D01*
X201781766Y-136354719D01*
X201781766Y-136084056D01*
X202694134Y-136084056D01*
X202694134Y-136353803D01*
X202326544Y-136353803D01*
X202326544Y-136558628D01*
X202319638Y-136658603D01*
X202299113Y-136752481D01*
X202264975Y-136836912D01*
X202217731Y-136909759D01*
X202156569Y-136970009D01*
X202082400Y-137015828D01*
X201995228Y-137044581D01*
X201894947Y-137054234D01*
X201896778Y-137055150D01*
X201893119Y-137055150D01*
X201802594Y-137047022D01*
X201781766Y-137041025D01*
G37*
G36*
X201781766Y-137041025D02*
X201720297Y-137023144D01*
X201647653Y-136983725D01*
X201585881Y-136929875D01*
X201536300Y-136862819D01*
X201499012Y-136782656D01*
X201475950Y-136690100D01*
X201467922Y-136585147D01*
X201467922Y-136084056D01*
X201781766Y-136084056D01*
X201781766Y-136354719D01*
X201712981Y-136354719D01*
X201712981Y-136563203D01*
X201724769Y-136654134D01*
X201760531Y-136723222D01*
X201781766Y-136739275D01*
X201781766Y-137041025D01*
G37*
G36*
X174908872Y-134264400D02*
X177439928Y-134264400D01*
X177439928Y-141283334D01*
X177204928Y-141283334D01*
X177204928Y-134499400D01*
X175143872Y-134499400D01*
X175143872Y-141365631D01*
X176297641Y-141365631D01*
X176297641Y-142136469D01*
X176164341Y-142227909D01*
X175561753Y-141818259D01*
X175561753Y-142133725D01*
X175959516Y-142391588D01*
X175561753Y-142651278D01*
X175561753Y-142957600D01*
X176160684Y-142547950D01*
X176297641Y-142641422D01*
X176297641Y-143408400D01*
X174908872Y-143408400D01*
X174908872Y-141365631D01*
X174908872Y-134264400D01*
G37*
G36*
X176297641Y-143408400D02*
X176297641Y-142641422D01*
X176787963Y-142975888D01*
X176787963Y-142974059D01*
X176787963Y-142658591D01*
X176367338Y-142383356D01*
X176787963Y-142106294D01*
X176787963Y-141799972D01*
X176297641Y-142136469D01*
X176297641Y-141365631D01*
X177204928Y-141365631D01*
X177204928Y-141283334D01*
X177439928Y-141283334D01*
X177439928Y-141365631D01*
X177439928Y-143408400D01*
X176297641Y-143408400D01*
G37*
G36*
X175545294Y-135355278D02*
X175551997Y-135264753D01*
X175571809Y-135182456D01*
X175603816Y-135109306D01*
X175646791Y-135047125D01*
X175700437Y-134997037D01*
X175762919Y-134959344D01*
X175834344Y-134935875D01*
X175873766Y-134932116D01*
X175873766Y-135199019D01*
X175848262Y-135205012D01*
X175814125Y-135234578D01*
X175791062Y-135283956D01*
X175783037Y-135352537D01*
X175791166Y-135431175D01*
X175815041Y-135509812D01*
X175873766Y-135616391D01*
X175873766Y-135691372D01*
X175700741Y-135810650D01*
X175634194Y-135711284D01*
X175585525Y-135603081D01*
X175555453Y-135484719D01*
X175545294Y-135355278D01*
G37*
G36*
X175873766Y-135691372D02*
X175873766Y-135616391D01*
X175903737Y-135670747D01*
X175873766Y-135691372D01*
G37*
G36*
X175873766Y-135199019D02*
X175873766Y-134932116D01*
X175914709Y-134928253D01*
X175918369Y-134928253D01*
X176001884Y-134935672D01*
X176071072Y-134957516D01*
X176127459Y-134992362D01*
X176173484Y-135038897D01*
X176242981Y-135166912D01*
X176294188Y-135336078D01*
X176330763Y-135461350D01*
X176365509Y-135537244D01*
X176403000Y-135573822D01*
X176449634Y-135583878D01*
X176453291Y-135583878D01*
X176501959Y-135572194D01*
X176538331Y-135537244D01*
X176561394Y-135481466D01*
X176569422Y-135406484D01*
X176559259Y-135305394D01*
X176529188Y-135212631D01*
X176481944Y-135125156D01*
X176420375Y-135039812D01*
X176611484Y-134880706D01*
X176698553Y-134997037D01*
X176759616Y-135125766D01*
X176795888Y-135262009D01*
X176808078Y-135401000D01*
X176801781Y-135496403D01*
X176782475Y-135582966D01*
X176751388Y-135659266D01*
X176709325Y-135724697D01*
X176655375Y-135777428D01*
X176590453Y-135817050D01*
X176514353Y-135841741D01*
X176428603Y-135849969D01*
X176424947Y-135849969D01*
X176421288Y-135849969D01*
X176346409Y-135843672D01*
X176283213Y-135824366D01*
X176229163Y-135792566D01*
X176182628Y-135748472D01*
X176109478Y-135625941D01*
X176054612Y-135459522D01*
X176018037Y-135328762D01*
X175985119Y-135247381D01*
X175945800Y-135206231D01*
X175893678Y-135195259D01*
X175890022Y-135195259D01*
X175873766Y-135199019D01*
G37*
G36*
X175873766Y-140699541D02*
X175873766Y-140383769D01*
X176097591Y-140175997D01*
X175873766Y-140175997D01*
X175873766Y-139906247D01*
X176787963Y-139906247D01*
X176787963Y-140175997D01*
X176413059Y-140175997D01*
X176265841Y-140317728D01*
X176787963Y-140698119D01*
X176787963Y-141021816D01*
X176082047Y-140499694D01*
X175873766Y-140699541D01*
G37*
G36*
X175873766Y-140699541D02*
X175561753Y-140998956D01*
X175561753Y-140673428D01*
X175873766Y-140383769D01*
X175873766Y-140699541D01*
G37*
G36*
X175873766Y-140175997D02*
X175561753Y-140175997D01*
X175561753Y-139906247D01*
X175873766Y-139906247D01*
X175873766Y-140175997D01*
G37*
G36*
X175873766Y-139653672D02*
X175873766Y-139351919D01*
X175903737Y-139374881D01*
X175980547Y-139388697D01*
X175983291Y-139388697D01*
X176053903Y-139375591D01*
X176109478Y-139335663D01*
X176144937Y-139270538D01*
X176157025Y-139182044D01*
X176157025Y-138908638D01*
X175873766Y-138908638D01*
X175873766Y-138638891D01*
X176787963Y-138638891D01*
X176787963Y-138908638D01*
X176395684Y-138908638D01*
X176395684Y-139120778D01*
X176787963Y-139383213D01*
X176787963Y-139698678D01*
X176349966Y-139398756D01*
X176293678Y-139505131D01*
X176212806Y-139588950D01*
X176105412Y-139643713D01*
X175970487Y-139662103D01*
X175966831Y-139662103D01*
X175876712Y-139654584D01*
X175873766Y-139653672D01*
G37*
G36*
X175873766Y-139653672D02*
X175796853Y-139631825D01*
X175727562Y-139593828D01*
X175668737Y-139540488D01*
X175621900Y-139473431D01*
X175588472Y-139394284D01*
X175568456Y-139302947D01*
X175561753Y-139199416D01*
X175561753Y-138638891D01*
X175873766Y-138638891D01*
X175873766Y-138908638D01*
X175804981Y-138908638D01*
X175804981Y-139176556D01*
X175815956Y-139265763D01*
X175848875Y-139332919D01*
X175873766Y-139351919D01*
X175873766Y-139653672D01*
G37*
G36*
X175873766Y-138060481D02*
X175873766Y-137538359D01*
X176787963Y-137149331D01*
X176787963Y-137424566D01*
X175877219Y-137795812D01*
X176787963Y-138167059D01*
X176787963Y-138449609D01*
X175873766Y-138060481D01*
G37*
G36*
X175873766Y-138060481D02*
X175552609Y-137923828D01*
X175552609Y-137675112D01*
X175873766Y-137538359D01*
X175873766Y-138060481D01*
G37*
G36*
X175873766Y-137041025D02*
X175873766Y-136739275D01*
X175910647Y-136767216D01*
X175990606Y-136781744D01*
X175994262Y-136781744D01*
X176066703Y-136767925D01*
X176126850Y-136725966D01*
X176166781Y-136658603D01*
X176179888Y-136568687D01*
X176179888Y-136354719D01*
X175873766Y-136354719D01*
X175873766Y-136084056D01*
X176786134Y-136084056D01*
X176786134Y-136353803D01*
X176418544Y-136353803D01*
X176418544Y-136558628D01*
X176411638Y-136658603D01*
X176391113Y-136752481D01*
X176356975Y-136836912D01*
X176309731Y-136909759D01*
X176248569Y-136970009D01*
X176174400Y-137015828D01*
X176087228Y-137044581D01*
X175986947Y-137054234D01*
X175988778Y-137055150D01*
X175985119Y-137055150D01*
X175894594Y-137047022D01*
X175873766Y-137041025D01*
G37*
G36*
X175873766Y-137041025D02*
X175812297Y-137023144D01*
X175739653Y-136983725D01*
X175677881Y-136929875D01*
X175628300Y-136862819D01*
X175591012Y-136782656D01*
X175567950Y-136690100D01*
X175559922Y-136585147D01*
X175559922Y-136084056D01*
X175873766Y-136084056D01*
X175873766Y-136354719D01*
X175804981Y-136354719D01*
X175804981Y-136563203D01*
X175816769Y-136654134D01*
X175852531Y-136723222D01*
X175873766Y-136739275D01*
X175873766Y-137041025D01*
G37*
G36*
X149000872Y-134264400D02*
X151531928Y-134264400D01*
X151531928Y-141283334D01*
X151296928Y-141283334D01*
X151296928Y-134499400D01*
X149235872Y-134499400D01*
X149235872Y-141365631D01*
X150389641Y-141365631D01*
X150389641Y-142136469D01*
X150256341Y-142227909D01*
X149653753Y-141818259D01*
X149653753Y-142133725D01*
X150051516Y-142391588D01*
X149653753Y-142651278D01*
X149653753Y-142957600D01*
X150252684Y-142547950D01*
X150389641Y-142641422D01*
X150389641Y-143408400D01*
X149000872Y-143408400D01*
X149000872Y-141365631D01*
X149000872Y-134264400D01*
G37*
G36*
X150389641Y-143408400D02*
X150389641Y-142641422D01*
X150879963Y-142975888D01*
X150879963Y-142974059D01*
X150879963Y-142658591D01*
X150459338Y-142383356D01*
X150879963Y-142106294D01*
X150879963Y-141799972D01*
X150389641Y-142136469D01*
X150389641Y-141365631D01*
X151296928Y-141365631D01*
X151296928Y-141283334D01*
X151531928Y-141283334D01*
X151531928Y-141365631D01*
X151531928Y-143408400D01*
X150389641Y-143408400D01*
G37*
G36*
X149637294Y-135355278D02*
X149643997Y-135264753D01*
X149663809Y-135182456D01*
X149695816Y-135109306D01*
X149738791Y-135047125D01*
X149792437Y-134997037D01*
X149854919Y-134959344D01*
X149926344Y-134935875D01*
X149965766Y-134932116D01*
X149965766Y-135199019D01*
X149940262Y-135205012D01*
X149906125Y-135234578D01*
X149883062Y-135283956D01*
X149875037Y-135352537D01*
X149883166Y-135431175D01*
X149907041Y-135509812D01*
X149965766Y-135616391D01*
X149965766Y-135691372D01*
X149792741Y-135810650D01*
X149726194Y-135711284D01*
X149677525Y-135603081D01*
X149647453Y-135484719D01*
X149637294Y-135355278D01*
G37*
G36*
X149965766Y-135691372D02*
X149965766Y-135616391D01*
X149995737Y-135670747D01*
X149965766Y-135691372D01*
G37*
G36*
X149965766Y-135199019D02*
X149965766Y-134932116D01*
X150006709Y-134928253D01*
X150010369Y-134928253D01*
X150093884Y-134935672D01*
X150163072Y-134957516D01*
X150219459Y-134992362D01*
X150265484Y-135038897D01*
X150334981Y-135166912D01*
X150386188Y-135336078D01*
X150422763Y-135461350D01*
X150457509Y-135537244D01*
X150495000Y-135573822D01*
X150541634Y-135583878D01*
X150545291Y-135583878D01*
X150593959Y-135572194D01*
X150630331Y-135537244D01*
X150653394Y-135481466D01*
X150661422Y-135406484D01*
X150651259Y-135305394D01*
X150621188Y-135212631D01*
X150573944Y-135125156D01*
X150512375Y-135039812D01*
X150703484Y-134880706D01*
X150790553Y-134997037D01*
X150851616Y-135125766D01*
X150887888Y-135262009D01*
X150900078Y-135401000D01*
X150893781Y-135496403D01*
X150874475Y-135582966D01*
X150843388Y-135659266D01*
X150801325Y-135724697D01*
X150747375Y-135777428D01*
X150682453Y-135817050D01*
X150606353Y-135841741D01*
X150520603Y-135849969D01*
X150516947Y-135849969D01*
X150513288Y-135849969D01*
X150438409Y-135843672D01*
X150375213Y-135824366D01*
X150321163Y-135792566D01*
X150274628Y-135748472D01*
X150201478Y-135625941D01*
X150146612Y-135459522D01*
X150110037Y-135328762D01*
X150077119Y-135247381D01*
X150037800Y-135206231D01*
X149985678Y-135195259D01*
X149982022Y-135195259D01*
X149965766Y-135199019D01*
G37*
G36*
X149965766Y-140699541D02*
X149965766Y-140383769D01*
X150189591Y-140175997D01*
X149965766Y-140175997D01*
X149965766Y-139906247D01*
X150879963Y-139906247D01*
X150879963Y-140175997D01*
X150505059Y-140175997D01*
X150357841Y-140317728D01*
X150879963Y-140698119D01*
X150879963Y-141021816D01*
X150174047Y-140499694D01*
X149965766Y-140699541D01*
G37*
G36*
X149965766Y-140699541D02*
X149653753Y-140998956D01*
X149653753Y-140673428D01*
X149965766Y-140383769D01*
X149965766Y-140699541D01*
G37*
G36*
X149965766Y-140175997D02*
X149653753Y-140175997D01*
X149653753Y-139906247D01*
X149965766Y-139906247D01*
X149965766Y-140175997D01*
G37*
G36*
X149965766Y-139653672D02*
X149965766Y-139351919D01*
X149995737Y-139374881D01*
X150072547Y-139388697D01*
X150075291Y-139388697D01*
X150145903Y-139375591D01*
X150201478Y-139335663D01*
X150236937Y-139270538D01*
X150249025Y-139182044D01*
X150249025Y-138908638D01*
X149965766Y-138908638D01*
X149965766Y-138638891D01*
X150879963Y-138638891D01*
X150879963Y-138908638D01*
X150487684Y-138908638D01*
X150487684Y-139120778D01*
X150879963Y-139383213D01*
X150879963Y-139698678D01*
X150441966Y-139398756D01*
X150385678Y-139505131D01*
X150304806Y-139588950D01*
X150197412Y-139643713D01*
X150062487Y-139662103D01*
X150058831Y-139662103D01*
X149968712Y-139654584D01*
X149965766Y-139653672D01*
G37*
G36*
X149965766Y-139653672D02*
X149888853Y-139631825D01*
X149819562Y-139593828D01*
X149760737Y-139540488D01*
X149713900Y-139473431D01*
X149680472Y-139394284D01*
X149660456Y-139302947D01*
X149653753Y-139199416D01*
X149653753Y-138638891D01*
X149965766Y-138638891D01*
X149965766Y-138908638D01*
X149896981Y-138908638D01*
X149896981Y-139176556D01*
X149907956Y-139265763D01*
X149940875Y-139332919D01*
X149965766Y-139351919D01*
X149965766Y-139653672D01*
G37*
G36*
X149965766Y-138060481D02*
X149965766Y-137538359D01*
X150879963Y-137149331D01*
X150879963Y-137424566D01*
X149969219Y-137795812D01*
X150879963Y-138167059D01*
X150879963Y-138449609D01*
X149965766Y-138060481D01*
G37*
G36*
X149965766Y-138060481D02*
X149644609Y-137923828D01*
X149644609Y-137675112D01*
X149965766Y-137538359D01*
X149965766Y-138060481D01*
G37*
G36*
X149965766Y-137041025D02*
X149965766Y-136739275D01*
X150002647Y-136767216D01*
X150082606Y-136781744D01*
X150086262Y-136781744D01*
X150158703Y-136767925D01*
X150218850Y-136725966D01*
X150258781Y-136658603D01*
X150271888Y-136568687D01*
X150271888Y-136354719D01*
X149965766Y-136354719D01*
X149965766Y-136084056D01*
X150878134Y-136084056D01*
X150878134Y-136353803D01*
X150510544Y-136353803D01*
X150510544Y-136558628D01*
X150503638Y-136658603D01*
X150483113Y-136752481D01*
X150448975Y-136836912D01*
X150401731Y-136909759D01*
X150340569Y-136970009D01*
X150266400Y-137015828D01*
X150179228Y-137044581D01*
X150078947Y-137054234D01*
X150080778Y-137055150D01*
X150077119Y-137055150D01*
X149986594Y-137047022D01*
X149965766Y-137041025D01*
G37*
G36*
X149965766Y-137041025D02*
X149904297Y-137023144D01*
X149831653Y-136983725D01*
X149769881Y-136929875D01*
X149720300Y-136862819D01*
X149683012Y-136782656D01*
X149659950Y-136690100D01*
X149651922Y-136585147D01*
X149651922Y-136084056D01*
X149965766Y-136084056D01*
X149965766Y-136354719D01*
X149896981Y-136354719D01*
X149896981Y-136563203D01*
X149908769Y-136654134D01*
X149944531Y-136723222D01*
X149965766Y-136739275D01*
X149965766Y-137041025D01*
G37*
G36*
X123092872Y-134264400D02*
X125623928Y-134264400D01*
X125623928Y-141283334D01*
X125388928Y-141283334D01*
X125388928Y-134499400D01*
X123327872Y-134499400D01*
X123327872Y-141365631D01*
X124481641Y-141365631D01*
X124481641Y-142136469D01*
X124348341Y-142227909D01*
X123745753Y-141818259D01*
X123745753Y-142133725D01*
X124143516Y-142391588D01*
X123745753Y-142651278D01*
X123745753Y-142957600D01*
X124344684Y-142547950D01*
X124481641Y-142641422D01*
X124481641Y-143408400D01*
X123092872Y-143408400D01*
X123092872Y-141365631D01*
X123092872Y-134264400D01*
G37*
G36*
X124481641Y-143408400D02*
X124481641Y-142641422D01*
X124971963Y-142975888D01*
X124971963Y-142974059D01*
X124971963Y-142658591D01*
X124551338Y-142383356D01*
X124971963Y-142106294D01*
X124971963Y-141799972D01*
X124481641Y-142136469D01*
X124481641Y-141365631D01*
X125388928Y-141365631D01*
X125388928Y-141283334D01*
X125623928Y-141283334D01*
X125623928Y-141365631D01*
X125623928Y-143408400D01*
X124481641Y-143408400D01*
G37*
G36*
X123729294Y-135355278D02*
X123735997Y-135264753D01*
X123755809Y-135182456D01*
X123787816Y-135109306D01*
X123830791Y-135047125D01*
X123884437Y-134997037D01*
X123946919Y-134959344D01*
X124018344Y-134935875D01*
X124057766Y-134932116D01*
X124057766Y-135199019D01*
X124032262Y-135205012D01*
X123998125Y-135234578D01*
X123975062Y-135283956D01*
X123967037Y-135352537D01*
X123975166Y-135431175D01*
X123999041Y-135509812D01*
X124057766Y-135616391D01*
X124057766Y-135691372D01*
X123884741Y-135810650D01*
X123818194Y-135711284D01*
X123769525Y-135603081D01*
X123739453Y-135484719D01*
X123729294Y-135355278D01*
G37*
G36*
X124057766Y-135691372D02*
X124057766Y-135616391D01*
X124087737Y-135670747D01*
X124057766Y-135691372D01*
G37*
G36*
X124057766Y-135199019D02*
X124057766Y-134932116D01*
X124098709Y-134928253D01*
X124102369Y-134928253D01*
X124185884Y-134935672D01*
X124255072Y-134957516D01*
X124311459Y-134992362D01*
X124357484Y-135038897D01*
X124426981Y-135166912D01*
X124478188Y-135336078D01*
X124514763Y-135461350D01*
X124549509Y-135537244D01*
X124587000Y-135573822D01*
X124633634Y-135583878D01*
X124637291Y-135583878D01*
X124685959Y-135572194D01*
X124722331Y-135537244D01*
X124745394Y-135481466D01*
X124753422Y-135406484D01*
X124743259Y-135305394D01*
X124713188Y-135212631D01*
X124665944Y-135125156D01*
X124604375Y-135039812D01*
X124795484Y-134880706D01*
X124882553Y-134997037D01*
X124943616Y-135125766D01*
X124979888Y-135262009D01*
X124992078Y-135401000D01*
X124985781Y-135496403D01*
X124966475Y-135582966D01*
X124935388Y-135659266D01*
X124893325Y-135724697D01*
X124839375Y-135777428D01*
X124774453Y-135817050D01*
X124698353Y-135841741D01*
X124612603Y-135849969D01*
X124608947Y-135849969D01*
X124605288Y-135849969D01*
X124530409Y-135843672D01*
X124467213Y-135824366D01*
X124413163Y-135792566D01*
X124366628Y-135748472D01*
X124293478Y-135625941D01*
X124238612Y-135459522D01*
X124202037Y-135328762D01*
X124169119Y-135247381D01*
X124129800Y-135206231D01*
X124077678Y-135195259D01*
X124074022Y-135195259D01*
X124057766Y-135199019D01*
G37*
G36*
X124057766Y-140699541D02*
X124057766Y-140383769D01*
X124281591Y-140175997D01*
X124057766Y-140175997D01*
X124057766Y-139906247D01*
X124971963Y-139906247D01*
X124971963Y-140175997D01*
X124597059Y-140175997D01*
X124449841Y-140317728D01*
X124971963Y-140698119D01*
X124971963Y-141021816D01*
X124266047Y-140499694D01*
X124057766Y-140699541D01*
G37*
G36*
X124057766Y-140699541D02*
X123745753Y-140998956D01*
X123745753Y-140673428D01*
X124057766Y-140383769D01*
X124057766Y-140699541D01*
G37*
G36*
X124057766Y-140175997D02*
X123745753Y-140175997D01*
X123745753Y-139906247D01*
X124057766Y-139906247D01*
X124057766Y-140175997D01*
G37*
G36*
X124057766Y-139653672D02*
X124057766Y-139351919D01*
X124087737Y-139374881D01*
X124164547Y-139388697D01*
X124167291Y-139388697D01*
X124237903Y-139375591D01*
X124293478Y-139335663D01*
X124328937Y-139270538D01*
X124341025Y-139182044D01*
X124341025Y-138908638D01*
X124057766Y-138908638D01*
X124057766Y-138638891D01*
X124971963Y-138638891D01*
X124971963Y-138908638D01*
X124579684Y-138908638D01*
X124579684Y-139120778D01*
X124971963Y-139383213D01*
X124971963Y-139698678D01*
X124533966Y-139398756D01*
X124477678Y-139505131D01*
X124396806Y-139588950D01*
X124289412Y-139643713D01*
X124154487Y-139662103D01*
X124150831Y-139662103D01*
X124060712Y-139654584D01*
X124057766Y-139653672D01*
G37*
G36*
X124057766Y-139653672D02*
X123980853Y-139631825D01*
X123911562Y-139593828D01*
X123852737Y-139540488D01*
X123805900Y-139473431D01*
X123772472Y-139394284D01*
X123752456Y-139302947D01*
X123745753Y-139199416D01*
X123745753Y-138638891D01*
X124057766Y-138638891D01*
X124057766Y-138908638D01*
X123988981Y-138908638D01*
X123988981Y-139176556D01*
X123999956Y-139265763D01*
X124032875Y-139332919D01*
X124057766Y-139351919D01*
X124057766Y-139653672D01*
G37*
G36*
X124057766Y-138060481D02*
X124057766Y-137538359D01*
X124971963Y-137149331D01*
X124971963Y-137424566D01*
X124061219Y-137795812D01*
X124971963Y-138167059D01*
X124971963Y-138449609D01*
X124057766Y-138060481D01*
G37*
G36*
X124057766Y-138060481D02*
X123736609Y-137923828D01*
X123736609Y-137675112D01*
X124057766Y-137538359D01*
X124057766Y-138060481D01*
G37*
G36*
X124057766Y-137041025D02*
X124057766Y-136739275D01*
X124094647Y-136767216D01*
X124174606Y-136781744D01*
X124178262Y-136781744D01*
X124250703Y-136767925D01*
X124310850Y-136725966D01*
X124350781Y-136658603D01*
X124363888Y-136568687D01*
X124363888Y-136354719D01*
X124057766Y-136354719D01*
X124057766Y-136084056D01*
X124970134Y-136084056D01*
X124970134Y-136353803D01*
X124602544Y-136353803D01*
X124602544Y-136558628D01*
X124595638Y-136658603D01*
X124575113Y-136752481D01*
X124540975Y-136836912D01*
X124493731Y-136909759D01*
X124432569Y-136970009D01*
X124358400Y-137015828D01*
X124271228Y-137044581D01*
X124170947Y-137054234D01*
X124172778Y-137055150D01*
X124169119Y-137055150D01*
X124078594Y-137047022D01*
X124057766Y-137041025D01*
G37*
G36*
X124057766Y-137041025D02*
X123996297Y-137023144D01*
X123923653Y-136983725D01*
X123861881Y-136929875D01*
X123812300Y-136862819D01*
X123775012Y-136782656D01*
X123751950Y-136690100D01*
X123743922Y-136585147D01*
X123743922Y-136084056D01*
X124057766Y-136084056D01*
X124057766Y-136354719D01*
X123988981Y-136354719D01*
X123988981Y-136563203D01*
X124000769Y-136654134D01*
X124036531Y-136723222D01*
X124057766Y-136739275D01*
X124057766Y-137041025D01*
G37*
G36*
X97184872Y-134264400D02*
X99715928Y-134264400D01*
X99715928Y-141283334D01*
X99480928Y-141283334D01*
X99480928Y-134499400D01*
X97419872Y-134499400D01*
X97419872Y-141365631D01*
X98573641Y-141365631D01*
X98573641Y-142136469D01*
X98440341Y-142227909D01*
X97837753Y-141818259D01*
X97837753Y-142133725D01*
X98235516Y-142391588D01*
X97837753Y-142651278D01*
X97837753Y-142957600D01*
X98436684Y-142547950D01*
X98573641Y-142641422D01*
X98573641Y-143408400D01*
X97184872Y-143408400D01*
X97184872Y-141365631D01*
X97184872Y-134264400D01*
G37*
G36*
X98573641Y-143408400D02*
X98573641Y-142641422D01*
X99063963Y-142975888D01*
X99063963Y-142974059D01*
X99063963Y-142658591D01*
X98643338Y-142383356D01*
X99063963Y-142106294D01*
X99063963Y-141799972D01*
X98573641Y-142136469D01*
X98573641Y-141365631D01*
X99480928Y-141365631D01*
X99480928Y-141283334D01*
X99715928Y-141283334D01*
X99715928Y-141365631D01*
X99715928Y-143408400D01*
X98573641Y-143408400D01*
G37*
G36*
X97821294Y-135355278D02*
X97827997Y-135264753D01*
X97847809Y-135182456D01*
X97879816Y-135109306D01*
X97922791Y-135047125D01*
X97976437Y-134997037D01*
X98038919Y-134959344D01*
X98110344Y-134935875D01*
X98149766Y-134932116D01*
X98149766Y-135199019D01*
X98124262Y-135205012D01*
X98090125Y-135234578D01*
X98067062Y-135283956D01*
X98059037Y-135352537D01*
X98067166Y-135431175D01*
X98091041Y-135509812D01*
X98149766Y-135616391D01*
X98149766Y-135691372D01*
X97976741Y-135810650D01*
X97910194Y-135711284D01*
X97861525Y-135603081D01*
X97831453Y-135484719D01*
X97821294Y-135355278D01*
G37*
G36*
X98149766Y-135691372D02*
X98149766Y-135616391D01*
X98179737Y-135670747D01*
X98149766Y-135691372D01*
G37*
G36*
X98149766Y-135199019D02*
X98149766Y-134932116D01*
X98190709Y-134928253D01*
X98194369Y-134928253D01*
X98277884Y-134935672D01*
X98347072Y-134957516D01*
X98403459Y-134992362D01*
X98449484Y-135038897D01*
X98518981Y-135166912D01*
X98570188Y-135336078D01*
X98606763Y-135461350D01*
X98641509Y-135537244D01*
X98679000Y-135573822D01*
X98725634Y-135583878D01*
X98729291Y-135583878D01*
X98777959Y-135572194D01*
X98814331Y-135537244D01*
X98837394Y-135481466D01*
X98845422Y-135406484D01*
X98835259Y-135305394D01*
X98805188Y-135212631D01*
X98757944Y-135125156D01*
X98696375Y-135039812D01*
X98887484Y-134880706D01*
X98974553Y-134997037D01*
X99035616Y-135125766D01*
X99071888Y-135262009D01*
X99084078Y-135401000D01*
X99077781Y-135496403D01*
X99058475Y-135582966D01*
X99027388Y-135659266D01*
X98985325Y-135724697D01*
X98931375Y-135777428D01*
X98866453Y-135817050D01*
X98790353Y-135841741D01*
X98704603Y-135849969D01*
X98700947Y-135849969D01*
X98697288Y-135849969D01*
X98622409Y-135843672D01*
X98559213Y-135824366D01*
X98505163Y-135792566D01*
X98458628Y-135748472D01*
X98385478Y-135625941D01*
X98330612Y-135459522D01*
X98294037Y-135328762D01*
X98261119Y-135247381D01*
X98221800Y-135206231D01*
X98169678Y-135195259D01*
X98166022Y-135195259D01*
X98149766Y-135199019D01*
G37*
G36*
X98149766Y-140699541D02*
X98149766Y-140383769D01*
X98373591Y-140175997D01*
X98149766Y-140175997D01*
X98149766Y-139906247D01*
X99063963Y-139906247D01*
X99063963Y-140175997D01*
X98689059Y-140175997D01*
X98541841Y-140317728D01*
X99063963Y-140698119D01*
X99063963Y-141021816D01*
X98358047Y-140499694D01*
X98149766Y-140699541D01*
G37*
G36*
X98149766Y-140699541D02*
X97837753Y-140998956D01*
X97837753Y-140673428D01*
X98149766Y-140383769D01*
X98149766Y-140699541D01*
G37*
G36*
X98149766Y-140175997D02*
X97837753Y-140175997D01*
X97837753Y-139906247D01*
X98149766Y-139906247D01*
X98149766Y-140175997D01*
G37*
G36*
X98149766Y-139653672D02*
X98149766Y-139351919D01*
X98179737Y-139374881D01*
X98256547Y-139388697D01*
X98259291Y-139388697D01*
X98329903Y-139375591D01*
X98385478Y-139335663D01*
X98420937Y-139270538D01*
X98433025Y-139182044D01*
X98433025Y-138908638D01*
X98149766Y-138908638D01*
X98149766Y-138638891D01*
X99063963Y-138638891D01*
X99063963Y-138908638D01*
X98671684Y-138908638D01*
X98671684Y-139120778D01*
X99063963Y-139383213D01*
X99063963Y-139698678D01*
X98625966Y-139398756D01*
X98569678Y-139505131D01*
X98488806Y-139588950D01*
X98381412Y-139643713D01*
X98246487Y-139662103D01*
X98242831Y-139662103D01*
X98152712Y-139654584D01*
X98149766Y-139653672D01*
G37*
G36*
X98149766Y-139653672D02*
X98072853Y-139631825D01*
X98003562Y-139593828D01*
X97944737Y-139540488D01*
X97897900Y-139473431D01*
X97864472Y-139394284D01*
X97844456Y-139302947D01*
X97837753Y-139199416D01*
X97837753Y-138638891D01*
X98149766Y-138638891D01*
X98149766Y-138908638D01*
X98080981Y-138908638D01*
X98080981Y-139176556D01*
X98091956Y-139265763D01*
X98124875Y-139332919D01*
X98149766Y-139351919D01*
X98149766Y-139653672D01*
G37*
G36*
X98149766Y-138060481D02*
X98149766Y-137538359D01*
X99063963Y-137149331D01*
X99063963Y-137424566D01*
X98153219Y-137795812D01*
X99063963Y-138167059D01*
X99063963Y-138449609D01*
X98149766Y-138060481D01*
G37*
G36*
X98149766Y-138060481D02*
X97828609Y-137923828D01*
X97828609Y-137675112D01*
X98149766Y-137538359D01*
X98149766Y-138060481D01*
G37*
G36*
X98149766Y-137041025D02*
X98149766Y-136739275D01*
X98186647Y-136767216D01*
X98266606Y-136781744D01*
X98270262Y-136781744D01*
X98342703Y-136767925D01*
X98402850Y-136725966D01*
X98442781Y-136658603D01*
X98455888Y-136568687D01*
X98455888Y-136354719D01*
X98149766Y-136354719D01*
X98149766Y-136084056D01*
X99062134Y-136084056D01*
X99062134Y-136353803D01*
X98694544Y-136353803D01*
X98694544Y-136558628D01*
X98687638Y-136658603D01*
X98667113Y-136752481D01*
X98632975Y-136836912D01*
X98585731Y-136909759D01*
X98524569Y-136970009D01*
X98450400Y-137015828D01*
X98363228Y-137044581D01*
X98262947Y-137054234D01*
X98264778Y-137055150D01*
X98261119Y-137055150D01*
X98170594Y-137047022D01*
X98149766Y-137041025D01*
G37*
G36*
X98149766Y-137041025D02*
X98088297Y-137023144D01*
X98015653Y-136983725D01*
X97953881Y-136929875D01*
X97904300Y-136862819D01*
X97867012Y-136782656D01*
X97843950Y-136690100D01*
X97835922Y-136585147D01*
X97835922Y-136084056D01*
X98149766Y-136084056D01*
X98149766Y-136354719D01*
X98080981Y-136354719D01*
X98080981Y-136563203D01*
X98092769Y-136654134D01*
X98128531Y-136723222D01*
X98149766Y-136739275D01*
X98149766Y-137041025D01*
G37*
G36*
X200816872Y-82956400D02*
X203347928Y-82956400D01*
X203347928Y-89975334D01*
X203112928Y-89975334D01*
X203112928Y-83191400D01*
X201051872Y-83191400D01*
X201051872Y-90057631D01*
X202205641Y-90057631D01*
X202205641Y-90828469D01*
X202072341Y-90919909D01*
X201469753Y-90510259D01*
X201469753Y-90825725D01*
X201867516Y-91083588D01*
X201469753Y-91343278D01*
X201469753Y-91649600D01*
X202068684Y-91239950D01*
X202205641Y-91333422D01*
X202205641Y-92100400D01*
X200816872Y-92100400D01*
X200816872Y-90057631D01*
X200816872Y-82956400D01*
G37*
G36*
X202205641Y-92100400D02*
X202205641Y-91333422D01*
X202695963Y-91667888D01*
X202695963Y-91666059D01*
X202695963Y-91350591D01*
X202275338Y-91075356D01*
X202695963Y-90798294D01*
X202695963Y-90491972D01*
X202205641Y-90828469D01*
X202205641Y-90057631D01*
X203112928Y-90057631D01*
X203112928Y-89975334D01*
X203347928Y-89975334D01*
X203347928Y-90057631D01*
X203347928Y-92100400D01*
X202205641Y-92100400D01*
G37*
G36*
X201453294Y-84047278D02*
X201459997Y-83956753D01*
X201479809Y-83874456D01*
X201511816Y-83801306D01*
X201554791Y-83739125D01*
X201608437Y-83689037D01*
X201670919Y-83651344D01*
X201742344Y-83627875D01*
X201781766Y-83624116D01*
X201781766Y-83891019D01*
X201756262Y-83897012D01*
X201722125Y-83926578D01*
X201699062Y-83975956D01*
X201691037Y-84044537D01*
X201699166Y-84123175D01*
X201723041Y-84201812D01*
X201781766Y-84308391D01*
X201781766Y-84383372D01*
X201608741Y-84502650D01*
X201542194Y-84403284D01*
X201493525Y-84295081D01*
X201463453Y-84176719D01*
X201453294Y-84047278D01*
G37*
G36*
X201781766Y-84383372D02*
X201781766Y-84308391D01*
X201811737Y-84362747D01*
X201781766Y-84383372D01*
G37*
G36*
X201781766Y-83891019D02*
X201781766Y-83624116D01*
X201822709Y-83620253D01*
X201826369Y-83620253D01*
X201909884Y-83627672D01*
X201979072Y-83649516D01*
X202035459Y-83684362D01*
X202081484Y-83730897D01*
X202150981Y-83858912D01*
X202202188Y-84028078D01*
X202238763Y-84153350D01*
X202273509Y-84229244D01*
X202311000Y-84265822D01*
X202357634Y-84275878D01*
X202361291Y-84275878D01*
X202409959Y-84264194D01*
X202446331Y-84229244D01*
X202469394Y-84173466D01*
X202477422Y-84098484D01*
X202467259Y-83997394D01*
X202437188Y-83904631D01*
X202389944Y-83817156D01*
X202328375Y-83731812D01*
X202519484Y-83572706D01*
X202606553Y-83689037D01*
X202667616Y-83817766D01*
X202703888Y-83954009D01*
X202716078Y-84093000D01*
X202709781Y-84188403D01*
X202690475Y-84274966D01*
X202659388Y-84351266D01*
X202617325Y-84416697D01*
X202563375Y-84469428D01*
X202498453Y-84509050D01*
X202422353Y-84533741D01*
X202336603Y-84541969D01*
X202332947Y-84541969D01*
X202329288Y-84541969D01*
X202254409Y-84535672D01*
X202191213Y-84516366D01*
X202137163Y-84484566D01*
X202090628Y-84440472D01*
X202017478Y-84317941D01*
X201962612Y-84151522D01*
X201926037Y-84020762D01*
X201893119Y-83939381D01*
X201853800Y-83898231D01*
X201801678Y-83887259D01*
X201798022Y-83887259D01*
X201781766Y-83891019D01*
G37*
G36*
X201781766Y-89391541D02*
X201781766Y-89075769D01*
X202005591Y-88867997D01*
X201781766Y-88867997D01*
X201781766Y-88598247D01*
X202695963Y-88598247D01*
X202695963Y-88867997D01*
X202321059Y-88867997D01*
X202173841Y-89009728D01*
X202695963Y-89390119D01*
X202695963Y-89713816D01*
X201990047Y-89191694D01*
X201781766Y-89391541D01*
G37*
G36*
X201781766Y-89391541D02*
X201469753Y-89690956D01*
X201469753Y-89365428D01*
X201781766Y-89075769D01*
X201781766Y-89391541D01*
G37*
G36*
X201781766Y-88867997D02*
X201469753Y-88867997D01*
X201469753Y-88598247D01*
X201781766Y-88598247D01*
X201781766Y-88867997D01*
G37*
G36*
X201781766Y-88345672D02*
X201781766Y-88043919D01*
X201811737Y-88066881D01*
X201888547Y-88080697D01*
X201891291Y-88080697D01*
X201961903Y-88067591D01*
X202017478Y-88027663D01*
X202052937Y-87962538D01*
X202065025Y-87874044D01*
X202065025Y-87600638D01*
X201781766Y-87600638D01*
X201781766Y-87330891D01*
X202695963Y-87330891D01*
X202695963Y-87600638D01*
X202303684Y-87600638D01*
X202303684Y-87812778D01*
X202695963Y-88075213D01*
X202695963Y-88390678D01*
X202257966Y-88090756D01*
X202201678Y-88197131D01*
X202120806Y-88280950D01*
X202013412Y-88335713D01*
X201878487Y-88354103D01*
X201874831Y-88354103D01*
X201784712Y-88346584D01*
X201781766Y-88345672D01*
G37*
G36*
X201781766Y-88345672D02*
X201704853Y-88323825D01*
X201635562Y-88285828D01*
X201576737Y-88232488D01*
X201529900Y-88165431D01*
X201496472Y-88086284D01*
X201476456Y-87994947D01*
X201469753Y-87891416D01*
X201469753Y-87330891D01*
X201781766Y-87330891D01*
X201781766Y-87600638D01*
X201712981Y-87600638D01*
X201712981Y-87868556D01*
X201723956Y-87957763D01*
X201756875Y-88024919D01*
X201781766Y-88043919D01*
X201781766Y-88345672D01*
G37*
G36*
X201781766Y-86752481D02*
X201781766Y-86230359D01*
X202695963Y-85841331D01*
X202695963Y-86116566D01*
X201785219Y-86487812D01*
X202695963Y-86859059D01*
X202695963Y-87141609D01*
X201781766Y-86752481D01*
G37*
G36*
X201781766Y-86752481D02*
X201460609Y-86615828D01*
X201460609Y-86367112D01*
X201781766Y-86230359D01*
X201781766Y-86752481D01*
G37*
G36*
X201781766Y-85733025D02*
X201781766Y-85431275D01*
X201818647Y-85459216D01*
X201898606Y-85473744D01*
X201902262Y-85473744D01*
X201974703Y-85459925D01*
X202034850Y-85417966D01*
X202074781Y-85350603D01*
X202087888Y-85260687D01*
X202087888Y-85046719D01*
X201781766Y-85046719D01*
X201781766Y-84776056D01*
X202694134Y-84776056D01*
X202694134Y-85045803D01*
X202326544Y-85045803D01*
X202326544Y-85250628D01*
X202319638Y-85350603D01*
X202299113Y-85444481D01*
X202264975Y-85528912D01*
X202217731Y-85601759D01*
X202156569Y-85662009D01*
X202082400Y-85707828D01*
X201995228Y-85736581D01*
X201894947Y-85746234D01*
X201896778Y-85747150D01*
X201893119Y-85747150D01*
X201802594Y-85739022D01*
X201781766Y-85733025D01*
G37*
G36*
X201781766Y-85733025D02*
X201720297Y-85715144D01*
X201647653Y-85675725D01*
X201585881Y-85621875D01*
X201536300Y-85554819D01*
X201499012Y-85474656D01*
X201475950Y-85382100D01*
X201467922Y-85277147D01*
X201467922Y-84776056D01*
X201781766Y-84776056D01*
X201781766Y-85046719D01*
X201712981Y-85046719D01*
X201712981Y-85255203D01*
X201724769Y-85346134D01*
X201760531Y-85415222D01*
X201781766Y-85431275D01*
X201781766Y-85733025D01*
G37*
G36*
X174908872Y-82956400D02*
X177439928Y-82956400D01*
X177439928Y-89975334D01*
X177204928Y-89975334D01*
X177204928Y-83191400D01*
X175143872Y-83191400D01*
X175143872Y-90057631D01*
X176297641Y-90057631D01*
X176297641Y-90828469D01*
X176164341Y-90919909D01*
X175561753Y-90510259D01*
X175561753Y-90825725D01*
X175959516Y-91083588D01*
X175561753Y-91343278D01*
X175561753Y-91649600D01*
X176160684Y-91239950D01*
X176297641Y-91333422D01*
X176297641Y-92100400D01*
X174908872Y-92100400D01*
X174908872Y-90057631D01*
X174908872Y-82956400D01*
G37*
G36*
X176297641Y-92100400D02*
X176297641Y-91333422D01*
X176787963Y-91667888D01*
X176787963Y-91666059D01*
X176787963Y-91350591D01*
X176367338Y-91075356D01*
X176787963Y-90798294D01*
X176787963Y-90491972D01*
X176297641Y-90828469D01*
X176297641Y-90057631D01*
X177204928Y-90057631D01*
X177204928Y-89975334D01*
X177439928Y-89975334D01*
X177439928Y-90057631D01*
X177439928Y-92100400D01*
X176297641Y-92100400D01*
G37*
G36*
X175545294Y-84047278D02*
X175551997Y-83956753D01*
X175571809Y-83874456D01*
X175603816Y-83801306D01*
X175646791Y-83739125D01*
X175700437Y-83689037D01*
X175762919Y-83651344D01*
X175834344Y-83627875D01*
X175873766Y-83624116D01*
X175873766Y-83891019D01*
X175848262Y-83897012D01*
X175814125Y-83926578D01*
X175791062Y-83975956D01*
X175783037Y-84044537D01*
X175791166Y-84123175D01*
X175815041Y-84201812D01*
X175873766Y-84308391D01*
X175873766Y-84383372D01*
X175700741Y-84502650D01*
X175634194Y-84403284D01*
X175585525Y-84295081D01*
X175555453Y-84176719D01*
X175545294Y-84047278D01*
G37*
G36*
X175873766Y-84383372D02*
X175873766Y-84308391D01*
X175903737Y-84362747D01*
X175873766Y-84383372D01*
G37*
G36*
X175873766Y-83891019D02*
X175873766Y-83624116D01*
X175914709Y-83620253D01*
X175918369Y-83620253D01*
X176001884Y-83627672D01*
X176071072Y-83649516D01*
X176127459Y-83684362D01*
X176173484Y-83730897D01*
X176242981Y-83858912D01*
X176294188Y-84028078D01*
X176330763Y-84153350D01*
X176365509Y-84229244D01*
X176403000Y-84265822D01*
X176449634Y-84275878D01*
X176453291Y-84275878D01*
X176501959Y-84264194D01*
X176538331Y-84229244D01*
X176561394Y-84173466D01*
X176569422Y-84098484D01*
X176559259Y-83997394D01*
X176529188Y-83904631D01*
X176481944Y-83817156D01*
X176420375Y-83731812D01*
X176611484Y-83572706D01*
X176698553Y-83689037D01*
X176759616Y-83817766D01*
X176795888Y-83954009D01*
X176808078Y-84093000D01*
X176801781Y-84188403D01*
X176782475Y-84274966D01*
X176751388Y-84351266D01*
X176709325Y-84416697D01*
X176655375Y-84469428D01*
X176590453Y-84509050D01*
X176514353Y-84533741D01*
X176428603Y-84541969D01*
X176424947Y-84541969D01*
X176421288Y-84541969D01*
X176346409Y-84535672D01*
X176283213Y-84516366D01*
X176229163Y-84484566D01*
X176182628Y-84440472D01*
X176109478Y-84317941D01*
X176054612Y-84151522D01*
X176018037Y-84020762D01*
X175985119Y-83939381D01*
X175945800Y-83898231D01*
X175893678Y-83887259D01*
X175890022Y-83887259D01*
X175873766Y-83891019D01*
G37*
G36*
X175873766Y-89391541D02*
X175873766Y-89075769D01*
X176097591Y-88867997D01*
X175873766Y-88867997D01*
X175873766Y-88598247D01*
X176787963Y-88598247D01*
X176787963Y-88867997D01*
X176413059Y-88867997D01*
X176265841Y-89009728D01*
X176787963Y-89390119D01*
X176787963Y-89713816D01*
X176082047Y-89191694D01*
X175873766Y-89391541D01*
G37*
G36*
X175873766Y-89391541D02*
X175561753Y-89690956D01*
X175561753Y-89365428D01*
X175873766Y-89075769D01*
X175873766Y-89391541D01*
G37*
G36*
X175873766Y-88867997D02*
X175561753Y-88867997D01*
X175561753Y-88598247D01*
X175873766Y-88598247D01*
X175873766Y-88867997D01*
G37*
G36*
X175873766Y-88345672D02*
X175873766Y-88043919D01*
X175903737Y-88066881D01*
X175980547Y-88080697D01*
X175983291Y-88080697D01*
X176053903Y-88067591D01*
X176109478Y-88027663D01*
X176144937Y-87962538D01*
X176157025Y-87874044D01*
X176157025Y-87600638D01*
X175873766Y-87600638D01*
X175873766Y-87330891D01*
X176787963Y-87330891D01*
X176787963Y-87600638D01*
X176395684Y-87600638D01*
X176395684Y-87812778D01*
X176787963Y-88075213D01*
X176787963Y-88390678D01*
X176349966Y-88090756D01*
X176293678Y-88197131D01*
X176212806Y-88280950D01*
X176105412Y-88335713D01*
X175970487Y-88354103D01*
X175966831Y-88354103D01*
X175876712Y-88346584D01*
X175873766Y-88345672D01*
G37*
G36*
X175873766Y-88345672D02*
X175796853Y-88323825D01*
X175727562Y-88285828D01*
X175668737Y-88232488D01*
X175621900Y-88165431D01*
X175588472Y-88086284D01*
X175568456Y-87994947D01*
X175561753Y-87891416D01*
X175561753Y-87330891D01*
X175873766Y-87330891D01*
X175873766Y-87600638D01*
X175804981Y-87600638D01*
X175804981Y-87868556D01*
X175815956Y-87957763D01*
X175848875Y-88024919D01*
X175873766Y-88043919D01*
X175873766Y-88345672D01*
G37*
G36*
X175873766Y-86752481D02*
X175873766Y-86230359D01*
X176787963Y-85841331D01*
X176787963Y-86116566D01*
X175877219Y-86487812D01*
X176787963Y-86859059D01*
X176787963Y-87141609D01*
X175873766Y-86752481D01*
G37*
G36*
X175873766Y-86752481D02*
X175552609Y-86615828D01*
X175552609Y-86367112D01*
X175873766Y-86230359D01*
X175873766Y-86752481D01*
G37*
G36*
X175873766Y-85733025D02*
X175873766Y-85431275D01*
X175910647Y-85459216D01*
X175990606Y-85473744D01*
X175994262Y-85473744D01*
X176066703Y-85459925D01*
X176126850Y-85417966D01*
X176166781Y-85350603D01*
X176179888Y-85260687D01*
X176179888Y-85046719D01*
X175873766Y-85046719D01*
X175873766Y-84776056D01*
X176786134Y-84776056D01*
X176786134Y-85045803D01*
X176418544Y-85045803D01*
X176418544Y-85250628D01*
X176411638Y-85350603D01*
X176391113Y-85444481D01*
X176356975Y-85528912D01*
X176309731Y-85601759D01*
X176248569Y-85662009D01*
X176174400Y-85707828D01*
X176087228Y-85736581D01*
X175986947Y-85746234D01*
X175988778Y-85747150D01*
X175985119Y-85747150D01*
X175894594Y-85739022D01*
X175873766Y-85733025D01*
G37*
G36*
X175873766Y-85733025D02*
X175812297Y-85715144D01*
X175739653Y-85675725D01*
X175677881Y-85621875D01*
X175628300Y-85554819D01*
X175591012Y-85474656D01*
X175567950Y-85382100D01*
X175559922Y-85277147D01*
X175559922Y-84776056D01*
X175873766Y-84776056D01*
X175873766Y-85046719D01*
X175804981Y-85046719D01*
X175804981Y-85255203D01*
X175816769Y-85346134D01*
X175852531Y-85415222D01*
X175873766Y-85431275D01*
X175873766Y-85733025D01*
G37*
G36*
X149000872Y-82956400D02*
X151531928Y-82956400D01*
X151531928Y-89975334D01*
X151296928Y-89975334D01*
X151296928Y-83191400D01*
X149235872Y-83191400D01*
X149235872Y-90057631D01*
X150389641Y-90057631D01*
X150389641Y-90828469D01*
X150256341Y-90919909D01*
X149653753Y-90510259D01*
X149653753Y-90825725D01*
X150051516Y-91083588D01*
X149653753Y-91343278D01*
X149653753Y-91649600D01*
X150252684Y-91239950D01*
X150389641Y-91333422D01*
X150389641Y-92100400D01*
X149000872Y-92100400D01*
X149000872Y-90057631D01*
X149000872Y-82956400D01*
G37*
G36*
X150389641Y-92100400D02*
X150389641Y-91333422D01*
X150879963Y-91667888D01*
X150879963Y-91666059D01*
X150879963Y-91350591D01*
X150459338Y-91075356D01*
X150879963Y-90798294D01*
X150879963Y-90491972D01*
X150389641Y-90828469D01*
X150389641Y-90057631D01*
X151296928Y-90057631D01*
X151296928Y-89975334D01*
X151531928Y-89975334D01*
X151531928Y-90057631D01*
X151531928Y-92100400D01*
X150389641Y-92100400D01*
G37*
G36*
X149637294Y-84047278D02*
X149643997Y-83956753D01*
X149663809Y-83874456D01*
X149695816Y-83801306D01*
X149738791Y-83739125D01*
X149792437Y-83689037D01*
X149854919Y-83651344D01*
X149926344Y-83627875D01*
X149965766Y-83624116D01*
X149965766Y-83891019D01*
X149940262Y-83897012D01*
X149906125Y-83926578D01*
X149883062Y-83975956D01*
X149875037Y-84044537D01*
X149883166Y-84123175D01*
X149907041Y-84201812D01*
X149965766Y-84308391D01*
X149965766Y-84383372D01*
X149792741Y-84502650D01*
X149726194Y-84403284D01*
X149677525Y-84295081D01*
X149647453Y-84176719D01*
X149637294Y-84047278D01*
G37*
G36*
X149965766Y-84383372D02*
X149965766Y-84308391D01*
X149995737Y-84362747D01*
X149965766Y-84383372D01*
G37*
G36*
X149965766Y-83891019D02*
X149965766Y-83624116D01*
X150006709Y-83620253D01*
X150010369Y-83620253D01*
X150093884Y-83627672D01*
X150163072Y-83649516D01*
X150219459Y-83684362D01*
X150265484Y-83730897D01*
X150334981Y-83858912D01*
X150386188Y-84028078D01*
X150422763Y-84153350D01*
X150457509Y-84229244D01*
X150495000Y-84265822D01*
X150541634Y-84275878D01*
X150545291Y-84275878D01*
X150593959Y-84264194D01*
X150630331Y-84229244D01*
X150653394Y-84173466D01*
X150661422Y-84098484D01*
X150651259Y-83997394D01*
X150621188Y-83904631D01*
X150573944Y-83817156D01*
X150512375Y-83731812D01*
X150703484Y-83572706D01*
X150790553Y-83689037D01*
X150851616Y-83817766D01*
X150887888Y-83954009D01*
X150900078Y-84093000D01*
X150893781Y-84188403D01*
X150874475Y-84274966D01*
X150843388Y-84351266D01*
X150801325Y-84416697D01*
X150747375Y-84469428D01*
X150682453Y-84509050D01*
X150606353Y-84533741D01*
X150520603Y-84541969D01*
X150516947Y-84541969D01*
X150513288Y-84541969D01*
X150438409Y-84535672D01*
X150375213Y-84516366D01*
X150321163Y-84484566D01*
X150274628Y-84440472D01*
X150201478Y-84317941D01*
X150146612Y-84151522D01*
X150110037Y-84020762D01*
X150077119Y-83939381D01*
X150037800Y-83898231D01*
X149985678Y-83887259D01*
X149982022Y-83887259D01*
X149965766Y-83891019D01*
G37*
G36*
X149965766Y-89391541D02*
X149965766Y-89075769D01*
X150189591Y-88867997D01*
X149965766Y-88867997D01*
X149965766Y-88598247D01*
X150879963Y-88598247D01*
X150879963Y-88867997D01*
X150505059Y-88867997D01*
X150357841Y-89009728D01*
X150879963Y-89390119D01*
X150879963Y-89713816D01*
X150174047Y-89191694D01*
X149965766Y-89391541D01*
G37*
G36*
X149965766Y-89391541D02*
X149653753Y-89690956D01*
X149653753Y-89365428D01*
X149965766Y-89075769D01*
X149965766Y-89391541D01*
G37*
G36*
X149965766Y-88867997D02*
X149653753Y-88867997D01*
X149653753Y-88598247D01*
X149965766Y-88598247D01*
X149965766Y-88867997D01*
G37*
G36*
X149965766Y-88345672D02*
X149965766Y-88043919D01*
X149995737Y-88066881D01*
X150072547Y-88080697D01*
X150075291Y-88080697D01*
X150145903Y-88067591D01*
X150201478Y-88027663D01*
X150236937Y-87962538D01*
X150249025Y-87874044D01*
X150249025Y-87600638D01*
X149965766Y-87600638D01*
X149965766Y-87330891D01*
X150879963Y-87330891D01*
X150879963Y-87600638D01*
X150487684Y-87600638D01*
X150487684Y-87812778D01*
X150879963Y-88075213D01*
X150879963Y-88390678D01*
X150441966Y-88090756D01*
X150385678Y-88197131D01*
X150304806Y-88280950D01*
X150197412Y-88335713D01*
X150062487Y-88354103D01*
X150058831Y-88354103D01*
X149968712Y-88346584D01*
X149965766Y-88345672D01*
G37*
G36*
X149965766Y-88345672D02*
X149888853Y-88323825D01*
X149819562Y-88285828D01*
X149760737Y-88232488D01*
X149713900Y-88165431D01*
X149680472Y-88086284D01*
X149660456Y-87994947D01*
X149653753Y-87891416D01*
X149653753Y-87330891D01*
X149965766Y-87330891D01*
X149965766Y-87600638D01*
X149896981Y-87600638D01*
X149896981Y-87868556D01*
X149907956Y-87957763D01*
X149940875Y-88024919D01*
X149965766Y-88043919D01*
X149965766Y-88345672D01*
G37*
G36*
X149965766Y-86752481D02*
X149965766Y-86230359D01*
X150879963Y-85841331D01*
X150879963Y-86116566D01*
X149969219Y-86487812D01*
X150879963Y-86859059D01*
X150879963Y-87141609D01*
X149965766Y-86752481D01*
G37*
G36*
X149965766Y-86752481D02*
X149644609Y-86615828D01*
X149644609Y-86367112D01*
X149965766Y-86230359D01*
X149965766Y-86752481D01*
G37*
G36*
X149965766Y-85733025D02*
X149965766Y-85431275D01*
X150002647Y-85459216D01*
X150082606Y-85473744D01*
X150086262Y-85473744D01*
X150158703Y-85459925D01*
X150218850Y-85417966D01*
X150258781Y-85350603D01*
X150271888Y-85260687D01*
X150271888Y-85046719D01*
X149965766Y-85046719D01*
X149965766Y-84776056D01*
X150878134Y-84776056D01*
X150878134Y-85045803D01*
X150510544Y-85045803D01*
X150510544Y-85250628D01*
X150503638Y-85350603D01*
X150483113Y-85444481D01*
X150448975Y-85528912D01*
X150401731Y-85601759D01*
X150340569Y-85662009D01*
X150266400Y-85707828D01*
X150179228Y-85736581D01*
X150078947Y-85746234D01*
X150080778Y-85747150D01*
X150077119Y-85747150D01*
X149986594Y-85739022D01*
X149965766Y-85733025D01*
G37*
G36*
X149965766Y-85733025D02*
X149904297Y-85715144D01*
X149831653Y-85675725D01*
X149769881Y-85621875D01*
X149720300Y-85554819D01*
X149683012Y-85474656D01*
X149659950Y-85382100D01*
X149651922Y-85277147D01*
X149651922Y-84776056D01*
X149965766Y-84776056D01*
X149965766Y-85046719D01*
X149896981Y-85046719D01*
X149896981Y-85255203D01*
X149908769Y-85346134D01*
X149944531Y-85415222D01*
X149965766Y-85431275D01*
X149965766Y-85733025D01*
G37*
G36*
X123092872Y-82956400D02*
X125623928Y-82956400D01*
X125623928Y-89975334D01*
X125388928Y-89975334D01*
X125388928Y-83191400D01*
X123327872Y-83191400D01*
X123327872Y-90057631D01*
X124481641Y-90057631D01*
X124481641Y-90828469D01*
X124348341Y-90919909D01*
X123745753Y-90510259D01*
X123745753Y-90825725D01*
X124143516Y-91083588D01*
X123745753Y-91343278D01*
X123745753Y-91649600D01*
X124344684Y-91239950D01*
X124481641Y-91333422D01*
X124481641Y-92100400D01*
X123092872Y-92100400D01*
X123092872Y-90057631D01*
X123092872Y-82956400D01*
G37*
G36*
X124481641Y-92100400D02*
X124481641Y-91333422D01*
X124971963Y-91667888D01*
X124971963Y-91666059D01*
X124971963Y-91350591D01*
X124551338Y-91075356D01*
X124971963Y-90798294D01*
X124971963Y-90491972D01*
X124481641Y-90828469D01*
X124481641Y-90057631D01*
X125388928Y-90057631D01*
X125388928Y-89975334D01*
X125623928Y-89975334D01*
X125623928Y-90057631D01*
X125623928Y-92100400D01*
X124481641Y-92100400D01*
G37*
G36*
X123729294Y-84047278D02*
X123735997Y-83956753D01*
X123755809Y-83874456D01*
X123787816Y-83801306D01*
X123830791Y-83739125D01*
X123884437Y-83689037D01*
X123946919Y-83651344D01*
X124018344Y-83627875D01*
X124057766Y-83624116D01*
X124057766Y-83891019D01*
X124032262Y-83897012D01*
X123998125Y-83926578D01*
X123975062Y-83975956D01*
X123967037Y-84044537D01*
X123975166Y-84123175D01*
X123999041Y-84201812D01*
X124057766Y-84308391D01*
X124057766Y-84383372D01*
X123884741Y-84502650D01*
X123818194Y-84403284D01*
X123769525Y-84295081D01*
X123739453Y-84176719D01*
X123729294Y-84047278D01*
G37*
G36*
X124057766Y-84383372D02*
X124057766Y-84308391D01*
X124087737Y-84362747D01*
X124057766Y-84383372D01*
G37*
G36*
X124057766Y-83891019D02*
X124057766Y-83624116D01*
X124098709Y-83620253D01*
X124102369Y-83620253D01*
X124185884Y-83627672D01*
X124255072Y-83649516D01*
X124311459Y-83684362D01*
X124357484Y-83730897D01*
X124426981Y-83858912D01*
X124478188Y-84028078D01*
X124514763Y-84153350D01*
X124549509Y-84229244D01*
X124587000Y-84265822D01*
X124633634Y-84275878D01*
X124637291Y-84275878D01*
X124685959Y-84264194D01*
X124722331Y-84229244D01*
X124745394Y-84173466D01*
X124753422Y-84098484D01*
X124743259Y-83997394D01*
X124713188Y-83904631D01*
X124665944Y-83817156D01*
X124604375Y-83731812D01*
X124795484Y-83572706D01*
X124882553Y-83689037D01*
X124943616Y-83817766D01*
X124979888Y-83954009D01*
X124992078Y-84093000D01*
X124985781Y-84188403D01*
X124966475Y-84274966D01*
X124935388Y-84351266D01*
X124893325Y-84416697D01*
X124839375Y-84469428D01*
X124774453Y-84509050D01*
X124698353Y-84533741D01*
X124612603Y-84541969D01*
X124608947Y-84541969D01*
X124605288Y-84541969D01*
X124530409Y-84535672D01*
X124467213Y-84516366D01*
X124413163Y-84484566D01*
X124366628Y-84440472D01*
X124293478Y-84317941D01*
X124238612Y-84151522D01*
X124202037Y-84020762D01*
X124169119Y-83939381D01*
X124129800Y-83898231D01*
X124077678Y-83887259D01*
X124074022Y-83887259D01*
X124057766Y-83891019D01*
G37*
G36*
X124057766Y-89391541D02*
X124057766Y-89075769D01*
X124281591Y-88867997D01*
X124057766Y-88867997D01*
X124057766Y-88598247D01*
X124971963Y-88598247D01*
X124971963Y-88867997D01*
X124597059Y-88867997D01*
X124449841Y-89009728D01*
X124971963Y-89390119D01*
X124971963Y-89713816D01*
X124266047Y-89191694D01*
X124057766Y-89391541D01*
G37*
G36*
X124057766Y-89391541D02*
X123745753Y-89690956D01*
X123745753Y-89365428D01*
X124057766Y-89075769D01*
X124057766Y-89391541D01*
G37*
G36*
X124057766Y-88867997D02*
X123745753Y-88867997D01*
X123745753Y-88598247D01*
X124057766Y-88598247D01*
X124057766Y-88867997D01*
G37*
G36*
X124057766Y-88345672D02*
X124057766Y-88043919D01*
X124087737Y-88066881D01*
X124164547Y-88080697D01*
X124167291Y-88080697D01*
X124237903Y-88067591D01*
X124293478Y-88027663D01*
X124328937Y-87962538D01*
X124341025Y-87874044D01*
X124341025Y-87600638D01*
X124057766Y-87600638D01*
X124057766Y-87330891D01*
X124971963Y-87330891D01*
X124971963Y-87600638D01*
X124579684Y-87600638D01*
X124579684Y-87812778D01*
X124971963Y-88075213D01*
X124971963Y-88390678D01*
X124533966Y-88090756D01*
X124477678Y-88197131D01*
X124396806Y-88280950D01*
X124289412Y-88335713D01*
X124154487Y-88354103D01*
X124150831Y-88354103D01*
X124060712Y-88346584D01*
X124057766Y-88345672D01*
G37*
G36*
X124057766Y-88345672D02*
X123980853Y-88323825D01*
X123911562Y-88285828D01*
X123852737Y-88232488D01*
X123805900Y-88165431D01*
X123772472Y-88086284D01*
X123752456Y-87994947D01*
X123745753Y-87891416D01*
X123745753Y-87330891D01*
X124057766Y-87330891D01*
X124057766Y-87600638D01*
X123988981Y-87600638D01*
X123988981Y-87868556D01*
X123999956Y-87957763D01*
X124032875Y-88024919D01*
X124057766Y-88043919D01*
X124057766Y-88345672D01*
G37*
G36*
X124057766Y-86752481D02*
X124057766Y-86230359D01*
X124971963Y-85841331D01*
X124971963Y-86116566D01*
X124061219Y-86487812D01*
X124971963Y-86859059D01*
X124971963Y-87141609D01*
X124057766Y-86752481D01*
G37*
G36*
X124057766Y-86752481D02*
X123736609Y-86615828D01*
X123736609Y-86367112D01*
X124057766Y-86230359D01*
X124057766Y-86752481D01*
G37*
G36*
X124057766Y-85733025D02*
X124057766Y-85431275D01*
X124094647Y-85459216D01*
X124174606Y-85473744D01*
X124178262Y-85473744D01*
X124250703Y-85459925D01*
X124310850Y-85417966D01*
X124350781Y-85350603D01*
X124363888Y-85260687D01*
X124363888Y-85046719D01*
X124057766Y-85046719D01*
X124057766Y-84776056D01*
X124970134Y-84776056D01*
X124970134Y-85045803D01*
X124602544Y-85045803D01*
X124602544Y-85250628D01*
X124595638Y-85350603D01*
X124575113Y-85444481D01*
X124540975Y-85528912D01*
X124493731Y-85601759D01*
X124432569Y-85662009D01*
X124358400Y-85707828D01*
X124271228Y-85736581D01*
X124170947Y-85746234D01*
X124172778Y-85747150D01*
X124169119Y-85747150D01*
X124078594Y-85739022D01*
X124057766Y-85733025D01*
G37*
G36*
X124057766Y-85733025D02*
X123996297Y-85715144D01*
X123923653Y-85675725D01*
X123861881Y-85621875D01*
X123812300Y-85554819D01*
X123775012Y-85474656D01*
X123751950Y-85382100D01*
X123743922Y-85277147D01*
X123743922Y-84776056D01*
X124057766Y-84776056D01*
X124057766Y-85046719D01*
X123988981Y-85046719D01*
X123988981Y-85255203D01*
X124000769Y-85346134D01*
X124036531Y-85415222D01*
X124057766Y-85431275D01*
X124057766Y-85733025D01*
G37*
D12*
X192278000Y-108407200D02*
X189738000Y-108407200D01*
X192735200Y-108864400D02*
X192735200Y-109982000D01*
X189280800Y-108864400D02*
X189280800Y-109982000D01*
X189738000Y-110439200D02*
X192278000Y-110439200D01*
X192735200Y-109982000D02*
G75*
G02X192278000Y-110439200I-457200J0D01*
G01*
X189738000Y-110439200D02*
G75*
G02X189280800Y-109982000I0J457200D01*
G01*
X189280800Y-108864400D02*
G75*
G02X189738000Y-108407200I457200J0D01*
G01*
X192278000Y-108407200D02*
G75*
G02X192735200Y-108864400I0J-457200D01*
G01*
X166370000Y-108407200D02*
X163830000Y-108407200D01*
X166827200Y-108864400D02*
X166827200Y-109982000D01*
X163372800Y-108864400D02*
X163372800Y-109982000D01*
X163830000Y-110439200D02*
X166370000Y-110439200D01*
X166827200Y-109982000D02*
G75*
G02X166370000Y-110439200I-457200J0D01*
G01*
X163830000Y-110439200D02*
G75*
G02X163372800Y-109982000I0J457200D01*
G01*
X163372800Y-108864400D02*
G75*
G02X163830000Y-108407200I457200J0D01*
G01*
X166370000Y-108407200D02*
G75*
G02X166827200Y-108864400I0J-457200D01*
G01*
X140462000Y-108407200D02*
X137922000Y-108407200D01*
X140919200Y-108864400D02*
X140919200Y-109982000D01*
X137464800Y-108864400D02*
X137464800Y-109982000D01*
X137922000Y-110439200D02*
X140462000Y-110439200D01*
X140919200Y-109982000D02*
G75*
G02X140462000Y-110439200I-457200J0D01*
G01*
X137922000Y-110439200D02*
G75*
G02X137464800Y-109982000I0J457200D01*
G01*
X137464800Y-108864400D02*
G75*
G02X137922000Y-108407200I457200J0D01*
G01*
X140462000Y-108407200D02*
G75*
G02X140919200Y-108864400I0J-457200D01*
G01*
X114554000Y-108407200D02*
X112014000Y-108407200D01*
X115011200Y-108864400D02*
X115011200Y-109982000D01*
X111556800Y-108864400D02*
X111556800Y-109982000D01*
X112014000Y-110439200D02*
X114554000Y-110439200D01*
X115011200Y-109982000D02*
G75*
G02X114554000Y-110439200I-457200J0D01*
G01*
X112014000Y-110439200D02*
G75*
G02X111556800Y-109982000I0J457200D01*
G01*
X111556800Y-108864400D02*
G75*
G02X112014000Y-108407200I457200J0D01*
G01*
X114554000Y-108407200D02*
G75*
G02X115011200Y-108864400I0J-457200D01*
G01*
X88646000Y-108407200D02*
X86106000Y-108407200D01*
X89103200Y-108864400D02*
X89103200Y-109982000D01*
X85648800Y-108864400D02*
X85648800Y-109982000D01*
X86106000Y-110439200D02*
X88646000Y-110439200D01*
X89103200Y-109982000D02*
G75*
G02X88646000Y-110439200I-457200J0D01*
G01*
X86106000Y-110439200D02*
G75*
G02X85648800Y-109982000I0J457200D01*
G01*
X85648800Y-108864400D02*
G75*
G02X86106000Y-108407200I457200J0D01*
G01*
X88646000Y-108407200D02*
G75*
G02X89103200Y-108864400I0J-457200D01*
G01*
X192278000Y-57099200D02*
X189738000Y-57099200D01*
X192735200Y-57556400D02*
X192735200Y-58674000D01*
X189280800Y-57556400D02*
X189280800Y-58674000D01*
X189738000Y-59131200D02*
X192278000Y-59131200D01*
X192735200Y-58674000D02*
G75*
G02X192278000Y-59131200I-457200J0D01*
G01*
X189738000Y-59131200D02*
G75*
G02X189280800Y-58674000I0J457200D01*
G01*
X189280800Y-57556400D02*
G75*
G02X189738000Y-57099200I457200J0D01*
G01*
X192278000Y-57099200D02*
G75*
G02X192735200Y-57556400I0J-457200D01*
G01*
X166370000Y-57099200D02*
X163830000Y-57099200D01*
X166827200Y-57556400D02*
X166827200Y-58674000D01*
X163372800Y-57556400D02*
X163372800Y-58674000D01*
X163830000Y-59131200D02*
X166370000Y-59131200D01*
X166827200Y-58674000D02*
G75*
G02X166370000Y-59131200I-457200J0D01*
G01*
X163830000Y-59131200D02*
G75*
G02X163372800Y-58674000I0J457200D01*
G01*
X163372800Y-57556400D02*
G75*
G02X163830000Y-57099200I457200J0D01*
G01*
X166370000Y-57099200D02*
G75*
G02X166827200Y-57556400I0J-457200D01*
G01*
X140462000Y-57099200D02*
X137922000Y-57099200D01*
X140919200Y-57556400D02*
X140919200Y-58674000D01*
X137464800Y-57556400D02*
X137464800Y-58674000D01*
X137922000Y-59131200D02*
X140462000Y-59131200D01*
X140919200Y-58674000D02*
G75*
G02X140462000Y-59131200I-457200J0D01*
G01*
X137922000Y-59131200D02*
G75*
G02X137464800Y-58674000I0J457200D01*
G01*
X137464800Y-57556400D02*
G75*
G02X137922000Y-57099200I457200J0D01*
G01*
X140462000Y-57099200D02*
G75*
G02X140919200Y-57556400I0J-457200D01*
G01*
X114554000Y-57099200D02*
X112014000Y-57099200D01*
X115011200Y-57556400D02*
X115011200Y-58674000D01*
X111556800Y-57556400D02*
X111556800Y-58674000D01*
X112014000Y-59131200D02*
X114554000Y-59131200D01*
X115011200Y-58674000D02*
G75*
G02X114554000Y-59131200I-457200J0D01*
G01*
X112014000Y-59131200D02*
G75*
G02X111556800Y-58674000I0J457200D01*
G01*
X111556800Y-57556400D02*
G75*
G02X112014000Y-57099200I457200J0D01*
G01*
X114554000Y-57099200D02*
G75*
G02X115011200Y-57556400I0J-457200D01*
G01*
D10*
G36*
X97184872Y-82956400D02*
X99715928Y-82956400D01*
X99715928Y-89975334D01*
X99480928Y-89975334D01*
X99480928Y-83191400D01*
X97419872Y-83191400D01*
X97419872Y-90057631D01*
X98573641Y-90057631D01*
X98573641Y-90828469D01*
X98440341Y-90919909D01*
X97837753Y-90510259D01*
X97837753Y-90825725D01*
X98235516Y-91083588D01*
X97837753Y-91343278D01*
X97837753Y-91649600D01*
X98436684Y-91239950D01*
X98573641Y-91333422D01*
X98573641Y-92100400D01*
X97184872Y-92100400D01*
X97184872Y-90057631D01*
X97184872Y-82956400D01*
G37*
G36*
X98573641Y-92100400D02*
X98573641Y-91333422D01*
X99063963Y-91667888D01*
X99063963Y-91666059D01*
X99063963Y-91350591D01*
X98643338Y-91075356D01*
X99063963Y-90798294D01*
X99063963Y-90491972D01*
X98573641Y-90828469D01*
X98573641Y-90057631D01*
X99480928Y-90057631D01*
X99480928Y-89975334D01*
X99715928Y-89975334D01*
X99715928Y-90057631D01*
X99715928Y-92100400D01*
X98573641Y-92100400D01*
G37*
G36*
X97821294Y-84047278D02*
X97827997Y-83956753D01*
X97847809Y-83874456D01*
X97879816Y-83801306D01*
X97922791Y-83739125D01*
X97976437Y-83689037D01*
X98038919Y-83651344D01*
X98110344Y-83627875D01*
X98149766Y-83624116D01*
X98149766Y-83891019D01*
X98124262Y-83897012D01*
X98090125Y-83926578D01*
X98067062Y-83975956D01*
X98059037Y-84044537D01*
X98067166Y-84123175D01*
X98091041Y-84201812D01*
X98149766Y-84308391D01*
X98149766Y-84383372D01*
X97976741Y-84502650D01*
X97910194Y-84403284D01*
X97861525Y-84295081D01*
X97831453Y-84176719D01*
X97821294Y-84047278D01*
G37*
G36*
X98149766Y-84383372D02*
X98149766Y-84308391D01*
X98179737Y-84362747D01*
X98149766Y-84383372D01*
G37*
G36*
X98149766Y-83891019D02*
X98149766Y-83624116D01*
X98190709Y-83620253D01*
X98194369Y-83620253D01*
X98277884Y-83627672D01*
X98347072Y-83649516D01*
X98403459Y-83684362D01*
X98449484Y-83730897D01*
X98518981Y-83858912D01*
X98570188Y-84028078D01*
X98606763Y-84153350D01*
X98641509Y-84229244D01*
X98679000Y-84265822D01*
X98725634Y-84275878D01*
X98729291Y-84275878D01*
X98777959Y-84264194D01*
X98814331Y-84229244D01*
X98837394Y-84173466D01*
X98845422Y-84098484D01*
X98835259Y-83997394D01*
X98805188Y-83904631D01*
X98757944Y-83817156D01*
X98696375Y-83731812D01*
X98887484Y-83572706D01*
X98974553Y-83689037D01*
X99035616Y-83817766D01*
X99071888Y-83954009D01*
X99084078Y-84093000D01*
X99077781Y-84188403D01*
X99058475Y-84274966D01*
X99027388Y-84351266D01*
X98985325Y-84416697D01*
X98931375Y-84469428D01*
X98866453Y-84509050D01*
X98790353Y-84533741D01*
X98704603Y-84541969D01*
X98700947Y-84541969D01*
X98697288Y-84541969D01*
X98622409Y-84535672D01*
X98559213Y-84516366D01*
X98505163Y-84484566D01*
X98458628Y-84440472D01*
X98385478Y-84317941D01*
X98330612Y-84151522D01*
X98294037Y-84020762D01*
X98261119Y-83939381D01*
X98221800Y-83898231D01*
X98169678Y-83887259D01*
X98166022Y-83887259D01*
X98149766Y-83891019D01*
G37*
G36*
X98149766Y-89391541D02*
X98149766Y-89075769D01*
X98373591Y-88867997D01*
X98149766Y-88867997D01*
X98149766Y-88598247D01*
X99063963Y-88598247D01*
X99063963Y-88867997D01*
X98689059Y-88867997D01*
X98541841Y-89009728D01*
X99063963Y-89390119D01*
X99063963Y-89713816D01*
X98358047Y-89191694D01*
X98149766Y-89391541D01*
G37*
G36*
X98149766Y-89391541D02*
X97837753Y-89690956D01*
X97837753Y-89365428D01*
X98149766Y-89075769D01*
X98149766Y-89391541D01*
G37*
G36*
X98149766Y-88867997D02*
X97837753Y-88867997D01*
X97837753Y-88598247D01*
X98149766Y-88598247D01*
X98149766Y-88867997D01*
G37*
G36*
X98149766Y-88345672D02*
X98149766Y-88043919D01*
X98179737Y-88066881D01*
X98256547Y-88080697D01*
X98259291Y-88080697D01*
X98329903Y-88067591D01*
X98385478Y-88027663D01*
X98420937Y-87962538D01*
X98433025Y-87874044D01*
X98433025Y-87600638D01*
X98149766Y-87600638D01*
X98149766Y-87330891D01*
X99063963Y-87330891D01*
X99063963Y-87600638D01*
X98671684Y-87600638D01*
X98671684Y-87812778D01*
X99063963Y-88075213D01*
X99063963Y-88390678D01*
X98625966Y-88090756D01*
X98569678Y-88197131D01*
X98488806Y-88280950D01*
X98381412Y-88335713D01*
X98246487Y-88354103D01*
X98242831Y-88354103D01*
X98152712Y-88346584D01*
X98149766Y-88345672D01*
G37*
G36*
X98149766Y-88345672D02*
X98072853Y-88323825D01*
X98003562Y-88285828D01*
X97944737Y-88232488D01*
X97897900Y-88165431D01*
X97864472Y-88086284D01*
X97844456Y-87994947D01*
X97837753Y-87891416D01*
X97837753Y-87330891D01*
X98149766Y-87330891D01*
X98149766Y-87600638D01*
X98080981Y-87600638D01*
X98080981Y-87868556D01*
X98091956Y-87957763D01*
X98124875Y-88024919D01*
X98149766Y-88043919D01*
X98149766Y-88345672D01*
G37*
G36*
X98149766Y-86752481D02*
X98149766Y-86230359D01*
X99063963Y-85841331D01*
X99063963Y-86116566D01*
X98153219Y-86487812D01*
X99063963Y-86859059D01*
X99063963Y-87141609D01*
X98149766Y-86752481D01*
G37*
G36*
X98149766Y-86752481D02*
X97828609Y-86615828D01*
X97828609Y-86367112D01*
X98149766Y-86230359D01*
X98149766Y-86752481D01*
G37*
G36*
X98149766Y-85733025D02*
X98149766Y-85431275D01*
X98186647Y-85459216D01*
X98266606Y-85473744D01*
X98270262Y-85473744D01*
X98342703Y-85459925D01*
X98402850Y-85417966D01*
X98442781Y-85350603D01*
X98455888Y-85260687D01*
X98455888Y-85046719D01*
X98149766Y-85046719D01*
X98149766Y-84776056D01*
X99062134Y-84776056D01*
X99062134Y-85045803D01*
X98694544Y-85045803D01*
X98694544Y-85250628D01*
X98687638Y-85350603D01*
X98667113Y-85444481D01*
X98632975Y-85528912D01*
X98585731Y-85601759D01*
X98524569Y-85662009D01*
X98450400Y-85707828D01*
X98363228Y-85736581D01*
X98262947Y-85746234D01*
X98264778Y-85747150D01*
X98261119Y-85747150D01*
X98170594Y-85739022D01*
X98149766Y-85733025D01*
G37*
G36*
X98149766Y-85733025D02*
X98088297Y-85715144D01*
X98015653Y-85675725D01*
X97953881Y-85621875D01*
X97904300Y-85554819D01*
X97867012Y-85474656D01*
X97843950Y-85382100D01*
X97835922Y-85277147D01*
X97835922Y-84776056D01*
X98149766Y-84776056D01*
X98149766Y-85046719D01*
X98080981Y-85046719D01*
X98080981Y-85255203D01*
X98092769Y-85346134D01*
X98128531Y-85415222D01*
X98149766Y-85431275D01*
X98149766Y-85733025D01*
G37*
D12*
X88646000Y-57099200D02*
X86106000Y-57099200D01*
X89103200Y-57556400D02*
X89103200Y-58674000D01*
X85648800Y-57556400D02*
X85648800Y-58674000D01*
X86106000Y-59131200D02*
X88646000Y-59131200D01*
X89103200Y-58674000D02*
G75*
G02X88646000Y-59131200I-457200J0D01*
G01*
X86106000Y-59131200D02*
G75*
G02X85648800Y-58674000I0J457200D01*
G01*
X85648800Y-57556400D02*
G75*
G02X86106000Y-57099200I457200J0D01*
G01*
X88646000Y-57099200D02*
G75*
G02X89103200Y-57556400I0J-457200D01*
G01*
M02*
