M48
;DRILL file {KiCad 4.0.6} date 02/21/18 15:23:45
;FORMAT={-:-/ absolute / inch / decimal}
FMAT,2
INCH,TZ
T1C0.016
T2C0.020
T3C0.035
T4C0.035
T5C0.040
T6C0.055
T7C0.130
%
G90
G05
M72
T1
X2.18Y-2.141
X2.18Y-2.179
X2.18Y-4.161
X2.18Y-4.199
X2.2066Y-2.9684
X2.2066Y-4.9884
X2.318Y-1.859
X2.318Y-1.903
X2.318Y-3.879
X2.318Y-3.923
X2.332Y-2.227
X2.332Y-4.247
X2.41Y-2.1564
X2.41Y-4.1764
X2.45Y-2.039
X2.45Y-4.059
X2.498Y-1.863
X2.498Y-3.883
X2.625Y-2.118
X2.625Y-4.138
X2.657Y-2.158
X2.657Y-4.178
X3.2Y-2.141
X3.2Y-2.179
X3.2Y-4.161
X3.2Y-4.199
X3.2266Y-2.9684
X3.2266Y-4.9884
X3.338Y-1.859
X3.338Y-1.903
X3.338Y-3.879
X3.338Y-3.923
X3.352Y-2.227
X3.352Y-4.247
X3.43Y-2.1564
X3.43Y-4.1764
X3.47Y-2.039
X3.47Y-4.059
X3.518Y-1.863
X3.518Y-3.883
X3.645Y-2.118
X3.645Y-4.138
X3.677Y-2.158
X3.677Y-4.178
X4.22Y-2.141
X4.22Y-2.179
X4.22Y-4.161
X4.22Y-4.199
X4.2466Y-2.9684
X4.2466Y-4.9884
X4.358Y-1.859
X4.358Y-1.903
X4.358Y-3.879
X4.358Y-3.923
X4.372Y-2.227
X4.372Y-4.247
X4.45Y-2.1564
X4.45Y-4.1764
X4.49Y-2.039
X4.49Y-4.059
X4.538Y-1.863
X4.538Y-3.883
X4.665Y-2.118
X4.665Y-4.138
X4.697Y-2.158
X4.697Y-4.178
X5.24Y-2.141
X5.24Y-2.179
X5.24Y-4.161
X5.24Y-4.199
X5.2666Y-2.9684
X5.2666Y-4.9884
X5.378Y-1.859
X5.378Y-1.903
X5.378Y-3.879
X5.378Y-3.923
X5.392Y-2.227
X5.392Y-4.247
X5.47Y-2.1564
X5.47Y-4.1764
X5.51Y-2.039
X5.51Y-4.059
X5.558Y-1.863
X5.558Y-3.883
X5.685Y-2.118
X5.685Y-4.138
X5.717Y-2.158
X5.717Y-4.178
X6.26Y-2.141
X6.26Y-2.179
X6.26Y-4.161
X6.26Y-4.199
X6.2866Y-2.9684
X6.2866Y-4.9884
X6.398Y-1.859
X6.398Y-1.903
X6.398Y-3.879
X6.398Y-3.923
X6.412Y-2.227
X6.412Y-4.247
X6.49Y-2.1564
X6.49Y-4.1764
X6.53Y-2.039
X6.53Y-4.059
X6.578Y-1.863
X6.578Y-3.883
X6.705Y-2.118
X6.705Y-4.138
X6.737Y-2.158
X6.737Y-4.178
T2
X2.31Y-2.307
X2.31Y-2.407
X2.31Y-4.327
X2.31Y-4.427
X2.41Y-2.307
X2.41Y-2.407
X2.41Y-4.327
X2.41Y-4.427
X2.51Y-2.307
X2.51Y-2.407
X2.51Y-4.327
X2.51Y-4.427
X3.33Y-2.307
X3.33Y-2.407
X3.33Y-4.327
X3.33Y-4.427
X3.43Y-2.307
X3.43Y-2.407
X3.43Y-4.327
X3.43Y-4.427
X3.53Y-2.307
X3.53Y-2.407
X3.53Y-4.327
X3.53Y-4.427
X4.35Y-2.307
X4.35Y-2.407
X4.35Y-4.327
X4.35Y-4.427
X4.45Y-2.307
X4.45Y-2.407
X4.45Y-4.327
X4.45Y-4.427
X4.55Y-2.307
X4.55Y-2.407
X4.55Y-4.327
X4.55Y-4.427
X5.37Y-2.307
X5.37Y-2.407
X5.37Y-4.327
X5.37Y-4.427
X5.47Y-2.307
X5.47Y-2.407
X5.47Y-4.327
X5.47Y-4.427
X5.57Y-2.307
X5.57Y-2.407
X5.57Y-4.327
X5.57Y-4.427
X6.39Y-2.307
X6.39Y-2.407
X6.39Y-4.327
X6.39Y-4.427
X6.49Y-2.307
X6.49Y-2.407
X6.49Y-4.327
X6.49Y-4.427
X6.59Y-2.307
X6.59Y-2.407
X6.59Y-4.327
X6.59Y-4.427
T3
X2.01Y-3.021
X2.01Y-3.121
X2.01Y-3.221
X2.01Y-5.041
X2.01Y-5.141
X2.01Y-5.241
X2.31Y-3.521
X2.31Y-5.541
X2.41Y-3.521
X2.41Y-5.541
X2.51Y-3.521
X2.51Y-5.541
X3.03Y-3.021
X3.03Y-3.121
X3.03Y-3.221
X3.03Y-5.041
X3.03Y-5.141
X3.03Y-5.241
X3.33Y-3.521
X3.33Y-5.541
X3.43Y-3.521
X3.43Y-5.541
X3.53Y-3.521
X3.53Y-5.541
X4.05Y-3.021
X4.05Y-3.121
X4.05Y-3.221
X4.05Y-5.041
X4.05Y-5.141
X4.05Y-5.241
X4.35Y-3.521
X4.35Y-5.541
X4.45Y-3.521
X4.45Y-5.541
X4.55Y-3.521
X4.55Y-5.541
X5.07Y-3.021
X5.07Y-3.121
X5.07Y-3.221
X5.07Y-5.041
X5.07Y-5.141
X5.07Y-5.241
X5.37Y-3.521
X5.37Y-5.541
X5.47Y-3.521
X5.47Y-5.541
X5.57Y-3.521
X5.57Y-5.541
X6.09Y-3.021
X6.09Y-3.121
X6.09Y-3.221
X6.09Y-5.041
X6.09Y-5.141
X6.09Y-5.241
X6.39Y-3.521
X6.39Y-5.541
X6.49Y-3.521
X6.49Y-5.541
X6.59Y-3.521
X6.59Y-5.541
T4
X2.285Y-2.621
X2.285Y-2.821
X2.285Y-4.641
X2.285Y-4.841
X2.535Y-2.621
X2.535Y-2.821
X2.535Y-4.641
X2.535Y-4.841
X3.305Y-2.621
X3.305Y-2.821
X3.305Y-4.641
X3.305Y-4.841
X3.555Y-2.621
X3.555Y-2.821
X3.555Y-4.641
X3.555Y-4.841
X4.325Y-2.621
X4.325Y-2.821
X4.325Y-4.641
X4.325Y-4.841
X4.575Y-2.621
X4.575Y-2.821
X4.575Y-4.641
X4.575Y-4.841
X5.345Y-2.621
X5.345Y-2.821
X5.345Y-4.641
X5.345Y-4.841
X5.595Y-2.621
X5.595Y-2.821
X5.595Y-4.641
X5.595Y-4.841
X6.365Y-2.621
X6.365Y-2.821
X6.365Y-4.641
X6.365Y-4.841
X6.615Y-2.621
X6.615Y-2.821
X6.615Y-4.641
X6.615Y-4.841
T5
X2.26Y-1.691
X2.26Y-3.711
X2.36Y-1.691
X2.36Y-3.711
X2.46Y-1.691
X2.46Y-3.711
X2.56Y-1.691
X2.56Y-3.711
X3.28Y-1.691
X3.28Y-3.711
X3.38Y-1.691
X3.38Y-3.711
X3.48Y-1.691
X3.48Y-3.711
X3.58Y-1.691
X3.58Y-3.711
X4.3Y-1.691
X4.3Y-3.711
X4.4Y-1.691
X4.4Y-3.711
X4.5Y-1.691
X4.5Y-3.711
X4.6Y-1.691
X4.6Y-3.711
X5.32Y-1.691
X5.32Y-3.711
X5.42Y-1.691
X5.42Y-3.711
X5.52Y-1.691
X5.52Y-3.711
X5.62Y-1.691
X5.62Y-3.711
X6.34Y-1.691
X6.34Y-3.711
X6.44Y-1.691
X6.44Y-3.711
X6.54Y-1.691
X6.54Y-3.711
X6.64Y-1.691
X6.64Y-3.711
T6
X2.11Y-2.8585
X2.11Y-3.3835
X2.11Y-4.8785
X2.11Y-5.4035
X2.71Y-2.8585
X2.71Y-3.3835
X2.71Y-4.8785
X2.71Y-5.4035
X3.13Y-2.8585
X3.13Y-3.3835
X3.13Y-4.8785
X3.13Y-5.4035
X3.73Y-2.8585
X3.73Y-3.3835
X3.73Y-4.8785
X3.73Y-5.4035
X4.15Y-2.8585
X4.15Y-3.3835
X4.15Y-4.8785
X4.15Y-5.4035
X4.75Y-2.8585
X4.75Y-3.3835
X4.75Y-4.8785
X4.75Y-5.4035
X5.17Y-2.8585
X5.17Y-3.3835
X5.17Y-4.8785
X5.17Y-5.4035
X5.77Y-2.8585
X5.77Y-3.3835
X5.77Y-4.8785
X5.77Y-5.4035
X6.19Y-2.8585
X6.19Y-3.3835
X6.19Y-4.8785
X6.19Y-5.4035
X6.79Y-2.8585
X6.79Y-3.3835
X6.79Y-4.8785
X6.79Y-5.4035
T7
X2.01Y-1.721
X2.01Y-2.521
X2.01Y-3.741
X2.01Y-4.541
X2.81Y-1.721
X2.81Y-2.521
X2.81Y-3.741
X2.81Y-4.541
X3.03Y-1.721
X3.03Y-2.521
X3.03Y-3.741
X3.03Y-4.541
X3.83Y-1.721
X3.83Y-2.521
X3.83Y-3.741
X3.83Y-4.541
X4.05Y-1.721
X4.05Y-2.521
X4.05Y-3.741
X4.05Y-4.541
X4.85Y-1.721
X4.85Y-2.521
X4.85Y-3.741
X4.85Y-4.541
X5.07Y-1.721
X5.07Y-2.521
X5.07Y-3.741
X5.07Y-4.541
X5.87Y-1.721
X5.87Y-2.521
X5.87Y-3.741
X5.87Y-4.541
X6.09Y-1.721
X6.09Y-2.521
X6.09Y-3.741
X6.09Y-4.541
X6.89Y-1.721
X6.89Y-2.521
X6.89Y-3.741
X6.89Y-4.541
T0
M30
