M48
;DRILL file {KiCad 4.0.6} date 01/19/18 11:08:54
;FORMAT={-:-/ absolute / inch / decimal}
FMAT,2
INCH,TZ
T1C0.016
T2C0.020
T3C0.035
T4C0.035
T5C0.040
T6C0.055
T7C0.130
%
G90
G05
M72
T1
X3.21Y-2.48
X3.21Y-2.518
X3.21Y-4.5
X3.21Y-4.538
X3.2366Y-3.3074
X3.2366Y-5.3274
X3.278Y-3.32
X3.278Y-5.34
X3.348Y-2.198
X3.348Y-2.242
X3.348Y-4.218
X3.348Y-4.262
X3.44Y-2.4954
X3.44Y-4.5154
X3.48Y-2.378
X3.48Y-4.398
X3.528Y-2.202
X3.528Y-4.222
X3.632Y-2.4842
X3.632Y-4.5042
X3.6653Y-2.518
X3.6653Y-4.538
X4.23Y-2.48
X4.23Y-2.518
X4.23Y-4.5
X4.23Y-4.538
X4.2566Y-3.3074
X4.2566Y-5.3274
X4.298Y-3.32
X4.298Y-5.34
X4.368Y-2.198
X4.368Y-2.242
X4.368Y-4.218
X4.368Y-4.262
X4.46Y-2.4954
X4.46Y-4.5154
X4.5Y-2.378
X4.5Y-4.398
X4.548Y-2.202
X4.548Y-4.222
X4.652Y-2.4842
X4.652Y-4.5042
X4.6853Y-2.518
X4.6853Y-4.538
X5.25Y-2.48
X5.25Y-2.518
X5.25Y-4.5
X5.25Y-4.538
X5.2766Y-3.3074
X5.2766Y-5.3274
X5.318Y-3.32
X5.318Y-5.34
X5.388Y-2.198
X5.388Y-2.242
X5.388Y-4.218
X5.388Y-4.262
X5.48Y-2.4954
X5.48Y-4.5154
X5.52Y-2.378
X5.52Y-4.398
X5.568Y-2.202
X5.568Y-4.222
X5.672Y-2.4842
X5.672Y-4.5042
X5.7053Y-2.518
X5.7053Y-4.538
X6.27Y-2.48
X6.27Y-2.518
X6.27Y-4.5
X6.27Y-4.538
X6.2966Y-3.3074
X6.2966Y-5.3274
X6.338Y-3.32
X6.338Y-5.34
X6.408Y-2.198
X6.408Y-2.242
X6.408Y-4.218
X6.408Y-4.262
X6.5Y-2.4954
X6.5Y-4.5154
X6.54Y-2.378
X6.54Y-4.398
X6.588Y-2.202
X6.588Y-4.222
X6.692Y-2.4842
X6.692Y-4.5042
X6.7253Y-2.518
X6.7253Y-4.538
X7.29Y-2.48
X7.29Y-2.518
X7.29Y-4.5
X7.29Y-4.538
X7.3166Y-3.3074
X7.3166Y-5.3274
X7.358Y-3.32
X7.358Y-5.34
X7.428Y-2.198
X7.428Y-2.242
X7.428Y-4.218
X7.428Y-4.262
X7.52Y-2.4954
X7.52Y-4.5154
X7.56Y-2.378
X7.56Y-4.398
X7.608Y-2.202
X7.608Y-4.222
X7.712Y-2.4842
X7.712Y-4.5042
X7.7453Y-2.518
X7.7453Y-4.538
T2
X3.34Y-2.646
X3.34Y-2.746
X3.34Y-4.666
X3.34Y-4.766
X3.44Y-2.646
X3.44Y-2.746
X3.44Y-4.666
X3.44Y-4.766
X3.54Y-2.646
X3.54Y-2.746
X3.54Y-4.666
X3.54Y-4.766
X4.36Y-2.646
X4.36Y-2.746
X4.36Y-4.666
X4.36Y-4.766
X4.46Y-2.646
X4.46Y-2.746
X4.46Y-4.666
X4.46Y-4.766
X4.56Y-2.646
X4.56Y-2.746
X4.56Y-4.666
X4.56Y-4.766
X5.38Y-2.646
X5.38Y-2.746
X5.38Y-4.666
X5.38Y-4.766
X5.48Y-2.646
X5.48Y-2.746
X5.48Y-4.666
X5.48Y-4.766
X5.58Y-2.646
X5.58Y-2.746
X5.58Y-4.666
X5.58Y-4.766
X6.4Y-2.646
X6.4Y-2.746
X6.4Y-4.666
X6.4Y-4.766
X6.5Y-2.646
X6.5Y-2.746
X6.5Y-4.666
X6.5Y-4.766
X6.6Y-2.646
X6.6Y-2.746
X6.6Y-4.666
X6.6Y-4.766
X7.42Y-2.646
X7.42Y-2.746
X7.42Y-4.666
X7.42Y-4.766
X7.52Y-2.646
X7.52Y-2.746
X7.52Y-4.666
X7.52Y-4.766
X7.62Y-2.646
X7.62Y-2.746
X7.62Y-4.666
X7.62Y-4.766
T3
X3.04Y-3.36
X3.04Y-3.46
X3.04Y-3.56
X3.04Y-5.38
X3.04Y-5.48
X3.04Y-5.58
X3.34Y-3.86
X3.34Y-5.88
X3.44Y-3.86
X3.44Y-5.88
X3.54Y-3.86
X3.54Y-5.88
X4.06Y-3.36
X4.06Y-3.46
X4.06Y-3.56
X4.06Y-5.38
X4.06Y-5.48
X4.06Y-5.58
X4.36Y-3.86
X4.36Y-5.88
X4.46Y-3.86
X4.46Y-5.88
X4.56Y-3.86
X4.56Y-5.88
X5.08Y-3.36
X5.08Y-3.46
X5.08Y-3.56
X5.08Y-5.38
X5.08Y-5.48
X5.08Y-5.58
X5.38Y-3.86
X5.38Y-5.88
X5.48Y-3.86
X5.48Y-5.88
X5.58Y-3.86
X5.58Y-5.88
X6.1Y-3.36
X6.1Y-3.46
X6.1Y-3.56
X6.1Y-5.38
X6.1Y-5.48
X6.1Y-5.58
X6.4Y-3.86
X6.4Y-5.88
X6.5Y-3.86
X6.5Y-5.88
X6.6Y-3.86
X6.6Y-5.88
X7.12Y-3.36
X7.12Y-3.46
X7.12Y-3.56
X7.12Y-5.38
X7.12Y-5.48
X7.12Y-5.58
X7.42Y-3.86
X7.42Y-5.88
X7.52Y-3.86
X7.52Y-5.88
X7.62Y-3.86
X7.62Y-5.88
T4
X3.315Y-2.96
X3.315Y-3.16
X3.315Y-4.98
X3.315Y-5.18
X3.565Y-2.96
X3.565Y-3.16
X3.565Y-4.98
X3.565Y-5.18
X4.335Y-2.96
X4.335Y-3.16
X4.335Y-4.98
X4.335Y-5.18
X4.585Y-2.96
X4.585Y-3.16
X4.585Y-4.98
X4.585Y-5.18
X5.355Y-2.96
X5.355Y-3.16
X5.355Y-4.98
X5.355Y-5.18
X5.605Y-2.96
X5.605Y-3.16
X5.605Y-4.98
X5.605Y-5.18
X6.375Y-2.96
X6.375Y-3.16
X6.375Y-4.98
X6.375Y-5.18
X6.625Y-2.96
X6.625Y-3.16
X6.625Y-4.98
X6.625Y-5.18
X7.395Y-2.96
X7.395Y-3.16
X7.395Y-4.98
X7.395Y-5.18
X7.645Y-2.96
X7.645Y-3.16
X7.645Y-4.98
X7.645Y-5.18
T5
X3.29Y-2.03
X3.29Y-4.05
X3.39Y-2.03
X3.39Y-4.05
X3.49Y-2.03
X3.49Y-4.05
X3.59Y-2.03
X3.59Y-4.05
X4.31Y-2.03
X4.31Y-4.05
X4.41Y-2.03
X4.41Y-4.05
X4.51Y-2.03
X4.51Y-4.05
X4.61Y-2.03
X4.61Y-4.05
X5.33Y-2.03
X5.33Y-4.05
X5.43Y-2.03
X5.43Y-4.05
X5.53Y-2.03
X5.53Y-4.05
X5.63Y-2.03
X5.63Y-4.05
X6.35Y-2.03
X6.35Y-4.05
X6.45Y-2.03
X6.45Y-4.05
X6.55Y-2.03
X6.55Y-4.05
X6.65Y-2.03
X6.65Y-4.05
X7.37Y-2.03
X7.37Y-4.05
X7.47Y-2.03
X7.47Y-4.05
X7.57Y-2.03
X7.57Y-4.05
X7.67Y-2.03
X7.67Y-4.05
T6
X3.14Y-3.1975
X3.14Y-3.7225
X3.14Y-5.2175
X3.14Y-5.7425
X3.74Y-3.1975
X3.74Y-3.7225
X3.74Y-5.2175
X3.74Y-5.7425
X4.16Y-3.1975
X4.16Y-3.7225
X4.16Y-5.2175
X4.16Y-5.7425
X4.76Y-3.1975
X4.76Y-3.7225
X4.76Y-5.2175
X4.76Y-5.7425
X5.18Y-3.1975
X5.18Y-3.7225
X5.18Y-5.2175
X5.18Y-5.7425
X5.78Y-3.1975
X5.78Y-3.7225
X5.78Y-5.2175
X5.78Y-5.7425
X6.2Y-3.1975
X6.2Y-3.7225
X6.2Y-5.2175
X6.2Y-5.7425
X6.8Y-3.1975
X6.8Y-3.7225
X6.8Y-5.2175
X6.8Y-5.7425
X7.22Y-3.1975
X7.22Y-3.7225
X7.22Y-5.2175
X7.22Y-5.7425
X7.82Y-3.1975
X7.82Y-3.7225
X7.82Y-5.2175
X7.82Y-5.7425
T7
X3.04Y-2.06
X3.04Y-2.86
X3.04Y-4.08
X3.04Y-4.88
X3.84Y-2.06
X3.84Y-2.86
X3.84Y-4.08
X3.84Y-4.88
X4.06Y-2.06
X4.06Y-2.86
X4.06Y-4.08
X4.06Y-4.88
X4.86Y-2.06
X4.86Y-2.86
X4.86Y-4.08
X4.86Y-4.88
X5.08Y-2.06
X5.08Y-2.86
X5.08Y-4.08
X5.08Y-4.88
X5.88Y-2.06
X5.88Y-2.86
X5.88Y-4.08
X5.88Y-4.88
X6.1Y-2.06
X6.1Y-2.86
X6.1Y-4.08
X6.1Y-4.88
X6.9Y-2.06
X6.9Y-2.86
X6.9Y-4.08
X6.9Y-4.88
X7.12Y-2.06
X7.12Y-2.86
X7.12Y-4.08
X7.12Y-4.88
X7.92Y-2.06
X7.92Y-2.86
X7.92Y-4.08
X7.92Y-4.88
T0
M30
